<svg width="25" height="24" viewBox="0 0 25 24" fill="none" xmlns="http://www.w3.org/2000/svg">
<g clip-path="url(#clip0_84_3855)">
<g clip-path="url(#clip1_84_3855)">
<path d="M10.9355 1.32312C10.4906 0.98501 9.94414 0.808216 9.38579 0.821498H3.3344C2.68084 0.821498 2.05403 1.08113 1.59189 1.54327C1.12975 2.00541 0.870117 2.63221 0.870117 3.28579V19.7143C0.870117 20.368 1.12975 20.9947 1.59189 21.4569C2.05403 21.919 2.68083 22.1786 3.3344 22.1786H21.4058C22.0594 22.1786 22.6863 21.919 23.1484 21.4569C23.6105 20.9947 23.8701 20.368 23.8701 19.7143V6.5715C23.8701 5.91793 23.6105 5.29113 23.1484 4.82899C22.6863 4.36684 22.0594 4.10722 21.4058 4.10722H12.19L11.8369 2.69471C11.7018 2.14847 11.3835 1.66362 10.9355 1.32312Z" fill="#DCF5E4"/>
<path fill-rule="evenodd" clip-rule="evenodd" d="M16.3947 8.8715C16.9391 9.2798 17.0494 10.0521 16.6411 10.5965L11.7125 17.1679C11.3202 17.691 10.5875 17.8165 10.0434 17.4538L7.57907 15.811C7.01287 15.4335 6.85987 14.6685 7.23734 14.1023C7.61482 13.5361 8.37981 13.3831 8.94601 13.7606L10.4405 14.7569L14.6697 9.11793C15.078 8.57354 15.8503 8.4632 16.3947 8.8715Z" fill="#3FA461"/>
</g>
</g>
<defs>
<clipPath id="clip0_84_3855">
<rect width="24" height="24" fill="white" transform="translate(0.870117)"/>
</clipPath>
<clipPath id="clip1_84_3855">
<rect width="23" height="23" fill="white" transform="translate(0.870117)"/>
</clipPath>
</defs>
</svg>
