<svg xmlns="http://www.w3.org/2000/svg" width="41.003" height="40.075" viewBox="0 0 41.003 40.075">
  <g id="Group_13720" data-name="Group 13720" transform="translate(-1365.844 -1139.792)">
    <path id="Path_1479" data-name="Path 1479" d="M326.007,222.536a4.632,4.632,0,0,1,4.635,4.635v24.562a4.632,4.632,0,0,1-4.635,4.634H297.274a4.632,4.632,0,0,1-4.635-4.634V227.171a4.631,4.631,0,0,1,4.635-4.635" transform="translate(1074.705 922)" fill="none" stroke="#fff" stroke-linecap="round" stroke-linejoin="round" stroke-width="3"/>
    <path id="Path_1480" data-name="Path 1480" d="M306.31,222.536h10.66" transform="translate(1074.705 922)" fill="none" stroke="#fff" stroke-linecap="round" stroke-linejoin="round" stroke-width="3"/>
    <g id="Group_1025" data-name="Group 1025" transform="translate(1074.705 922)">
      <line id="Line_699" data-name="Line 699" y2="5.098" transform="translate(301.676 219.292)" fill="none" stroke="#fff" stroke-linecap="round" stroke-linejoin="round" stroke-width="3"/>
      <line id="Line_700" data-name="Line 700" y2="5.098" transform="translate(321.604 219.292)" fill="none" stroke="#fff" stroke-linecap="round" stroke-linejoin="round" stroke-width="3"/>
    </g>
    <path id="Path_1485" data-name="Path 1485" d="M305.706,239.216l6,6.667,6-10" transform="translate(1074.705 922)" fill="none" stroke="#fff" stroke-linecap="round" stroke-linejoin="round" stroke-width="3"/>
  </g>
</svg>
