<svg xmlns="http://www.w3.org/2000/svg" width="37.886" height="33.448" viewBox="0 0 37.886 33.448">
  <g id="Group_1369" data-name="Group 1369" transform="translate(-179.434 -631.421)">
    <path id="Path_1965" data-name="Path 1965" d="M189.586,645.852l5.17,5.168a5.116,5.116,0,0,0,7.242,0l5.17-5.168,5.17-5.172,3.482-3.484v-.6c0-.046-.012-.089-.013-.137a3.673,3.673,0,0,0-2.262-3.258,3.638,3.638,0,0,0-1.4-.277H184.606a3.646,3.646,0,0,0-1.4.277,3.67,3.67,0,0,0-2.261,3.258c0,.048-.014.091-.014.137v.6l3.482,3.484Z" fill="none" stroke="#fff" stroke-linecap="round" stroke-linejoin="round" stroke-width="3"/>
    <path id="Path_1966" data-name="Path 1966" d="M180.934,637.2v22.5a3.672,3.672,0,0,0,3.672,3.672h27.542a3.672,3.672,0,0,0,3.672-3.672V637.2" fill="none" stroke="#fff" stroke-linecap="round" stroke-linejoin="round" stroke-width="3"/>
  </g>
</svg>
