<svg xmlns="http://www.w3.org/2000/svg" width="41.994" height="35.569" viewBox="0 0 41.994 35.569">
  <g id="Group_99" data-name="Group 99" transform="translate(-630.742 -220.275)">
    <path id="Path_133" data-name="Path 133" d="M649.277,229.547v-5.228a2.546,2.546,0,0,1,2.543-2.544h16.874a2.544,2.544,0,0,1,2.542,2.544V237.65a2.542,2.542,0,0,1-2.542,2.542h-4.753l-3.683,6.379-3.684-6.379h-2.312" fill="none" stroke="#fff" stroke-linecap="round" stroke-linejoin="round" stroke-width="3"/>
    <g id="Group_98" data-name="Group 98">
      <path id="Path_134" data-name="Path 134" d="M634.785,229.547h16.872a2.544,2.544,0,0,1,2.544,2.542V245.42a2.543,2.543,0,0,1-2.544,2.543H646.9l-3.683,6.381-3.684-6.381h-4.752a2.542,2.542,0,0,1-2.543-2.543V232.089A2.543,2.543,0,0,1,634.785,229.547Z" fill="none" stroke="#fff" stroke-linecap="round" stroke-linejoin="round" stroke-width="3"/>
    </g>
  </g>
</svg>
