<svg xmlns="http://www.w3.org/2000/svg" width="40.542" height="39.07" viewBox="0 0 40.542 39.07">
  <g id="Group_13726" data-name="Group 13726" transform="translate(-1664.892 -1017.98)">
    <path id="Path_605" data-name="Path 605" d="M656.727,666.562H641.535V637.9l7.6-7.406,7.6,7.406v28.663Z" transform="translate(1036.032 388.988)" fill="none" stroke="#fff" stroke-linecap="round" stroke-linejoin="round" stroke-width="3"/>
    <path id="Path_606" data-name="Path 606" d="M657.894,666.562h7.889a2.28,2.28,0,0,0,.426-.039,2.166,2.166,0,0,0,.4-.111,2.225,2.225,0,0,0,.36-.176,2.018,2.018,0,0,0,.314-.234,1.953,1.953,0,0,0,.258-.281,1.763,1.763,0,0,0,.2-.325,1.791,1.791,0,0,0,.124-.359,1.675,1.675,0,0,0,.043-.384V644.17a1.7,1.7,0,0,0-.043-.385,1.754,1.754,0,0,0-.124-.357,1.731,1.731,0,0,0-.2-.325,1.914,1.914,0,0,0-.258-.283,2.07,2.07,0,0,0-.314-.232,2.143,2.143,0,0,0-.36-.176,2.247,2.247,0,0,0-.4-.112,2.28,2.28,0,0,0-.426-.038h-7.889" transform="translate(1036.032 388.988)" fill="none" stroke="#fff" stroke-linecap="round" stroke-linejoin="round" stroke-width="3"/>
    <path id="Path_607" data-name="Path 607" d="M640.992,642.262H632.48a2.286,2.286,0,0,0-.425.038,2.259,2.259,0,0,0-.4.112,2.17,2.17,0,0,0-.675.408,1.969,1.969,0,0,0-.258.283,1.788,1.788,0,0,0-.2.325,1.72,1.72,0,0,0-.167.742v20.483a1.731,1.731,0,0,0,.043.384,1.8,1.8,0,0,0,.124.359,1.823,1.823,0,0,0,.2.325,2.01,2.01,0,0,0,.258.281,2.117,2.117,0,0,0,.314.234,2.239,2.239,0,0,0,.361.176,2.177,2.177,0,0,0,.4.111,2.286,2.286,0,0,0,.425.039h8.512" transform="translate(1036.032 388.988)" fill="none" stroke="#fff" stroke-linecap="round" stroke-linejoin="round" stroke-width="3"/>
    <line id="Line_9994" data-name="Line 9994" y2="11" transform="translate(1685.164 1035.988)" fill="none" stroke="#fff" stroke-linecap="round" stroke-linejoin="round" stroke-width="3"/>
  </g>
</svg>
