<svg xmlns="http://www.w3.org/2000/svg" width="31.142" height="29.993" viewBox="0 0 31.142 29.993">
  <g id="Group_711" data-name="Group 711" transform="translate(-746.375 -226.229)">
    <path id="Path_983" data-name="Path 983" d="M771.448,251.257l-1.032-6.018s4.052-4.013,4.235-4.192c2.107-2.052,1.705-4.079-.774-4.792l-6.7-.974-2.912-5.9c-1.348-2.206-3.3-2.206-4.647,0l-2.91,5.9-6.7.974c-2.479.713-2.881,2.74-.774,4.792.183.179,4.235,4.192,4.235,4.192l-1.034,6.018c-.406,3.021,1.467,4.3,4.27,2.826.252-.132,5.234-2.691,5.234-2.691s4.981,2.559,5.235,2.691C769.981,255.557,771.855,254.278,771.448,251.257Z" fill="none" stroke="#fff" stroke-linecap="round" stroke-linejoin="round" stroke-width="3"/>
  </g>
</svg>
