<?xml version="1.0" encoding="utf-8"?>
<!-- Generator: Adobe Illustrator 23.0.1, SVG Export Plug-In . SVG Version: 6.00 Build 0)  -->
<svg version="1.1" id="Layer_1" xmlns="http://www.w3.org/2000/svg" xmlns:xlink="http://www.w3.org/1999/xlink" x="0px" y="0px"
	 viewBox="0 0 105 105" style="enable-background:new 0 0 105 105;" xml:space="preserve">
<style type="text/css">
	.st0{fill:none;}
	.st1{fill:none;stroke:#2DF1FD;stroke-width:3;stroke-linecap:round;stroke-linejoin:round;stroke-miterlimit:10;}
	.st2{fill:none;stroke:#2DF1FD;stroke-width:3;stroke-miterlimit:10;}
	.st3{fill:none;stroke:#444444;stroke-width:3;stroke-linejoin:round;stroke-miterlimit:10;}
	.st4{fill:none;stroke:#444444;stroke-width:3;stroke-linecap:round;stroke-linejoin:round;stroke-miterlimit:10;}
	.st5{fill:none;stroke:#444444;stroke-linejoin:round;stroke-miterlimit:10;}
	.st6{fill:none;stroke:#444444;stroke-linecap:round;stroke-linejoin:round;stroke-miterlimit:10;}
	.st7{fill:#FADF34;stroke:#FADF34;stroke-width:2;stroke-linecap:round;stroke-miterlimit:10;}
	.st8{fill:#444444;}
	.st9{fill:#FADF34;}
	.st10{fill:#2DF1FD;}
	.st11{fill:none;stroke:#000000;stroke-width:3;stroke-linecap:round;stroke-linejoin:round;stroke-miterlimit:10;}
	.st12{fill:none;stroke:#000000;stroke-width:3;stroke-linejoin:round;stroke-miterlimit:10;}
	.st13{fill:none;stroke:#444444;stroke-width:3;stroke-miterlimit:10;}
	.st14{fill:#FFFFFF;}
	.st15{fill:#4038F9;}
</style>
<g>
	<path class="st7" d="M50.5,22.1c0,0-1.4,28.2,0,37.5c0.8,5.7,6.6,21.9,6.6,21.9l-28.8-7.3c0,0,0-2.8,0-15.4
		c0-12.2-9.6-24.3-9.6-24.3L50.5,22.1z"/>
	<path class="st0" d="M3,3h99v99H3V3z"/>
	<path class="st4" d="M24.3,58.2c-0.2,0.1-0.4,0.1-0.7,0.2C20,59,16.5,56.6,15.9,53c-0.6-3.6,1.8-7.1,5.4-7.7c0.7-0.1,1.3-0.1,2,0"
		/>
	<path class="st4" d="M77.6,58.2c0.2,0.1,0.4,0.1,0.7,0.2c3.6,0.6,7.1-1.8,7.7-5.4c0.6-3.6-1.8-7.1-5.4-7.7c-0.7-0.1-1.3-0.1-2,0"/>
	<g>
		<line class="st4" x1="74.1" y1="37.1" x2="76.2" y2="40.9"/>
		<path class="st4" d="M47,26.7l8.8,22.9H45.2l-1,17.5h10c0,0-4,15.6,11.1,15.6"/>
		<path class="st4" d="M35.4,34.9c5.1,0,9.1,4.3,9.1,4.3s-4.1,4.3-9.1,4.3s-9.1-4.3-9.1-4.3S30.3,34.9,35.4,34.9z"/>
		<path class="st4" d="M74.1,37.1c0,0-3.9,3.2-8.8,3.2c-4.9,0-8.8-3.2-8.8-3.2"/>
		<line class="st4" x1="26.5" y1="37.7" x2="23.7" y2="34.7"/>
		<line class="st4" x1="29.7" y1="35.5" x2="27.7" y2="32.2"/>
		<line class="st4" x1="70.8" y1="39.3" x2="71.6" y2="42.8"/>
		<path class="st4" d="M41.2,59.7c0,0,6,2.5,13.9,0"/>
		<circle class="st8" cx="35.5" cy="39" r="2.5"/>
	</g>
</g>
</svg>
