<?xml version="1.0" encoding="UTF-8"?>
<svg xmlns="http://www.w3.org/2000/svg" viewBox="0 0 112 112">
  <defs>
    <style>
      .cls-1 {
        fill: #404044;
      }
    </style>
  </defs>
  <path class="cls-1" d="M55.45,92.93c-30.1,0-38.75-5.17-40.18-6.21l-2.06-4.05V29.33l2.06-4.04c1.43-1.04,10.08-6.21,40.18-6.21s40.03,5.41,41.01,6.03l2.33,4.23v53.34l-2.33,4.23c-.98,.62-10.44,6.03-41.01,6.03Zm-32.24-13.5c3.82,1.29,13.14,3.5,32.24,3.5s29.22-2.26,33.34-3.6V32.67c-4.12-1.34-13.96-3.6-33.34-3.6s-28.42,2.2-32.24,3.5v46.86ZM91.24,33.63h0Z"/>
  <path class="cls-1" d="M53.76,75.63l-8.15-3.88v-30.49l8.15-3.88,18.79,15.25v7.77l-18.79,15.24Zm1.85-23.88v9.5l5.85-4.75-5.85-4.75Z"/>
</svg>