<?xml version="1.0" encoding="UTF-8"?>
<svg xmlns="http://www.w3.org/2000/svg" viewBox="0 0 112 112">
  <defs>
    <style>
      .cls-1 {
        fill: #404044;
      }
    </style>
  </defs>
  <g>
    <path class="cls-1" d="M89,97.76H23l-5-5V25.44l5-5h15.58l5,5v5.9h24.83v-5.9l5-5h15.58l5,5V92.76l-5,5Zm-61-10h56V30.44h-5.58v5.9l-5,5H38.58l-5-5v-5.9h-5.58v57.32Z"/>
    <path class="cls-1" d="M73.42,41.33H38.58l-5-5V19.24l5-5h34.83l5,5v17.09l-5,5Zm-29.83-10h24.83v-7.09h-24.83v7.09Z"/>
  </g>
  <polygon class="cls-1" points="49.16 79.73 36.86 65.88 44.33 59.24 52.6 68.54 67.13 49.42 75.09 55.47 56.88 79.44 49.16 79.73"/>
</svg>