<svg id="그룹_937" data-name="그룹 937" xmlns="http://www.w3.org/2000/svg" width="34.614" height="26.23" viewBox="0 0 34.614 26.23">
  <path id="패스_863" data-name="패스 863" d="M31.085,38.625A8.495,8.495,0,1,1,22.59,30.13a8.495,8.495,0,0,1,8.495,8.495" transform="translate(-10.104 -21.598)" fill="#6aa338"/>
  <g id="그룹_934" data-name="그룹 934" transform="translate(16.819 0)">
    <path id="패스_859" data-name="패스 859" d="M60.813,58.852h6.234V56.021H62.229V52.114H59.4v5.323Z" transform="translate(-59.398 -37.357)" fill="#1f2e11"/>
    <path id="패스_860" data-name="패스 860" d="M60.813,0,59.4,1.415V7.428h2.831v-4.6H74.361V16.586h2.832V1.415L75.777,0Z" transform="translate(-59.398 0)" fill="#1f2e11"/>
    <path id="패스_861" data-name="패스 861" d="M83.338,7.6,89.493,4.24V19.677L83.338,23.04ZM81.243,5.52l-.737,1.243V25.426L82.6,26.669l8.987-4.909.737-1.243V1.854L90.23.611Z" transform="translate(-74.529 -0.438)" fill="#1f2e11"/>
  </g>
  <g id="그룹_933" data-name="그룹 933" transform="translate(0 5.616)">
    <rect id="사각형_1385" data-name="사각형 1385" width="14.965" height="2.832" transform="translate(0 4.14)" fill="#1f2e11"/>
    <path id="패스_862" data-name="패스 862" d="M34.332,30.945,32.271,29l3.406-3.613-3.406-3.613,2.06-1.942,4.322,4.584v1.942Z" transform="translate(-23.133 -19.834)" fill="#1f2e11"/>
  </g>
</svg>
