<?xml version="1.0" encoding="UTF-8"?>
<svg xmlns="http://www.w3.org/2000/svg" viewBox="0 0 112 112">
  <defs>
    <style>
      .cls-1 {
        fill: #404044;
      }
    </style>
  </defs>
  <path class="cls-1" d="M53.2,92.58c-15.95-10.76-35.58-4.08-35.77-4.01l-6.66-4.71V27.48l3.07-4.61c18.05-7.54,35.74-.79,42.16,2.26,6.42-3.04,24.11-9.79,42.16-2.26l3.07,4.61v56.37l-6.68,4.71c-.18-.06-19.81-6.75-35.76,4.02h-5.59Zm-21.43-16.17c7.27,0,15.92,1.39,24.22,6.14,13.16-7.53,27.2-6.61,35.23-5.11V30.98c-16.49-5.05-32.57,3.99-32.74,4.08h-4.99s0,0,0,0c-.17-.1-16.25-9.13-32.74-4.08v46.46c2.97-.55,6.75-1.03,11.01-1.03Z"/>
  <rect class="cls-1" x="51" y="26.79" width="10" height="61.35"/>
</svg>