<?xml version="1.0" encoding="UTF-8"?>
<svg xmlns="http://www.w3.org/2000/svg" viewBox="0 0 112 112">
  <defs>
    <style>
      .cls-1 {
        fill: #404044;
      }
    </style>
  </defs>
  <polygon class="cls-1" points="54.11 90.94 76.12 90.94 76.12 80.94 59.11 80.94 59.11 67.14 49.11 67.14 49.11 85.94 54.11 90.94"/>
  <polygon class="cls-1" points="101.95 73.6 111.95 73.6 111.95 20.03 106.95 15.03 54.11 15.03 49.11 20.03 49.11 41.26 59.11 41.26 59.11 25.03 101.95 25.03 101.95 73.6"/>
  <path class="cls-1" d="M70.22,103.28V37.37s2.6-4.39,2.6-4.39l31.74-17.34,7.4,4.39V85.94s-2.6,4.39-2.6,4.39l-31.74,17.34-7.4-4.39ZM101.95,28.46l-21.74,11.87v54.52s21.74-11.87,21.74-11.87V28.46Z"/>
  <g>
    <rect class="cls-1" x=".04" y="49.48" width="42.52" height="10"/>
    <polygon class="cls-1" points="29.26 74.1 21.98 67.24 34.01 54.48 21.98 41.72 29.26 34.86 44.52 51.05 44.52 57.91 29.26 74.1"/>
  </g>
</svg>