<svg width="32" height="32" viewBox="0 0 32 32" fill="none" xmlns="http://www.w3.org/2000/svg">
<path d="M15.9978 29.9978C25.3322 29.9978 29.9967 23.7303 29.9967 15.9989C29.9967 8.26751 25.3322 2 15.9978 2C6.66334 2 1.9989 8.26751 1.9989 15.9989C1.9989 23.7303 6.66334 29.9978 15.9978 29.9978Z" fill="url(#paint0_radial_6813_5229)"/>
<path d="M15.9978 29.9978C25.3322 29.9978 29.9967 23.7303 29.9967 15.9989C29.9967 8.26751 25.3322 2 15.9978 2C6.66334 2 1.9989 8.26751 1.9989 15.9989C1.9989 23.7303 6.66334 29.9978 15.9978 29.9978Z" fill="url(#paint1_radial_6813_5229)"/>
<path d="M15.9978 29.9978C25.3322 29.9978 29.9967 23.7303 29.9967 15.9989C29.9967 8.26751 25.3322 2 15.9978 2C6.66334 2 1.9989 8.26751 1.9989 15.9989C1.9989 23.7303 6.66334 29.9978 15.9978 29.9978Z" fill="url(#paint2_radial_6813_5229)" fill-opacity="0.6"/>
<path d="M15.9978 29.9978C25.3322 29.9978 29.9967 23.7303 29.9967 15.9989C29.9967 8.26751 25.3322 2 15.9978 2C6.66334 2 1.9989 8.26751 1.9989 15.9989C1.9989 23.7303 6.66334 29.9978 15.9978 29.9978Z" fill="url(#paint3_radial_6813_5229)"/>
<path d="M15.9978 29.9978C25.3322 29.9978 29.9967 23.7303 29.9967 15.9989C29.9967 8.26751 25.3322 2 15.9978 2C6.66334 2 1.9989 8.26751 1.9989 15.9989C1.9989 23.7303 6.66334 29.9978 15.9978 29.9978Z" fill="url(#paint4_radial_6813_5229)"/>
<path d="M15.9978 29.9978C25.3322 29.9978 29.9967 23.7303 29.9967 15.9989C29.9967 8.26751 25.3322 2 15.9978 2C6.66334 2 1.9989 8.26751 1.9989 15.9989C1.9989 23.7303 6.66334 29.9978 15.9978 29.9978Z" fill="url(#paint5_radial_6813_5229)"/>
<path d="M15.9978 29.9978C25.3322 29.9978 29.9967 23.7303 29.9967 15.9989C29.9967 8.26751 25.3322 2 15.9978 2C6.66334 2 1.9989 8.26751 1.9989 15.9989C1.9989 23.7303 6.66334 29.9978 15.9978 29.9978Z" fill="url(#paint6_radial_6813_5229)"/>
<path d="M15.9978 29.9978C25.3322 29.9978 29.9967 23.7303 29.9967 15.9989C29.9967 8.26751 25.3322 2 15.9978 2C6.66334 2 1.9989 8.26751 1.9989 15.9989C1.9989 23.7303 6.66334 29.9978 15.9978 29.9978Z" fill="url(#paint7_radial_6813_5229)"/>
<path d="M15.9978 29.9978C25.3322 29.9978 29.9967 23.7303 29.9967 15.9989C29.9967 8.26751 25.3322 2 15.9978 2C6.66334 2 1.9989 8.26751 1.9989 15.9989C1.9989 23.7303 6.66334 29.9978 15.9978 29.9978Z" fill="url(#paint8_radial_6813_5229)"/>
<path fill-rule="evenodd" clip-rule="evenodd" d="M12.1403 18.4182C12.142 18.4205 12.1437 18.4228 12.1453 18.4252L12.1437 18.4229L12.142 18.4205L12.1403 18.4182C11.8217 17.9725 11.2027 17.8659 10.7531 18.181C10.3008 18.498 10.1911 19.1216 10.5081 19.5739L10.5162 19.5681C10.5161 19.5679 10.5164 19.5683 10.5162 19.5681C10.5081 19.5739 10.5086 19.5747 10.5087 19.5748L10.5094 19.5757L10.5108 19.5777L10.5141 19.5824L10.5223 19.5938C10.5286 19.6024 10.5363 19.6129 10.5456 19.6251C10.5641 19.6496 10.5886 19.6812 10.6194 19.7189C10.6809 19.7941 10.7676 19.894 10.8805 20.0099C11.106 20.2416 11.4383 20.5399 11.8865 20.8351C12.7901 21.4302 14.1467 22 15.9989 22C17.851 22 19.2077 21.4302 20.1112 20.8351C20.5594 20.5399 20.8918 20.2416 21.1173 20.0099C21.2301 19.894 21.3168 19.7941 21.3783 19.7189C21.4091 19.6812 21.4337 19.6496 21.4522 19.6251C21.4614 19.6129 21.4692 19.6024 21.4754 19.5938L21.4836 19.5824L21.4869 19.5777L21.4884 19.5757L21.489 19.5748C21.4891 19.5747 21.4891 19.5746 21.4854 19.5719C21.4853 19.5721 21.4856 19.5717 21.4854 19.5719L21.4897 19.5739C21.8066 19.1216 21.6969 18.498 21.2446 18.181C20.795 17.8659 20.176 17.9725 19.8574 18.4182C19.8571 18.4186 19.8567 18.4191 19.8562 18.4197C19.8526 18.4245 19.8439 18.4359 19.8299 18.4529C19.8021 18.4871 19.7537 18.5435 19.684 18.615C19.5445 18.7583 19.3221 18.96 19.0111 19.1648C18.3963 19.5698 17.417 20 15.9989 20C14.5807 20 13.6014 19.5698 12.9866 19.1648C12.6756 18.96 12.4532 18.7583 12.3137 18.615C12.2441 18.5435 12.1957 18.4871 12.1678 18.4529C12.1539 18.4359 12.1456 18.4253 12.142 18.4205L12.1403 18.4182ZM19.8574 18.4182C19.8557 18.4205 19.8541 18.4229 19.8524 18.4252L19.854 18.4229L19.8562 18.4197C19.8567 18.4191 19.8571 18.4186 19.8574 18.4182C19.8582 18.4171 19.8579 18.4174 19.8574 18.4182Z" fill="url(#paint9_radial_6813_5229)"/>
<path fill-rule="evenodd" clip-rule="evenodd" d="M12.7959 5.66639C13.3479 5.88633 13.822 6.22517 14.1965 6.6523C14.4419 6.93216 14.7887 7.11938 15.1606 7.10432C15.6658 7.08386 16.2301 7.08081 16.8302 7.1074C17.204 7.12396 17.5531 6.93601 17.7995 6.65451C18.1743 6.22634 18.6491 5.88671 19.2019 5.66639C19.403 5.58047 19.7503 5.45188 20.6111 5.29138C21.1318 5.1943 22.3707 5.14099 23.2069 5.12201C24.07 5.10242 24.9981 5.10316 25.6921 5.10371L26.0066 5.10389C27.196 5.10389 28.3694 5.47968 28.8348 5.76014C29.8816 6.29139 30.8504 7.30701 30.9199 9.05473C30.9227 9.08087 30.9246 9.10722 30.9254 9.13372C31.0079 11.8221 29.3385 15.6671 25.0824 16.7208C24.7832 16.7948 24.4892 16.8487 24.1943 16.8893C24.18 16.8913 24.1656 16.8929 24.1512 16.8943C19.8453 17.2978 17.002 13.659 16.8614 9.70014C16.8498 9.37332 16.5989 9.09664 16.2719 9.09093C16.0853 9.08767 15.904 9.08744 15.7292 9.0897C15.4009 9.09393 15.1483 9.37144 15.1367 9.69957C14.9978 13.6586 12.1517 17.2977 7.84672 16.8943C7.83231 16.8929 7.81794 16.8913 7.8036 16.8893C7.5087 16.8487 7.21466 16.7948 6.91551 16.7208C2.65942 15.6671 0.990014 11.8221 1.07248 9.13372C1.07329 9.10722 1.07515 9.08087 1.07804 9.05473C1.14751 7.30701 2.11626 6.29139 3.16314 5.76014C3.62846 5.47968 4.80188 5.10389 5.99126 5.10389L6.30582 5.10371C6.99977 5.10316 7.92786 5.10242 8.79097 5.12201C9.62723 5.14099 10.866 5.1943 11.3867 5.29138C12.2476 5.45188 12.5949 5.58047 12.7959 5.66639ZM2.48946 8.16506C2.73935 7.55643 3.20319 7.05906 3.82764 6.6827C4.17876 6.47107 5.02691 6.10389 5.99126 6.10389L6.302 6.10372C7.69465 6.10261 9.97639 6.10078 10.8311 6.26014C11.6596 6.4146 11.9275 6.52706 12.042 6.57654C12.5115 6.76132 12.9209 7.06554 13.2329 7.45175L13.5746 9.2663C13.6562 9.25095 13.7565 9.23462 13.8736 9.21831C13.8739 9.23482 13.8741 9.25137 13.8741 9.26795L13.8739 9.29915C14.0536 13.5101 10.8467 16.0481 7.84673 15.7668C7.58152 15.7303 7.32261 15.6826 7.06248 15.6182C3.9022 14.8358 2.57541 12.3461 2.32299 10.1426C2.28412 9.80332 2.27072 9.47079 2.28004 9.15233L2.28031 9.14339L2.28232 9.14346L2.28269 9.13372C2.29661 8.78513 2.36759 8.46187 2.48946 8.16506ZM18.1241 9.22468C18.1239 9.23908 18.1238 9.2535 18.1238 9.26795L18.124 9.29915C17.9443 13.5101 21.1512 16.0481 24.1512 15.7668C24.4164 15.7303 24.6753 15.6826 24.9354 15.6182C28.0957 14.8358 29.4225 12.3461 29.6749 10.1426C29.7138 9.80332 29.7272 9.47079 29.7179 9.15233L29.7176 9.14339L29.7156 9.14346L29.7152 9.13372C29.7013 8.78513 29.6303 8.46187 29.5084 8.16506C29.2585 7.55643 28.7947 7.05906 28.1703 6.6827C27.8191 6.47107 26.971 6.10389 26.0066 6.10389L25.6959 6.10372C24.3032 6.10261 22.0215 6.10078 21.1668 6.26014C20.3383 6.4146 20.0704 6.52706 19.9559 6.57654C19.4684 6.76839 19.0457 7.08898 18.7296 7.49642L18.456 9.27191C18.345 9.2548 18.2343 9.23908 18.1241 9.22468Z" fill="url(#paint10_radial_6813_5229)"/>
<path fill-rule="evenodd" clip-rule="evenodd" d="M12.7959 5.66639C13.3479 5.88633 13.822 6.22517 14.1965 6.6523C14.4419 6.93216 14.7887 7.11938 15.1606 7.10432C15.6658 7.08386 16.2301 7.08081 16.8302 7.1074C17.204 7.12396 17.5531 6.93601 17.7995 6.65451C18.1743 6.22634 18.6491 5.88671 19.2019 5.66639C19.403 5.58047 19.7503 5.45188 20.6111 5.29138C21.1318 5.1943 22.3707 5.14099 23.2069 5.12201C24.07 5.10242 24.9981 5.10316 25.6921 5.10371L26.0066 5.10389C27.196 5.10389 28.3694 5.47968 28.8348 5.76014C29.8816 6.29139 30.8504 7.30701 30.9199 9.05473C30.9227 9.08087 30.9246 9.10722 30.9254 9.13372C31.0079 11.8221 29.3385 15.6671 25.0824 16.7208C24.7832 16.7948 24.4892 16.8487 24.1943 16.8893C24.18 16.8913 24.1656 16.8929 24.1512 16.8943C19.8453 17.2978 17.002 13.659 16.8614 9.70014C16.8498 9.37332 16.5989 9.09664 16.2719 9.09093C16.0853 9.08767 15.904 9.08744 15.7292 9.0897C15.4009 9.09393 15.1483 9.37144 15.1367 9.69957C14.9978 13.6586 12.1517 17.2977 7.84672 16.8943C7.83231 16.8929 7.81794 16.8913 7.8036 16.8893C7.5087 16.8487 7.21466 16.7948 6.91551 16.7208C2.65942 15.6671 0.990014 11.8221 1.07248 9.13372C1.07329 9.10722 1.07515 9.08087 1.07804 9.05473C1.14751 7.30701 2.11626 6.29139 3.16314 5.76014C3.62846 5.47968 4.80188 5.10389 5.99126 5.10389L6.30582 5.10371C6.99977 5.10316 7.92786 5.10242 8.79097 5.12201C9.62723 5.14099 10.866 5.1943 11.3867 5.29138C12.2476 5.45188 12.5949 5.58047 12.7959 5.66639ZM2.48946 8.16506C2.73935 7.55643 3.20319 7.05906 3.82764 6.6827C4.17876 6.47107 5.02691 6.10389 5.99126 6.10389L6.302 6.10372C7.69465 6.10261 9.97639 6.10078 10.8311 6.26014C11.6596 6.4146 11.9275 6.52706 12.042 6.57654C12.5115 6.76132 12.9209 7.06554 13.2329 7.45175L13.5746 9.2663C13.6562 9.25095 13.7565 9.23462 13.8736 9.21831C13.8739 9.23482 13.8741 9.25137 13.8741 9.26795L13.8739 9.29915C14.0536 13.5101 10.8467 16.0481 7.84673 15.7668C7.58152 15.7303 7.32261 15.6826 7.06248 15.6182C3.9022 14.8358 2.57541 12.3461 2.32299 10.1426C2.28412 9.80332 2.27072 9.47079 2.28004 9.15233L2.28031 9.14339L2.28232 9.14346L2.28269 9.13372C2.29661 8.78513 2.36759 8.46187 2.48946 8.16506ZM18.1241 9.22468C18.1239 9.23908 18.1238 9.2535 18.1238 9.26795L18.124 9.29915C17.9443 13.5101 21.1512 16.0481 24.1512 15.7668C24.4164 15.7303 24.6753 15.6826 24.9354 15.6182C28.0957 14.8358 29.4225 12.3461 29.6749 10.1426C29.7138 9.80332 29.7272 9.47079 29.7179 9.15233L29.7176 9.14339L29.7156 9.14346L29.7152 9.13372C29.7013 8.78513 29.6303 8.46187 29.5084 8.16506C29.2585 7.55643 28.7947 7.05906 28.1703 6.6827C27.8191 6.47107 26.971 6.10389 26.0066 6.10389L25.6959 6.10372C24.3032 6.10261 22.0215 6.10078 21.1668 6.26014C20.3383 6.4146 20.0704 6.52706 19.9559 6.57654C19.4684 6.76839 19.0457 7.08898 18.7296 7.49642L18.456 9.27191C18.345 9.2548 18.2343 9.23908 18.1241 9.22468Z" fill="url(#paint11_radial_6813_5229)"/>
<path fill-rule="evenodd" clip-rule="evenodd" d="M12.7959 5.66639C13.3479 5.88633 13.822 6.22517 14.1965 6.6523C14.4419 6.93216 14.7887 7.11938 15.1606 7.10432C15.6658 7.08386 16.2301 7.08081 16.8302 7.1074C17.204 7.12396 17.5531 6.93601 17.7995 6.65451C18.1743 6.22634 18.6491 5.88671 19.2019 5.66639C19.403 5.58047 19.7503 5.45188 20.6111 5.29138C21.1318 5.1943 22.3707 5.14099 23.2069 5.12201C24.07 5.10242 24.9981 5.10316 25.6921 5.10371L26.0066 5.10389C27.196 5.10389 28.3694 5.47968 28.8348 5.76014C29.8816 6.29139 30.8504 7.30701 30.9199 9.05473C30.9227 9.08087 30.9246 9.10722 30.9254 9.13372C31.0079 11.8221 29.3385 15.6671 25.0824 16.7208C24.7832 16.7948 24.4892 16.8487 24.1943 16.8893C24.18 16.8913 24.1656 16.8929 24.1512 16.8943C19.8453 17.2978 17.002 13.659 16.8614 9.70014C16.8498 9.37332 16.5989 9.09664 16.2719 9.09093C16.0853 9.08767 15.904 9.08744 15.7292 9.0897C15.4009 9.09393 15.1483 9.37144 15.1367 9.69957C14.9978 13.6586 12.1517 17.2977 7.84672 16.8943C7.83231 16.8929 7.81794 16.8913 7.8036 16.8893C7.5087 16.8487 7.21466 16.7948 6.91551 16.7208C2.65942 15.6671 0.990014 11.8221 1.07248 9.13372C1.07329 9.10722 1.07515 9.08087 1.07804 9.05473C1.14751 7.30701 2.11626 6.29139 3.16314 5.76014C3.62846 5.47968 4.80188 5.10389 5.99126 5.10389L6.30582 5.10371C6.99977 5.10316 7.92786 5.10242 8.79097 5.12201C9.62723 5.14099 10.866 5.1943 11.3867 5.29138C12.2476 5.45188 12.5949 5.58047 12.7959 5.66639ZM2.48946 8.16506C2.73935 7.55643 3.20319 7.05906 3.82764 6.6827C4.17876 6.47107 5.02691 6.10389 5.99126 6.10389L6.302 6.10372C7.69465 6.10261 9.97639 6.10078 10.8311 6.26014C11.6596 6.4146 11.9275 6.52706 12.042 6.57654C12.5115 6.76132 12.9209 7.06554 13.2329 7.45175L13.5746 9.2663C13.6562 9.25095 13.7565 9.23462 13.8736 9.21831C13.8739 9.23482 13.8741 9.25137 13.8741 9.26795L13.8739 9.29915C14.0536 13.5101 10.8467 16.0481 7.84673 15.7668C7.58152 15.7303 7.32261 15.6826 7.06248 15.6182C3.9022 14.8358 2.57541 12.3461 2.32299 10.1426C2.28412 9.80332 2.27072 9.47079 2.28004 9.15233L2.28031 9.14339L2.28232 9.14346L2.28269 9.13372C2.29661 8.78513 2.36759 8.46187 2.48946 8.16506ZM18.1241 9.22468C18.1239 9.23908 18.1238 9.2535 18.1238 9.26795L18.124 9.29915C17.9443 13.5101 21.1512 16.0481 24.1512 15.7668C24.4164 15.7303 24.6753 15.6826 24.9354 15.6182C28.0957 14.8358 29.4225 12.3461 29.6749 10.1426C29.7138 9.80332 29.7272 9.47079 29.7179 9.15233L29.7176 9.14339L29.7156 9.14346L29.7152 9.13372C29.7013 8.78513 29.6303 8.46187 29.5084 8.16506C29.2585 7.55643 28.7947 7.05906 28.1703 6.6827C27.8191 6.47107 26.971 6.10389 26.0066 6.10389L25.6959 6.10372C24.3032 6.10261 22.0215 6.10078 21.1668 6.26014C20.3383 6.4146 20.0704 6.52706 19.9559 6.57654C19.4684 6.76839 19.0457 7.08898 18.7296 7.49642L18.456 9.27191C18.345 9.2548 18.2343 9.23908 18.1241 9.22468Z" fill="url(#paint12_radial_6813_5229)"/>
<path d="M3.82766 6.6827C4.17878 6.47107 5.02694 6.10389 5.99128 6.10389C6.08862 6.10389 6.19258 6.1038 6.30203 6.10372C7.69467 6.1026 9.97642 6.10078 10.8311 6.26013C11.6596 6.41459 11.9275 6.52706 12.0421 6.57654C13.1151 6.99884 13.8741 8.045 13.8741 9.26795L13.8739 9.29915C14.0536 13.5101 10.8468 16.0481 7.84675 15.7668C7.58154 15.7303 7.32263 15.6826 7.06251 15.6182C3.41076 14.7142 2.20711 11.5304 2.28034 9.14295L2.28235 9.14346C2.32168 8.07536 2.89586 7.24431 3.82766 6.6827Z" fill="url(#paint13_radial_6813_5229)"/>
<path d="M3.82766 6.6827C4.17878 6.47107 5.02694 6.10389 5.99128 6.10389C6.08862 6.10389 6.19258 6.1038 6.30203 6.10372C7.69467 6.1026 9.97642 6.10078 10.8311 6.26013C11.6596 6.41459 11.9275 6.52706 12.0421 6.57654C13.1151 6.99884 13.8741 8.045 13.8741 9.26795L13.8739 9.29915C14.0536 13.5101 10.8468 16.0481 7.84675 15.7668C7.58154 15.7303 7.32263 15.6826 7.06251 15.6182C3.41076 14.7142 2.20711 11.5304 2.28034 9.14295L2.28235 9.14346C2.32168 8.07536 2.89586 7.24431 3.82766 6.6827Z" fill="url(#paint14_radial_6813_5229)"/>
<path d="M3.82766 6.6827C4.17878 6.47107 5.02694 6.10389 5.99128 6.10389C6.08862 6.10389 6.19258 6.1038 6.30203 6.10372C7.69467 6.1026 9.97642 6.10078 10.8311 6.26013C11.6596 6.41459 11.9275 6.52706 12.0421 6.57654C13.1151 6.99884 13.8741 8.045 13.8741 9.26795L13.8739 9.29915C14.0536 13.5101 10.8468 16.0481 7.84675 15.7668C7.58154 15.7303 7.32263 15.6826 7.06251 15.6182C3.41076 14.7142 2.20711 11.5304 2.28034 9.14295L2.28235 9.14346C2.32168 8.07536 2.89586 7.24431 3.82766 6.6827Z" fill="url(#paint15_radial_6813_5229)"/>
<path d="M3.82766 6.6827C4.17878 6.47107 5.02694 6.10389 5.99128 6.10389C6.08862 6.10389 6.19258 6.1038 6.30203 6.10372C7.69467 6.1026 9.97642 6.10078 10.8311 6.26013C11.6596 6.41459 11.9275 6.52706 12.0421 6.57654C13.1151 6.99884 13.8741 8.045 13.8741 9.26795L13.8739 9.29915C14.0536 13.5101 10.8468 16.0481 7.84675 15.7668C7.58154 15.7303 7.32263 15.6826 7.06251 15.6182C3.41076 14.7142 2.20711 11.5304 2.28034 9.14295L2.28235 9.14346C2.32168 8.07536 2.89586 7.24431 3.82766 6.6827Z" fill="url(#paint16_radial_6813_5229)"/>
<ellipse cx="11.1381" cy="9.14283" rx="1.49418" ry="1.8791" transform="rotate(-25.8832 11.1381 9.14283)" fill="url(#paint17_linear_6813_5229)"/>
<path d="M28.1703 6.6827C27.8191 6.47107 26.971 6.10389 26.0066 6.10389C25.9093 6.10389 25.8053 6.1038 25.6959 6.10372C24.3032 6.1026 22.0215 6.10078 21.1668 6.26013C20.3383 6.41459 20.0704 6.52706 19.9559 6.57654C18.8828 6.99884 18.1238 8.045 18.1238 9.26795L18.124 9.29915C17.9443 13.5101 21.1512 16.0481 24.1512 15.7668C24.4164 15.7303 24.6753 15.6826 24.9354 15.6182C28.5872 14.7142 29.7908 11.5304 29.7176 9.14295L29.7156 9.14346C29.6762 8.07536 29.1021 7.24431 28.1703 6.6827Z" fill="url(#paint18_radial_6813_5229)"/>
<path d="M28.1703 6.6827C27.8191 6.47107 26.971 6.10389 26.0066 6.10389C25.9093 6.10389 25.8053 6.1038 25.6959 6.10372C24.3032 6.1026 22.0215 6.10078 21.1668 6.26013C20.3383 6.41459 20.0704 6.52706 19.9559 6.57654C18.8828 6.99884 18.1238 8.045 18.1238 9.26795L18.124 9.29915C17.9443 13.5101 21.1512 16.0481 24.1512 15.7668C24.4164 15.7303 24.6753 15.6826 24.9354 15.6182C28.5872 14.7142 29.7908 11.5304 29.7176 9.14295L29.7156 9.14346C29.6762 8.07536 29.1021 7.24431 28.1703 6.6827Z" fill="url(#paint19_radial_6813_5229)"/>
<path d="M28.1703 6.6827C27.8191 6.47107 26.971 6.10389 26.0066 6.10389C25.9093 6.10389 25.8053 6.1038 25.6959 6.10372C24.3032 6.1026 22.0215 6.10078 21.1668 6.26013C20.3383 6.41459 20.0704 6.52706 19.9559 6.57654C18.8828 6.99884 18.1238 8.045 18.1238 9.26795L18.124 9.29915C17.9443 13.5101 21.1512 16.0481 24.1512 15.7668C24.4164 15.7303 24.6753 15.6826 24.9354 15.6182C28.5872 14.7142 29.7908 11.5304 29.7176 9.14295L29.7156 9.14346C29.6762 8.07536 29.1021 7.24431 28.1703 6.6827Z" fill="url(#paint20_radial_6813_5229)"/>
<path d="M28.1703 6.6827C27.8191 6.47107 26.971 6.10389 26.0066 6.10389C25.9093 6.10389 25.8053 6.1038 25.6959 6.10372C24.3032 6.1026 22.0215 6.10078 21.1668 6.26013C20.3383 6.41459 20.0704 6.52706 19.9559 6.57654C18.8828 6.99884 18.1238 8.045 18.1238 9.26795L18.124 9.29915C17.9443 13.5101 21.1512 16.0481 24.1512 15.7668C24.4164 15.7303 24.6753 15.6826 24.9354 15.6182C28.5872 14.7142 29.7908 11.5304 29.7176 9.14295L29.7156 9.14346C29.6762 8.07536 29.1021 7.24431 28.1703 6.6827Z" fill="url(#paint21_radial_6813_5229)"/>
<ellipse cx="27.1723" cy="9.14283" rx="1.49418" ry="1.8791" transform="rotate(-25.8832 27.1723 9.14283)" fill="url(#paint22_linear_6813_5229)"/>
<defs>
<radialGradient id="paint0_radial_6813_5229" cx="0" cy="0" r="1" gradientUnits="userSpaceOnUse" gradientTransform="translate(25.4989 9) rotate(131.878) scale(38.9487)">
<stop stop-color="#FFF478"/>
<stop offset="0.474827" stop-color="#FFB02E"/>
<stop offset="1" stop-color="#F70A8D"/>
</radialGradient>
<radialGradient id="paint1_radial_6813_5229" cx="0" cy="0" r="1" gradientUnits="userSpaceOnUse" gradientTransform="translate(15.9989 12.5) rotate(101.31) scale(17.8466 22.8581)">
<stop offset="0.787821" stop-color="#F59639" stop-opacity="0"/>
<stop offset="0.972509" stop-color="#FF7DCE"/>
</radialGradient>
<radialGradient id="paint2_radial_6813_5229" cx="0" cy="0" r="1" gradientUnits="userSpaceOnUse" gradientTransform="translate(17.9989 14) rotate(135) scale(41.0122)">
<stop offset="0.314853" stop-opacity="0"/>
<stop offset="1"/>
</radialGradient>
<radialGradient id="paint3_radial_6813_5229" cx="0" cy="0" r="1" gradientUnits="userSpaceOnUse" gradientTransform="translate(15.9989 17) rotate(77.692) scale(28.1469)">
<stop offset="0.507903" stop-color="#7D6133" stop-opacity="0"/>
<stop offset="1" stop-color="#715B32"/>
</radialGradient>
<radialGradient id="paint4_radial_6813_5229" cx="0" cy="0" r="1" gradientUnits="userSpaceOnUse" gradientTransform="translate(16.4989 16.5) rotate(55.7131) scale(13.3135 9.65032)">
<stop stop-color="#FFB849"/>
<stop offset="1" stop-color="#FFB847" stop-opacity="0"/>
</radialGradient>
<radialGradient id="paint5_radial_6813_5229" cx="0" cy="0" r="1" gradientUnits="userSpaceOnUse" gradientTransform="translate(20.4989 18) rotate(9.86581) scale(11.6726)">
<stop stop-color="#FFA64B"/>
<stop offset="0.900412" stop-color="#FFAE46" stop-opacity="0"/>
</radialGradient>
<radialGradient id="paint6_radial_6813_5229" cx="0" cy="0" r="1" gradientUnits="userSpaceOnUse" gradientTransform="translate(17.4989 15) rotate(43.9708) scale(59.0529)">
<stop offset="0.185425" stop-opacity="0"/>
<stop offset="1" stop-opacity="0.4"/>
</radialGradient>
<radialGradient id="paint7_radial_6813_5229" cx="0" cy="0" r="1" gradientUnits="userSpaceOnUse" gradientTransform="translate(21.7579 11.7809) rotate(124.346) scale(6.28715 7.7239)">
<stop offset="0.440361" stop-color="#BC6533"/>
<stop offset="1" stop-color="#BC6533" stop-opacity="0"/>
</radialGradient>
<radialGradient id="paint8_radial_6813_5229" cx="0" cy="0" r="1" gradientUnits="userSpaceOnUse" gradientTransform="translate(7.55465 11.4418) rotate(67.4259) scale(7.39363)">
<stop offset="0.538073" stop-color="#BC6533"/>
<stop offset="1" stop-color="#BC6533" stop-opacity="0"/>
</radialGradient>
<radialGradient id="paint9_radial_6813_5229" cx="0" cy="0" r="1" gradientUnits="userSpaceOnUse" gradientTransform="translate(15.9989 17.8147) rotate(90) scale(10.9375 16.8684)">
<stop offset="0.145833" stop-color="#2E1529"/>
<stop offset="0.276042" stop-color="#503A4A"/>
<stop offset="0.342857" stop-color="#4B2744"/>
</radialGradient>
<radialGradient id="paint10_radial_6813_5229" cx="0" cy="0" r="1" gradientUnits="userSpaceOnUse" gradientTransform="translate(21.1238 5.75232) rotate(78.8614) scale(12.2941 25.4762)">
<stop stop-color="#5F5B9B"/>
<stop offset="1" stop-color="#5C3085"/>
</radialGradient>
<radialGradient id="paint11_radial_6813_5229" cx="0" cy="0" r="1" gradientUnits="userSpaceOnUse" gradientTransform="translate(23.8896 11.0135) rotate(78.0636) scale(5.51431 6.19479)">
<stop offset="0.776042" stop-color="#77579C"/>
<stop offset="0.9375" stop-color="#77579C" stop-opacity="0"/>
</radialGradient>
<radialGradient id="paint12_radial_6813_5229" cx="0" cy="0" r="1" gradientUnits="userSpaceOnUse" gradientTransform="translate(21.8738 10.0023) rotate(-122.735) scale(4.68093 3.43606)">
<stop offset="0.769354" stop-color="#4E3D92"/>
<stop offset="1" stop-color="#534687" stop-opacity="0"/>
</radialGradient>
<radialGradient id="paint13_radial_6813_5229" cx="0" cy="0" r="1" gradientUnits="userSpaceOnUse" gradientTransform="translate(10.6865 9.06482) rotate(121.845) scale(5.92276 6.72838)">
<stop stop-color="#4C3D70"/>
<stop offset="1" stop-color="#361C5D"/>
</radialGradient>
<radialGradient id="paint14_radial_6813_5229" cx="0" cy="0" r="1" gradientUnits="userSpaceOnUse" gradientTransform="translate(9.46785 9.22107) rotate(87.1376) scale(7.50937 11.1509)">
<stop offset="0.647365" stop-color="#5B2B84" stop-opacity="0"/>
<stop offset="1" stop-color="#5B2B84"/>
</radialGradient>
<radialGradient id="paint15_radial_6813_5229" cx="0" cy="0" r="1" gradientUnits="userSpaceOnUse" gradientTransform="translate(7.78035 16.7836) rotate(-99.5134) scale(11.5336 11.4216)">
<stop offset="0.858612" stop-color="#2E1D57" stop-opacity="0"/>
<stop offset="1" stop-color="#20143D"/>
</radialGradient>
<radialGradient id="paint16_radial_6813_5229" cx="0" cy="0" r="1" gradientUnits="userSpaceOnUse" gradientTransform="translate(8.7491 8.47107) rotate(102.225) scale(7.67402 7.20221)">
<stop offset="0.872281" stop-color="#2E1D57" stop-opacity="0"/>
<stop offset="1" stop-color="#20143D" stop-opacity="0.6"/>
</radialGradient>
<linearGradient id="paint17_linear_6813_5229" x1="11.7919" y1="7.79538" x2="10.3984" y2="10.9574" gradientUnits="userSpaceOnUse">
<stop stop-color="white"/>
<stop offset="0.973958" stop-color="white" stop-opacity="0"/>
</linearGradient>
<radialGradient id="paint18_radial_6813_5229" cx="0" cy="0" r="1" gradientUnits="userSpaceOnUse" gradientTransform="translate(24.6552 8.65857) rotate(121.289) scale(6.61888 9.94211)">
<stop stop-color="#4C3D70"/>
<stop offset="1" stop-color="#361C5D"/>
</radialGradient>
<radialGradient id="paint19_radial_6813_5229" cx="0" cy="0" r="1" gradientUnits="userSpaceOnUse" gradientTransform="translate(22.5301 9.22107) rotate(92.8624) scale(7.50937 11.1509)">
<stop offset="0.647365" stop-color="#5B2B84" stop-opacity="0"/>
<stop offset="1" stop-color="#5B2B84"/>
</radialGradient>
<radialGradient id="paint20_radial_6813_5229" cx="0" cy="0" r="1" gradientUnits="userSpaceOnUse" gradientTransform="translate(23.9187 15.4398) rotate(-77.6023) scale(10.2708 10.171)">
<stop offset="0.858612" stop-color="#2E1D57" stop-opacity="0"/>
<stop offset="1" stop-color="#20143D"/>
</radialGradient>
<radialGradient id="paint21_radial_6813_5229" cx="0" cy="0" r="1" gradientUnits="userSpaceOnUse" gradientTransform="translate(23.2488 8.47107) rotate(77.7749) scale(7.67402 7.20221)">
<stop offset="0.872281" stop-color="#2E1D57" stop-opacity="0"/>
<stop offset="1" stop-color="#20143D" stop-opacity="0.6"/>
</radialGradient>
<linearGradient id="paint22_linear_6813_5229" x1="27.8261" y1="7.79538" x2="26.4326" y2="10.9574" gradientUnits="userSpaceOnUse">
<stop stop-color="white"/>
<stop offset="0.973958" stop-color="white" stop-opacity="0"/>
</linearGradient>
</defs>
</svg>
