<svg width="20" height="21" viewBox="0 0 20 21" fill="none" xmlns="http://www.w3.org/2000/svg">
<path fill-rule="evenodd" clip-rule="evenodd" d="M9.21727 3.75884C9.45292 3.61479 9.72375 3.53857 9.99994 3.53857C10.2761 3.53857 10.547 3.61479 10.7826 3.75884C11.0183 3.90289 11.2096 4.10917 11.3355 4.35498L11.3377 4.35935L16.8393 15.3626C16.9542 15.5908 17.0093 15.8455 16.9986 16.1008C16.9879 16.3564 16.912 16.605 16.7782 16.823C16.6443 17.041 16.457 17.2211 16.234 17.3464C16.011 17.4716 15.7596 17.5378 15.5037 17.5386H15.5022H4.49761H4.49609C4.24029 17.5378 3.98893 17.4716 3.76588 17.3464C3.54284 17.2211 3.35551 17.041 3.2217 16.823C3.08788 16.605 3.01202 16.3564 3.00132 16.1008C2.99062 15.8455 3.04529 15.5916 3.16013 15.3634L8.66216 4.35936L8.66435 4.35497C8.79027 4.10916 8.98163 3.90289 9.21727 3.75884ZM9.99991 7.65947C10.4143 7.65947 10.7502 7.9954 10.7502 8.40979V11.6612C10.7502 12.0756 10.4143 12.4115 9.99991 12.4115C9.58553 12.4115 9.24959 12.0756 9.24959 11.6612V8.40979C9.24959 7.9954 9.58553 7.65947 9.99991 7.65947ZM11.0003 14.4123C11.0003 14.9649 10.5524 15.4128 9.99991 15.4128C9.4474 15.4128 8.99949 14.9649 8.99949 14.4123C8.99949 13.8598 9.4474 13.4119 9.99991 13.4119C10.5524 13.4119 11.0003 13.8598 11.0003 14.4123Z" fill="#6B786F"/>
</svg>
