<svg width="14" height="14" viewBox="0 0 14 14" fill="none" xmlns="http://www.w3.org/2000/svg">
<g clip-path="url(#clip0_0_1581)">
<path fill-rule="evenodd" clip-rule="evenodd" d="M7.88332 0.0605549C6.89147 -0.05967 5.88837 0.163768 5.04132 0.693609C4.253 1.18671 3.64418 1.91745 3.30086 2.77774C2.87213 2.82504 2.45459 2.94713 2.06732 3.13888C1.63275 3.35405 1.24482 3.6527 0.925672 4.01779C0.281123 4.75512 -0.0441218 5.7183 0.021486 6.69544C0.0870937 7.67257 0.53818 8.58362 1.27551 9.22817C1.65327 9.55839 2.0903 9.8048 2.55812 9.95778C2.77333 9.08534 3.56111 8.43839 4.5 8.43839H5V7.93839C5 6.83382 5.89543 5.93839 7 5.93839C8.10457 5.93839 9 6.83382 9 7.93839V8.43839H9.5C10.4735 8.43839 11.2846 9.13397 11.4633 10.0553C12 9.93492 12.5009 9.67863 12.9157 9.30595C13.5037 8.77758 13.8775 8.05195 13.9664 7.26645C14.0553 6.48096 13.8531 5.69013 13.398 5.04371C12.9806 4.45071 12.377 4.01701 11.6861 3.80943C11.5608 2.88615 11.1431 2.02521 10.4918 1.35427C9.79584 0.637401 8.87518 0.18078 7.88332 0.0605549ZM3.75 10.4384C3.75 10.0242 4.08579 9.68839 4.5 9.68839H6.25V7.93839C6.25 7.52417 6.58579 7.18839 7 7.18839C7.41421 7.18839 7.75 7.52417 7.75 7.93839V9.68839H9.5C9.91421 9.68839 10.25 10.0242 10.25 10.4384C10.25 10.8526 9.91421 11.1884 9.5 11.1884H7.75V12.9384C7.75 13.3526 7.41421 13.6884 7 13.6884C6.58579 13.6884 6.25 13.3526 6.25 12.9384V11.1884H4.5C4.08579 11.1884 3.75 10.8526 3.75 10.4384Z" fill="black"/>
</g>
<defs>
<clipPath id="clip0_0_1581">
<rect width="14" height="14" fill="white"/>
</clipPath>
</defs>
</svg>
