<svg width="20" height="20" viewBox="0 0 20 20" fill="none" xmlns="http://www.w3.org/2000/svg">
<rect x="3.5" y="3.5" width="13" height="13" rx="6.5" stroke="#00AFA7"/>
<path d="M12.8439 16.3963C11.8908 16.82 10.8552 17.0254 9.81257 16.9975C8.76997 16.9696 7.74678 16.709 6.81781 16.2349C5.88883 15.7607 5.07754 15.085 4.44326 14.2571C3.80897 13.4291 3.36771 12.4699 3.15173 11.4495C2.93575 10.4292 2.95052 9.37343 3.19495 8.3595C3.43938 7.34557 3.90729 6.39907 4.56449 5.5892C5.22168 4.77932 6.05155 4.12654 6.99342 3.67857C7.93529 3.2306 8.96537 2.99876 10.0083 3L10 10L12.8439 16.3963Z" fill="#00AFA7"/>
</svg>
