<svg width="75" height="37" viewBox="0 0 75 37" fill="none" xmlns="http://www.w3.org/2000/svg">
<path d="M74.416 22.2665H54.825V17.819H74.416V22.2665ZM64.6603 23.5104C66.1881 23.5104 67.5621 23.7831 68.7822 24.3284C70.0129 24.8623 70.9784 25.6234 71.6787 26.6118C72.3789 27.5887 72.7344 28.685 72.745 29.9005C72.7344 31.1274 72.3789 32.2293 71.6787 33.2063C70.9784 34.1719 70.0129 34.933 68.7822 35.4897C67.5621 36.0463 66.1881 36.3247 64.6603 36.3247C63.1325 36.3247 61.7638 36.0463 60.5543 35.4897C59.3554 34.933 58.4058 34.1719 57.7055 33.2063C57.0159 32.2293 56.6711 31.1274 56.6711 29.9005C56.6711 28.685 57.0159 27.5887 57.7055 26.6118C58.4058 25.6234 59.3607 24.8623 60.5702 24.3284C61.7797 23.7831 63.1431 23.5104 64.6603 23.5104ZM64.6603 28.0431C64.1086 28.0545 63.6258 28.1227 63.212 28.2476C62.7982 28.3726 62.4746 28.5771 62.2412 28.8611C62.0078 29.1337 61.8911 29.4802 61.8911 29.9005C61.8911 30.3436 62.0078 30.7014 62.2412 30.974C62.4746 31.2467 62.7982 31.4512 63.212 31.5875C63.6258 31.7125 64.1086 31.7806 64.6603 31.792C65.2332 31.7806 65.7266 31.7125 66.1403 31.5875C66.5647 31.4512 66.8883 31.2467 67.1111 30.974C67.3446 30.7014 67.4613 30.3436 67.4613 29.9005C67.4613 29.4802 67.3446 29.1337 67.1111 28.8611C66.8883 28.5771 66.5647 28.3726 66.1403 28.2476C65.7266 28.1227 65.2332 28.0545 64.6603 28.0431ZM67.2544 21.8235H62.1617V14.1895H67.2544V21.8235Z" fill="white"/>
<path d="M46.7064 34.1752H27.7258V17.3906H46.7064V34.1752ZM32.8085 29.864H41.592V21.7188H32.8085V29.864Z" fill="white"/>
<path d="M5.35431 21.4624H14.194V16.9297H19.2724V34.6345H0.402832V16.9297H5.35431V21.4624ZM14.194 29.8632V26.1825H5.35431V29.8632H14.194Z" fill="white"/>
<path d="M25.1992 14.1853H19.7629V4.94247H7.79492V0.614258H25.1992V14.1853Z" fill="#FFD030"/>
</svg>
