<svg width="556" height="300" viewBox="0 0 556 300" fill="none" xmlns="http://www.w3.org/2000/svg">
<path d="M32.0286 5.76367H31.8718V5.91961V15.4332H12.3976V5.91961V5.76367H12.2408H1.15682H1V5.91961V43.6891V43.845H1.15682H43.3969H43.5537V43.6891V5.91961V5.76367H43.3969H32.0286ZM12.3976 25.8145H31.8718V33.3547H12.3976V25.8145Z" fill="#ECECEC" fill-opacity="0.3" stroke="white" stroke-opacity="0.3"/>
<path d="M101.26 26.941H101.473V26.7851V17.3337V17.1777H101.26H79.7676H79.5537V17.3337V26.7851V26.941H79.7676H101.26Z" fill="#ECECEC" fill-opacity="0.3" stroke="white" stroke-opacity="0.3"/>
<path d="M91.4091 43.845H91.5659V43.6891V24.8043V5.91961V5.76367H91.4091H79.7105H79.5537V5.91961V43.6891V43.845H79.7105H91.4091Z" fill="#ECECEC" fill-opacity="0.3" stroke="white" stroke-opacity="0.3"/>
<path d="M178.561 5.00098H137.474V17.1638H178.561V5.00098Z" fill="#ECECEC" fill-opacity="0.3" stroke="white" stroke-opacity="0.3"/>
<path d="M178.561 44.6082V5.00098L165.701 5.00098V44.6082H178.561Z" fill="#ECECEC" fill-opacity="0.3" stroke="white" stroke-opacity="0.3"/>
<path fill-rule="evenodd" clip-rule="evenodd" d="M261.517 5.27637H214.561V44.3335H261.517V5.27637ZM246.35 17.632H229.727V31.9779H246.35V17.632Z" fill="#ECECEC" fill-opacity="0.3"/>
<path d="M261.018 5.77637V43.833H215.061V5.77637H261.018ZM229.228 32.4775H246.851V17.1318H229.228V32.4775Z" stroke="white" stroke-opacity="0.3"/>
<path d="M309.409 44.4891H309.566V44.3331V5.27605V5.12012H309.409H297.674H297.517V5.27605V44.3331V44.4891H297.674H309.409Z" fill="#ECECEC" fill-opacity="0.3" stroke="white" stroke-opacity="0.3"/>
<path d="M345.566 44.6084L386.653 44.6084V32.4455L345.566 32.4455V44.6084Z" fill="#ECECEC" fill-opacity="0.3" stroke="white" stroke-opacity="0.3"/>
<path d="M345.566 5.00117V44.6084H358.425V5.00117H345.566Z" fill="#ECECEC" fill-opacity="0.3" stroke="white" stroke-opacity="0.3"/>
<path d="M467.813 18.5806H467.97V18.4247V8.93693V8.781H467.813H451.519V1.19402V1.03809H451.362H439.663H439.506V1.19402V8.781H422.81H422.653V8.93693V18.4247V18.5806H422.81H467.813ZM461.649 41.8582L461.649 41.8573C463.279 39.7465 464.107 37.3629 464.131 34.7118V34.7086C464.107 32.0815 463.278 29.7103 461.65 27.5998C460.022 25.4662 457.78 23.8269 454.931 22.679C452.107 21.5069 448.93 20.9224 445.403 20.9224C441.9 20.9224 438.748 21.507 435.947 22.6792C433.147 23.8274 430.929 25.467 429.302 27.6001L429.302 27.6003C427.697 29.7113 426.894 32.083 426.894 34.7102C426.894 37.3614 427.697 39.7453 429.302 41.8563L429.303 41.8582C430.93 43.9415 433.134 45.5803 435.909 46.7767C438.709 47.9739 441.875 48.5709 445.403 48.5709C448.93 48.5709 452.108 47.9739 454.933 46.777C457.78 45.581 460.021 43.9424 461.649 41.8582ZM439.962 32.5982L439.964 32.5957C440.476 32.0169 441.191 31.5944 442.119 31.3342C443.053 31.0723 444.147 30.9281 445.403 30.9038C446.708 30.9281 447.827 31.0724 448.76 31.3342L448.761 31.3344C449.714 31.5949 450.426 32.0172 450.913 32.5929L450.915 32.5957L450.917 32.5982C451.423 33.1471 451.68 33.8469 451.68 34.7102C451.68 35.6246 451.422 36.3475 450.917 36.8951L450.915 36.8976C450.428 37.4512 449.713 37.8744 448.759 38.1595C447.826 38.4208 446.708 38.5652 445.403 38.5892C444.148 38.5652 443.054 38.4211 442.12 38.1595C441.191 37.8747 440.475 37.4512 439.962 36.8951C439.457 36.3475 439.199 35.6246 439.199 34.7102C439.199 33.8469 439.455 33.1471 439.962 32.5982Z" fill="#ECECEC" fill-opacity="0.3" stroke="white" stroke-opacity="0.3"/>
<path d="M555.093 44.4891H555.25V44.3331V5.27605V5.12012H555.093H543.357H543.2V5.27605V44.3331V44.4891H543.357H555.093Z" fill="#ECECEC" fill-opacity="0.3" stroke="white" stroke-opacity="0.3"/>
<path d="M540.086 23.4958V23.3398H539.929H504.127H503.97V23.4958V35.1646V35.3206H504.127H539.929H540.086V35.1646V23.4958Z" fill="#ECECEC" fill-opacity="0.3" stroke="white" stroke-opacity="0.3"/>
<path d="M32.0286 89.2969H31.8718V89.4528V98.9664H12.3976V89.4528V89.2969H12.2408H1.15682H1V89.4528V127.222V127.378H1.15682H43.3969H43.5537V127.222V89.4528V89.2969H43.3969H32.0286ZM12.3976 109.348H31.8718V116.888H12.3976V109.348Z" fill="#ECECEC" fill-opacity="0.3" stroke="white" stroke-opacity="0.3"/>
<path d="M101.26 110.474H101.473V110.318V100.867V100.711H101.26H79.7676H79.5537V100.867V110.318V110.474H79.7676H101.26Z" fill="#ECECEC" fill-opacity="0.3" stroke="white" stroke-opacity="0.3"/>
<path d="M91.4091 127.378H91.5659V127.222V108.337V89.4528V89.2969H91.4091H79.7105H79.5537V89.4528V127.222V127.378H79.7105H91.4091Z" fill="#ECECEC" fill-opacity="0.3" stroke="white" stroke-opacity="0.3"/>
<path d="M178.561 88.5342H137.474V100.697H178.561V88.5342Z" fill="#ECECEC" fill-opacity="0.3" stroke="white" stroke-opacity="0.3"/>
<path d="M178.561 128.141V88.5342H165.701V128.141H178.561Z" fill="#ECECEC" fill-opacity="0.3" stroke="white" stroke-opacity="0.3"/>
<path fill-rule="evenodd" clip-rule="evenodd" d="M261.517 88.8096H214.561V127.867H261.517V88.8096ZM246.35 101.165H229.727V115.511H246.35V101.165Z" fill="#ECECEC" fill-opacity="0.3"/>
<path d="M261.018 89.3096V127.366H215.061V89.3096H261.018ZM229.228 116.011H246.851V100.665H229.228V116.011Z" stroke="white" stroke-opacity="0.3"/>
<path d="M309.409 128.022H309.566V127.866V88.8093V88.6533H309.409H297.674H297.517V88.8093V127.866V128.022H297.674H309.409Z" fill="#ECECEC" fill-opacity="0.3" stroke="white" stroke-opacity="0.3"/>
<path d="M345.566 128.142H386.653V115.979H345.566V128.142Z" fill="#ECECEC" fill-opacity="0.3" stroke="white" stroke-opacity="0.3"/>
<path d="M345.566 88.5344V128.142H358.425V88.5344H345.566Z" fill="#ECECEC" fill-opacity="0.3" stroke="white" stroke-opacity="0.3"/>
<path d="M467.813 102.114H467.97V101.958V92.4701V92.3142H467.813H451.519V84.7272V84.5713H451.362H439.663H439.506V84.7272V92.3142H422.81H422.653V92.4701V101.958V102.114H422.81H467.813ZM461.649 125.391L461.649 125.39C463.279 123.28 464.107 120.896 464.131 118.245V118.242C464.107 115.615 463.278 113.243 461.65 111.133C460.022 108.999 457.78 107.36 454.931 106.212C452.107 105.04 448.93 104.456 445.403 104.456C441.9 104.456 438.748 105.04 435.947 106.212C433.147 107.361 430.929 109 429.302 111.133L429.302 111.134C427.697 113.245 426.894 115.616 426.894 118.243C426.894 120.895 427.697 123.279 429.302 125.39L429.303 125.391C430.93 127.475 433.134 129.114 435.909 130.31C438.709 131.507 441.875 132.104 445.403 132.104C448.93 132.104 452.108 131.507 454.933 130.31C457.78 129.114 460.021 127.476 461.649 125.391ZM439.962 116.131L439.964 116.129C440.476 115.55 441.191 115.128 442.119 114.867C443.053 114.605 444.147 114.461 445.403 114.437C446.708 114.461 447.827 114.606 448.76 114.867L448.761 114.868C449.714 115.128 450.426 115.55 450.913 116.126L450.915 116.129L450.917 116.131C451.423 116.68 451.68 117.38 451.68 118.243C451.68 119.158 451.422 119.881 450.917 120.428L450.915 120.431C450.428 120.984 449.713 121.408 448.759 121.693C447.826 121.954 446.708 122.098 445.403 122.122C444.148 122.098 443.054 121.954 442.12 121.693C441.191 121.408 440.475 120.984 439.962 120.428C439.457 119.881 439.199 119.158 439.199 118.243C439.199 117.38 439.455 116.68 439.962 116.131Z" fill="#ECECEC" fill-opacity="0.3" stroke="white" stroke-opacity="0.3"/>
<path d="M555.093 128.022H555.25V127.866V88.8093V88.6533H555.093H543.357H543.2V88.8093V127.866V128.022H543.357H555.093Z" fill="#ECECEC" fill-opacity="0.3" stroke="white" stroke-opacity="0.3"/>
<path d="M540.086 107.029V106.873H539.929H504.127H503.97V107.029V118.698V118.854H504.127H539.929H540.086V118.698V107.029Z" fill="#ECECEC" fill-opacity="0.3" stroke="white" stroke-opacity="0.3"/>
<path d="M32.0286 172.829H31.8718V172.985V182.499H12.3976V172.985V172.829H12.2408H1.15682H1V172.985V210.754V210.91H1.15682H43.3969H43.5537V210.754V172.985V172.829H43.3969H32.0286ZM12.3976 192.88H31.8718V200.42H12.3976V192.88Z" stroke="white" stroke-opacity="0.8"/>
<path d="M101.26 194.006H101.473V193.851V184.399V184.243H101.26H79.7676H79.5537V184.399V193.851V194.006H79.7676H101.26Z" stroke="white" stroke-opacity="0.8"/>
<path d="M91.4091 210.91H91.5659V210.754V191.87V172.985V172.829H91.4091H79.7105H79.5537V172.985V210.754V210.91H79.7105H91.4091Z" stroke="white" stroke-opacity="0.8"/>
<path d="M178.561 172.066H137.474V184.229H178.561V172.066Z" stroke="white" stroke-opacity="0.8"/>
<path d="M178.561 211.674V172.066H165.701V211.674H178.561Z" stroke="white" stroke-opacity="0.8"/>
<path d="M261.018 172.842V210.898H215.061V172.842H261.018ZM229.228 199.543H246.851V184.197H229.228V199.543Z" stroke="white" stroke-opacity="0.8"/>
<path d="M309.409 211.555H309.566V211.399V172.341V172.186H309.409H297.674H297.517V172.341V211.399V211.555H297.674H309.409Z" stroke="white" stroke-opacity="0.8"/>
<path d="M345.566 211.674H386.653V199.511H345.566V211.674Z" stroke="white" stroke-opacity="0.8"/>
<path d="M345.566 172.067V211.674H358.425V172.067H345.566Z" stroke="white" stroke-opacity="0.8"/>
<path d="M467.813 185.646H467.97V185.49V176.002V175.846H467.813H451.519V168.259V168.104H451.362H439.663H439.506V168.259V175.846H422.81H422.653V176.002V185.49V185.646H422.81H467.813ZM461.649 208.924L461.649 208.923C463.279 206.812 464.107 204.428 464.131 201.777V201.774C464.107 199.147 463.278 196.776 461.65 194.665C460.022 192.532 457.78 190.892 454.931 189.744C452.107 188.572 448.93 187.988 445.403 187.988C441.9 187.988 438.748 188.572 435.947 189.745C433.147 190.893 430.929 192.532 429.302 194.666L429.302 194.666C427.697 196.777 426.894 199.148 426.894 201.776C426.894 204.427 427.697 206.811 429.302 208.922L429.303 208.924C430.93 211.007 433.134 212.646 435.909 213.842C438.709 215.039 441.875 215.636 445.403 215.636C448.93 215.636 452.108 215.039 454.933 213.842C457.78 212.646 460.021 211.008 461.649 208.924ZM439.962 199.664L439.964 199.661C440.476 199.082 441.191 198.66 442.119 198.4C443.053 198.138 444.147 197.994 445.403 197.969C446.708 197.994 447.827 198.138 448.76 198.4L448.761 198.4C449.714 198.66 450.426 199.083 450.913 199.658L450.915 199.661L450.917 199.664C451.423 200.213 451.68 200.912 451.68 201.776C451.68 202.69 451.422 203.413 450.917 203.961L450.915 203.963C450.428 204.517 449.713 204.94 448.759 205.225C447.826 205.486 446.708 205.631 445.403 205.655C444.148 205.631 443.054 205.487 442.12 205.225C441.191 204.94 440.475 204.517 439.962 203.961C439.457 203.413 439.199 202.69 439.199 201.776C439.199 200.912 439.455 200.213 439.962 199.664Z" stroke="white" stroke-opacity="0.8"/>
<path d="M555.093 211.555H555.25V211.399V172.341V172.186H555.093H543.357H543.2V172.341V211.399V211.555H543.357H555.093Z" stroke="white" stroke-opacity="0.8"/>
<path d="M540.086 190.561V190.405H539.929H504.127H503.97V190.561V202.23V202.386H504.127H539.929H540.086V202.23V190.561Z" stroke="white" stroke-opacity="0.8"/>
<path d="M32.0286 256.362H31.8718V256.518V266.032H12.3976V256.518V256.362H12.2408H1.15682H1V256.518V294.288V294.444H1.15682H43.3969H43.5537V294.288V256.518V256.362H43.3969H32.0286ZM12.3976 276.413H31.8718V283.953H12.3976V276.413Z" fill="#ECECEC" fill-opacity="0.3" stroke="white" stroke-opacity="0.3"/>
<path d="M101.26 277.54H101.473V277.384V267.932V267.776H101.26H79.7676H79.5537V267.932V277.384V277.54H79.7676H101.26Z" fill="#ECECEC" fill-opacity="0.3" stroke="white" stroke-opacity="0.3"/>
<path d="M91.4091 294.444H91.5659V294.288V275.403V256.518V256.362H91.4091H79.7105H79.5537V256.518V294.288V294.444H79.7105H91.4091Z" fill="#ECECEC" fill-opacity="0.3" stroke="white" stroke-opacity="0.3"/>
<path d="M178.561 255.6H137.474V267.762H178.561V255.6Z" fill="#ECECEC" fill-opacity="0.3" stroke="white" stroke-opacity="0.3"/>
<path d="M178.561 295.207V255.6H165.701V295.207H178.561Z" fill="#ECECEC" fill-opacity="0.3" stroke="white" stroke-opacity="0.3"/>
<path fill-rule="evenodd" clip-rule="evenodd" d="M261.517 255.875H214.561V294.932H261.517V255.875ZM246.35 268.231H229.727V282.577H246.35V268.231Z" fill="#ECECEC" fill-opacity="0.3"/>
<path d="M261.018 256.375V294.432H215.061V256.375H261.018ZM229.228 283.076H246.851V267.73H229.228V283.076Z" stroke="white" stroke-opacity="0.3"/>
<path d="M309.409 295.088H309.566V294.932V255.875V255.719H309.409H297.674H297.517V255.875V294.932V295.088H297.674H309.409Z" fill="#ECECEC" fill-opacity="0.3" stroke="white" stroke-opacity="0.3"/>
<path d="M345.566 295.207H386.653V283.044H345.566V295.207Z" fill="#ECECEC" fill-opacity="0.3" stroke="white" stroke-opacity="0.3"/>
<path d="M345.566 255.6V295.207H358.425V255.6H345.566Z" fill="#ECECEC" fill-opacity="0.3" stroke="white" stroke-opacity="0.3"/>
<path d="M467.813 269.179H467.97V269.023V259.536V259.38H467.813H451.519V251.793V251.637H451.362H439.663H439.506V251.793V259.38H422.81H422.653V259.536V269.023V269.179H422.81H467.813ZM461.649 292.457L461.649 292.456C463.279 290.345 464.107 287.962 464.131 285.31V285.307C464.107 282.68 463.278 280.309 461.65 278.198C460.022 276.065 457.78 274.426 454.931 273.278C452.107 272.105 448.93 271.521 445.403 271.521C441.9 271.521 438.748 272.106 435.947 273.278C433.147 274.426 430.929 276.066 429.302 278.199L429.302 278.199C427.697 280.31 426.894 282.682 426.894 285.309C426.894 287.96 427.697 290.344 429.302 292.455L429.303 292.457C430.93 294.54 433.134 296.179 435.909 297.375C438.709 298.573 441.875 299.169 445.403 299.169C448.93 299.169 452.108 298.573 454.933 297.376C457.78 296.18 460.021 294.541 461.649 292.457ZM439.962 283.197L439.964 283.194C440.476 282.616 441.191 282.193 442.119 281.933C443.053 281.671 444.147 281.527 445.403 281.502C446.708 281.527 447.827 281.671 448.76 281.933L448.761 281.933C449.714 282.194 450.426 282.616 450.913 283.192L450.915 283.194L450.917 283.197C451.423 283.746 451.68 284.446 451.68 285.309C451.68 286.223 451.422 286.946 450.917 287.494L450.915 287.496C450.428 288.05 449.713 288.473 448.759 288.758C447.826 289.019 446.708 289.164 445.403 289.188C444.148 289.164 443.054 289.02 442.12 288.758C441.191 288.473 440.475 288.05 439.962 287.494C439.457 286.946 439.199 286.223 439.199 285.309C439.199 284.446 439.455 283.746 439.962 283.197Z" fill="#ECECEC" fill-opacity="0.3" stroke="white" stroke-opacity="0.3"/>
<path d="M555.093 295.088H555.25V294.932V255.875V255.719H555.093H543.357H543.2V255.875V294.932V295.088H543.357H555.093Z" fill="#ECECEC" fill-opacity="0.3" stroke="white" stroke-opacity="0.3"/>
<path d="M540.086 274.094V273.938H539.929H504.127H503.97V274.094V285.763V285.919H504.127H539.929H540.086V285.763V274.094Z" fill="#ECECEC" fill-opacity="0.3" stroke="white" stroke-opacity="0.3"/>
</svg>
