<svg width="150" height="126" viewBox="0 0 150 126" fill="none" xmlns="http://www.w3.org/2000/svg">
<mask id="path-1-inside-1_12_71" fill="white">
<path fill-rule="evenodd" clip-rule="evenodd" d="M149.917 0.208008H0.202881V125.444H149.917V0.208008ZM101.56 39.8261H48.5601V85.8261H101.56V39.8261Z"/>
</mask>
<path fill-rule="evenodd" clip-rule="evenodd" d="M149.917 0.208008H0.202881V125.444H149.917V0.208008ZM101.56 39.8261H48.5601V85.8261H101.56V39.8261Z" fill="#ECECEC"/>
<path d="M0.202881 0.208008V-0.791992H-0.797119V0.208008H0.202881ZM149.917 0.208008H150.917V-0.791992H149.917V0.208008ZM0.202881 125.444H-0.797119V126.444H0.202881V125.444ZM149.917 125.444V126.444H150.917V125.444H149.917ZM48.5601 39.8261V38.8261H47.5601V39.8261H48.5601ZM101.56 39.8261H102.56V38.8261H101.56V39.8261ZM48.5601 85.8261H47.5601V86.8261H48.5601V85.8261ZM101.56 85.8261V86.8261H102.56V85.8261H101.56ZM0.202881 1.20801H149.917V-0.791992H0.202881V1.20801ZM1.20288 125.444V0.208008H-0.797119V125.444H1.20288ZM149.917 124.444H0.202881V126.444H149.917V124.444ZM148.917 0.208008V125.444H150.917V0.208008H148.917ZM48.5601 40.8261H101.56V38.8261H48.5601V40.8261ZM49.5601 85.8261V39.8261H47.5601V85.8261H49.5601ZM101.56 84.8261H48.5601V86.8261H101.56V84.8261ZM100.56 39.8261V85.8261H102.56V39.8261H100.56Z" fill="white" mask="url(#path-1-inside-1_12_71)"/>
</svg>
