<svg width="1071" height="155" viewBox="0 0 1071 155" fill="none" xmlns="http://www.w3.org/2000/svg">
<path d="M115.061 16.5228H114.561V17.0228V47.528H52.4706V17.0228V16.5228H51.9706H16.6309H16.1309V17.0228V138.13V138.63H16.6309H151.307H151.807V138.13V17.0228V16.5228H151.307H115.061ZM52.4706 80.8154H114.561V104.993H52.4706V80.8154Z" fill="#ECECEC" stroke="white"/>
<path d="M231.195 84.4288H231.695V83.9288V53.6229V53.1229H231.195H180.957H180.457V53.6229V83.9288V84.4288H180.957H231.195Z" fill="#ECECEC" stroke="white"/>
<path d="M199.606 138.63H200.106V138.13V77.5762V17.0228V16.5228H199.606H162.307H161.807V17.0228V138.13V138.63H162.307H199.606Z" fill="#ECECEC" stroke="white"/>
<rect x="242.695" y="14.0762" width="131" height="39" fill="#ECECEC" stroke="white"/>
<rect x="373.695" y="14.0762" width="127" height="41" transform="rotate(90 373.695 14.0762)" fill="#ECECEC" stroke="white"/>
<mask id="path-6-inside-1_41_72" fill="white">
<path fill-rule="evenodd" clip-rule="evenodd" d="M534.909 14.958H385.195V140.194H534.909V14.958ZM486.552 54.5761H433.552V100.576H486.552V54.5761Z"/>
</mask>
<path fill-rule="evenodd" clip-rule="evenodd" d="M534.909 14.958H385.195V140.194H534.909V14.958ZM486.552 54.5761H433.552V100.576H486.552V54.5761Z" fill="#ECECEC"/>
<path d="M385.195 14.958V13.958H384.195V14.958H385.195ZM534.909 14.958H535.909V13.958H534.909V14.958ZM385.195 140.194H384.195V141.194H385.195V140.194ZM534.909 140.194V141.194H535.909V140.194H534.909ZM433.552 54.5761V53.5761H432.552V54.5761H433.552ZM486.552 54.5761H487.552V53.5761H486.552V54.5761ZM433.552 100.576H432.552V101.576H433.552V100.576ZM486.552 100.576V101.576H487.552V100.576H486.552ZM385.195 15.958H534.909V13.958H385.195V15.958ZM386.195 140.194V14.958H384.195V140.194H386.195ZM534.909 139.194H385.195V141.194H534.909V139.194ZM533.909 14.958V140.194H535.909V14.958H533.909ZM433.552 55.5761H486.552V53.5761H433.552V55.5761ZM434.552 100.576V54.5761H432.552V100.576H434.552ZM486.552 99.5761H433.552V101.576H486.552V99.5761ZM485.552 54.5761V100.576H487.552V54.5761H485.552Z" fill="white" mask="url(#path-6-inside-1_41_72)"/>
<path d="M583.325 140.694H583.825V140.194V14.958V14.458H583.325H545.909H545.409V14.958V140.194V140.694H545.909H583.325Z" fill="#ECECEC" stroke="white"/>
<rect x="725.825" y="141.076" width="131" height="39" transform="rotate(180 725.825 141.076)" fill="#ECECEC" stroke="white"/>
<rect x="594.825" y="141.076" width="127" height="41" transform="rotate(-90 594.825 141.076)" fill="#ECECEC" stroke="white"/>
<path d="M880.811 57.6198H881.311V57.1198V26.6974V26.1974H880.811H828.859V1.86987V1.36987H828.359H791.059H790.559V1.86987V26.1974H737.325H736.825V26.6974V57.1198V57.6198H737.325H880.811ZM861.158 132.259L861.159 132.256C866.354 125.488 868.994 117.845 869.072 109.344L869.072 109.334C868.994 100.91 866.353 93.3069 861.16 86.5395C855.97 79.6983 848.822 74.4418 839.738 70.761C830.733 67.0027 820.604 65.1287 809.359 65.1287C798.192 65.1287 788.14 67.003 779.211 70.7618C770.282 74.4435 763.213 79.7007 758.024 86.5406L758.023 86.5413C752.907 93.3102 750.346 100.915 750.346 109.339C750.346 117.84 752.907 125.484 758.023 132.253L758.027 132.259C763.215 138.939 770.241 144.194 779.088 148.03L779.089 148.03C788.019 151.869 798.112 153.783 809.359 153.783C820.606 153.783 830.738 151.869 839.745 148.031C848.823 144.196 855.968 138.942 861.158 132.259ZM792.011 102.567L792.011 102.567L792.017 102.559C793.651 100.703 795.93 99.3482 798.888 98.5139C801.866 97.6741 805.354 97.2117 809.359 97.134C813.522 97.2117 817.088 97.6745 820.064 98.5139L820.067 98.5147C823.104 99.3499 825.376 100.704 826.927 102.55L826.934 102.559L826.941 102.567C828.555 104.327 829.374 106.571 829.374 109.339C829.374 112.271 828.55 114.589 826.941 116.345L826.941 116.344L826.933 116.353C825.381 118.128 823.103 119.485 820.06 120.399C817.084 121.237 813.52 121.7 809.359 121.777C805.357 121.7 801.87 121.238 798.894 120.399C795.93 119.486 793.646 118.128 792.011 116.345C790.402 114.589 789.578 112.271 789.578 109.339C789.578 106.571 790.397 104.327 792.011 102.567Z" fill="#ECECEC" stroke="white"/>
<path d="M1054.31 140.694H1054.81V140.194V14.958V14.458H1054.31H1016.89H1016.39V14.958V140.194V140.694H1016.89H1054.31Z" fill="#ECECEC" stroke="white"/>
<path d="M1006.46 73.38L1006.46 72.88L1005.96 72.88L891.811 72.88L891.311 72.88L891.311 73.38L891.311 110.796L891.311 111.296L891.811 111.296L1005.96 111.296L1006.46 111.296L1006.46 110.796L1006.46 73.38Z" fill="#ECECEC" stroke="white"/>
</svg>
