<svg width="1071" height="154" viewBox="0 0 1071 154" fill="none" xmlns="http://www.w3.org/2000/svg">
<path d="M115.076 16.1528H114.576V16.6528V47.158H52.4852V16.6528V16.1528H51.9852H16.6455H16.1455V16.6528V137.76V138.26H16.6455H151.322H151.822V137.76V16.6528V16.1528H151.322H115.076ZM52.4852 80.4454H114.576V104.623H52.4852V80.4454Z" stroke="white"/>
<path d="M231.028 84.0588H231.71V83.5588V53.2529V52.7529H231.028H162.503H161.821V53.2529V83.5588V84.0588H162.503H231.028Z" stroke="white"/>
<path d="M199.621 138.26H200.121V137.76V77.2062V16.6528V16.1528H199.621H162.321H161.821V16.6528V137.76V138.26H162.321H199.621Z" stroke="white"/>
<path d="M373.71 13.7063H242.71V52.7063H373.71V13.7063Z" stroke="white"/>
<path d="M373.71 140.706V13.7063H332.71V140.706H373.71Z" stroke="white"/>
<path d="M534.424 15.0881V139.324H385.71V15.0881H534.424ZM433.067 100.706H487.067V53.7063H433.067V100.706Z" stroke="white"/>
<mask id="mask0_60_304" style="mask-type:luminance" maskUnits="userSpaceOnUse" x="385" y="14" width="150" height="126">
<path fill-rule="evenodd" clip-rule="evenodd" d="M534.924 14.5881H385.21V139.824H534.924V14.5881ZM486.567 54.2062H433.567V100.206H486.567V54.2062Z" fill="white"/>
</mask>
<g mask="url(#mask0_60_304)">
<path d="M385.21 14.5881V13.5881H384.21V14.5881H385.21ZM534.924 14.5881H535.924V13.5881H534.924V14.5881ZM385.21 139.824H384.21V140.824H385.21V139.824ZM534.924 139.824V140.824H535.924V139.824H534.924ZM433.567 54.2062V53.2062H432.567V54.2062H433.567ZM486.567 54.2062H487.567V53.2062H486.567V54.2062ZM433.567 100.206H432.567V101.206H433.567V100.206ZM486.567 100.206V101.206H487.567V100.206H486.567ZM385.21 15.5881H534.924V13.5881H385.21V15.5881ZM386.21 139.824V14.5881H384.21V139.824H386.21ZM534.924 138.824H385.21V140.824H534.924V138.824ZM533.924 14.5881V139.824H535.924V14.5881H533.924ZM433.567 55.2062H486.567V53.2062H433.567V55.2062ZM434.567 100.206V54.2062H432.567V100.206H434.567ZM486.567 99.2062H433.567V101.206H486.567V99.2062ZM485.567 54.2062V100.206H487.567V54.2062H485.567Z" fill="white"/>
</g>
<path d="M583.34 140.324H583.84V139.824V14.5881V14.0881H583.34H545.924H545.424V14.5881V139.824V140.324H545.924H583.34Z" stroke="white"/>
<path d="M594.84 140.706H725.84V101.706H594.84V140.706Z" stroke="white"/>
<path d="M594.84 13.7061V140.706H635.84V13.7061H594.84Z" stroke="white"/>
<path d="M880.826 57.2499H881.326V56.7499V26.3275V25.8275H880.826H828.874V1.5V1H828.374H791.074H790.574V1.5V25.8275H737.34H736.84V26.3275V56.7499V57.2499H737.34H880.826ZM861.173 131.889L861.175 131.886C866.369 125.118 869.009 117.475 869.088 108.974L869.087 108.965C869.009 100.54 866.369 92.937 861.175 86.1696C855.985 79.3284 848.837 74.0719 839.754 70.3912C830.748 66.6329 820.619 64.7588 809.375 64.7588C798.207 64.7588 788.155 66.6331 779.227 70.392C770.297 74.0736 763.228 79.3308 758.039 86.1707L758.038 86.1714C752.922 92.9404 750.361 100.545 750.361 108.969C750.361 117.47 752.922 125.114 758.038 131.884L758.042 131.889C763.23 138.569 770.256 143.824 779.103 147.66L779.104 147.661C788.035 151.499 798.128 153.413 809.375 153.413C820.622 153.413 830.753 151.499 839.76 147.661C848.839 143.826 855.984 138.572 861.173 131.889ZM792.026 102.197L792.033 102.189C793.666 100.333 795.945 98.9783 798.903 98.144C801.881 97.3042 805.369 96.8418 809.375 96.7641C813.537 96.8418 817.103 97.3046 820.079 98.144L820.082 98.1449C823.119 98.98 825.391 100.334 826.942 102.181L826.949 102.189L826.956 102.197C828.57 103.957 829.389 106.201 829.389 108.969C829.389 111.901 828.565 114.22 826.956 115.975L826.949 115.983C825.396 117.758 823.118 119.115 820.075 120.029C817.1 120.867 813.535 121.33 809.375 121.407C805.372 121.33 801.885 120.868 798.909 120.029C795.945 119.116 793.661 117.758 792.026 115.975C790.417 114.22 789.593 111.901 789.593 108.969C789.593 106.201 790.412 103.957 792.026 102.197Z" stroke="white"/>
<path d="M1054.33 140.324H1054.83V139.824V14.5881V14.0881H1054.33H1016.91H1016.41V14.5881V139.824V140.324H1016.91H1054.33Z" stroke="white"/>
<path d="M1006.48 73.0103V72.5103H1005.98H891.825H891.325V73.0103V110.426V110.926H891.825H1005.98H1006.48V110.426V73.0103Z" stroke="white"/>
</svg>
