<svg width="146" height="155" viewBox="0 0 146 155" fill="none" xmlns="http://www.w3.org/2000/svg">
<path d="M144.949 57.6198H145.449V57.1198V26.6974V26.1974H144.949H92.9965V1.86987V1.36987H92.4965H55.197H54.697V1.86987V26.1974H1.4624H0.962402V26.6974V57.1198V57.6198H1.4624H144.949ZM125.295 132.259L125.297 132.256C130.492 125.488 133.131 117.845 133.21 109.344L133.21 109.334C133.131 100.91 130.491 93.3069 125.298 86.5395C120.108 79.6983 112.96 74.4418 103.876 70.761C94.8707 67.0027 84.7417 65.1287 73.4971 65.1287C62.3295 65.1287 52.2775 67.003 43.3492 70.7618C34.4197 74.4435 27.3505 79.7007 22.1616 86.5406L22.161 86.5413C17.045 93.3102 14.4835 100.915 14.4835 109.339C14.4835 117.84 17.0443 125.484 22.161 132.253L22.165 132.259C27.3522 138.939 34.3787 144.194 43.2254 148.03L43.2269 148.03C52.1571 151.869 62.2501 153.783 73.4971 153.783C84.7441 153.783 94.8753 151.869 103.882 148.031C112.961 144.196 120.106 138.942 125.295 132.259ZM56.1484 102.567L56.1485 102.567L56.1552 102.559C57.7884 100.703 60.0677 99.3482 63.0257 98.5139C66.0032 97.6741 69.4917 97.2117 73.4972 97.134C77.6598 97.2117 81.2254 97.6745 84.2015 98.5139L84.2047 98.5147C87.2416 99.3499 89.5136 100.704 91.0646 102.55L91.0716 102.559L91.0789 102.567C92.6923 104.327 93.5118 106.571 93.5118 109.339C93.5118 112.271 92.6877 114.589 91.0789 116.345L91.0788 116.344L91.0712 116.353C89.5183 118.128 87.241 119.485 84.1974 120.399C81.2221 121.237 77.6579 121.7 73.4972 121.777C69.4942 121.7 66.0077 121.238 63.0314 120.399C60.0673 119.486 57.7834 118.128 56.1484 116.345C54.5395 114.589 53.7155 112.271 53.7155 109.339C53.7155 106.571 54.535 104.327 56.1484 102.567Z" fill="#ECECEC" stroke="white"/>
</svg>
