<svg width="130" height="40" viewBox="0 0 130 40" fill="none" xmlns="http://www.w3.org/2000/svg">
<g clip-path="url(#clip0_2133_2624)">
<mask id="mask0_2133_2624" style="mask-type:luminance" maskUnits="userSpaceOnUse" x="0" y="3" width="130" height="34">
<path d="M130 3.31081H0V36.6892H130V3.31081Z" fill="white"/>
</mask>
<g mask="url(#mask0_2133_2624)">
<path d="M6.25382 10.7703C5.34094 11.2955 4.27023 11.4365 3.23791 11.1717C2.18426 10.9027 1.30124 10.2451 0.755219 9.31854C0.230527 8.43039 0.0812244 7.40133 0.332906 6.41923C0.861864 4.34829 3.02889 3.10573 5.16178 3.65229C6.25382 3.93411 7.05579 4.4892 7.47811 5.25353C7.84496 5.91537 7.89615 6.70105 7.63167 7.52516L7.83643 7.5892C8.12224 6.70959 8.06252 5.86841 7.6658 5.15105C7.21363 4.33121 6.36473 3.73769 5.21724 3.44306C2.96916 2.87088 0.686967 4.1775 0.128148 6.36372C-0.136331 7.40133 0.0215034 8.49017 0.57179 9.42529C1.14767 10.3988 2.07335 11.0906 3.18245 11.3767C4.27023 11.6542 5.3964 11.5048 6.3562 10.9539L6.24956 10.7703H6.25382Z" fill="#9CBE31"/>
<path d="M7.97705 6.81645C7.90027 6.72678 8.03251 8.22981 6.80396 8.93009C6.12996 9.31866 5.83563 9.45957 5.48156 9.55778C4.8161 9.75419 4.26581 9.8524 3.83923 9.8524C3.09272 9.8524 2.55523 9.71149 2.23103 9.42541C1.8983 9.1564 1.73193 8.72513 1.73193 8.12733C1.73193 7.74304 1.79592 7.38009 1.92389 7.03422C2.04334 6.68408 2.23956 6.3553 2.50831 6.04359C2.79412 5.6721 3.12685 5.40309 3.51077 5.23656C3.88189 5.07003 4.32554 4.98463 4.83316 4.98463C5.37919 4.98463 5.83563 5.08711 6.18969 5.29207C6.53095 5.48849 6.70158 5.72334 6.70158 6.00089C6.70158 6.24001 6.56934 6.48339 6.30913 6.73105C6.04038 6.99152 5.63513 7.26053 5.09338 7.53808C4.74358 7.74304 4.36819 7.90957 3.96294 8.03766C3.62168 8.15295 3.36573 8.21273 3.19937 8.21273C3.07139 8.21273 2.99461 8.19138 2.96048 8.14868C2.94342 8.11452 2.93489 8.02059 2.93489 7.87541C2.93489 7.84125 3.02873 7.77293 3.2207 7.67899C3.34014 7.62348 3.57476 7.51246 3.92455 7.35447C4.56869 7.07692 5.02086 6.87196 5.28107 6.73105C5.74178 6.48339 5.97213 6.29552 5.97213 6.16315C5.97213 5.99662 5.87828 5.86852 5.68632 5.78312C5.49436 5.69772 5.20855 5.65075 4.8289 5.65075C4.40658 5.65075 4.04826 5.71053 3.74539 5.83436C3.44252 5.94965 3.1951 6.13753 2.99461 6.38946C2.80265 6.62003 2.66188 6.8805 2.56376 7.16232C2.47845 7.45268 2.43152 7.76439 2.43152 8.10171C2.43152 8.43904 2.52537 8.71659 2.71733 8.9002C2.92209 9.10516 3.24202 9.20337 3.6686 9.20337C4.09518 9.20337 4.52176 9.24607 4.96114 9.09235C4.96114 9.09235 7.35425 8.80199 7.93013 6.81645" fill="#9CBE31"/>
<path d="M13.3093 6.69263H11.9315V9.37844C11.9315 9.65172 11.9784 9.85241 12.068 9.98051C12.1575 10.1086 12.3324 10.1727 12.5926 10.1727C12.7164 10.1727 12.8358 10.1641 12.951 10.1428C13.0662 10.1214 13.1728 10.1001 13.2666 10.0702V10.8857C13.1131 10.9498 12.9211 10.9968 12.695 11.0266C12.4689 11.0565 12.2471 11.0693 12.0296 11.0693C11.5518 11.0693 11.1721 10.9156 10.8949 10.6082C10.6176 10.3008 10.4768 9.86095 10.4768 9.2845V6.68836H9.85828V5.94538L10.528 5.91549L11.0228 4.17761H11.9272V5.90695H13.305V6.6969L13.3093 6.69263Z" fill="#9CBE31"/>
<path d="M17.4471 9.91645C17.2253 10.1513 16.9608 10.2709 16.6537 10.2709C16.3124 10.2709 16.0394 10.1513 15.8389 9.90791C15.6384 9.66452 15.536 9.17348 15.536 8.43904V8.36218C15.536 7.6918 15.6384 7.21783 15.8474 6.94028C16.0565 6.66273 16.3252 6.52609 16.6537 6.52609C16.9821 6.52609 17.2338 6.65419 17.4514 6.91466C17.6689 7.17086 17.7798 7.65337 17.7798 8.36218V8.43904C17.7798 9.18629 17.6689 9.6816 17.4471 9.91645ZM19.2686 8.23408C19.2686 7.46976 19.034 6.85061 18.569 6.37664C18.104 5.90268 17.4642 5.66356 16.6494 5.66356C15.8346 5.66356 15.199 5.90268 14.7298 6.37237C14.2606 6.84634 14.0259 7.46549 14.0259 8.23408V8.56714C14.0259 9.35282 14.2648 9.9805 14.7383 10.4417C15.2118 10.9028 15.8517 11.1377 16.6579 11.1377C17.4642 11.1377 18.104 10.9114 18.569 10.4587C19.034 10.0061 19.2686 9.37417 19.2686 8.56714V8.23408Z" fill="#9CBE31"/>
<path d="M23.3723 9.98478C23.1676 10.2025 22.9585 10.3136 22.7452 10.3136C22.5021 10.3136 22.3016 10.2581 22.1395 10.147C21.9774 10.036 21.8836 9.92073 21.8622 9.80544V7.27761C21.9433 7.14097 22.0755 7.01714 22.2589 6.89759C22.4424 6.77803 22.6343 6.72252 22.8391 6.72252C23.0993 6.72252 23.3041 6.825 23.4576 7.03423C23.6069 7.24345 23.6837 7.62775 23.6837 8.18712V8.53299C23.6837 9.2845 23.5813 9.76701 23.3766 9.98478M25.1895 7.99924C25.1895 7.16659 25.0146 6.57307 24.6606 6.22293C24.3108 5.87279 23.8927 5.69772 23.415 5.69772C23.0652 5.69772 22.7452 5.77458 22.4509 5.93684C22.1566 6.09483 21.9518 6.30833 21.8366 6.57307L21.8068 5.8002H20.4076V12.5809H21.858V10.7491C22.0073 10.8772 22.1864 10.9669 22.404 11.0138C22.6173 11.0608 22.8178 11.0864 22.9969 11.0864C23.688 11.0864 24.2255 10.8729 24.6094 10.4417C24.9933 10.0104 25.1895 9.39979 25.1895 8.60985V7.99924Z" fill="#9CBE31"/>
<path d="M27.7575 4.63449C27.7575 4.85226 27.685 5.03587 27.5357 5.18532C27.3864 5.33477 27.2072 5.40736 26.9982 5.40736C26.7892 5.40736 26.61 5.33477 26.4607 5.18532C26.3114 5.03587 26.2346 4.85226 26.2346 4.63449C26.2346 4.41672 26.3114 4.24165 26.4607 4.09647C26.61 3.94702 26.7892 3.87444 26.9982 3.87444C27.2072 3.87444 27.3906 3.94702 27.5357 4.09647C27.685 4.24592 27.7575 4.42526 27.7575 4.63449ZM27.7276 11.0224H26.2773V5.79592H27.7276V11.0224Z" fill="#9CBE31"/>
<path d="M33.3926 11.0224H32.0318L32.0062 10.3392C31.8953 10.557 31.7076 10.7363 31.4431 10.8729C31.1787 11.0138 30.8758 11.0822 30.5217 11.0822C29.9459 11.0822 29.5065 10.937 29.2121 10.6466C28.9178 10.3563 28.7685 9.91646 28.7685 9.3272V9.23753C28.7685 8.65254 28.9647 8.2042 29.3614 7.88822C29.7582 7.57224 30.2871 7.41425 30.9568 7.41425C31.1573 7.41425 31.3578 7.44414 31.5541 7.50392C31.7503 7.5637 31.8953 7.63629 31.9849 7.72169V7.20502C31.9849 7.02568 31.9039 6.87197 31.7418 6.74814C31.5797 6.62431 31.3493 6.56026 31.0507 6.56026C30.7308 6.56026 30.4449 6.59442 30.1933 6.66701C29.9416 6.7396 29.724 6.825 29.5406 6.93175V6.04786C29.7795 5.95392 30.0482 5.86852 30.3426 5.8002C30.6369 5.73188 30.9952 5.69772 31.4176 5.69772C32.0915 5.69772 32.5906 5.85144 32.9148 6.15461C33.2348 6.45778 33.3969 6.94456 33.3969 7.61494V11.0266L33.3926 11.0224ZM31.9934 9.27169V9.13078C31.9934 8.8148 31.9209 8.57569 31.7716 8.40916C31.6223 8.24263 31.4048 8.1615 31.1189 8.1615C30.8459 8.1615 30.6326 8.23836 30.4748 8.39635C30.317 8.55434 30.2359 8.80199 30.2359 9.13932V9.28023C30.2359 9.63464 30.317 9.86949 30.4876 9.98905C30.654 10.1086 30.8673 10.1684 31.1275 10.1684C31.3493 10.1684 31.5498 10.0958 31.729 9.95062C31.9081 9.80544 31.9977 9.57913 31.9977 9.27169" fill="#9CBE31"/>
<path d="M44.3685 5.79593L42.2442 11.0224H41.3484L40.316 8.3451L39.2197 11.0224H38.3196L36.2934 5.79593H37.7352L38.9339 8.90874L40.1625 5.79593H40.8237L41.9712 9.01549L43.2168 5.79593H44.3685Z" fill="#9CBE31"/>
<path d="M46.4929 4.63449C46.4929 4.85226 46.4203 5.03587 46.271 5.18532C46.1217 5.33477 45.9426 5.40736 45.7335 5.40736C45.5245 5.40736 45.3454 5.33477 45.1961 5.18532C45.0468 5.03587 44.97 4.85226 44.97 4.63449C44.97 4.41672 45.0468 4.24165 45.1961 4.09647C45.3454 3.94702 45.5245 3.87444 45.7335 3.87444C45.9426 3.87444 46.126 3.94702 46.271 4.09647C46.4203 4.24592 46.4929 4.42526 46.4929 4.63449ZM46.463 11.0224H45.0126V5.79592H46.463V11.0224Z" fill="#9CBE31"/>
<path d="M50.7203 6.69263H49.3424V9.37844C49.3424 9.65172 49.3893 9.85241 49.4789 9.98051C49.5685 10.1086 49.7434 10.1727 50.0036 10.1727C50.1273 10.1727 50.2468 10.1641 50.3619 10.1428C50.4771 10.1214 50.5838 10.1001 50.6776 10.0702V10.8857C50.524 10.9498 50.3321 10.9968 50.1103 11.0266C49.8842 11.0565 49.6623 11.0693 49.4448 11.0693C48.967 11.0693 48.5916 10.9156 48.3101 10.6082C48.0328 10.3008 47.892 9.86095 47.892 9.2845V6.68836H47.2778V5.94538L47.9475 5.91549L48.4423 4.17761H49.3467V5.90695H50.7245V6.6969L50.7203 6.69263Z" fill="#9CBE31"/>
<path d="M56.189 11.0224H54.7386V7.36301C54.7386 7.20075 54.6917 7.06838 54.5936 6.96163C54.4998 6.85488 54.3462 6.80364 54.1414 6.80364C53.9367 6.80364 53.7362 6.84634 53.5528 6.93174C53.3693 7.01714 53.22 7.12816 53.1006 7.26907V11.0224H51.6502V4.17334H53.1006V6.59868C53.2627 6.36811 53.4845 6.15888 53.7788 5.97527C54.0689 5.78739 54.4358 5.69772 54.8751 5.69772C55.3145 5.69772 55.6387 5.83436 55.8563 6.10764C56.0738 6.38092 56.1847 6.79937 56.1847 7.36301V11.0266L56.189 11.0224Z" fill="#9CBE31"/>
<path d="M67.4593 11.0224H66.0089V7.363C66.0089 7.22209 65.9449 7.094 65.8169 6.97871C65.689 6.86342 65.5354 6.80791 65.3605 6.80791C65.1259 6.80791 64.9297 6.85915 64.7676 6.9659C64.6055 7.07265 64.4732 7.20501 64.3751 7.363V11.0266H62.9247V7.36727C62.9247 7.21782 62.865 7.08973 62.7498 6.97871C62.6347 6.86769 62.4726 6.81218 62.2678 6.81218C62.0375 6.81218 61.8412 6.85488 61.6834 6.94028C61.5256 7.02568 61.3976 7.1367 61.2909 7.27333V11.0266H59.8406V5.79592H61.2355L61.2611 6.6243C61.4147 6.33821 61.6365 6.11617 61.918 5.94537C62.2038 5.77884 62.5451 5.69344 62.9503 5.69344C63.3129 5.69344 63.603 5.78311 63.812 5.95391C64.0253 6.12898 64.1832 6.3681 64.2813 6.67127C64.4647 6.29124 64.6993 6.03931 64.9851 5.90694C65.2709 5.77457 65.5951 5.70198 65.9705 5.68917C66.4014 5.67636 66.7554 5.82581 67.0327 6.13325C67.3142 6.44496 67.4507 6.84207 67.4507 7.32884V11.0181L67.4593 11.0224Z" fill="#9CBE31"/>
<path d="M69.959 7.93518C69.9761 7.41852 70.0955 7.0513 70.3088 6.83353C70.5264 6.61576 70.7695 6.50474 71.0468 6.50474C71.3624 6.50474 71.6141 6.61576 71.8104 6.8378C72.0066 7.05984 72.1175 7.42706 72.1474 7.93518H69.959ZM73.4953 8.19138C73.4953 7.43987 73.2863 6.82926 72.864 6.36383C72.4417 5.89414 71.8402 5.66356 71.0468 5.66356C70.215 5.66356 69.5836 5.91549 69.1442 6.41507C68.7049 6.91466 68.4873 7.52527 68.4873 8.24689V8.61838C68.4873 9.44249 68.7262 10.0659 69.204 10.4972C69.6817 10.9242 70.3216 11.1419 71.1278 11.1419C71.5501 11.1419 71.917 11.1035 72.2412 11.0309C72.5654 10.9583 72.8597 10.8473 73.1242 10.7021V9.82678C72.8128 9.96769 72.5142 10.0744 72.2241 10.1428C71.9341 10.2111 71.6483 10.2495 71.3667 10.2495C70.9444 10.2495 70.6031 10.1342 70.3429 9.90791C70.0784 9.67733 69.9462 9.27169 69.9462 8.6867H73.4911V8.19992L73.4953 8.19138Z" fill="#9CBE31"/>
<path d="M77.3388 9.94207C77.1682 10.0531 76.9805 10.1043 76.78 10.1043C76.4814 10.1043 76.2639 9.99331 76.1231 9.77554C75.9823 9.55351 75.9098 9.17775 75.9098 8.63973V8.27678C75.9098 7.60213 75.9994 7.1367 76.1786 6.88477C76.3577 6.63284 76.5966 6.50475 76.8952 6.50475C77.1128 6.50475 77.2877 6.54744 77.4156 6.62857C77.5479 6.71397 77.646 6.81645 77.7185 6.94028V9.5407C77.6375 9.69868 77.5095 9.83105 77.3388 9.94207ZM79.1689 4.17334H77.7185V6.11191C77.5649 5.96246 77.39 5.85998 77.181 5.81301C76.972 5.76604 76.78 5.74042 76.6009 5.74042C75.8757 5.74042 75.3254 5.96246 74.9543 6.40227C74.5831 6.84207 74.3954 7.45695 74.3954 8.24262V8.78918C74.3954 9.64745 74.5703 10.2452 74.9159 10.5868C75.2657 10.9284 75.6965 11.1035 76.2169 11.1035C76.5539 11.1035 76.8397 11.0437 77.0658 10.9242C77.2919 10.8046 77.5137 10.5996 77.7313 10.3136L77.7654 11.0352H79.1603V4.17334H79.1689Z" fill="#9CBE31"/>
<path d="M81.963 4.63449C81.963 4.85226 81.8904 5.03587 81.7411 5.18532C81.5918 5.33477 81.4127 5.40736 81.2036 5.40736C80.9946 5.40736 80.8155 5.33477 80.6662 5.18532C80.5169 5.03587 80.4443 4.85226 80.4443 4.63449C80.4443 4.41672 80.5169 4.24165 80.6662 4.09647C80.8155 3.94702 80.9946 3.87444 81.2036 3.87444C81.4127 3.87444 81.5961 3.94702 81.7411 4.09647C81.8904 4.24592 81.963 4.42526 81.963 4.63449ZM81.9288 11.0224H80.4785V5.79592H81.9288V11.0224Z" fill="#9CBE31"/>
<path d="M86.4719 9.91645C86.2501 10.1513 85.9856 10.2709 85.6785 10.2709C85.3372 10.2709 85.0684 10.1513 84.8637 9.90791C84.6632 9.66452 84.5608 9.17348 84.5608 8.43904V8.36218C84.5608 7.6918 84.6632 7.21783 84.8722 6.94028C85.077 6.66273 85.3457 6.52609 85.6742 6.52609C86.0027 6.52609 86.2543 6.65419 86.4719 6.91466C86.6895 7.17086 86.7961 7.65337 86.7961 8.36218V8.43904C86.7961 9.18629 86.6852 9.6816 86.4676 9.91645M88.2934 8.23408C88.2934 7.46976 88.063 6.85061 87.5981 6.37664C87.1331 5.90268 86.4932 5.66356 85.6785 5.66356C84.8637 5.66356 84.2281 5.90268 83.7589 6.37237C83.2896 6.84634 83.055 7.46549 83.055 8.23408V8.56714C83.055 9.35282 83.2939 9.9805 83.7674 10.4417C84.2409 10.9028 84.8808 11.1377 85.687 11.1377C86.4932 11.1377 87.1374 10.9114 87.5981 10.4587C88.063 10.0061 88.2934 9.37417 88.2934 8.56714V8.23408Z" fill="#9CBE31"/>
<path d="M92.397 9.98478C92.1923 10.2025 91.9833 10.3136 91.77 10.3136C91.5268 10.3136 91.3263 10.2581 91.1642 10.147C91.0021 10.036 90.9083 9.92073 90.887 9.80544V7.27761C90.968 7.14097 91.1002 7.01714 91.2794 6.89759C91.4628 6.77803 91.6548 6.72252 91.8596 6.72252C92.1198 6.72252 92.3245 6.825 92.4781 7.03423C92.6274 7.24345 92.7042 7.62775 92.7042 8.18712V8.53299C92.7042 9.2845 92.6018 9.76701 92.397 9.98478ZM94.2143 7.99924C94.2143 7.16659 94.0394 6.57307 93.6896 6.22293C93.3398 5.87279 92.9217 5.69772 92.444 5.69772C92.0942 5.69772 91.7742 5.77458 91.4799 5.93684C91.1856 6.09483 90.9851 6.30833 90.8656 6.57307L90.8358 5.8002H89.4366V12.5809H90.887V10.7491C91.0363 10.8772 91.2154 10.9669 91.433 11.0138C91.6463 11.0608 91.8468 11.0864 92.0259 11.0864C92.717 11.0864 93.2545 10.8729 93.6384 10.4417C94.0223 10.0104 94.2185 9.39979 94.2185 8.60985V7.99924H94.2143Z" fill="#9CBE31"/>
<path d="M96.7823 4.63449C96.7823 4.85226 96.7098 5.03587 96.5605 5.18532C96.4112 5.33477 96.232 5.40736 96.023 5.40736C95.814 5.40736 95.6348 5.33477 95.4855 5.18532C95.3362 5.03587 95.2637 4.85226 95.2637 4.63449C95.2637 4.41672 95.3362 4.24165 95.4855 4.09647C95.6348 3.94702 95.814 3.87444 96.023 3.87444C96.232 3.87444 96.4154 3.94702 96.5605 4.09647C96.7098 4.24592 96.7823 4.42526 96.7823 4.63449ZM96.7482 11.0224H95.2978V5.79592H96.7482V11.0224Z" fill="#9CBE31"/>
<path d="M100.749 9.95488C100.57 10.1001 100.37 10.1727 100.148 10.1727C99.8878 10.1727 99.6745 10.1129 99.5081 9.99331C99.3418 9.87375 99.2564 9.63891 99.2564 9.2845V9.14359C99.2564 8.80626 99.3375 8.5586 99.4953 8.40061C99.6532 8.24262 99.8707 8.16577 100.139 8.16577C100.43 8.16577 100.647 8.24689 100.796 8.41342C100.946 8.57995 101.018 8.81907 101.018 9.13505V9.27596C101.018 9.58767 100.929 9.80971 100.754 9.95488M102.413 7.61067C102.413 6.94455 102.251 6.45778 101.931 6.15034C101.607 5.84717 101.108 5.69345 100.434 5.69345C100.011 5.69345 99.6574 5.72761 99.3631 5.79593C99.0687 5.86425 98.8 5.94538 98.5611 6.04359V6.92747C98.7445 6.82072 98.9621 6.73532 99.2138 6.66273C99.4655 6.59015 99.7513 6.55599 100.071 6.55599C100.37 6.55599 100.6 6.62004 100.767 6.74386C100.929 6.86769 101.01 7.02141 101.01 7.20075V7.71742C100.92 7.63202 100.775 7.55516 100.579 7.49965C100.383 7.43987 100.182 7.40998 99.9816 7.40998C99.3162 7.40998 98.7829 7.56797 98.3862 7.88395C97.9895 8.19993 97.7933 8.65254 97.7933 9.23326V9.32293C97.7933 9.91218 97.9426 10.352 98.2369 10.6423C98.5313 10.9327 98.9706 11.0779 99.5465 11.0779C99.8963 11.0779 100.203 11.0096 100.468 10.8687C100.732 10.7277 100.92 10.5527 101.031 10.3349L101.057 11.0181H102.417V7.6064L102.413 7.61067Z" fill="#9CBE31"/>
<path d="M17.8737 36.3689L17.5751 28.6744C17.5751 27.4233 17.5666 26.4583 17.5452 25.7794C17.4471 22.3805 17.3959 20.5914 17.3959 20.412C16.7177 22.8587 15.9413 25.4549 15.0668 28.2005L12.6183 36.0487H9.06485L6.91489 28.2432C6.21957 25.8306 5.60956 23.2089 5.0934 20.3779C4.95263 23.1662 4.81612 25.9459 4.67535 28.7171L4.31703 36.3689H0.106689L1.39069 16.2446H7.45238L9.42318 22.9698C10.1014 25.3012 10.6688 27.7052 11.1252 30.1732C11.7822 27.7607 12.4476 25.3481 13.1259 22.9399L15.2758 16.2446H21.2181L22.3229 36.3647H17.8737V36.3689Z" fill="#9CBE31"/>
<path d="M37.074 24.144V27.8802H29.6856V32.6327H37.9399V36.3689H25.0999V16.2446H37.5219V19.9808H29.6856V24.144H37.074Z" fill="#9CBE31"/>
<path d="M40.2989 36.2835V16.505C42.0309 16.2275 44.0827 16.0866 46.4545 16.0866C48.4082 16.0866 50.0207 16.2446 51.2962 16.5648C52.5716 16.885 53.7277 17.4316 54.7642 18.2087C55.8008 18.9859 56.6156 20.0107 57.2128 21.2874C57.81 22.5598 58.1086 24.0757 58.1086 25.8264C58.1086 27.6795 57.8143 29.2765 57.2256 30.6216C56.6369 31.9666 55.8264 33.0768 54.7898 33.9521C53.7533 34.8275 52.4266 35.4851 50.8141 35.9249C49.2017 36.3647 47.4186 36.5824 45.4648 36.5824C44.3685 36.5824 43.413 36.5568 42.5939 36.5098C41.7792 36.4586 41.0113 36.386 40.2947 36.2835M44.8847 19.7844V32.9145C44.9828 32.9359 45.1577 32.953 45.4051 32.9743C45.6525 32.9957 46.0066 33.0042 46.463 33.0042C48.6087 33.0042 50.2553 32.4406 51.4071 31.3047C52.6399 30.1134 53.2542 28.3371 53.2542 25.9758C53.2542 23.8707 52.6953 22.2866 51.5862 21.2148C50.4729 20.143 48.9244 19.605 46.9365 19.605C46.4801 19.605 46.0748 19.6264 45.7165 19.6648C45.3582 19.7032 45.0809 19.7417 44.8847 19.7844Z" fill="#9CBE31"/>
<path d="M64.9211 16.2446H60.3354V36.3647H64.9211V16.2446Z" fill="#9CBE31"/>
<path d="M76.6392 36.6892C73.7129 36.6892 71.3965 35.7242 69.6945 33.7899C67.9924 31.8556 67.1393 29.4046 67.1393 26.4327C67.1393 23.4608 68.0394 20.8348 69.8438 18.8535C71.644 16.868 74.0115 15.8773 76.9378 15.8773C79.8641 15.8773 82.3127 16.8765 84.0489 18.8663C85.6827 20.7408 86.4974 23.1448 86.4974 26.074C86.4974 29.3448 85.5974 31.9324 83.7929 33.8368C81.9928 35.7412 79.6082 36.6935 76.6392 36.6935M76.7928 33.0597C78.2986 33.0597 79.4845 32.4235 80.3504 31.151C81.2121 29.8786 81.6472 28.2346 81.6472 26.2235C81.6472 24.2123 81.2292 22.7392 80.3974 21.5052C79.5058 20.1729 78.3029 19.5025 76.797 19.5025C75.2912 19.5025 74.1266 20.1558 73.2564 21.4582C72.3819 22.7648 71.9468 24.3789 71.9468 26.3089C71.9468 28.2389 72.3819 29.8999 73.2564 31.1638C74.1309 32.4278 75.3083 33.0597 76.797 33.0597" fill="#9CBE31"/>
<path d="M88.7626 36.3689L88.8138 16.505C89.5689 16.3684 90.4434 16.2616 91.4373 16.1933C92.4312 16.125 93.5915 16.0866 94.9267 16.0866C97.6696 16.0866 99.7172 16.6246 101.069 17.7006C101.726 18.2173 102.247 18.8877 102.635 19.7032C103.023 20.5188 103.215 21.4069 103.215 22.3634C103.215 24.3746 102.601 25.9716 101.368 27.1458C99.8366 28.5592 97.6653 29.268 94.8457 29.268L93.2972 29.1655V36.3689H88.7669H88.7626ZM93.2972 19.652V25.63C93.6128 25.7111 94.1119 25.7495 94.7859 25.7495C95.9974 25.7495 96.9487 25.4634 97.644 24.8827C98.3393 24.3063 98.6849 23.4992 98.6849 22.4616C98.6849 21.5052 98.382 20.775 97.7763 20.2669C97.1705 19.7587 96.2918 19.5025 95.1443 19.5025C94.6068 19.5025 94.2655 19.5068 94.1162 19.5196C93.9669 19.5282 93.6939 19.5751 93.2972 19.652Z" fill="#9CBE31"/>
<path d="M109.951 16.2446H105.365V36.3647H109.951V16.2446Z" fill="#9CBE31"/>
<path d="M123.55 31.1895H117.787L116.354 36.3647H111.636L117.787 16.2446H123.759L130 36.3647H125.103L123.55 31.1895ZM118.435 27.7735H122.863L121.618 23.5249C121.46 22.9698 121.276 22.2866 121.067 21.4753C120.858 20.664 120.705 20.0576 120.607 19.6605C120.449 20.1772 120.278 20.822 120.099 21.5906C119.86 22.5812 119.702 23.226 119.626 23.5206L118.44 27.7692L118.435 27.7735Z" fill="#9CBE31"/>
</g>
</g>
<defs>
<clipPath id="clip0_2133_2624">
<rect width="130" height="33.3784" fill="white" transform="translate(0 3.31081)"/>
</clipPath>
</defs>
</svg>
