<svg width="24" height="25" viewBox="0 0 24 25" fill="none" xmlns="http://www.w3.org/2000/svg">
<path fill-rule="evenodd" clip-rule="evenodd" d="M21.5 12.8086C21.5 18.0553 17.2467 22.3086 12 22.3086C6.75329 22.3086 2.5 18.0553 2.5 12.8086C2.5 7.56189 6.75329 3.30859 12 3.30859C17.2467 3.30859 21.5 7.56189 21.5 12.8086ZM13.2451 8.80859C13.2451 8.11824 12.6855 7.55859 11.9951 7.55859C11.3048 7.55859 10.7451 8.11824 10.7451 8.80859V12.8086C10.7451 13.4989 11.3048 14.0586 11.9951 14.0586C12.6855 14.0586 13.2451 13.4989 13.2451 12.8086V8.80859ZM11.9951 15.5586C11.3048 15.5586 10.7451 16.1182 10.7451 16.8086C10.7451 17.499 11.3048 18.0586 11.9951 18.0586H12.0051C12.6955 18.0586 13.2551 17.499 13.2551 16.8086C13.2551 16.1182 12.6955 15.5586 12.0051 15.5586H11.9951Z" fill="black"/>
</svg>
