<svg width="20" height="21" viewBox="0 0 20 21" fill="none" xmlns="http://www.w3.org/2000/svg">
<g clip-path="url(#clip0_1476_16396)">
<path d="M10.8008 4.84H18.2808C16.6208 2.4 13.9108 0.74 10.8008 0.5V4.84Z" fill="#001133"/>
<path d="M10.8008 6.43945V9.63945H19.9608C19.8708 8.50945 19.6008 7.42945 19.1608 6.43945H10.8008Z" fill="#001133"/>
<path d="M19.9608 11.2402H10.8008V14.4402H19.1608C19.6008 13.4502 19.8708 12.3702 19.9608 11.2402Z" fill="#001133"/>
<path d="M10.8008 16.0391V20.3791C13.9108 20.1391 16.6208 18.4791 18.2808 16.0391H10.8008Z" fill="#001133"/>
<path d="M9.20078 0.5C4.08078 0.92 0.0507812 5.21 0.0507812 10.44C0.0507812 15.67 4.08078 19.95 9.20078 20.37V0.5Z" fill="#001133"/>
</g>
<defs>
<clipPath id="clip0_1476_16396">
<rect width="20" height="20.04" fill="white" transform="translate(0 0.5)"/>
</clipPath>
</defs>
</svg>
