<svg width="20" height="21" viewBox="0 0 20 21" fill="none" xmlns="http://www.w3.org/2000/svg">
<g clip-path="url(#clip0_938_31815)">
<path d="M2 18.1523C1.45 18.1523 0.979167 17.9565 0.5875 17.5648C0.195833 17.1732 0 16.7023 0 16.1523V4.15234C0 3.60234 0.195833 3.13151 0.5875 2.73984C0.979167 2.34818 1.45 2.15234 2 2.15234H14C14.55 2.15234 15.0208 2.34818 15.4125 2.73984C15.8042 3.13151 16 3.60234 16 4.15234V8.65234L19.15 5.50234C19.3167 5.33568 19.5 5.29401 19.7 5.37734C19.9 5.46068 20 5.61901 20 5.85234V14.4523C20 14.6857 19.9 14.844 19.7 14.9273C19.5 15.0107 19.3167 14.969 19.15 14.8023L16 11.6523V16.1523C16 16.7023 15.8042 17.1732 15.4125 17.5648C15.0208 17.9565 14.55 18.1523 14 18.1523H2ZM2 16.1523L1.67506 3.55714L14 4.15234H2V16.1523Z" fill="#001133"/>
</g>
<defs>
<clipPath id="clip0_938_31815">
<rect width="20" height="20" fill="white" transform="translate(0 0.152344)"/>
</clipPath>
</defs>
</svg>
