<svg width="25" height="24" viewBox="0 0 25 24" fill="none" xmlns="http://www.w3.org/2000/svg">
<path d="M7.19727 4.98963C7.19727 4.01847 7.19727 3.53289 7.39976 3.26522C7.57616 3.03203 7.84579 2.88773 8.13766 2.8703C8.4727 2.8503 8.87673 3.11965 9.68479 3.65835L20.2003 10.6687C20.868 11.1139 21.2019 11.3364 21.3182 11.6169C21.4199 11.8622 21.4199 12.1378 21.3182 12.3831C21.2019 12.6636 20.868 12.8862 20.2003 13.3313L9.68478 20.3417C8.87673 20.8804 8.4727 21.1497 8.13766 21.1297C7.84579 21.1123 7.57616 20.968 7.39976 20.7348C7.19727 20.4671 7.19727 19.9815 7.19727 19.0104V4.98963Z" stroke="black" stroke-width="2" stroke-linecap="round" stroke-linejoin="round"/>
</svg>
