<svg width="640" height="400" viewBox="0 0 640 400" fill="none" xmlns="http://www.w3.org/2000/svg">
<rect width="640" height="400" fill="white"/>
<rect x="88.5" y="90.5" width="191" height="41" rx="5.5" stroke="#A6A6A6"/>
<path fill-rule="evenodd" clip-rule="evenodd" d="M108 121C113.523 121 118 116.523 118 111C118 105.477 113.523 101 108 101C102.477 101 98 105.477 98 111C98 116.523 102.477 121 108 121ZM109 105.168C109 104.616 108.552 104.168 108 104.168C107.448 104.168 107 104.616 107 105.168V111.168C107 111.547 107.214 111.893 107.553 112.062L111.553 114.062C112.047 114.309 112.647 114.109 112.894 113.615C113.141 113.121 112.941 112.521 112.447 112.274L109 110.55V105.168Z" fill="#BFBFBF"/>
<rect x="88.5" y="158.5" width="191" height="41" rx="5.5" stroke="#A6A6A6"/>
<path fill-rule="evenodd" clip-rule="evenodd" d="M108 189C113.523 189 118 184.523 118 179C118 173.477 113.523 169 108 169C102.477 169 98 173.477 98 179C98 184.523 102.477 189 108 189ZM109 173.168C109 172.616 108.552 172.168 108 172.168C107.448 172.168 107 172.616 107 173.168V179.168C107 179.547 107.214 179.893 107.553 180.062L111.553 182.062C112.047 182.309 112.647 182.109 112.894 181.615C113.141 181.121 112.941 180.521 112.447 180.274L109 178.55V173.168Z" fill="#BFBFBF"/>
<path d="M143.609 183.696H142.393V180.227H143.609V183.696ZM143.001 173.287C143.985 173.291 144.861 173.444 145.631 173.746C146.404 174.044 147.007 174.47 147.438 175.022C147.869 175.571 148.084 176.204 148.084 176.923C148.084 177.652 147.869 178.291 147.438 178.84C147.007 179.389 146.404 179.812 145.631 180.11C144.861 180.409 143.985 180.558 143.001 180.558C142.025 180.558 141.152 180.409 140.382 180.11C139.616 179.812 139.016 179.389 138.581 178.84C138.147 178.287 137.929 177.648 137.929 176.923C137.929 176.204 138.147 175.571 138.581 175.022C139.016 174.47 139.616 174.044 140.382 173.746C141.152 173.444 142.025 173.291 143.001 173.287ZM143.001 174.304C142.261 174.3 141.594 174.409 141.001 174.63C140.412 174.847 139.95 175.155 139.614 175.552C139.279 175.95 139.112 176.407 139.112 176.923C139.112 177.446 139.279 177.908 139.614 178.309C139.95 178.711 140.412 179.022 141.001 179.243C141.59 179.46 142.257 179.571 143.001 179.575C143.749 179.571 144.417 179.46 145.007 179.243C145.6 179.022 146.064 178.711 146.399 178.309C146.734 177.908 146.902 177.446 146.902 176.923C146.902 176.407 146.734 175.95 146.399 175.552C146.064 175.155 145.6 174.847 145.007 174.63C144.414 174.409 143.745 174.3 143.001 174.304ZM149.399 184.481H136.681V183.453H149.399V184.481ZM162.492 177.243H158.934V176.238H162.492V177.243ZM163.023 182.58H161.796V172.392H163.023V182.58ZM163.409 185.961H154.106V184.945H163.409V185.961ZM155.332 185.442H154.106V181.663H155.332V185.442ZM156.117 175.254C156.113 176.087 155.945 176.871 155.614 177.608C155.286 178.344 154.827 178.989 154.238 179.541C153.649 180.094 152.971 180.514 152.205 180.801L151.564 179.796C152.245 179.556 152.853 179.206 153.387 178.746C153.925 178.282 154.345 177.748 154.647 177.144C154.949 176.536 155.1 175.906 155.1 175.254V174.116H156.117V175.254ZM156.338 175.254C156.338 175.843 156.483 176.42 156.774 176.983C157.065 177.547 157.468 178.048 157.984 178.486C158.5 178.924 159.093 179.258 159.763 179.486L159.122 180.47C158.374 180.201 157.713 179.805 157.139 179.282C156.568 178.755 156.124 178.145 155.807 177.453C155.49 176.757 155.332 176.024 155.332 175.254V174.116H156.338V175.254ZM159.443 174.536H151.962V173.519H159.443V174.536ZM172.822 185.088C172.642 185.088 172.472 185.042 172.314 184.95C172.159 184.858 172.036 184.737 171.944 184.586C171.855 184.431 171.813 184.263 171.817 184.083C171.813 183.902 171.855 183.735 171.944 183.58C172.036 183.422 172.159 183.298 172.314 183.21C172.472 183.122 172.642 183.077 172.822 183.077C173.003 183.077 173.17 183.122 173.325 183.21C173.483 183.298 173.607 183.422 173.695 183.58C173.784 183.735 173.828 183.902 173.828 184.083C173.828 184.263 173.784 184.431 173.695 184.586C173.607 184.737 173.483 184.858 173.325 184.95C173.17 185.042 173.003 185.088 172.822 185.088ZM172.833 178.801C172.653 178.801 172.483 178.755 172.325 178.663C172.17 178.571 172.047 178.449 171.955 178.298C171.866 178.144 171.824 177.976 171.828 177.796C171.824 177.615 171.866 177.448 171.955 177.293C172.047 177.134 172.17 177.011 172.325 176.923C172.483 176.834 172.653 176.79 172.833 176.79C173.014 176.79 173.181 176.834 173.336 176.923C173.494 177.011 173.618 177.134 173.706 177.293C173.795 177.448 173.839 177.615 173.839 177.796C173.839 177.976 173.795 178.144 173.706 178.298C173.618 178.449 173.494 178.571 173.336 178.663C173.181 178.755 173.014 178.801 172.833 178.801ZM185.928 185H184.514V175.155H184.447L181.696 176.978V175.564L184.514 173.685H185.928V185ZM193.944 185H192.529V175.155H192.463L189.712 176.978V175.564L192.529 173.685H193.944V185ZM203.947 185.088C203.767 185.088 203.597 185.042 203.439 184.95C203.284 184.858 203.161 184.737 203.069 184.586C202.98 184.431 202.938 184.263 202.942 184.083C202.938 183.902 202.98 183.735 203.069 183.58C203.161 183.422 203.284 183.298 203.439 183.21C203.597 183.122 203.767 183.077 203.947 183.077C204.128 183.077 204.295 183.122 204.45 183.21C204.608 183.298 204.732 183.422 204.82 183.58C204.909 183.735 204.953 183.902 204.953 184.083C204.953 184.263 204.909 184.431 204.82 184.586C204.732 184.737 204.608 184.858 204.45 184.95C204.295 185.042 204.128 185.088 203.947 185.088ZM203.958 178.801C203.778 178.801 203.608 178.755 203.45 178.663C203.295 178.571 203.172 178.449 203.08 178.298C202.991 178.144 202.949 177.976 202.953 177.796C202.949 177.615 202.991 177.448 203.08 177.293C203.172 177.134 203.295 177.011 203.45 176.923C203.608 176.834 203.778 176.79 203.958 176.79C204.139 176.79 204.306 176.834 204.461 176.923C204.619 177.011 204.743 177.134 204.831 177.293C204.92 177.448 204.964 177.615 204.964 177.796C204.964 177.976 204.92 178.144 204.831 178.298C204.743 178.449 204.619 178.571 204.461 178.663C204.306 178.755 204.139 178.801 203.958 178.801ZM217.053 185H215.639V175.155H215.572L212.821 176.978V175.564L215.639 173.685H217.053V185ZM224.98 185.155C224.236 185.155 223.57 185.029 222.98 184.779C222.391 184.529 221.925 184.177 221.582 183.724C221.244 183.271 221.061 182.75 221.035 182.16H222.461C222.487 182.51 222.612 182.818 222.837 183.083C223.065 183.344 223.363 183.547 223.732 183.691C224.1 183.834 224.509 183.906 224.958 183.906C225.452 183.906 225.894 183.821 226.284 183.652C226.674 183.483 226.98 183.249 227.201 182.95C227.422 182.648 227.533 182.304 227.533 181.917C227.533 181.505 227.426 181.14 227.212 180.823C226.999 180.506 226.684 180.26 226.267 180.083C225.855 179.906 225.36 179.818 224.781 179.818H223.864V178.58H224.781C225.238 178.58 225.645 178.499 226.002 178.337C226.36 178.175 226.636 177.948 226.831 177.657C227.026 177.363 227.124 177.022 227.124 176.635C227.124 176.263 227.037 175.936 226.864 175.652C226.691 175.365 226.444 175.144 226.124 174.989C225.803 174.834 225.43 174.757 225.002 174.757C224.597 174.757 224.218 174.829 223.864 174.972C223.511 175.116 223.221 175.322 222.997 175.591C222.776 175.856 222.656 176.168 222.638 176.525H221.279C221.301 175.943 221.481 175.424 221.82 174.967C222.159 174.51 222.61 174.157 223.174 173.906C223.737 173.656 224.354 173.53 225.024 173.53C225.721 173.53 226.33 173.669 226.853 173.945C227.38 174.221 227.783 174.591 228.063 175.055C228.347 175.519 228.487 176.024 228.483 176.569C228.487 176.989 228.411 177.372 228.256 177.718C228.105 178.064 227.883 178.357 227.588 178.597C227.297 178.836 226.954 179.011 226.56 179.122V179.21C227.046 179.284 227.468 179.442 227.825 179.685C228.183 179.928 228.453 180.243 228.638 180.63C228.825 181.017 228.918 181.449 228.914 181.928C228.918 182.536 228.748 183.087 228.406 183.58C228.067 184.07 227.595 184.455 226.991 184.735C226.391 185.015 225.721 185.155 224.98 185.155Z" fill="#121212"/>
<rect x="344.5" y="90.5" width="191" height="41" rx="5.5" stroke="#A6A6A6"/>
<path fill-rule="evenodd" clip-rule="evenodd" d="M364 121C369.523 121 374 116.523 374 111C374 105.477 369.523 101 364 101C358.477 101 354 105.477 354 111C354 116.523 358.477 121 364 121ZM365 105.168C365 104.616 364.552 104.168 364 104.168C363.448 104.168 363 104.616 363 105.168V111.168C363 111.547 363.214 111.893 363.553 112.062L367.553 114.062C368.047 114.309 368.647 114.109 368.894 113.615C369.141 113.121 368.941 112.521 368.447 112.274L365 110.55V105.168Z" fill="#BFBFBF"/>
<path d="M399.602 115.703H398.398V112.219H399.602V115.703ZM399.008 105.281C399.987 105.286 400.862 105.44 401.633 105.742C402.404 106.039 403.005 106.464 403.438 107.016C403.87 107.568 404.086 108.203 404.086 108.922C404.086 109.651 403.87 110.289 403.438 110.836C403.005 111.383 402.404 111.807 401.633 112.109C400.862 112.411 399.987 112.562 399.008 112.562C398.029 112.562 397.156 112.411 396.391 112.109C395.625 111.807 395.023 111.383 394.586 110.836C394.148 110.284 393.93 109.646 393.93 108.922C393.93 108.203 394.148 107.568 394.586 107.016C395.023 106.464 395.625 106.039 396.391 105.742C397.156 105.44 398.029 105.286 399.008 105.281ZM399.008 106.297C398.263 106.297 397.594 106.406 397 106.625C396.411 106.844 395.951 107.154 395.617 107.555C395.284 107.951 395.117 108.406 395.117 108.922C395.117 109.448 395.284 109.911 395.617 110.312C395.951 110.708 396.411 111.018 397 111.242C397.589 111.461 398.258 111.573 399.008 111.578C399.758 111.573 400.427 111.461 401.016 111.242C401.604 111.018 402.065 110.708 402.398 110.312C402.732 109.911 402.898 109.448 402.898 108.922C402.898 108.406 402.732 107.951 402.398 107.555C402.065 107.154 401.602 106.844 401.008 106.625C400.419 106.406 399.753 106.297 399.008 106.297ZM405.398 116.484H392.68V115.453H405.398V116.484ZM418.492 109.25H414.93V108.234H418.492V109.25ZM419.023 114.578H417.789V104.391H419.023V114.578ZM419.414 117.969H410.102V116.938H419.414V117.969ZM411.336 117.438H410.102V113.656H411.336V117.438ZM412.117 107.25C412.117 108.078 411.953 108.862 411.625 109.602C411.297 110.336 410.836 110.982 410.242 111.539C409.654 112.091 408.977 112.51 408.211 112.797L407.57 111.797C408.247 111.557 408.854 111.206 409.391 110.742C409.927 110.279 410.346 109.745 410.648 109.141C410.951 108.531 411.102 107.901 411.102 107.25V106.109H412.117V107.25ZM412.336 107.25C412.336 107.844 412.482 108.422 412.773 108.984C413.065 109.547 413.469 110.047 413.984 110.484C414.5 110.922 415.091 111.255 415.758 111.484L415.117 112.469C414.372 112.198 413.714 111.799 413.141 111.273C412.573 110.747 412.13 110.138 411.812 109.445C411.495 108.753 411.336 108.021 411.336 107.25V106.109H412.336V107.25ZM415.445 106.531H407.961V105.516H415.445V106.531ZM428.82 117.094C428.638 117.094 428.469 117.047 428.312 116.953C428.161 116.859 428.039 116.737 427.945 116.586C427.857 116.43 427.815 116.26 427.82 116.078C427.815 115.901 427.857 115.734 427.945 115.578C428.039 115.422 428.161 115.299 428.312 115.211C428.469 115.122 428.638 115.078 428.82 115.078C429.003 115.078 429.169 115.122 429.32 115.211C429.477 115.299 429.599 115.422 429.688 115.578C429.776 115.734 429.82 115.901 429.82 116.078C429.82 116.26 429.776 116.43 429.688 116.586C429.599 116.737 429.477 116.859 429.32 116.953C429.169 117.047 429.003 117.094 428.82 117.094ZM428.82 110.812C428.638 110.812 428.469 110.766 428.312 110.672C428.161 110.578 428.039 110.456 427.945 110.305C427.857 110.148 427.815 109.979 427.82 109.797C427.815 109.62 427.857 109.453 427.945 109.297C428.039 109.141 428.161 109.018 428.312 108.93C428.469 108.841 428.638 108.797 428.82 108.797C429.003 108.797 429.169 108.841 429.32 108.93C429.477 109.018 429.599 109.141 429.688 109.297C429.776 109.453 429.82 109.62 429.82 109.797C429.82 109.979 429.776 110.148 429.688 110.305C429.599 110.456 429.477 110.578 429.32 110.672C429.169 110.766 429.003 110.812 428.82 110.812ZM441.93 117H440.508V107.156H440.445L437.695 108.984V107.562L440.508 105.688H441.93V117ZM449.945 117H448.523V107.156H448.461L445.711 108.984V107.562L448.523 105.688H449.945V117ZM459.945 117.094C459.763 117.094 459.594 117.047 459.438 116.953C459.286 116.859 459.164 116.737 459.07 116.586C458.982 116.43 458.94 116.26 458.945 116.078C458.94 115.901 458.982 115.734 459.07 115.578C459.164 115.422 459.286 115.299 459.438 115.211C459.594 115.122 459.763 115.078 459.945 115.078C460.128 115.078 460.294 115.122 460.445 115.211C460.602 115.299 460.724 115.422 460.812 115.578C460.901 115.734 460.945 115.901 460.945 116.078C460.945 116.26 460.901 116.43 460.812 116.586C460.724 116.737 460.602 116.859 460.445 116.953C460.294 117.047 460.128 117.094 459.945 117.094ZM459.945 110.812C459.763 110.812 459.594 110.766 459.438 110.672C459.286 110.578 459.164 110.456 459.07 110.305C458.982 110.148 458.94 109.979 458.945 109.797C458.94 109.62 458.982 109.453 459.07 109.297C459.164 109.141 459.286 109.018 459.438 108.93C459.594 108.841 459.763 108.797 459.945 108.797C460.128 108.797 460.294 108.841 460.445 108.93C460.602 109.018 460.724 109.141 460.812 109.297C460.901 109.453 460.945 109.62 460.945 109.797C460.945 109.979 460.901 110.148 460.812 110.305C460.724 110.456 460.602 110.578 460.445 110.672C460.294 110.766 460.128 110.812 459.945 110.812ZM473.055 117H471.633V107.156H471.57L468.82 108.984V107.562L471.633 105.688H473.055V117ZM480.977 117.156C480.232 117.156 479.565 117.031 478.977 116.781C478.393 116.531 477.93 116.18 477.586 115.727C477.242 115.268 477.06 114.745 477.039 114.156H478.461C478.487 114.51 478.612 114.818 478.836 115.078C479.065 115.339 479.362 115.542 479.727 115.688C480.096 115.833 480.508 115.906 480.961 115.906C481.456 115.906 481.898 115.823 482.289 115.656C482.685 115.49 482.992 115.255 483.211 114.953C483.43 114.651 483.539 114.307 483.539 113.922C483.534 113.51 483.424 113.146 483.211 112.828C483.003 112.505 482.69 112.255 482.273 112.078C481.857 111.901 481.362 111.812 480.789 111.812H479.867V110.578H480.789C481.242 110.578 481.646 110.497 482 110.336C482.359 110.174 482.635 109.948 482.828 109.656C483.021 109.359 483.117 109.021 483.117 108.641C483.117 108.266 483.031 107.935 482.859 107.648C482.688 107.362 482.443 107.141 482.125 106.984C481.807 106.828 481.435 106.75 481.008 106.75C480.602 106.755 480.221 106.831 479.867 106.977C479.513 107.117 479.224 107.323 479 107.594C478.776 107.859 478.654 108.172 478.633 108.531H477.273C477.294 107.948 477.477 107.427 477.82 106.969C478.164 106.51 478.617 106.156 479.18 105.906C479.742 105.656 480.357 105.531 481.023 105.531C481.721 105.531 482.333 105.669 482.859 105.945C483.385 106.221 483.786 106.591 484.062 107.055C484.344 107.518 484.482 108.021 484.477 108.562C484.482 108.984 484.406 109.37 484.25 109.719C484.099 110.062 483.878 110.354 483.586 110.594C483.294 110.833 482.951 111.01 482.555 111.125V111.203C483.039 111.276 483.458 111.435 483.812 111.68C484.172 111.924 484.445 112.24 484.633 112.625C484.82 113.01 484.914 113.443 484.914 113.922C484.914 114.531 484.745 115.083 484.406 115.578C484.068 116.068 483.596 116.453 482.992 116.734C482.393 117.016 481.721 117.156 480.977 117.156Z" fill="#121212"/>
<g filter="url(#filter0_d_1_2)">
<g clip-path="url(#clip0_1_2)">
<rect x="344" y="136" width="192" height="174" rx="4" fill="white"/>
<rect x="346" y="180" width="188" height="44" rx="4" fill="#001F29" fill-opacity="0.06"/>
<path d="M369.922 206.547H368.211V203.203H369.922V206.547ZM369.078 196.055C370.078 196.06 370.977 196.221 371.773 196.539C372.576 196.852 373.203 197.297 373.656 197.875C374.109 198.453 374.336 199.117 374.336 199.867C374.336 200.638 374.109 201.312 373.656 201.891C373.203 202.469 372.576 202.917 371.773 203.234C370.977 203.547 370.078 203.703 369.078 203.703C368.073 203.703 367.172 203.547 366.375 203.234C365.583 202.917 364.958 202.469 364.5 201.891C364.047 201.307 363.82 200.633 363.82 199.867C363.82 199.117 364.047 198.453 364.5 197.875C364.958 197.297 365.583 196.852 366.375 196.539C367.172 196.221 368.073 196.06 369.078 196.055ZM369.078 197.453C368.385 197.458 367.768 197.56 367.227 197.758C366.69 197.951 366.271 198.229 365.969 198.594C365.672 198.958 365.523 199.383 365.523 199.867C365.523 200.372 365.672 200.81 365.969 201.18C366.271 201.544 366.69 201.826 367.227 202.023C367.763 202.216 368.38 202.315 369.078 202.32C369.771 202.315 370.385 202.216 370.922 202.023C371.458 201.826 371.875 201.544 372.172 201.18C372.474 200.81 372.625 200.372 372.625 199.867C372.625 199.383 372.474 198.958 372.172 198.594C371.875 198.229 371.456 197.951 370.914 197.758C370.378 197.56 369.766 197.458 369.078 197.453ZM375.555 207.68H362.648V206.25H375.555V207.68ZM387.492 200.43H384.055V199.016H387.492V200.43ZM388.297 205.602H386.562V195.281H388.297V205.602ZM388.656 209.125H379.031V207.703H388.656V209.125ZM380.773 208.5H379.031V204.688H380.773V208.5ZM381.312 198.078C381.312 198.969 381.159 199.805 380.852 200.586C380.544 201.362 380.091 202.044 379.492 202.633C378.898 203.221 378.18 203.661 377.336 203.953L376.438 202.547C377.167 202.307 377.792 201.958 378.312 201.5C378.833 201.036 379.227 200.51 379.492 199.922C379.758 199.333 379.891 198.719 379.891 198.078V197.086H381.312V198.078ZM381.656 198.094C381.656 198.672 381.784 199.234 382.039 199.781C382.299 200.328 382.677 200.82 383.172 201.258C383.672 201.695 384.273 202.031 384.977 202.266L384.109 203.648C383.286 203.372 382.586 202.953 382.008 202.391C381.43 201.828 380.99 201.18 380.688 200.445C380.391 199.706 380.242 198.922 380.242 198.094V197.086H381.656V198.094ZM384.586 197.703H376.945V196.297H384.586V197.703Z" fill="#121212"/>
<path d="M369.656 250.703H368.453V247.219H369.656V250.703ZM369.062 240.281C370.042 240.286 370.917 240.44 371.688 240.742C372.458 241.039 373.06 241.464 373.492 242.016C373.924 242.568 374.141 243.203 374.141 243.922C374.141 244.651 373.924 245.289 373.492 245.836C373.06 246.383 372.458 246.807 371.688 247.109C370.917 247.411 370.042 247.562 369.062 247.562C368.083 247.562 367.211 247.411 366.445 247.109C365.68 246.807 365.078 246.383 364.641 245.836C364.203 245.284 363.984 244.646 363.984 243.922C363.984 243.203 364.203 242.568 364.641 242.016C365.078 241.464 365.68 241.039 366.445 240.742C367.211 240.44 368.083 240.286 369.062 240.281ZM369.062 241.297C368.318 241.297 367.648 241.406 367.055 241.625C366.466 241.844 366.005 242.154 365.672 242.555C365.339 242.951 365.172 243.406 365.172 243.922C365.172 244.448 365.339 244.911 365.672 245.312C366.005 245.708 366.466 246.018 367.055 246.242C367.643 246.461 368.312 246.573 369.062 246.578C369.812 246.573 370.482 246.461 371.07 246.242C371.659 246.018 372.12 245.708 372.453 245.312C372.786 244.911 372.953 244.448 372.953 243.922C372.953 243.406 372.786 242.951 372.453 242.555C372.12 242.154 371.656 241.844 371.062 241.625C370.474 241.406 369.807 241.297 369.062 241.297ZM375.453 251.484H362.734V250.453H375.453V251.484ZM388.484 241.984H377.219V240.969H388.484V241.984ZM389.281 249.391H376.562V248.375H389.281V249.391ZM383.484 253.297H382.281V249.188H383.484V253.297ZM382.891 242.781C383.828 242.781 384.638 242.87 385.32 243.047C386.003 243.224 386.523 243.49 386.883 243.844C387.242 244.193 387.422 244.615 387.422 245.109C387.422 245.594 387.242 246.008 386.883 246.352C386.523 246.69 386.003 246.953 385.32 247.141C384.638 247.323 383.828 247.417 382.891 247.422C381.943 247.417 381.13 247.323 380.453 247.141C379.776 246.953 379.255 246.69 378.891 246.352C378.531 246.008 378.354 245.594 378.359 245.109C378.354 244.615 378.531 244.193 378.891 243.844C379.255 243.49 379.776 243.224 380.453 243.047C381.13 242.87 381.943 242.781 382.891 242.781ZM382.891 243.719C382.203 243.719 381.615 243.773 381.125 243.883C380.635 243.992 380.26 244.151 380 244.359C379.745 244.568 379.62 244.818 379.625 245.109C379.62 245.396 379.745 245.641 380 245.844C380.26 246.042 380.635 246.195 381.125 246.305C381.615 246.414 382.203 246.469 382.891 246.469C383.568 246.469 384.151 246.414 384.641 246.305C385.13 246.195 385.503 246.042 385.758 245.844C386.018 245.641 386.151 245.396 386.156 245.109C386.151 244.818 386.018 244.568 385.758 244.359C385.503 244.151 385.13 243.992 384.641 243.883C384.151 243.773 383.568 243.719 382.891 243.719ZM383.484 241.641H382.281V239.297H383.484V241.641Z" fill="#121212" fill-opacity="0.6"/>
<g clip-path="url(#clip1_1_2)">
<path d="M436.789 164H435.367V154.156H435.305L432.555 155.984V154.562L435.367 152.688H436.789V164ZM443.508 164.156C442.674 164.156 441.964 163.93 441.375 163.477C440.786 163.023 440.336 162.362 440.023 161.492C439.711 160.622 439.555 159.573 439.555 158.344C439.555 157.13 439.711 156.089 440.023 155.219C440.336 154.344 440.786 153.677 441.375 153.219C441.969 152.76 442.68 152.531 443.508 152.531C444.331 152.531 445.039 152.76 445.633 153.219C446.227 153.677 446.68 154.344 446.992 155.219C447.305 156.089 447.461 157.13 447.461 158.344C447.461 159.573 447.307 160.622 447 161.492C446.693 162.362 446.242 163.023 445.648 163.477C445.055 163.93 444.341 164.156 443.508 164.156ZM443.508 162.906C444.049 162.906 444.516 162.729 444.906 162.375C445.297 162.021 445.591 161.503 445.789 160.82C445.987 160.138 446.086 159.312 446.086 158.344C446.086 157.375 445.984 156.547 445.781 155.859C445.578 155.172 445.284 154.648 444.898 154.289C444.513 153.93 444.049 153.75 443.508 153.75C442.966 153.75 442.503 153.93 442.117 154.289C441.732 154.648 441.435 155.172 441.227 155.859C441.018 156.547 440.914 157.375 440.914 158.344C440.914 159.312 441.018 160.138 441.227 160.82C441.435 161.503 441.729 162.021 442.109 162.375C442.495 162.729 442.961 162.906 443.508 162.906Z" fill="#121212" fill-opacity="0.6"/>
<path d="M438.188 208H436.141V198.672H436.078L433.43 200.367V198.5L436.234 196.688H438.188V208ZM445.531 208H443.484V198.672H443.422L440.773 200.367V198.5L443.578 196.688H445.531V208Z" fill="#121212"/>
<path d="M436.859 252H435.438V242.156H435.375L432.625 243.984V242.562L435.438 240.688H436.859V252ZM439.859 250.969L443.719 246.906C444.224 246.365 444.609 245.927 444.875 245.594C445.146 245.26 445.352 244.943 445.492 244.641C445.633 244.333 445.703 244.01 445.703 243.672C445.703 243.292 445.604 242.958 445.406 242.672C445.208 242.38 444.938 242.154 444.594 241.992C444.255 241.831 443.875 241.75 443.453 241.75C443.01 241.75 442.622 241.839 442.289 242.016C441.961 242.193 441.706 242.443 441.523 242.766C441.341 243.083 441.25 243.453 441.25 243.875H439.922C439.917 243.219 440.068 242.638 440.375 242.133C440.688 241.628 441.117 241.234 441.664 240.953C442.211 240.672 442.823 240.531 443.5 240.531C444.172 240.531 444.773 240.669 445.305 240.945C445.841 241.221 446.26 241.599 446.562 242.078C446.865 242.557 447.016 243.089 447.016 243.672C447.01 244.104 446.93 244.518 446.773 244.914C446.622 245.305 446.362 245.74 445.992 246.219C445.622 246.698 445.099 247.286 444.422 247.984L441.828 250.656V250.75H447.219V252H439.875L439.859 250.969Z" fill="#121212" fill-opacity="0.6"/>
</g>
<g clip-path="url(#clip2_1_2)">
<path d="M500.859 164H499.438V154.156H499.375L496.625 155.984V154.562L499.438 152.688H500.859V164ZM503.859 162.969L507.719 158.906C508.224 158.365 508.609 157.927 508.875 157.594C509.146 157.26 509.352 156.943 509.492 156.641C509.633 156.333 509.703 156.01 509.703 155.672C509.703 155.292 509.604 154.958 509.406 154.672C509.208 154.38 508.938 154.154 508.594 153.992C508.255 153.831 507.875 153.75 507.453 153.75C507.01 153.75 506.622 153.839 506.289 154.016C505.961 154.193 505.706 154.443 505.523 154.766C505.341 155.083 505.25 155.453 505.25 155.875H503.922C503.917 155.219 504.068 154.638 504.375 154.133C504.688 153.628 505.117 153.234 505.664 152.953C506.211 152.672 506.823 152.531 507.5 152.531C508.172 152.531 508.773 152.669 509.305 152.945C509.841 153.221 510.26 153.599 510.562 154.078C510.865 154.557 511.016 155.089 511.016 155.672C511.01 156.104 510.93 156.518 510.773 156.914C510.622 157.305 510.362 157.74 509.992 158.219C509.622 158.698 509.099 159.286 508.422 159.984L505.828 162.656V162.75H511.219V164H503.875L503.859 162.969Z" fill="#121212" fill-opacity="0.6"/>
<path d="M500.805 208H498.758V198.672H498.695L496.047 200.367V198.5L498.852 196.688H500.805V208ZM507.664 208.156C506.867 208.156 506.154 208.021 505.523 207.75C504.898 207.479 504.404 207.099 504.039 206.609C503.68 206.115 503.492 205.555 503.477 204.93H505.531C505.547 205.232 505.651 205.497 505.844 205.727C506.036 205.951 506.289 206.125 506.602 206.25C506.914 206.375 507.266 206.438 507.656 206.438C508.073 206.438 508.445 206.367 508.773 206.227C509.102 206.086 509.357 205.888 509.539 205.633C509.721 205.378 509.81 205.086 509.805 204.758C509.805 204.414 509.714 204.109 509.531 203.844C509.349 203.578 509.078 203.372 508.719 203.227C508.365 203.076 507.945 203 507.461 203H506.453V201.43H507.461C507.857 201.43 508.211 201.362 508.523 201.227C508.836 201.086 509.076 200.891 509.242 200.641C509.414 200.391 509.5 200.104 509.5 199.781C509.5 199.469 509.424 199.193 509.273 198.953C509.128 198.708 508.917 198.518 508.641 198.383C508.37 198.247 508.052 198.18 507.688 198.18C507.328 198.185 506.997 198.25 506.695 198.375C506.393 198.5 506.148 198.68 505.961 198.914C505.773 199.148 505.674 199.422 505.664 199.734H503.703C503.719 199.109 503.904 198.555 504.258 198.07C504.617 197.581 505.096 197.203 505.695 196.938C506.294 196.667 506.961 196.531 507.695 196.531C508.445 196.531 509.104 196.672 509.672 196.953C510.245 197.229 510.688 197.607 511 198.086C511.312 198.56 511.466 199.086 511.461 199.664C511.466 200.081 511.383 200.458 511.211 200.797C511.044 201.135 510.802 201.417 510.484 201.641C510.167 201.865 509.802 202.021 509.391 202.109V202.195C509.917 202.268 510.367 202.424 510.742 202.664C511.122 202.898 511.409 203.206 511.602 203.586C511.794 203.961 511.891 204.385 511.891 204.859C511.891 205.484 511.708 206.047 511.344 206.547C510.984 207.047 510.482 207.44 509.836 207.727C509.195 208.013 508.471 208.156 507.664 208.156Z" fill="#121212"/>
<path d="M500.562 252H499.141V242.156H499.078L496.328 243.984V242.562L499.141 240.688H500.562V252ZM503.297 248.531L508.391 240.688H509.234V242.469H508.641L504.812 248.359V248.453H511.703V249.688H503.297V248.531ZM508.781 249.344V248.797V240.688H510.125V252H508.781V249.344Z" fill="#121212" fill-opacity="0.6"/>
</g>
<mask id="path-19-inside-1_1_2" fill="white">
<path d="M344 268H536V310H344V268Z"/>
</mask>
<path d="M344 269H536V267H344V269Z" fill="#F0F0F0" mask="url(#path-19-inside-1_1_2)"/>
<path d="M397 284L387 294M387 284L397 294" stroke="#757575" stroke-width="2" stroke-linecap="round" stroke-linejoin="round"/>
<path d="M494.667 284.417L485.5 293.583L481.333 289.417" stroke="#0B75E0" stroke-width="2" stroke-linecap="round" stroke-linejoin="round"/>
</g>
</g>
<defs>
<filter id="filter0_d_1_2" x="329" y="129" width="222" height="204" filterUnits="userSpaceOnUse" color-interpolation-filters="sRGB">
<feFlood flood-opacity="0" result="BackgroundImageFix"/>
<feColorMatrix in="SourceAlpha" type="matrix" values="0 0 0 0 0 0 0 0 0 0 0 0 0 0 0 0 0 0 127 0" result="hardAlpha"/>
<feOffset dy="8"/>
<feGaussianBlur stdDeviation="7.5"/>
<feComposite in2="hardAlpha" operator="out"/>
<feColorMatrix type="matrix" values="0 0 0 0 0 0 0 0 0 0 0 0 0 0 0 0 0 0 0.1 0"/>
<feBlend mode="normal" in2="BackgroundImageFix" result="effect1_dropShadow_1_2"/>
<feBlend mode="normal" in="SourceGraphic" in2="effect1_dropShadow_1_2" result="shape"/>
</filter>
<clipPath id="clip0_1_2">
<rect x="344" y="136" width="192" height="174" rx="4" fill="white"/>
</clipPath>
<clipPath id="clip1_1_2">
<rect width="64" height="132" fill="white" transform="translate(408 136)"/>
</clipPath>
<clipPath id="clip2_1_2">
<rect width="64" height="132" fill="white" transform="translate(472 136)"/>
</clipPath>
</defs>
</svg>
