<svg width="64" height="72" viewBox="0 0 64 72" fill="none" xmlns="http://www.w3.org/2000/svg">
<path d="M46.3734 14.8764C46.3734 10.221 46.3734 7.89328 45.4674 6.11513C44.6705 4.55103 43.3988 3.27938 41.8347 2.48243C40.0566 1.57642 37.7289 1.57642 33.0734 1.57642H15.3401C10.6846 1.57642 8.35689 1.57642 6.57875 2.48243C5.01465 3.27938 3.743 4.55103 2.94605 6.11513C2.04004 7.89328 2.04004 10.221 2.04004 14.8764V43.6931C2.04004 48.3486 2.04004 50.6763 2.94605 52.4545C3.743 54.0186 5.01465 55.2902 6.57875 56.0872C8.35689 56.9932 10.6846 56.9932 15.3401 56.9932H17.3552" stroke="black" stroke-width="3" stroke-linecap="round" stroke-linejoin="round"/>
<path d="M50.9657 39.921H28.2953M50.7642 51.0043H28.2953M50.462 28.8376H28.2953M61.5453 28.2835V57.1002C61.5453 61.7556 61.5453 64.0833 60.6393 65.8615C59.8423 67.4256 58.5707 68.6972 57.0066 69.4942C55.2285 70.4002 52.9007 70.4002 48.2453 70.4002H30.5119C25.8565 70.4002 23.5288 70.4002 21.7506 69.4942C20.1865 68.6972 18.9149 67.4256 18.1179 65.8615C17.2119 64.0833 17.2119 61.7556 17.2119 57.1002V28.2835C17.2119 23.628 17.2119 21.3003 18.1179 19.5221C18.9149 17.958 20.1865 16.6864 21.7506 15.8894C23.5288 14.9834 25.8565 14.9834 30.5119 14.9834H48.2453C52.9007 14.9834 55.2285 14.9834 57.0066 15.8894C58.5707 16.6864 59.8423 17.958 60.6393 19.5221C61.5453 21.3003 61.5453 23.628 61.5453 28.2835Z" stroke="black" stroke-width="3" stroke-linecap="round" stroke-linejoin="round"/>
</svg>
