<svg width="94" height="40" viewBox="0 0 94 40" fill="none" xmlns="http://www.w3.org/2000/svg">
<path d="M34.1042 39.9896H23.3473C23.4696 39.9896 23.8668 39.4546 23.9585 39.362C24.1622 39.1254 24.366 38.8785 24.5493 38.6213C25.0179 37.9834 25.3744 37.2633 25.6393 36.5328C26.5764 33.9917 26.5051 31.0184 25.4661 28.7448C24.3761 26.358 22.675 24.2798 21.4832 22.3148C19.5478 19.1152 18.1828 15.535 18.4782 11.7181C18.6616 9.30045 19.7515 6.65643 21.3813 4.83545H31.7307C28.797 7.64408 27.9312 11.5947 28.9804 15.6584C29.5508 17.9115 30.9973 20.0103 32.0974 21.7284C33.2587 23.5391 34.4709 25.3703 35.3367 27.3456C36.3961 29.7427 36.7221 32.4999 36.2128 35.0925C35.9785 36.3476 35.5506 37.5719 34.9598 38.6933C34.858 38.8682 34.3385 39.9999 34.1042 39.9999V39.9896Z" fill="#009BCB"/>
<path d="M40.0734 29.7221H57.9302V0H34.4301C32.6577 1.57407 31.5678 4.73249 32.3521 7.97321C32.9633 10.5041 34.7765 12.7983 36.3961 14.9691C38.9631 18.4155 41.7745 22.2941 40.9902 26.8826C40.8374 27.8188 40.5318 28.8887 40.0734 29.7324V29.7221Z" fill="#60C1C3"/>
<path d="M0 0V29.7221H17.5716C18.4069 27.8188 18.1013 25.5863 17.541 24.218C15.8399 20.0308 13.0895 17.7674 11.5514 14.1152C10.0947 10.6584 9.93175 7.48967 11.1847 2.94237C11.256 2.68517 11.9487 0.874481 12.4172 0L0 0Z" fill="#006694"/>
<path d="M94.0001 0H79.4131V23.5801C79.4131 23.6933 79.3927 24.2694 79.3622 24.8558C79.1992 28.5492 78.3435 29.29 77.4268 29.7221H94.0001V0Z" fill="#009BCB"/>
<path d="M61.9028 4.86625V34.8044C62.0047 37.4278 64.1133 39.5163 66.7414 39.5163C69.3695 39.5163 71.4169 37.469 71.5697 34.897V34.3208C71.5697 34.3208 71.5697 15.8847 71.5697 4.85596H61.9028V4.86625Z" fill="#006694"/>
</svg>
