<svg width="40" height="41" viewBox="0 0 40 41" fill="none" xmlns="http://www.w3.org/2000/svg">
<g clip-path="url(#clip0_452_1255)">
<path d="M30.8617 40.5H9.13833C4.10806 40.5 0 36.3826 0 31.3617V9.63833C0 4.61737 4.11737 0.5 9.13833 0.5H30.8617C35.8919 0.5 40 4.61737 40 9.63833V31.3617C40 36.3919 35.8919 40.5 30.8617 40.5Z" fill="url(#paint0_linear_452_1255)"/>
<path d="M29.5112 8.52051H10.3589C7.64816 8.52051 5.44043 10.7376 5.44043 13.439V25.344C5.44043 28.0547 7.65748 30.2625 10.3589 30.2625H17.1218L18.2863 32.2746L19.432 34.2588C19.637 34.622 20.1586 34.622 20.3729 34.2588L21.5187 32.2746L22.6831 30.2625H29.5205C32.2313 30.2625 34.439 28.0454 34.439 25.344V13.4483C34.439 10.7376 32.222 8.52051 29.5112 8.52051Z" fill="white"/>
<path d="M21.2766 17.2395C19.7954 17.2395 18.5938 18.4225 18.5938 19.8851C18.5938 21.3476 19.7954 22.5306 21.2766 22.5306C22.7577 22.5306 23.9594 21.3476 23.9594 19.8851C23.9594 18.4225 22.767 17.2395 21.2766 17.2395ZM21.2766 21.1519C20.5686 21.1519 19.991 20.5837 19.991 19.8851C19.991 19.1864 20.5686 18.6182 21.2766 18.6182C21.9845 18.6182 22.5621 19.1864 22.5621 19.8851C22.5621 20.5837 21.9938 21.1519 21.2766 21.1519Z" fill="#FF7613"/>
<path d="M12.7902 17.2396C12.2126 17.2396 11.6723 17.4632 11.2531 17.8451V15.656H9.7627V22.4096H11.2531V21.9345C11.6723 22.3072 12.2033 22.54 12.7902 22.54C14.1223 22.54 15.2028 21.357 15.2028 19.8945C15.2028 18.432 14.1316 17.2396 12.7902 17.2396ZM12.4921 21.208C11.9425 21.208 11.4674 20.8819 11.2625 20.4068C11.1973 20.2485 11.1507 20.0715 11.1507 19.8852C11.1507 19.6989 11.1879 19.5219 11.2625 19.3635C11.4674 18.8884 11.9425 18.5624 12.4921 18.5624C13.2373 18.5624 13.8335 19.1493 13.8335 19.8852C13.8335 20.6211 13.2373 21.208 12.4921 21.208Z" fill="#FF7613"/>
<path d="M28.6075 17.3515V17.7707C28.1883 17.4446 27.6667 17.249 27.1078 17.249C25.7384 17.249 24.6299 18.3948 24.6299 19.8014C24.6299 21.208 25.7384 22.3538 27.1078 22.3538C27.676 22.3538 28.1977 22.1582 28.6075 21.8322V22.5401C28.6075 22.5401 28.4585 23.2388 27.4152 23.2388V24.5522C27.4152 24.5522 28.5423 24.6827 29.5484 23.6766C29.5484 23.6766 30.0141 23.1829 30.1166 22.5308V17.3515H28.6075V17.3515ZM27.3872 21.0963C26.6327 21.0963 26.0272 20.5094 26.0272 19.7921C26.0272 19.0748 26.642 18.488 27.3872 18.488C27.9182 18.488 28.384 18.7861 28.6075 19.2146C28.7007 19.3915 28.7473 19.5872 28.7473 19.7921C28.7473 19.997 28.6914 20.202 28.6075 20.3697C28.384 20.8075 27.9182 21.0963 27.3872 21.0963Z" fill="#FF7613"/>
<path d="M15.3701 15.5256V16.8763C15.3701 16.8763 16.0595 16.9694 16.1899 17.6401V22.4096H17.7269V17.6401V17.6029C17.6337 16.9322 17.2332 16.4291 17.2332 16.4291C16.3575 15.3951 15.3701 15.5256 15.3701 15.5256Z" fill="#FF7613"/>
</g>
<defs>
<linearGradient id="paint0_linear_452_1255" x1="19.9976" y1="40.497" x2="19.9976" y2="0.504024" gradientUnits="userSpaceOnUse">
<stop stop-color="#00D44D"/>
<stop offset="1" stop-color="#00E56D"/>
</linearGradient>
<clipPath id="clip0_452_1255">
<rect width="40" height="40" fill="white" transform="translate(0 0.5)"/>
</clipPath>
</defs>
</svg>
