<svg width="25" height="25" viewBox="0 0 25 25" fill="none" xmlns="http://www.w3.org/2000/svg">
<path d="M12.6816 14.375V8.375M9.68164 11.375H15.6816M7.68164 18.875V21.2105C7.68164 21.7434 7.68164 22.0098 7.79087 22.1466C7.88586 22.2656 8.02991 22.3349 8.18218 22.3347C8.35727 22.3345 8.56531 22.1681 8.9814 21.8352L11.3669 19.9268C11.8542 19.537 12.0978 19.3421 12.3691 19.2035C12.6098 19.0805 12.8661 18.9906 13.1309 18.9363C13.4293 18.875 13.7413 18.875 14.3654 18.875H16.8816C18.5618 18.875 19.4019 18.875 20.0436 18.548C20.6081 18.2604 21.067 17.8015 21.3547 17.237C21.6816 16.5952 21.6816 15.7552 21.6816 14.075V8.675C21.6816 6.99484 21.6816 6.15476 21.3547 5.51303C21.067 4.94854 20.6081 4.4896 20.0436 4.20198C19.4019 3.875 18.5618 3.875 16.8816 3.875H8.48164C6.80148 3.875 5.9614 3.875 5.31967 4.20198C4.75518 4.4896 4.29624 4.94854 4.00862 5.51303C3.68164 6.15476 3.68164 6.99484 3.68164 8.675V14.875C3.68164 15.805 3.68164 16.27 3.78386 16.6515C4.06126 17.6867 4.86991 18.4954 5.90518 18.7728C6.28668 18.875 6.75167 18.875 7.68164 18.875Z" stroke="black" stroke-width="2" stroke-linecap="round" stroke-linejoin="round"/>
</svg>
