<svg width="25" height="25" viewBox="0 0 25 25" fill="none" xmlns="http://www.w3.org/2000/svg">
<path d="M8.68164 21.875H16.6816M12.6816 17.875V21.875M7.48164 17.875H17.8816C19.5618 17.875 20.4019 17.875 21.0436 17.548C21.6081 17.2604 22.067 16.8015 22.3547 16.237C22.6816 15.5952 22.6816 14.7552 22.6816 13.075V8.675C22.6816 6.99484 22.6816 6.15476 22.3547 5.51303C22.067 4.94854 21.6081 4.4896 21.0436 4.20198C20.4019 3.875 19.5618 3.875 17.8816 3.875H7.48164C5.80148 3.875 4.9614 3.875 4.31967 4.20198C3.75518 4.4896 3.29624 4.94854 3.00862 5.51303C2.68164 6.15476 2.68164 6.99484 2.68164 8.675V13.075C2.68164 14.7552 2.68164 15.5952 3.00862 16.237C3.29624 16.8015 3.75518 17.2604 4.31967 17.548C4.9614 17.875 5.80148 17.875 7.48164 17.875Z" stroke="black" stroke-width="2" stroke-linecap="round" stroke-linejoin="round"/>
</svg>
