<svg width="24" height="25" viewBox="0 0 24 25" fill="none" xmlns="http://www.w3.org/2000/svg">
<path d="M16.2285 16.8886V3.49432C16.2285 2.6029 15.7257 2.1229 15.0857 2.4429L9.43998 5.20861C8.82283 5.50575 8.29712 6.48861 8.29712 7.38004V21.9858C8.29712 22.8772 8.79998 23.3572 9.43998 23.06L15.4743 19.7229C15.4743 19.7229 16.2514 19.2886 16.2514 18.3972V5.02575" stroke="black" stroke-miterlimit="10" stroke-linecap="round" stroke-linejoin="round"/>
<path d="M15.7274 2.39327C15.094 1.80566 13.5755 1.45532 12.0975 2.21733L7.30898 4.68428C6.60375 5.21323 6.36133 6.38613 6.36133 7.28305V20.8424C6.36133 22.4522 7.33737 23.1297 9.11801 23.1297" stroke="black" stroke-miterlimit="10" stroke-linecap="round" stroke-linejoin="round"/>
<path d="M12.2743 6.16743L13.1209 5.76974" stroke="black" stroke-miterlimit="10" stroke-linecap="round" stroke-linejoin="round"/>
<path d="M9.29034 22.5665L14.9421 19.4348C14.9421 19.4348 15.345 19.2675 15.549 18.9672C15.7529 18.667 15.7738 18.4938 15.7529 17.7994C15.7304 17.0493 15.729 16.0762 16.0332 15.094C16.9996 12.09 18.1568 9.88652 18.9382 9.05675L12.9119 12.0736C12.9119 12.0736 8.61495 17.6655 9.29034 22.5665Z" fill="#FADF34"/>
</svg>
