<svg width="24" height="25" viewBox="0 0 24 25" fill="none" xmlns="http://www.w3.org/2000/svg">
<g clip-path="url(#clip0_1032_213)">
<path d="M16.2542 7.65985H20.5857L22.7772 15.9361H1.2229L3.41443 7.65985H9.21553" stroke="black" stroke-miterlimit="10" stroke-linejoin="round"/>
<path d="M22.7772 15.9361H1.2229L3.41443 20.1129H20.5857L22.7772 15.9361Z" stroke="black" stroke-miterlimit="10" stroke-linecap="round" stroke-linejoin="round"/>
<path d="M18.2741 12.2465L20.792 14.4149L16.2027 15.9361" stroke="black" stroke-miterlimit="10" stroke-linejoin="round"/>
<path d="M7.04295 15.9103L5.23816 11.1921L15.4481 7.16998L20.069 11.7812L7.91956 15.9361" stroke="black" stroke-miterlimit="10" stroke-linecap="round" stroke-linejoin="round"/>
<path d="M20.7919 6.58086C20.7919 6.58086 13.7603 11.7768 11.3957 13.5191C10.4934 14.1725 8.84762 15.2387 8.4786 15.3872C7.94967 15.3872 5.50518 15.3872 5.50518 15.3872L3.6485 10.6567C3.6485 10.6567 4.36411 10.1278 7.50655 7.79428C10.5557 5.523 11.8002 0.887115 11.8002 0.887115L20.7919 6.58086Z" fill="#FADF34"/>
</g>
<defs>
<clipPath id="clip0_1032_213">
<rect width="24" height="24" fill="white" transform="translate(0 0.5)"/>
</clipPath>
</defs>
</svg>
