<svg width="24" height="25" viewBox="0 0 24 25" fill="none" xmlns="http://www.w3.org/2000/svg">
<path d="M11.8606 3.11795C11.8606 3.11795 11.4271 11.8498 11.8606 14.7294C12.1083 16.4944 13.9042 21.5105 13.9042 21.5105L4.98657 19.2502C4.98657 19.2502 4.98657 18.3832 4.98657 14.4817C4.98657 10.7041 2.01404 6.95748 2.01404 6.95748L11.8606 3.11795Z" fill="#FADF34" stroke="#FADF34" stroke-miterlimit="10" stroke-linecap="round"/>
<path d="M3.74807 14.296C3.68615 14.3269 3.62422 14.3269 3.53133 14.3579C2.41663 14.5437 1.33289 13.8005 1.1471 12.6858C0.96132 11.5711 1.70445 10.4874 2.81916 10.3016C3.0359 10.2706 3.22169 10.2706 3.43843 10.3016" stroke="black" stroke-miterlimit="10" stroke-linecap="round" stroke-linejoin="round"/>
<path d="M20.2518 14.296C20.3138 14.3269 20.3757 14.3269 20.4686 14.3579C21.5833 14.5437 22.667 13.8005 22.8528 12.6858C23.0386 11.5711 22.2955 10.4874 21.1807 10.3016C20.964 10.2706 20.7782 10.2706 20.5615 10.3016" stroke="black" stroke-miterlimit="10" stroke-linecap="round" stroke-linejoin="round"/>
<path d="M19.168 7.76248L19.8175 8.93791" stroke="black" stroke-miterlimit="10" stroke-linecap="round" stroke-linejoin="round"/>
<path d="M10.7768 4.54224L13.5016 11.633H10.2194L9.90979 17.0517H13.0062C13.0062 17.0517 11.7676 21.882 16.4432 21.882" stroke="black" stroke-miterlimit="10" stroke-linecap="round" stroke-linejoin="round"/>
<path d="M7.18491 7.0813C8.76407 7.0813 10.0026 8.41275 10.0026 8.41275C10.0026 8.41275 8.7331 9.7442 7.18491 9.7442C5.63671 9.7442 4.36719 8.41275 4.36719 8.41275C4.36719 8.41275 5.60575 7.0813 7.18491 7.0813Z" stroke="black" stroke-miterlimit="10" stroke-linecap="round" stroke-linejoin="round"/>
<path d="M19.1679 7.76248C19.1679 7.76248 17.9603 8.75333 16.4431 8.75333C14.9259 8.75333 13.7183 7.76248 13.7183 7.76248" stroke="black" stroke-miterlimit="10" stroke-linecap="round" stroke-linejoin="round"/>
<path d="M4.42823 7.94737L3.56213 7.01941" stroke="black" stroke-miterlimit="10" stroke-linecap="round" stroke-linejoin="round"/>
<path d="M5.41943 7.26603L4.80078 6.24527" stroke="black" stroke-miterlimit="10" stroke-linecap="round" stroke-linejoin="round"/>
<path d="M18.1461 8.44373L18.3936 9.52635" stroke="black" stroke-miterlimit="10" stroke-linecap="round" stroke-linejoin="round"/>
<path d="M8.98083 14.7603C8.98083 14.7603 10.8387 15.5344 13.2848 14.7603" stroke="black" stroke-miterlimit="10" stroke-linecap="round" stroke-linejoin="round"/>
<path d="M7.21587 9.12492C7.64339 9.12492 7.98997 8.77834 7.98997 8.35082C7.98997 7.9233 7.64339 7.57672 7.21587 7.57672C6.78835 7.57672 6.44177 7.9233 6.44177 8.35082C6.44177 8.77834 6.78835 9.12492 7.21587 9.12492Z" fill="black"/>
</svg>
