<svg width="25" height="25" viewBox="0 0 25 25" fill="none" xmlns="http://www.w3.org/2000/svg">
<path d="M12.5 18.375H12.51M8.7 22.875H16.3C17.4201 22.875 17.9802 22.875 18.408 22.657C18.7843 22.4653 19.0903 22.1593 19.282 21.783C19.5 21.3552 19.5 20.7951 19.5 19.675V6.075C19.5 4.95489 19.5 4.39484 19.282 3.96702C19.0903 3.59069 18.7843 3.28473 18.408 3.09299C17.9802 2.875 17.4201 2.875 16.3 2.875H8.7C7.5799 2.875 7.01984 2.875 6.59202 3.09299C6.21569 3.28473 5.90973 3.59069 5.71799 3.96702C5.5 4.39484 5.5 4.9549 5.5 6.075V19.675C5.5 20.7951 5.5 21.3552 5.71799 21.783C5.90973 22.1593 6.21569 22.4653 6.59202 22.657C7.01984 22.875 7.57989 22.875 8.7 22.875ZM13 18.375C13 18.6511 12.7761 18.875 12.5 18.875C12.2239 18.875 12 18.6511 12 18.375C12 18.0989 12.2239 17.875 12.5 17.875C12.7761 17.875 13 18.0989 13 18.375Z" stroke="black" stroke-width="2" stroke-linecap="round" stroke-linejoin="round"/>
</svg>
