<svg width="25" height="25" viewBox="0 0 25 25" fill="none" xmlns="http://www.w3.org/2000/svg">
<path d="M2.5 7.875L10.6649 13.5904C11.3261 14.0533 11.6567 14.2847 12.0163 14.3743C12.3339 14.4535 12.6661 14.4535 12.9837 14.3743C13.3433 14.2847 13.6739 14.0533 14.3351 13.5904L22.5 7.875M7.3 20.875H17.7C19.3802 20.875 20.2202 20.875 20.862 20.548C21.4265 20.2604 21.8854 19.8015 22.173 19.237C22.5 18.5952 22.5 17.7552 22.5 16.075V9.675C22.5 7.99484 22.5 7.15476 22.173 6.51303C21.8854 5.94854 21.4265 5.4896 20.862 5.20198C20.2202 4.875 19.3802 4.875 17.7 4.875H7.3C5.61984 4.875 4.77976 4.875 4.13803 5.20198C3.57354 5.4896 3.1146 5.94854 2.82698 6.51303C2.5 7.15476 2.5 7.99484 2.5 9.675V16.075C2.5 17.7552 2.5 18.5952 2.82698 19.237C3.1146 19.8015 3.57354 20.2604 4.13803 20.548C4.77976 20.875 5.61984 20.875 7.3 20.875Z" stroke="black" stroke-width="2" stroke-linecap="round" stroke-linejoin="round"/>
</svg>
