<svg width="25" height="25" viewBox="0 0 25 25" fill="none" xmlns="http://www.w3.org/2000/svg">
<path d="M12.5 15.875L9.5 12.875M12.5 15.875C13.8968 15.3437 15.2369 14.6737 16.5 13.875M12.5 15.875V20.875C12.5 20.875 15.53 20.325 16.5 18.875C17.58 17.255 16.5 13.875 16.5 13.875M9.5 12.875C10.0321 11.4944 10.7022 10.1711 11.5 8.925C12.6652 7.06199 14.2876 5.52805 16.213 4.4691C18.1384 3.41014 20.3027 2.86137 22.5 2.875C22.5 5.595 21.72 10.375 16.5 13.875M9.5 12.875H4.5C4.5 12.875 5.05 9.845 6.5 8.875C8.12 7.795 11.5 8.875 11.5 8.875M5 17.375C3.5 18.635 3 22.375 3 22.375C3 22.375 6.74 21.875 8 20.375C8.71 19.535 8.7 18.245 7.91 17.465C7.52131 17.094 7.00929 16.8796 6.47223 16.863C5.93516 16.8464 5.41088 17.0287 5 17.375Z" stroke="black" stroke-width="2" stroke-linecap="round" stroke-linejoin="round"/>
</svg>
