<svg width="24" height="25" viewBox="0 0 24 25" fill="none" xmlns="http://www.w3.org/2000/svg">
<path d="M18.5049 12.5656C18.9163 12.5656 19.122 12.9085 19.0763 13.3428C19.0306 13.7771 18.7563 14.1199 18.3449 14.1199C17.9334 14.1199 17.6363 13.7771 17.682 13.3428C17.7277 12.9085 18.0934 12.5656 18.5049 12.5656Z" fill="black"/>
<path d="M0.584583 17.1281V11.1853L5.22133 12.568C5.22133 12.568 6.56355 12.8194 7.80408 12.8651C8.94293 12.9108 10.3868 12.6594 10.3868 12.6594C10.3868 12.6594 17.7152 11.6081 19.037 11.471C20.1962 11.3567 20.4403 12.6138 20.4403 13.4367C20.4403 14.4653 20.2979 17.7567 20.2979 17.7567C20.2979 17.7567 11.8307 19.5622 10.2851 19.8822C9.61404 20.0194 8.90226 20.0651 7.78375 20.0194C6.54321 19.9737 5.87211 19.768 5.201 19.5394C4.04181 19.1508 0.584583 17.1281 0.584583 17.1281Z" stroke="black" stroke-miterlimit="10" stroke-linecap="round" stroke-linejoin="round"/>
<path d="M18.5155 15.448L10.0862 16.6395" stroke="black" stroke-miterlimit="10" stroke-linecap="round" stroke-linejoin="round"/>
<path d="M18.0192 15.2951C21.8547 15.0786 23.4153 17.5153 23.4153 17.5153L16.2394 19.0928C16.2394 19.0928 13.7959 15.907 9.86768 16.6493C11.5379 16.3091 16.4727 15.5426 18.0192 15.2951Z" fill="#FADF34"/>
<path d="M19.5879 11.5088L12.8112 10.3242C10.6175 9.94074 8.37521 9.92634 6.17682 10.2816L0.584576 11.1853" stroke="black" stroke-linecap="round" stroke-linejoin="round"/>
</svg>
