<svg width="46" height="20" viewBox="0 0 46 20" fill="none" xmlns="http://www.w3.org/2000/svg">
<rect x="16.0681" y="9" width="2.18182" height="8" fill="#202020"/>
<path d="M26.0681 7C27.1727 7 28.0681 7.89543 28.0681 9V9L16.0681 9V9C16.0681 7.89543 16.9636 7 18.0681 7L26.0681 7Z" fill="#FBD54E"/>
<path d="M18.0681 19C16.9636 19 16.0681 18.1046 16.0681 17V17L28.0681 17V17C28.0681 18.1046 27.1727 19 26.0681 19L18.0681 19Z" fill="#202020"/>
<path d="M25.8863 7H26.0681C27.1727 7 28.0681 7.89543 28.0681 9V17C28.0681 18.1046 27.1727 19 26.0681 19H25.8863V7Z" fill="#FBD54E"/>
<circle cx="38.6361" cy="13" r="5.5" stroke="black" stroke-width="2"/>
<path d="M38.6361 4.74265L37.2219 3.32843L40.0504 0.500005V0.500005C40.8314 1.28105 40.8314 2.54738 40.0504 3.32843L38.6361 4.74265Z" fill="#202020"/>
<path d="M35.8077 1.91422V1.91422C36.5888 1.13317 37.8551 1.13317 38.6361 1.91422L40.0503 3.32843L38.6361 4.74264L35.8077 1.91422Z" fill="#202020"/>
<path d="M0 10C0 8.89543 0.89543 8 2 8H2.18182V17.1667H0V10Z" fill="#202020"/>
<path d="M9.81818 10C9.81818 8.89543 10.7136 8 11.8182 8H12V17.1667H9.81818V10Z" fill="#202020"/>
<path d="M1.83333 19C0.820811 19 -3.91405e-08 18.1792 -8.74228e-08 17.1667V17.1667L12 17.1667V17.1667C12 18.1792 11.1792 19 10.1667 19L1.83333 19Z" fill="#202020"/>
<rect y="14.4167" width="1.83333" height="12" transform="rotate(-90 0 14.4167)" fill="#202020"/>
</svg>
