<svg width="47" height="21" viewBox="0 0 47 21" fill="none" xmlns="http://www.w3.org/2000/svg">
<path d="M19.1818 9.5H17V17.5H19.1818V9.5Z" fill="#202020"/>
<path d="M27 7.5C28.1046 7.5 29 8.39543 29 9.5H17C17 8.39543 17.8955 7.5 19 7.5H27Z" fill="#FBD54E"/>
<path d="M19 19.5C17.8955 19.5 17 18.6046 17 17.5H29C29 18.6046 28.1046 19.5 27 19.5H19Z" fill="#202020"/>
<path d="M26.8184 7.5H27.0002C28.1048 7.5 29.0002 8.39543 29.0002 9.5V17.5C29.0002 18.6046 28.1048 19.5 27.0002 19.5H26.8184V7.5Z" fill="#FBD54E"/>
<path d="M39.5679 19C42.6054 19 45.0679 16.5376 45.0679 13.5C45.0679 10.4624 42.6054 8 39.5679 8C36.5303 8 34.0679 10.4624 34.0679 13.5C34.0679 16.5376 36.5303 19 39.5679 19Z" stroke="black" stroke-width="2"/>
<path d="M0.932129 10.5C0.932129 9.39543 1.82756 8.5 2.93213 8.5H3.11394V17.6667H0.932129V10.5Z" fill="#202020"/>
<path d="M10.75 10.5C10.75 9.39543 11.6455 8.5 12.75 8.5H12.9318V17.6667H10.75V10.5Z" fill="#202020"/>
<path d="M2.76546 19.5C1.75294 19.5 0.932129 18.6792 0.932129 17.6667H12.9321C12.9321 18.6792 12.1113 19.5 11.0988 19.5H2.76546Z" fill="#202020"/>
<path d="M0.932129 13.0834L0.932129 14.9167H12.9321V13.0834H0.932129Z" fill="#202020"/>
<circle cx="39.5679" cy="4.26245" r="1.25" fill="#FBD54E"/>
</svg>
