<?xml version="1.0" encoding="utf-8"?>
<!-- Generator: Adobe Illustrator 23.0.1, SVG Export Plug-In . SVG Version: 6.00 Build 0)  -->
<svg version="1.1" id="Layer_1" xmlns="http://www.w3.org/2000/svg" xmlns:xlink="http://www.w3.org/1999/xlink" x="0px" y="0px"
	 viewBox="0 0 105 105" style="enable-background:new 0 0 105 105;" xml:space="preserve">
<style type="text/css">
	.st0{fill:none;}
	.st1{fill:none;stroke:#2DF1FD;stroke-width:3;stroke-linecap:round;stroke-linejoin:round;stroke-miterlimit:10;}
	.st2{fill:none;stroke:#2DF1FD;stroke-width:3;stroke-miterlimit:10;}
	.st3{fill:none;stroke:#444444;stroke-width:3;stroke-linecap:round;stroke-linejoin:round;stroke-miterlimit:10;}
	.st4{fill:#2DF1FD;}
	.st5{fill:none;stroke:#444444;stroke-width:3;stroke-linejoin:round;stroke-miterlimit:10;}
	.st6{fill:none;stroke:#000000;stroke-width:3;stroke-linecap:round;stroke-linejoin:round;stroke-miterlimit:10;}
	.st7{fill:none;stroke:#000000;stroke-width:3;stroke-linejoin:round;stroke-miterlimit:10;}
	.st8{fill:none;stroke:#444444;stroke-width:3;stroke-miterlimit:10;}
	.st9{fill:#444444;}
	.st10{fill:#FFFFFF;}
</style>
<g>
	<path class="st0" d="M3,3h99v99H3V3z"/>
	<g>
		<path class="st8" d="M90,39c0-3.3-3-6-6.7-6H29.7C26,33,23,35.7,23,39v36.3c0,3.3,3,6,6.7,6h53.6c3.7,0,6.7-2.7,6.7-6V39z"/>
		<path class="st8" d="M52.1,23.6H21.7c-3.7,0-6.7,2.7-6.7,6v25.2"/>
		<g>
			<line class="st8" x1="81" y1="48.3" x2="60.9" y2="48.3"/>
			<line class="st8" x1="70.7" y1="59.3" x2="60.9" y2="59.3"/>
			<g>
				<path class="st9" d="M56.6,67.4c0,6.8-5.5,5.9-12.3,5.9S32,74.2,32,67.4c0-6.8,5.5-14.8,12.3-14.8S56.6,60.6,56.6,67.4z"/>
				<g>
					<path class="st9" d="M44.1,55.3c-4.1,0-7.4-3.3-7.4-7.4c0-4.1,3.3-7.4,7.4-7.4s7.4,3.3,7.4,7.4C51.5,52,48.2,55.3,44.1,55.3z"
						/>
					<path class="st10" d="M44.1,41c3.8,0,6.9,3.1,6.9,6.9c0,3.8-3.1,6.9-6.9,6.9c-3.8,0-6.9-3.1-6.9-6.9C37.2,44.1,40.3,41,44.1,41
						 M44.1,40c-4.3,0-7.9,3.5-7.9,7.9s3.5,7.9,7.9,7.9s7.9-3.5,7.9-7.9S48.5,40,44.1,40L44.1,40z"/>
				</g>
			</g>
		</g>
	</g>
</g>
</svg>
