<?xml version="1.0" encoding="utf-8"?>
<!-- Generator: Adobe Illustrator 23.0.1, SVG Export Plug-In . SVG Version: 6.00 Build 0)  -->
<svg version="1.1" id="Layer_1" xmlns="http://www.w3.org/2000/svg" xmlns:xlink="http://www.w3.org/1999/xlink" x="0px" y="0px"
	 viewBox="0 0 105 105" style="enable-background:new 0 0 105 105;" xml:space="preserve">
<style type="text/css">
	.st0{fill:none;}
	.st1{fill:none;stroke:#2DF1FD;stroke-width:3;stroke-linecap:round;stroke-linejoin:round;stroke-miterlimit:10;}
	.st2{fill:none;stroke:#2DF1FD;stroke-width:3;stroke-miterlimit:10;}
	.st3{fill:none;stroke:#444444;stroke-width:3;stroke-linejoin:round;stroke-miterlimit:10;}
	.st4{fill:none;stroke:#444444;stroke-width:3;stroke-linecap:round;stroke-linejoin:round;stroke-miterlimit:10;}
	.st5{fill:none;stroke:#444444;stroke-linejoin:round;stroke-miterlimit:10;}
	.st6{fill:none;stroke:#444444;stroke-linecap:round;stroke-linejoin:round;stroke-miterlimit:10;}
	.st7{fill:#FADF34;stroke:#FADF34;stroke-width:2;stroke-linecap:round;stroke-miterlimit:10;}
	.st8{fill:#444444;}
	.st9{fill:#FADF34;}
	.st10{fill:#2DF1FD;}
	.st11{fill:none;stroke:#000000;stroke-width:3;stroke-linecap:round;stroke-linejoin:round;stroke-miterlimit:10;}
	.st12{fill:none;stroke:#000000;stroke-width:3;stroke-linejoin:round;stroke-miterlimit:10;}
	.st13{fill:none;stroke:#444444;stroke-width:3;stroke-miterlimit:10;}
	.st14{fill:#FFFFFF;}
	.st15{fill:#4038F9;}
</style>
<g>
	<path class="st0" d="M3,3h99v99H3V3z"/>
	<g>
		<g>
			<path class="st4" d="M71,71.7V13.1c0-3.9-2.2-6-5-4.6L41.3,20.6c-2.7,1.3-5,5.6-5,9.5V94c0,3.9,2.2,6,5,4.7l26.4-14.6
				c0,0,3.4-1.9,3.4-5.8V19.8"/>
			<path class="st4" d="M67.9,7.8c-1.7-2-4.6-2.9-9.3-0.7L35,18.8c-3.2,2.3-4.3,7.4-4.3,11.3v61.3c0,7,4.7,7.9,9,7.9"/>
			<line class="st4" x1="36.3" y1="33.7" x2="71" y2="16.7"/>
			<line class="st4" x1="71" y1="72.6" x2="36.3" y2="90.6"/>
		</g>
		<path class="st9" d="M46.2,83.8l23.7-11.9c0,0,0-1.7,0-4.2c0-2.7,0.1-6.2,1.3-9.7c3.8-10.7,8.2-18.5,11.1-21.4l-22,10.2
			C60.3,46.8,44.3,66.1,46.2,83.8z"/>
	</g>
</g>
</svg>
