<?xml version="1.0" encoding="utf-8"?>
<!-- Generator: Adobe Illustrator 23.0.1, SVG Export Plug-In . SVG Version: 6.00 Build 0)  -->
<svg version="1.1" id="Layer_1" xmlns="http://www.w3.org/2000/svg" xmlns:xlink="http://www.w3.org/1999/xlink" x="0px" y="0px"
	 viewBox="0 0 105 105" style="enable-background:new 0 0 105 105;" xml:space="preserve">
<style type="text/css">
	.st0{fill:none;stroke:#FADF34;stroke-width:3;stroke-linecap:round;stroke-linejoin:round;stroke-miterlimit:10;}
	.st1{fill:none;}
	.st2{fill:none;stroke:#444444;stroke-width:3;stroke-linecap:round;stroke-linejoin:round;stroke-miterlimit:10;}
	.st3{enable-background:new    ;}
	.st4{fill:#444444;}
</style>
<polygon class="st0" points="73.3,73.9 73.3,27 61.3,39.1 31,39.1 31,73.9 "/>
<g>
	<path class="st1" d="M3,3h99v99H3V3z"/>
	<path class="st2" d="M79.6,89.6c0,4.5-3.5,8.2-7.7,8.2H33.2c-4.3,0-7.7-3.7-7.7-8.2V15.4c0-4.5,3.5-8.2,7.7-8.2h38.6
		c4.3,0,7.7,3.7,7.7,8.2L79.6,89.6L79.6,89.6z"/>
	<line class="st2" x1="25.4" y1="19.5" x2="79.5" y2="19.5"/>
	<line class="st2" x1="25.4" y1="85.6" x2="79.5" y2="85.6"/>
</g>
<g class="st3">
	<path class="st4" d="M41.2,52.8c-1.4,0-2.5-1-2.5-2.3c0-1.3,1.1-2.3,2.5-2.3c1.4,0,2.5,1,2.5,2.3C43.6,51.9,42.6,52.8,41.2,52.8z
		 M41.4,55.3H46v1.2h-6.1v-3h1.5V55.3z M41.2,51.5c0.6,0,1-0.3,1-1c0-0.7-0.4-1-1-1c-0.5,0-1,0.3-1,1C40.2,51.2,40.6,51.5,41.2,51.5
		z M46.9,50.2v1.2h-1.1v2.7h-1.5v-6.4h1.5v2.5H46.9z"/>
	<path class="st4" d="M52.6,52.5c-1.2,0.2-2.3,0.3-3.9,0.3h-0.8v-4.6h1.5v3.4c1.1,0,2-0.1,3-0.2L52.6,52.5z M55,54.9
		c0,1.1-1.2,1.8-3.1,1.8c-1.9,0-3.1-0.6-3.1-1.8c0-1.1,1.2-1.8,3.1-1.8C53.8,53.1,55,53.8,55,54.9z M53.5,54.9
		c0-0.4-0.5-0.6-1.6-0.6c-1.1,0-1.6,0.2-1.6,0.6c0,0.4,0.5,0.6,1.6,0.6C53,55.5,53.5,55.3,53.5,54.9z M53.4,51h-1.9v-1.2h1.9v-0.4
		h-1.9v-1.2h1.9v-0.7H55V53h-1.5V51z"/>
	<path class="st4" d="M59.5,49h1.8v1.2h-5.2V49h1.8v-1.1h1.5V49z M61,52.7c0,1.3-1,2.2-2.3,2.2s-2.3-0.9-2.3-2.2
		c0-1.3,1-2.2,2.3-2.2S61,51.4,61,52.7z M59.6,52.7c0-0.6-0.3-0.9-0.8-0.9c-0.5,0-0.8,0.3-0.8,0.9c0,0.6,0.4,0.9,0.8,0.9
		C59.2,53.6,59.6,53.3,59.6,52.7z M64.4,52.3h-1.2v4.3h-1.5v-8.9h1.5v3.4h1.2V52.3z"/>
</g>
<g class="st3">
	<path class="st4" d="M41.7,61.2c0,1.5,0.2,2.9,1.5,3.8l-0.8,1.2c-0.7-0.4-1.1-1.1-1.4-1.9c-0.3,0.9-0.8,1.6-1.5,2.1l-0.9-1.2
		c1.4-0.8,1.7-2.4,1.7-3.9v-1.4h1.5V61.2z M43.1,59.2h1.4v8.4h-1.4v-4.4h-0.9V62h0.9V59.2z M46.4,59.1V68h-1.5v-8.9H46.4z"/>
	<path class="st4" d="M55.5,65.8V67h-8.1v-1.2h1.7v-2.1c-0.6-0.4-1-1.1-1-1.8c0-1.5,1.4-2.5,3.4-2.5c1.9,0,3.4,1,3.4,2.5
		c0,0.8-0.4,1.4-1,1.8v2.1H55.5z M49.6,61.9c0,0.8,0.7,1.3,1.9,1.3c1.1,0,1.9-0.4,1.9-1.3c0-0.8-0.7-1.3-1.9-1.3
		C50.3,60.7,49.6,61.1,49.6,61.9z M50.6,65.8h1.7v-1.5c-0.3,0-0.6,0.1-0.8,0.1s-0.6,0-0.8-0.1V65.8z"/>
</g>
</svg>
