<svg width="47" height="21" viewBox="0 0 47 21" fill="none" xmlns="http://www.w3.org/2000/svg">
<rect x="17.0001" y="9.5" width="2.18182" height="8" fill="#202020"/>
<path d="M27.0001 7.5C28.1047 7.5 29.0001 8.39543 29.0001 9.5V9.5L17.0001 9.5V9.5C17.0001 8.39543 17.8956 7.5 19.0001 7.5L27.0001 7.5Z" fill="#FBD54E"/>
<path d="M19.0001 19.5C17.8956 19.5 17.0001 18.6046 17.0001 17.5V17.5L29.0001 17.5V17.5C29.0001 18.6046 28.1047 19.5 27.0001 19.5L19.0001 19.5Z" fill="#202020"/>
<path d="M26.8183 7.5H27.0001C28.1047 7.5 29.0001 8.39543 29.0001 9.5V17.5C29.0001 18.6046 28.1047 19.5 27.0001 19.5H26.8183V7.5Z" fill="#FBD54E"/>
<circle cx="39.5681" cy="13.5" r="5.5" stroke="black" stroke-width="2"/>
<path d="M39.5681 5.24265L38.1539 3.82843L40.9823 1V1C41.7634 1.78105 41.7634 3.04738 40.9823 3.82843L39.5681 5.24265Z" fill="#202020"/>
<path d="M36.7397 2.41422V2.41422C37.5207 1.63317 38.7871 1.63317 39.5681 2.41422L40.9823 3.82843L39.5681 5.24264L36.7397 2.41422Z" fill="#202020"/>
<path d="M0.931946 10.5C0.931946 9.39543 1.82738 8.5 2.93195 8.5H3.11376V17.6667H0.931946V10.5Z" fill="#202020"/>
<path d="M10.7501 10.5C10.7501 9.39543 11.6456 8.5 12.7501 8.5H12.9319V17.6667H10.7501V10.5Z" fill="#202020"/>
<path d="M2.76528 19.5C1.75276 19.5 0.931946 18.6792 0.931946 17.6667V17.6667L12.9319 17.6667V17.6667C12.9319 18.6792 12.1111 19.5 11.0986 19.5L2.76528 19.5Z" fill="#202020"/>
<rect x="0.931946" y="14.9167" width="1.83333" height="12" transform="rotate(-90 0.931946 14.9167)" fill="#202020"/>
</svg>
