<svg width="24" height="24" viewBox="0 0 24 24" fill="none" xmlns="http://www.w3.org/2000/svg">
<path d="M19.3125 9.76562H14.4375M19.3125 5.5H4.6875M19.3125 14.2344H14.4375M19.3125 18.5H4.6875M5.9875 15.25H9.8875C10.3425 15.25 10.5701 15.25 10.7439 15.1614C10.8967 15.0835 11.021 14.9592 11.0989 14.8064C11.1875 14.6326 11.1875 14.405 11.1875 13.95V10.05C11.1875 9.59496 11.1875 9.36744 11.0989 9.19363C11.021 9.04075 10.8967 8.91645 10.7439 8.83856C10.5701 8.75 10.3425 8.75 9.8875 8.75H5.9875C5.53246 8.75 5.30494 8.75 5.13113 8.83856C4.97825 8.91645 4.85395 9.04075 4.77606 9.19363C4.6875 9.36744 4.6875 9.59496 4.6875 10.05V13.95C4.6875 14.405 4.6875 14.6326 4.77606 14.8064C4.85395 14.9592 4.97825 15.0835 5.13113 15.1614C5.30494 15.25 5.53246 15.25 5.9875 15.25Z" stroke="black" stroke-width="2" stroke-linecap="round" stroke-linejoin="round"/>
</svg>
