<?xml version="1.0" encoding="utf-8"?>
<!-- Generator: Adobe Illustrator 23.0.1, SVG Export Plug-In . SVG Version: 6.00 Build 0)  -->
<svg version="1.1" id="Layer_1" xmlns="http://www.w3.org/2000/svg" xmlns:xlink="http://www.w3.org/1999/xlink" x="0px" y="0px"
	 viewBox="0 0 104 106" style="enable-background:new 0 0 104 106;" xml:space="preserve">
<style type="text/css">
	.st0{fill:none;stroke:#000000;stroke-linecap:round;stroke-miterlimit:10;}
	.st1{stroke:#000000;stroke-linecap:round;stroke-miterlimit:10;}
</style>
<path class="st0" d="M27.2,70.2c0,0,4.8,16.7,9.3,23.3c9,13,26,13,34,2c3.6-5,6.1-11.6,7.8-17.2"/>
<g>
	<path d="M36.9,47.5c7.2,0,13,5.8,13,13s-5.8,13-13,13s-13-5.8-13-13S29.7,47.5,36.9,47.5 M36.9,46.5c-7.7,0-14,6.3-14,14
		s6.3,14,14,14s14-6.3,14-14S44.6,46.5,36.9,46.5L36.9,46.5z"/>
</g>
<g>
	<path d="M68.9,47.5c7.2,0,13,5.8,13,13s-5.8,13-13,13s-13-5.8-13-13S61.7,47.5,68.9,47.5 M68.9,46.5c-7.7,0-14,6.3-14,14
		s6.3,14,14,14s14-6.3,14-14S76.6,46.5,68.9,46.5L68.9,46.5z"/>
</g>
<line class="st0" x1="50.4" y1="60" x2="55.4" y2="60"/>
<path class="st0" d="M30.5,15.5c0,0-13.1,15.5-14.1,33.5s6,38,3,47"/>
<path class="st0" d="M89.1,60.3c2,9.2,0,19.5-0.7,23.7c-1,6-1,14,3,21"/>
<path class="st0" d="M38.4,16c0,0,11-10,23,2s14,22,23,32"/>
<path class="st0" d="M56.4,7c0,0,18,7,24,25"/>
<path class="st0" d="M2.4,103c8-11,14-24,10-47s2.6-33.5,9-43c1.5-2.2,6-10,10-5"/>
<path class="st0" d="M34.4,7c0,0,2-6,17-6c17,0,30.6,14.3,40,32c6.1,11.4-1.4,22.6,5,34c9,16,4,31,3,36"/>
<path class="st0" d="M30.5,21.5c0,0-15,10-8,52c0.7,4.4,5,27,2,32"/>
<ellipse cx="38" cy="60.6" rx="1.5" ry="3.1"/>
<ellipse cx="67.5" cy="60.9" rx="1.5" ry="3.1"/>
<path class="st1" d="M30,43c0,0,1-1,6-1"/>
<path class="st1" d="M75,43c0,0-1-1-6-1"/>
<line class="st0" x1="49.5" y1="88.5" x2="57.5" y2="87.5"/>
<line class="st0" x1="82.2" y1="58.5" x2="84.7" y2="49.8"/>
<path class="st0" d="M81.5,72.5c0,0,0,2,3,2s3.3-8.2,4-11c2-8,0-17-4-13"/>
</svg>
