<svg width="25" height="24" viewBox="0 0 25 24" fill="none" xmlns="http://www.w3.org/2000/svg">
<g clip-path="url(#clip0_77_7694)">
<path fill-rule="evenodd" clip-rule="evenodd" d="M12.3265 0.359863C10.9261 0.359863 9.58313 0.916147 8.59293 1.90633C7.64608 2.8532 7.09598 4.12265 7.04964 5.45638C6.44769 5.2831 5.81906 5.21885 5.19353 5.26719C4.50636 5.32028 3.83638 5.50822 3.22185 5.82024C2.60731 6.13227 2.06026 6.56228 1.6119 7.08572C1.16355 7.60916 0.822693 8.2158 0.608784 8.87098C0.394876 9.52616 0.312109 10.2171 0.36521 10.9042C0.41831 11.5914 0.606237 12.2614 0.918262 12.8759C1.23029 13.4904 1.6603 14.0375 2.18374 14.4858C2.66023 14.894 3.20563 15.213 3.79383 15.4283C3.45129 15.9389 3.20145 16.5065 3.05647 17.1052C2.89406 17.7759 2.86644 18.4721 2.97525 19.1535C3.08403 19.835 3.32707 20.4879 3.69024 21.0747C4.05303 21.6609 4.52851 22.1691 5.0891 22.5703C6.21957 23.3865 7.62629 23.724 9.0041 23.5097C10.3203 23.3049 11.5086 22.6123 12.335 21.5736C13.1615 22.6123 14.3498 23.3049 15.6659 23.5097C17.0438 23.724 18.4506 23.3865 19.581 22.5701C20.1416 22.1691 20.6169 21.6609 20.9799 21.0747C21.3429 20.4879 21.586 19.835 21.6949 19.1535C21.8036 18.4721 21.776 17.7759 21.6136 17.1052C21.4683 16.505 21.2175 15.9359 20.8736 15.4243C21.4559 15.213 21.9968 14.8996 22.4703 14.4984C22.9964 14.0526 23.4291 13.5072 23.7436 12.8936C24.058 12.2799 24.248 11.6101 24.3025 10.9228C24.357 10.2354 24.2751 9.54403 24.0615 8.88847L23.2465 9.15415L24.0608 8.88641C23.6252 7.56193 22.682 6.4644 21.4379 5.83474C20.2496 5.23316 18.8793 5.10565 17.6039 5.47328C17.5616 4.13338 17.0108 2.8572 16.06 1.90633C15.0698 0.916147 13.7268 0.359863 12.3265 0.359863Z" fill="#9DEF74"/>
<path d="M12.3269 16.2005C14.4145 16.2005 16.1068 14.5194 16.1068 12.4457C16.1068 10.372 14.4145 8.69092 12.3269 8.69092C10.2392 8.69092 8.54688 10.372 8.54688 12.4457C8.54688 14.5194 10.2392 16.2005 12.3269 16.2005Z" fill="#44C800"/>
</g>
<defs>
<clipPath id="clip0_77_7694">
<rect width="24" height="24" fill="white" transform="translate(0.326172)"/>
</clipPath>
</defs>
</svg>
