<svg width="24" height="24" viewBox="0 0 24 24" fill="none" xmlns="http://www.w3.org/2000/svg">
<path fill-rule="evenodd" clip-rule="evenodd" d="M12 3.99872C7.58172 3.99872 4 7.58044 4 11.9987C4 16.417 7.58172 19.9987 12 19.9987C16.4183 19.9987 20 16.417 20 11.9987C20 7.58044 16.4183 3.99872 12 3.99872ZM11.2996 9.00683C11.0067 8.71394 10.5318 8.71395 10.2389 9.00685C9.94606 9.29975 9.94607 9.77462 10.239 10.0675L12.1702 11.9987L10.239 13.93C9.94606 14.2229 9.94606 14.6977 10.239 14.9906C10.5319 15.2835 11.0067 15.2835 11.2996 14.9906L13.7612 12.529C13.9019 12.3884 13.9809 12.1976 13.9809 11.9987C13.9809 11.7998 13.9019 11.609 13.7612 11.4684L11.2996 9.00683Z" fill="#B6212D"/>
</svg>
