<svg width="53" height="53" viewBox="0 0 53 53" fill="none" xmlns="http://www.w3.org/2000/svg">
<g clip-path="url(#clip0_106_2929)">
<path d="M23.9546 5.95102C23.0903 5.29413 22.0287 4.95057 20.9439 4.97619H9.35633C8.0862 4.97619 6.86813 5.48073 5.97003 6.37883C5.07193 7.27694 4.56738 8.49502 4.56738 9.76511V42.7989C4.56738 44.0689 5.07193 45.2872 5.97003 46.1852C6.86813 47.0832 8.0862 47.5879 9.35633 47.5879H43.963C45.2332 47.5879 46.4512 47.0832 47.3496 46.1852C48.2475 45.2872 48.7519 44.0689 48.7519 42.7989V16.0573C48.7519 14.7872 48.2475 13.5691 47.3496 12.671C46.4512 11.7729 45.2332 11.2683 43.963 11.2683H26.3694L25.7064 8.61646C25.4439 7.55498 24.8253 6.6127 23.9546 5.95102Z" fill="#E7EAE8"/>
<path d="M6.96598 47.5879C6.96598 47.5879 4.56738 47.5879 4.56738 45.1893C4.56738 42.7907 6.96598 35.5949 18.959 35.5949C30.952 35.5949 33.3506 42.7907 33.3506 45.1893C33.3506 47.5879 30.952 47.5879 30.952 47.5879H6.96598ZM18.959 33.1963C20.8674 33.1963 22.6977 32.4382 24.0472 31.0887C25.3967 29.7392 26.1548 27.9089 26.1548 26.0005C26.1548 24.092 25.3967 22.2618 24.0472 20.9123C22.6977 19.5628 20.8674 18.8047 18.959 18.8047C17.0505 18.8047 15.2203 19.5628 13.8708 20.9123C12.5213 22.2618 11.7632 24.092 11.7632 26.0005C11.7632 27.9089 12.5213 29.7392 13.8708 31.0887C15.2203 32.4382 17.0505 33.1963 18.959 33.1963Z" fill="#B6C0BA"/>
</g>
<g clip-path="url(#clip1_106_2929)">
<path d="M35.889 30.619C37.6041 27.5359 42.0387 27.5359 43.7539 30.619L52.0844 45.5937C53.753 48.5931 51.5843 52.2814 48.152 52.2814H31.4909C28.0585 52.2814 25.8898 48.5931 27.5584 45.5937L35.889 30.619Z" fill="white"/>
<path fill-rule="evenodd" clip-rule="evenodd" d="M38.759 31.3397C39.0788 31.1442 39.4464 31.0408 39.8212 31.0408C40.196 31.0408 40.5636 31.1442 40.8834 31.3397C41.2032 31.5352 41.4629 31.8152 41.6338 32.1488L41.6368 32.1547L49.1032 47.0877C49.2591 47.3974 49.3339 47.743 49.3194 48.0895C49.3048 48.4364 49.2019 48.7737 49.0203 49.0696C48.8386 49.3654 48.5844 49.61 48.2817 49.78C47.979 49.9499 47.6378 50.0397 47.2907 50.0408H47.2886H32.3538H32.3517C32.0045 50.0397 31.6634 49.9499 31.3607 49.78C31.058 49.61 30.8038 49.3654 30.6222 49.0696C30.4406 48.7737 30.3376 48.4364 30.3231 48.0895C30.3086 47.743 30.3828 47.3985 30.5386 47.0888L38.0056 32.1547L38.0086 32.1487C38.1795 31.8151 38.4392 31.5352 38.759 31.3397ZM39.8212 36.6334C40.3836 36.6334 40.8395 37.0893 40.8395 37.6517V42.0643C40.8395 42.6267 40.3836 43.0826 39.8212 43.0826C39.2588 43.0826 38.8029 42.6267 38.8029 42.0643V37.6517C38.8029 37.0893 39.2588 36.6334 39.8212 36.6334ZM41.1789 45.798C41.1789 46.5479 40.571 47.1558 39.8212 47.1558C39.0713 47.1558 38.4635 46.5479 38.4635 45.798C38.4635 45.0482 39.0713 44.4403 39.8212 44.4403C40.571 44.4403 41.1789 45.0482 41.1789 45.798Z" fill="#6B786F"/>
</g>
<defs>
<clipPath id="clip0_106_2929">
<rect width="44.1845" height="42.613" fill="white" transform="translate(4.56738 4.97485)"/>
</clipPath>
<clipPath id="clip1_106_2929">
<rect width="24.9999" height="25" fill="white" transform="translate(27.6592 27.2812)"/>
</clipPath>
</defs>
</svg>
