<svg width="20" height="20" viewBox="0 0 20 20" fill="none" xmlns="http://www.w3.org/2000/svg">
<rect x="3.5" y="3.5" width="13" height="13" rx="6.5" stroke="#6B786F"/>
<path fill-rule="evenodd" clip-rule="evenodd" d="M10.9229 7.25139C10.9229 6.80054 10.5574 6.43506 10.1065 6.43506C9.6557 6.43506 9.29022 6.80054 9.29022 7.25139V10.5167C9.29022 10.9675 9.6557 11.333 10.1065 11.333C10.5574 11.333 10.9229 10.9675 10.9229 10.5167V7.25139ZM11.0861 13.4555C11.0861 13.9965 10.6476 14.4351 10.1065 14.4351C9.56554 14.4351 9.12695 13.9965 9.12695 13.4555C9.12695 12.9145 9.56554 12.4759 10.1065 12.4759C10.6476 12.4759 11.0861 12.9145 11.0861 13.4555Z" fill="#6B786F"/>
</svg>
