<svg width="20" height="21" viewBox="0 0 20 21" fill="none" xmlns="http://www.w3.org/2000/svg">
<path d="M11.2814 11.4006L8.70996 11.8634L9.13853 9.25772L13.1928 5.22058C13.2725 5.14024 13.3673 5.07648 13.4718 5.03296C13.5762 4.98945 13.6882 4.96704 13.8014 4.96704C13.9146 4.96704 14.0266 4.98945 14.131 5.03296C14.2355 5.07648 14.3303 5.14024 14.4099 5.22058L15.3185 6.12915C15.3989 6.20883 15.4627 6.30363 15.5061 6.40809C15.5497 6.51254 15.572 6.62457 15.572 6.73773C15.572 6.85088 15.5497 6.96291 15.5061 7.06736C15.4627 7.17181 15.3989 7.26662 15.3185 7.3463L11.2814 11.4006Z" fill="#6B786F"/>
<path d="M12.0402 12.1566C11.8854 12.312 11.6867 12.4162 11.4708 12.4551L8.89938 12.9179C8.55683 12.9796 8.20566 12.871 7.95769 12.6267C7.70973 12.3825 7.59587 12.033 7.65235 11.6895L8.08092 9.08384C8.11742 8.86196 8.2228 8.65718 8.38214 8.4985L11.9286 4.96704H5.71459C5.3736 4.96704 5.04657 5.1025 4.80546 5.34362C4.56434 5.58474 4.42888 5.91177 4.42888 6.25275L4.42871 14.7089C4.42871 14.7089 4.42844 15.4105 4.75155 15.7333C5.07466 16.0562 5.51458 16.1099 5.51458 16.1099H14.286C14.627 16.1099 14.9541 15.9745 15.1952 15.7333C15.4363 15.4922 15.5717 15.1651 15.5717 14.8242V8.61008L12.0402 12.1566Z" fill="#E7EAE8"/>
</svg>
