<svg width="21" height="20" viewBox="0 0 21 20" fill="none" xmlns="http://www.w3.org/2000/svg">
    <path fill-rule="evenodd" clip-rule="evenodd" d="M5.685 3.046c-.941 0-1.705.763-1.705 1.705v10.498c0 .942.764 1.705 1.705 1.705h10.499c.941 0 1.704-.763 1.704-1.705V4.751c0-.942-.763-1.705-1.704-1.705h-10.5zm2.378 7.704a.75.75 0 0 1 .75-.75h4.243a.75.75 0 0 1 0 1.5H8.813a.75.75 0 0 1-.75-.75z" fill="#B6C0BA"/>
    <path d="M5.685 3.046c-.941 0-1.705.763-1.705 1.705v.71h13.908v-.71c0-.942-.763-1.705-1.704-1.705h-10.5z" fill="#6B786F"/>
</svg>
