<svg width="53" height="53" viewBox="0 0 53 53" fill="none" xmlns="http://www.w3.org/2000/svg">
<g clip-path="url(#clip0_106_2928)">
<path d="M44.4182 8.60268H28.5557C28.5557 8.60268 25.6979 8.60268 24.7629 7.92446C23.8279 7.24625 20.5254 4.74554 20.5254 4.74554L20.0938 4.45677C19.3517 4.01622 18.5019 3.78125 17.6325 3.78125H9.0611L8.53275 3.79834C4.34104 4.07041 1.02539 7.55648 1.02539 11.817V15.0312V18.2455V40.7455L1.04248 41.2739C1.31455 45.4656 4.80062 48.7812 9.0611 48.7812H44.4182L44.9466 48.7642C49.1383 48.4921 52.454 45.006 52.454 40.7455V16.6384L52.4369 16.11L52.3863 15.5908C51.8729 11.6478 48.5012 8.60268 44.4182 8.60268Z" fill="#CFD5D1"/>
<path d="M31.7467 25.2688C31.4092 24.7738 30.8542 24.4813 30.2617 24.4813C29.6692 24.4813 29.1067 24.7738 28.7767 25.2688L22.2517 34.8388L20.2642 32.3563C19.9192 31.9288 19.4017 31.6813 18.8617 31.6813C18.3217 31.6813 17.7967 31.9288 17.4592 32.3563L12.6592 38.3563C12.2242 38.8963 12.1417 39.6388 12.4417 40.2613C12.7417 40.8838 13.3717 41.2812 14.0617 41.2812H21.2617H23.6617H39.2617C39.9292 41.2812 40.5442 40.9138 40.8517 40.3213C41.1592 39.7288 41.1217 39.0163 40.7467 38.4688L31.7467 25.2688ZM15.8617 24.4813C16.8165 24.4813 17.7322 24.102 18.4073 23.4268C19.0824 22.7517 19.4617 21.836 19.4617 20.8812C19.4617 19.9265 19.0824 19.0108 18.4073 18.3357C17.7322 17.6605 16.8165 17.2812 15.8617 17.2812C14.9069 17.2812 13.9913 17.6605 13.3161 18.3357C12.641 19.0108 12.2617 19.9265 12.2617 20.8812C12.2617 21.836 12.641 22.7517 13.3161 23.4268C13.9913 24.102 14.9069 24.4813 15.8617 24.4813Z" fill="white"/>
<path fill-rule="evenodd" clip-rule="evenodd" d="M38.7656 1.53298C39.0349 1.36836 39.3445 1.28125 39.6601 1.28125C39.9757 1.28125 40.2853 1.36836 40.5546 1.53298C40.8239 1.69761 41.0425 1.93336 41.1865 2.21429L41.189 2.21927L47.4765 14.7945C47.6078 15.0553 47.6708 15.3463 47.6585 15.638C47.6463 15.9302 47.5596 16.2143 47.4067 16.4634C47.2537 16.7126 47.0396 16.9185 46.7847 17.0616C46.5298 17.2048 46.2425 17.2803 45.9502 17.2812H45.9484H33.3717H33.37C33.0776 17.2803 32.7904 17.2048 32.5355 17.0616C32.2805 16.9185 32.0665 16.7126 31.9135 16.4634C31.7606 16.2143 31.6739 15.9302 31.6617 15.638C31.6494 15.3463 31.7119 15.0562 31.8432 14.7954L38.1312 2.21929L38.1337 2.21427C38.2776 1.93335 38.4963 1.69761 38.7656 1.53298Z" fill="white"/>
<path fill-rule="evenodd" clip-rule="evenodd" d="M38.7656 1.53298C39.0349 1.36836 39.3444 1.28125 39.6601 1.28125C39.9757 1.28125 40.2852 1.36836 40.5546 1.53298C40.8239 1.69761 41.0425 1.93336 41.1865 2.21429L41.189 2.21927L47.4765 14.7945C47.6078 15.0553 47.6708 15.3463 47.6585 15.638C47.6463 15.9302 47.5596 16.2143 47.4067 16.4634C47.2537 16.7126 47.0396 16.9185 46.7847 17.0616C46.5298 17.2048 46.2425 17.2803 45.9502 17.2812H45.9484H33.3717H33.37C33.0776 17.2803 32.7904 17.2048 32.5355 17.0616C32.2805 16.9185 32.0665 16.7126 31.9135 16.4634C31.7606 16.2143 31.6739 15.9302 31.6617 15.638C31.6494 15.3463 31.7119 15.0562 31.8432 14.7954L38.1312 2.21929L38.1337 2.21427C38.2776 1.93335 38.4963 1.69761 38.7656 1.53298ZM39.6601 5.99084C40.1336 5.99084 40.5176 6.37477 40.5176 6.84835V10.5642C40.5176 11.0378 40.1336 11.4217 39.6601 11.4217C39.1865 11.4217 38.8026 11.0378 38.8026 10.5642V6.84835C38.8026 6.37477 39.1865 5.99084 39.6601 5.99084ZM40.8034 13.7084C40.8034 14.3399 40.2915 14.8518 39.6601 14.8518C39.0286 14.8518 38.5167 14.3399 38.5167 13.7084C38.5167 13.0769 39.0286 12.5651 39.6601 12.5651C40.2915 12.5651 40.8034 13.0769 40.8034 13.7084Z" fill="#6B786F"/>
</g>
<defs>
<clipPath id="clip0_106_2928">
<rect width="52" height="52" fill="white" transform="translate(0.65918 0.28125)"/>
</clipPath>
</defs>
</svg>
