<?xml version="1.0" encoding="utf-8"?>
<!-- Generator: Adobe Illustrator 27.0.1, SVG Export Plug-In . SVG Version: 6.00 Build 0)  -->
<svg version="1.1" id="그룹_1296" xmlns="http://www.w3.org/2000/svg" xmlns:xlink="http://www.w3.org/1999/xlink" x="0px"
	 y="0px" viewBox="0 0 209 93" style="enable-background:new 0 0 209 93;" xml:space="preserve">
<style type="text/css">
	.st0{fill:#E9EBF0;}
	.st1{enable-background:new    ;}
	.st2{fill:#A4BBDD;}
</style>
<g>
	<rect id="Head_Frame_Border_" x="0.1" class="st0" width="209" height="93"/>
	<g class="st1">
		<path class="st2" d="M64.7,38.7c-3.7,0-6,2.8-6,7.8c0,5.1,2.4,7.8,6,7.8c2.7,0,4.6-1.5,5.1-4h6c-0.5,4.5-4.4,9.2-11.2,9.2
			s-12-4.7-12-13.1s5.2-13.1,12-13.1c6.1,0,10.6,3.5,11.2,9.5h-6C69.4,40.3,67.5,38.7,64.7,38.7z"/>
		<path class="st2" d="M79.3,59.2V33.8h9.3c7.8,0,12.6,4.8,12.6,12.7s-4.8,12.7-12.6,12.7H79.3z M88.4,54.1c4.4,0,6.8-2.1,6.8-7.6
			s-2.4-7.6-6.8-7.6h-3.1v15.2C85.3,54.1,88.4,54.1,88.4,54.1z"/>
		<path class="st2" d="M112.1,33.8l6.6,16h0.3l6.6-16h7.4v25.5h-5.8V43.4H127l-6.2,15.7H117l-6.2-15.8h-0.2v15.9h-5.8V33.8H112.1z"
			/>
		<path class="st2" d="M146.6,38.4c-2.4,0-3.7,1.1-3.7,2.5c0,1.6,1.5,2.4,3.8,2.8l2.2,0.5c4.9,1.1,7.8,3.5,7.8,7.6
			c0,4.8-3.8,7.7-10.1,7.7s-10.4-2.9-10.5-8.7h5.8c0.1,2.5,2,3.7,4.7,3.7c2.5,0,4-1.1,4.1-2.7c0-1.5-1.3-2.2-4.1-2.9l-2.7-0.6
			c-4.4-1-7.1-3.2-7.1-7c0-4.7,4.1-7.9,9.9-7.9c5.9,0,9.7,3.2,9.7,7.9h-5.8C150.4,39.5,149.1,38.4,146.6,38.4z"/>
	</g>
</g>
</svg>
