<svg width="41" height="41" viewBox="0 0 41 41" fill="none" xmlns="http://www.w3.org/2000/svg">
<path d="M30.9271 40.55H9.20376C4.17349 40.55 0.0654297 36.4327 0.0654297 31.4117V9.68838C0.0654297 4.66742 4.1828 0.550049 9.20376 0.550049H30.9271C35.9574 0.550049 40.0654 4.66742 40.0654 9.68838V31.4117C40.0654 36.442 35.9574 40.55 30.9271 40.55Z" fill="#FEE500"/>
<path d="M20.0579 11.1526C13.8355 11.1526 8.81738 15.167 8.81738 20.0406C8.81738 23.204 10.9049 25.9739 14.0362 27.5556L12.9764 31.5139C12.9564 31.5733 12.9533 31.6369 12.9675 31.6979C12.9817 31.7589 13.0125 31.8147 13.0567 31.8591C13.121 31.9158 13.2037 31.9472 13.2895 31.9474C13.3606 31.9417 13.4281 31.9136 13.4822 31.8672L18.0426 28.7921C18.7158 28.885 19.3944 28.9333 20.0739 28.9366C26.2883 28.9366 31.3144 24.9222 31.3144 20.0406C31.3144 15.159 26.2723 11.1526 20.0579 11.1526Z" fill="#392020"/>
<path d="M12.7511 18.6355H11.5226C11.3704 18.6399 11.22 18.6009 11.0891 18.5231C11.0309 18.4866 10.981 18.4386 10.9423 18.3819C10.9036 18.3253 10.877 18.2612 10.8643 18.1938C10.8604 18.1511 10.8604 18.1082 10.8643 18.0655C10.8604 17.9855 10.876 17.9058 10.9095 17.8331C10.943 17.7604 10.9936 17.6969 11.0569 17.6479C11.1969 17.5466 11.3659 17.493 11.5387 17.4953H15.24C15.3935 17.4899 15.5449 17.532 15.6736 17.6158C15.7331 17.6506 15.7841 17.6982 15.823 17.7552C15.8619 17.8121 15.8876 17.8769 15.8984 17.945C15.9023 17.985 15.9023 18.0254 15.8984 18.0655C15.9022 18.1466 15.8867 18.2274 15.8532 18.3014C15.8197 18.3753 15.7692 18.4403 15.7057 18.4909C15.5691 18.5922 15.4018 18.6433 15.232 18.6355H14.0437V22.8587C14.0485 22.9487 14.0346 23.0386 14.0028 23.1229C13.971 23.2072 13.9221 23.2841 13.859 23.3485C13.7986 23.41 13.7259 23.4583 13.6457 23.4901C13.5655 23.5219 13.4796 23.5365 13.3934 23.5331C13.2426 23.5374 13.095 23.4892 12.9759 23.3967C12.8624 23.3063 12.7855 23.1779 12.7591 23.0353C12.7511 22.9767 12.7511 22.9173 12.7591 22.8587L12.7511 18.6355Z" fill="#FEE500"/>
<path d="M16.2529 17.8084C16.2883 17.6763 16.3712 17.5619 16.4858 17.4872C16.6079 17.418 16.747 17.3846 16.8872 17.3909H17.1923C17.3411 17.3855 17.4884 17.4217 17.6179 17.4953C17.755 17.5875 17.8525 17.7279 17.8908 17.8887L19.4966 22.425C19.5383 22.5434 19.5731 22.6641 19.601 22.7864C19.6037 22.8372 19.6037 22.8881 19.601 22.9389C19.6037 23.0171 19.5893 23.095 19.5588 23.1672C19.5283 23.2393 19.4824 23.3039 19.4244 23.3564C19.3681 23.4141 19.3006 23.4595 19.226 23.4899C19.1514 23.5203 19.0713 23.535 18.9908 23.533C18.867 23.5453 18.7426 23.5156 18.6377 23.4486C18.5329 23.3816 18.4536 23.2813 18.4127 23.1637L18.0755 22.1762H15.9639L15.6267 23.1637C15.5868 23.2836 15.5066 23.3859 15.3997 23.4532C15.2928 23.5206 15.1659 23.5488 15.0406 23.533C14.9048 23.5366 14.7718 23.4941 14.6632 23.4126C14.5574 23.3284 14.486 23.2086 14.4625 23.0754C14.4582 23.03 14.4582 22.9843 14.4625 22.9389C14.4487 22.8592 14.4487 22.7778 14.4625 22.6981C14.4625 22.6098 14.5187 22.5133 14.5508 22.425L16.2529 17.8084ZM17.0558 18.8602L16.2931 21.2689H17.8105L17.0558 18.8602Z" fill="#FEE500"/>
<path d="M19.7849 18.0656C19.7767 17.8854 19.8402 17.7093 19.9615 17.5758C20.0232 17.5136 20.0972 17.465 20.1788 17.4332C20.2604 17.4014 20.3477 17.387 20.4352 17.391C20.5856 17.3893 20.7324 17.4373 20.8527 17.5276C20.9642 17.6218 21.0383 17.7528 21.0615 17.8969C21.0694 17.9528 21.0694 18.0096 21.0615 18.0656V22.2888H23.2694C23.4225 22.2868 23.5729 22.3285 23.703 22.4091C23.7614 22.4452 23.8117 22.4932 23.8504 22.5499C23.8891 22.6066 23.9155 22.6708 23.9278 22.7383C23.9278 22.7383 23.9278 22.8187 23.9278 22.8588C23.9316 22.9388 23.9161 23.0184 23.8826 23.0911C23.849 23.1638 23.7984 23.2273 23.7351 23.2763C23.5951 23.3777 23.4262 23.4311 23.2534 23.4288H20.5396C20.3668 23.4399 20.195 23.395 20.0498 23.3004C19.92 23.2034 19.8335 23.0592 19.809 22.899C19.8031 22.8108 19.8031 22.7222 19.809 22.634L19.7849 18.0656Z" fill="#FEE500"/>
<path d="M24.0727 18.0657C24.0679 17.8861 24.1309 17.7112 24.2493 17.576C24.3696 17.4666 24.524 17.402 24.6864 17.3933C24.8487 17.3845 25.0091 17.432 25.1405 17.5277C25.2545 17.6211 25.3314 17.752 25.3573 17.897C25.3613 17.9532 25.3613 18.0096 25.3573 18.0657V20.0328L27.3886 17.6883C27.4669 17.6083 27.55 17.5333 27.6375 17.4635C27.72 17.4144 27.8145 17.3893 27.9105 17.3912C28.0508 17.3904 28.1881 17.4325 28.3039 17.5117C28.3585 17.5484 28.4051 17.5959 28.441 17.651C28.4769 17.7062 28.5012 17.768 28.5127 17.8328C28.5159 17.8487 28.5159 17.8652 28.5127 17.8811C28.5088 17.8996 28.5088 17.9187 28.5127 17.9372C28.5124 18.0217 28.4903 18.1047 28.4484 18.1781C28.4058 18.2559 28.3547 18.3285 28.2959 18.3948L26.9631 19.8561L28.5689 22.3451V22.4254C28.6522 22.5404 28.7172 22.6678 28.7616 22.8028V22.8429C28.7709 22.9359 28.7574 23.0298 28.7225 23.1165C28.6875 23.2032 28.6321 23.2801 28.5608 23.3407C28.4269 23.4419 28.263 23.4956 28.0952 23.4933C27.9836 23.4979 27.8728 23.4729 27.774 23.4209C27.6671 23.3492 27.579 23.2529 27.5171 23.14L26.0237 20.7313L25.3091 21.478V22.8188C25.3139 22.9984 25.2509 23.1733 25.1325 23.3085C25.069 23.3705 24.9936 23.419 24.9107 23.4507C24.8279 23.4825 24.7394 23.497 24.6508 23.4933C24.5026 23.4964 24.3579 23.4481 24.2413 23.3567C24.1279 23.2663 24.0509 23.1381 24.0245 22.9955C24.0166 22.9369 24.0166 22.8774 24.0245 22.8188L24.0727 18.0657Z" fill="#FEE500"/>
</svg>
