<svg width="24" height="24" viewBox="0 0 24 24" fill="none" xmlns="http://www.w3.org/2000/svg">
<path d="M5.7749 15.1875H7.4249C8.18459 15.1875 8.7999 15.7818 8.7999 16.5156V18.1094C8.7999 18.8432 8.18459 19.4375 7.4249 19.4375H5.7749C5.01521 19.4375 4.3999 18.8432 4.3999 18.1094V16.5156C4.3999 15.7818 5.01521 15.1875 5.7749 15.1875ZM5.7749 9.875H7.4249C8.18459 9.875 8.7999 10.4693 8.7999 11.2031V12.7969C8.7999 13.5307 8.18459 14.125 7.4249 14.125H5.7749C5.01521 14.125 4.3999 13.5307 4.3999 12.7969V11.2031C4.3999 10.4693 5.01521 9.875 5.7749 9.875ZM5.7749 4.5625H7.4249C8.18459 4.5625 8.7999 5.15684 8.7999 5.89062V7.48438C8.7999 8.21816 8.18459 8.8125 7.4249 8.8125H5.7749C5.01521 8.8125 4.3999 8.21816 4.3999 7.48438V5.89062C4.3999 5.15684 5.01521 4.5625 5.7749 4.5625Z" fill="black"/>
<path d="M11.1748 15.1875H12.8248C13.5845 15.1875 14.1998 15.7818 14.1998 16.5156V18.1094C14.1998 18.8432 13.5845 19.4375 12.8248 19.4375H11.1748C10.4151 19.4375 9.7998 18.8432 9.7998 18.1094V16.5156C9.7998 15.7818 10.4151 15.1875 11.1748 15.1875ZM11.1748 9.875H12.8248C13.5845 9.875 14.1998 10.4693 14.1998 11.2031V12.7969C14.1998 13.5307 13.5845 14.125 12.8248 14.125H11.1748C10.4151 14.125 9.7998 13.5307 9.7998 12.7969V11.2031C9.7998 10.4693 10.4151 9.875 11.1748 9.875ZM11.1748 4.5625H12.8248C13.5845 4.5625 14.1998 5.15684 14.1998 5.89062V7.48438C14.1998 8.21816 13.5845 8.8125 12.8248 8.8125H11.1748C10.4151 8.8125 9.7998 8.21816 9.7998 7.48438V5.89062C9.7998 5.15684 10.4151 4.5625 11.1748 4.5625Z" fill="black"/>
<path d="M16.575 15.1875H18.225C18.9846 15.1875 19.6 15.7818 19.6 16.5156V18.1094C19.6 18.8432 18.9846 19.4375 18.225 19.4375H16.575C15.8153 19.4375 15.2 18.8432 15.2 18.1094V16.5156C15.2 15.7818 15.8153 15.1875 16.575 15.1875ZM16.575 9.875H18.225C18.9846 9.875 19.6 10.4693 19.6 11.2031V12.7969C19.6 13.5307 18.9846 14.125 18.225 14.125H16.575C15.8153 14.125 15.2 13.5307 15.2 12.7969V11.2031C15.2 10.4693 15.8153 9.875 16.575 9.875ZM16.575 4.5625H18.225C18.9846 4.5625 19.6 5.15684 19.6 5.89062V7.48438C19.6 8.21816 18.9846 8.8125 18.225 8.8125H16.575C15.8153 8.8125 15.2 8.21816 15.2 7.48438V5.89062C15.2 5.15684 15.8153 4.5625 16.575 4.5625Z" fill="black"/>
</svg>
