<svg width="24" height="24" viewBox="0 0 24 24" fill="none" xmlns="http://www.w3.org/2000/svg">
<path d="M9 12L11 14L15.5 9.5M11.9932 6.13581C9.9938 3.7984 6.65975 3.16964 4.15469 5.31001C1.64964 7.45038 1.29697 11.029 3.2642 13.5604C4.75009 15.4724 8.97129 19.311 10.948 21.0749C11.3114 21.3991 11.4931 21.5613 11.7058 21.6251C11.8905 21.6805 12.0958 21.6805 12.2805 21.6251C12.4932 21.5613 12.6749 21.3991 13.0383 21.0749C15.015 19.311 19.2362 15.4724 20.7221 13.5604C22.6893 11.029 22.3797 7.42787 19.8316 5.31001C17.2835 3.19216 13.9925 3.7984 11.9932 6.13581Z" stroke="black" stroke-width="2" stroke-linecap="round" stroke-linejoin="round"/>
</svg>
