<svg width="261" height="261" viewBox="0 0 261 261" fill="none" xmlns="http://www.w3.org/2000/svg">
<path d="M127.825 96.6451C123.675 86.9651 116.615 79.9151 106.845 75.7551C101.965 73.6751 96.8946 72.6051 91.5546 72.6051C86.2146 72.6051 81.1446 73.6551 76.2646 75.7551C66.5846 79.9151 59.4546 86.9451 55.2846 96.6451C53.2046 101.505 52.1846 106.595 52.1846 111.935C52.1846 117.275 53.2046 122.405 55.2846 127.265C59.4446 136.965 66.5746 144.045 76.2646 148.205C81.1446 150.295 86.2146 151.345 91.5546 151.345C96.8946 151.345 101.975 150.285 106.845 148.205C116.615 144.045 123.675 136.955 127.825 127.265C129.915 122.395 130.975 117.275 130.975 111.935C130.975 106.595 129.925 101.515 127.825 96.6451ZM78.4646 79.9351C75.0546 84.2451 72.5646 89.7151 70.9646 96.3451H60.6746C64.4646 88.9751 70.8446 83.0751 78.4646 79.9351ZM56.9746 111.945C56.9746 108.195 57.5746 104.575 58.7346 101.095H70.0146C69.4546 104.755 69.1946 108.375 69.1946 111.945C69.1946 115.515 69.4546 119.055 70.0146 122.715H58.6446C57.5246 119.225 56.9646 115.605 56.9646 111.945H56.9746ZM60.6746 127.455H70.9646C72.5646 134.215 75.0546 139.775 78.4646 144.045C70.7146 140.815 64.3346 134.905 60.6746 127.455ZM89.1546 146.185C86.3546 145.365 83.7246 143.295 81.3546 139.945C78.9846 136.585 77.1746 132.405 75.9246 127.455H89.1446V146.185H89.1546ZM89.1546 122.715H74.8546C74.2946 118.875 73.9846 115.305 73.9846 111.945C73.9846 108.325 74.2846 104.705 74.9346 101.095H89.1546V122.715ZM89.1546 96.3551H75.9346C77.2646 91.4451 79.0846 87.3151 81.4446 83.9851C83.8246 80.6351 86.3546 78.5551 89.1546 77.7851V96.3551ZM122.495 96.3551H112.205C110.605 89.7151 108.115 84.2451 104.705 79.9451C112.325 83.0951 118.705 88.9951 122.495 96.3551ZM94.0146 77.7851C96.8146 78.5651 99.3546 80.6351 101.725 83.9851C104.085 87.3051 105.905 91.4351 107.235 96.3551H94.0046V77.7851H94.0146ZM94.0146 101.095H108.235C108.885 104.715 109.185 108.325 109.185 111.945C109.185 115.305 108.885 118.875 108.325 122.715H94.0246V101.095H94.0146ZM94.0146 146.195V127.465H107.245C105.955 132.415 104.115 136.575 101.775 139.955C99.4246 143.335 96.8646 145.425 94.0246 146.195H94.0146ZM104.695 144.045C108.105 139.775 110.595 134.225 112.195 127.455H122.485C118.825 134.905 112.445 140.805 104.695 144.045ZM124.515 122.725H113.145C113.705 119.065 113.965 115.485 113.965 111.955C113.965 108.425 113.715 104.755 113.145 101.105H124.435C125.595 104.595 126.205 108.205 126.205 111.955C126.205 115.705 125.645 119.235 124.525 122.725H124.515Z" fill="#2D59B2"/>
<path d="M174.964 86.045C174.964 86.045 175.414 85.825 176.214 85.555C177.004 85.265 178.144 84.915 179.494 84.605C180.854 84.295 182.434 84.015 184.134 83.835C184.984 83.745 185.864 83.665 186.754 83.625C187.644 83.565 188.554 83.565 189.454 83.545C190.364 83.555 191.264 83.565 192.154 83.615C193.044 83.655 193.924 83.735 194.774 83.825C196.474 84.005 198.054 84.285 199.414 84.595C200.774 84.905 201.904 85.255 202.694 85.545C203.484 85.825 203.944 86.045 203.944 86.045C203.944 86.045 203.494 86.265 202.694 86.545C201.904 86.835 200.764 87.185 199.414 87.495C198.054 87.805 196.474 88.085 194.774 88.265C193.924 88.355 193.044 88.435 192.154 88.475C191.264 88.535 190.354 88.535 189.454 88.545C188.544 88.535 187.644 88.525 186.754 88.465C185.864 88.425 184.984 88.345 184.134 88.255C182.434 88.075 180.854 87.795 179.494 87.485C178.134 87.175 177.004 86.825 176.214 86.535C175.424 86.255 174.964 86.045 174.964 86.045Z" fill="#2D59B2"/>
<path d="M189.464 71.545C189.464 71.545 189.684 71.995 189.954 72.795C190.244 73.585 190.594 74.725 190.904 76.075C191.214 77.435 191.494 79.015 191.674 80.715C191.764 81.565 191.844 82.445 191.884 83.335C191.944 84.225 191.944 85.135 191.964 86.035C191.954 86.945 191.944 87.845 191.894 88.735C191.854 89.625 191.774 90.505 191.684 91.355C191.504 93.055 191.224 94.635 190.914 95.995C190.604 97.355 190.254 98.485 189.964 99.275C189.684 100.065 189.464 100.525 189.464 100.525C189.464 100.525 189.244 100.075 188.964 99.275C188.674 98.485 188.324 97.345 188.014 95.995C187.704 94.635 187.424 93.055 187.244 91.355C187.154 90.505 187.074 89.625 187.034 88.735C186.974 87.845 186.974 86.935 186.964 86.035C186.974 85.125 186.984 84.225 187.044 83.335C187.084 82.445 187.164 81.565 187.254 80.715C187.434 79.015 187.714 77.435 188.024 76.075C188.334 74.715 188.684 73.585 188.974 72.795C189.254 72.005 189.464 71.545 189.464 71.545Z" fill="#2D59B2"/>
<path d="M183.764 86.0451C183.764 82.9051 186.314 80.3551 189.454 80.3551C192.594 80.3551 195.144 82.9051 195.144 86.0451C195.144 89.1851 192.594 91.7351 189.454 91.7351C186.314 91.7351 183.764 89.1851 183.764 86.0451Z" fill="white" stroke="#2D59B2" stroke-width="5" stroke-miterlimit="10"/>
<path d="M52.7144 180.025C52.7144 180.025 53.1644 179.805 53.9644 179.535C54.7544 179.245 55.8944 178.895 57.2444 178.585C58.6044 178.275 60.1843 177.995 61.8843 177.815C62.7343 177.725 63.6144 177.645 64.5044 177.605C65.3944 177.545 66.3043 177.545 67.2043 177.525C68.1143 177.535 69.0144 177.545 69.9044 177.595C70.7944 177.635 71.6744 177.715 72.5244 177.805C74.2244 177.985 75.8043 178.265 77.1643 178.575C78.5243 178.885 79.6544 179.235 80.4444 179.525C81.2344 179.805 81.6944 180.025 81.6944 180.025C81.6944 180.025 81.2444 180.245 80.4444 180.525C79.6544 180.815 78.5143 181.165 77.1643 181.475C75.8043 181.785 74.2244 182.065 72.5244 182.245C71.6744 182.335 70.7944 182.415 69.9044 182.455C69.0144 182.515 68.1043 182.515 67.2043 182.525C66.2943 182.515 65.3944 182.505 64.5044 182.445C63.6144 182.405 62.7343 182.325 61.8843 182.235C60.1843 182.055 58.6044 181.775 57.2444 181.465C55.8844 181.155 54.7544 180.805 53.9644 180.515C53.1744 180.235 52.7144 180.025 52.7144 180.025Z" fill="#2D59B2"/>
<path d="M67.2144 165.535C67.2144 165.535 67.4343 165.985 67.7043 166.785C67.9943 167.575 68.3444 168.715 68.6544 170.065C68.9644 171.425 69.2443 173.005 69.4243 174.705C69.5143 175.555 69.5943 176.435 69.6343 177.325C69.6943 178.215 69.6944 179.125 69.7144 180.025C69.7044 180.935 69.6943 181.835 69.6443 182.725C69.6043 183.615 69.5244 184.495 69.4344 185.345C69.2544 187.045 68.9743 188.625 68.6643 189.985C68.3543 191.345 68.0044 192.475 67.7144 193.265C67.4344 194.055 67.2144 194.515 67.2144 194.515C67.2144 194.515 66.9944 194.065 66.7144 193.265C66.4244 192.475 66.0743 191.335 65.7643 189.985C65.4543 188.625 65.1744 187.045 64.9944 185.345C64.9044 184.495 64.8244 183.615 64.7844 182.725C64.7244 181.835 64.7244 180.925 64.7144 180.025C64.7244 179.115 64.7343 178.215 64.7943 177.325C64.8343 176.435 64.9144 175.555 65.0044 174.705C65.1844 173.005 65.4644 171.425 65.7744 170.065C66.0844 168.705 66.4344 167.575 66.7244 166.785C67.0044 165.995 67.2144 165.535 67.2144 165.535Z" fill="#2D59B2"/>
<path d="M67.2144 185.715C70.3569 185.715 72.9044 183.168 72.9044 180.025C72.9044 176.883 70.3569 174.335 67.2144 174.335C64.0719 174.335 61.5244 176.883 61.5244 180.025C61.5244 183.168 64.0719 185.715 67.2144 185.715Z" fill="white" stroke="#2D59B2" stroke-width="5" stroke-miterlimit="10"/>
<path d="M202.154 118.635H114.764C111.034 118.635 108.004 121.665 108.004 125.395V154.705H147.484V148.785C147.484 143.815 151.514 139.795 156.474 139.795H160.434C165.404 139.795 169.424 143.825 169.424 148.785V154.705H208.904V125.395C208.904 121.665 205.874 118.635 202.144 118.635H202.154Z" fill="white" stroke="#2D59B2" stroke-width="5" stroke-miterlimit="10"/>
<path d="M169.424 154.185V163.625C169.424 168.595 165.394 172.615 160.434 172.615H156.474C151.504 172.615 147.484 168.585 147.484 163.625V154.185H108.004V187.025C108.004 190.755 111.034 193.785 118.194 193.785H205.584C205.884 193.785 208.914 190.755 208.914 187.025V154.185H169.434H169.424Z" fill="white" stroke="#2D59B2" stroke-width="5" stroke-miterlimit="10"/>
<path d="M140.905 116.985C142.665 108.895 149.865 102.835 158.475 102.835C167.085 102.835 174.285 108.895 176.045 116.985H185.035C183.165 103.985 171.995 93.995 158.475 93.995C144.955 93.995 133.785 103.985 131.915 116.985H140.905Z" fill="white" stroke="#2D59B2" stroke-width="5" stroke-miterlimit="10"/>
<path d="M147.484 151.345H170.754" stroke="#2D59B2" stroke-width="5" stroke-miterlimit="10"/>
</svg>
