<svg width="261" height="261" viewBox="0 0 261 261" fill="none" xmlns="http://www.w3.org/2000/svg">
<path d="M169.704 39.525H71.8145V143.905H169.704V39.525Z" stroke="#3C8936" stroke-width="5" stroke-miterlimit="10"/>
<path d="M85.1646 81.025H157.415" stroke="#3C8936" stroke-width="5" stroke-miterlimit="10"/>
<path d="M85.1646 95.365H157.415" stroke="#3C8936" stroke-width="5" stroke-miterlimit="10"/>
<path d="M85.1646 109.695H157.415" stroke="#3C8936" stroke-width="5" stroke-miterlimit="10"/>
<path d="M85.1646 124.035H157.415" stroke="#3C8936" stroke-width="5" stroke-miterlimit="10"/>
<path d="M98.2446 62.945C98.2446 64.345 97.1045 65.485 95.7045 65.485C94.3045 65.485 93.1646 64.345 93.1646 62.945C93.1646 61.545 94.3045 60.405 95.7045 60.405C97.1045 60.405 98.2446 61.545 98.2446 62.945Z" fill="white" stroke="#3C8936" stroke-width="5" stroke-miterlimit="10"/>
<path d="M114.945 62.945C114.945 64.345 113.804 65.485 112.404 65.485C111.004 65.485 109.865 64.345 109.865 62.945C109.865 61.545 111.004 60.405 112.404 60.405C113.804 60.405 114.945 61.545 114.945 62.945Z" fill="white" stroke="#3C8936" stroke-width="5" stroke-miterlimit="10"/>
<path d="M131.655 62.945C131.655 64.345 130.515 65.485 129.115 65.485C127.715 65.485 126.575 64.345 126.575 62.945C126.575 61.545 127.715 60.405 129.115 60.405C130.515 60.405 131.655 61.545 131.655 62.945Z" fill="white" stroke="#3C8936" stroke-width="5" stroke-miterlimit="10"/>
<path d="M148.354 62.945C148.354 64.345 147.214 65.485 145.814 65.485C144.414 65.485 143.274 64.345 143.274 62.945C143.274 61.545 144.414 60.405 145.814 60.405C147.214 60.405 148.354 61.545 148.354 62.945Z" fill="white" stroke="#3C8936" stroke-width="5" stroke-miterlimit="10"/>
<path d="M198.245 76.035H128.204C125.244 76.035 122.844 78.4348 122.844 81.395V206.605C122.844 209.565 125.244 211.965 128.204 211.965H198.245C201.205 211.965 203.604 209.565 203.604 206.605V81.395C203.604 78.4348 201.205 76.035 198.245 76.035Z" fill="white" stroke="#3C8936" stroke-width="5" stroke-miterlimit="10"/>
<path d="M193.715 91.1851H132.725V195.045H193.715V91.1851Z" fill="white" stroke="#3C8936" stroke-width="5" stroke-miterlimit="10"/>
<path d="M152.774 83.8451H173.674" stroke="#3C8936" stroke-width="5" stroke-miterlimit="10"/>
<path d="M179.665 85.505C182.885 85.505 182.885 80.505 179.665 80.505C176.445 80.505 176.445 85.505 179.665 85.505Z" fill="#3C8936"/>
<path d="M182.665 111.435V163.475" stroke="#3C8936" stroke-width="5" stroke-miterlimit="10"/>
<path d="M181.925 173.675C185.145 173.675 185.145 168.675 181.925 168.675C178.705 168.675 178.705 173.675 181.925 173.675Z" fill="#3C8936"/>
<path d="M114.644 140.645L109.904 120.925C109.904 120.925 109.844 120.875 109.834 120.925L105.094 140.645V221.455H114.644V140.645Z" fill="white" stroke="#3C8936" stroke-width="5" stroke-miterlimit="10"/>
<path d="M105.104 221.455H114.654V233.765C114.654 236.405 112.515 238.535 109.885 238.535C107.245 238.535 105.115 236.395 105.115 233.765V221.455H105.104Z" fill="white" stroke="#3C8936" stroke-width="5" stroke-miterlimit="10"/>
<path d="M189.475 57.525C189.475 57.525 189.925 57.305 190.725 57.035C191.515 56.745 192.655 56.395 194.005 56.085C195.365 55.775 196.945 55.495 198.645 55.315C199.495 55.225 200.375 55.145 201.265 55.105C202.155 55.045 203.065 55.045 203.965 55.025C204.875 55.035 205.775 55.045 206.665 55.095C207.555 55.135 208.435 55.215 209.285 55.305C210.985 55.485 212.565 55.765 213.925 56.075C215.285 56.385 216.415 56.735 217.205 57.025C217.995 57.305 218.455 57.525 218.455 57.525C218.455 57.525 218.005 57.745 217.205 58.025C216.415 58.315 215.275 58.665 213.925 58.975C212.565 59.285 210.985 59.565 209.285 59.745C208.435 59.835 207.555 59.915 206.665 59.955C205.775 60.015 204.865 60.015 203.965 60.025C203.055 60.015 202.155 60.005 201.265 59.945C200.375 59.905 199.495 59.825 198.645 59.735C196.945 59.555 195.365 59.275 194.005 58.965C192.645 58.655 191.515 58.305 190.725 58.015C189.935 57.735 189.475 57.525 189.475 57.525Z" fill="#3C8936"/>
<path d="M203.975 43.035C203.975 43.035 204.195 43.485 204.465 44.285C204.755 45.075 205.105 46.215 205.415 47.565C205.725 48.925 206.005 50.505 206.185 52.205C206.275 53.055 206.355 53.935 206.395 54.825C206.455 55.715 206.455 56.625 206.475 57.525C206.465 58.435 206.455 59.335 206.405 60.225C206.365 61.115 206.285 61.995 206.195 62.845C206.015 64.545 205.735 66.125 205.425 67.485C205.115 68.845 204.765 69.975 204.475 70.765C204.195 71.555 203.975 72.015 203.975 72.015C203.975 72.015 203.755 71.565 203.475 70.765C203.185 69.975 202.835 68.835 202.525 67.485C202.215 66.125 201.935 64.545 201.755 62.845C201.665 61.995 201.585 61.115 201.545 60.225C201.485 59.335 201.485 58.425 201.475 57.525C201.485 56.615 201.495 55.715 201.555 54.825C201.595 53.935 201.675 53.055 201.765 52.205C201.945 50.505 202.225 48.925 202.535 47.565C202.845 46.205 203.195 45.075 203.485 44.285C203.765 43.495 203.975 43.035 203.975 43.035Z" fill="#3C8936"/>
<path d="M203.975 63.2151C207.117 63.2151 209.665 60.6676 209.665 57.5251C209.665 54.3826 207.117 51.8351 203.975 51.8351C200.832 51.8351 198.285 54.3826 198.285 57.5251C198.285 60.6676 200.832 63.2151 203.975 63.2151Z" fill="white" stroke="#3C8936" stroke-width="5" stroke-miterlimit="10"/>
<path d="M41.9446 170.595C41.9446 170.595 42.3946 170.375 43.1946 170.105C43.9846 169.815 45.1245 169.465 46.4745 169.155C47.8345 168.845 49.4146 168.565 51.1146 168.385C51.9646 168.295 52.8446 168.215 53.7346 168.175C54.6246 168.115 55.5346 168.115 56.4346 168.095C57.3446 168.105 58.2446 168.115 59.1346 168.165C60.0246 168.205 60.9046 168.285 61.7546 168.375C63.4546 168.555 65.0345 168.835 66.3945 169.145C67.7545 169.455 68.8846 169.805 69.6746 170.095C70.4646 170.375 70.9246 170.595 70.9246 170.595C70.9246 170.595 70.4746 170.815 69.6746 171.095C68.8846 171.385 67.7445 171.735 66.3945 172.045C65.0345 172.355 63.4546 172.635 61.7546 172.815C60.9046 172.905 60.0246 172.985 59.1346 173.025C58.2446 173.085 57.3346 173.085 56.4346 173.095C55.5246 173.085 54.6246 173.075 53.7346 173.015C52.8446 172.975 51.9646 172.895 51.1146 172.805C49.4146 172.625 47.8345 172.345 46.4745 172.035C45.1145 171.725 43.9846 171.375 43.1946 171.085C42.4046 170.805 41.9446 170.595 41.9446 170.595Z" fill="#3C8936"/>
<path d="M56.4446 156.105C56.4446 156.105 56.6646 156.555 56.9346 157.355C57.2246 158.145 57.5746 159.285 57.8846 160.635C58.1946 161.995 58.4745 163.575 58.6545 165.275C58.7445 166.125 58.8246 167.005 58.8646 167.895C58.9246 168.785 58.9246 169.695 58.9446 170.595C58.9346 171.505 58.9246 172.405 58.8746 173.295C58.8346 174.185 58.7546 175.065 58.6646 175.915C58.4846 177.615 58.2045 179.195 57.8945 180.555C57.5845 181.915 57.2346 183.045 56.9446 183.835C56.6646 184.625 56.4446 185.085 56.4446 185.085C56.4446 185.085 56.2246 184.635 55.9446 183.835C55.6546 183.045 55.3046 181.905 54.9946 180.555C54.6846 179.195 54.4045 177.615 54.2245 175.915C54.1345 175.065 54.0546 174.185 54.0146 173.295C53.9546 172.405 53.9546 171.495 53.9446 170.595C53.9546 169.685 53.9645 168.785 54.0245 167.895C54.0645 167.005 54.1446 166.125 54.2346 165.275C54.4146 163.575 54.6946 161.995 55.0046 160.635C55.3146 159.275 55.6645 158.145 55.9545 157.355C56.2345 156.565 56.4446 156.105 56.4446 156.105Z" fill="#3C8936"/>
<path d="M56.4446 176.285C59.5871 176.285 62.1346 173.738 62.1346 170.595C62.1346 167.453 59.5871 164.905 56.4446 164.905C53.3021 164.905 50.7546 167.453 50.7546 170.595C50.7546 173.738 53.3021 176.285 56.4446 176.285Z" fill="white" stroke="#3C8936" stroke-width="5" stroke-miterlimit="10"/>
</svg>
