<svg width="261" height="261" viewBox="0 0 261 261" fill="none" xmlns="http://www.w3.org/2000/svg">
<path d="M135.425 64.2048H80.1248C74.2374 64.2048 69.4648 68.9775 69.4648 74.8649V191.075C69.4648 196.962 74.2374 201.735 80.1248 201.735H135.425C141.312 201.735 146.085 196.962 146.085 191.075V74.8649C146.085 68.9775 141.312 64.2048 135.425 64.2048Z" fill="#FFAEDC" stroke="#A34885" stroke-width="5" stroke-miterlimit="10"/>
<path d="M136.345 73.825H79.2048V182.695H136.345V73.825Z" fill="#FFAEDC" stroke="#A34885" stroke-width="5" stroke-miterlimit="10"/>
<path d="M99.8848 191.665H115.665" stroke="#A34885" stroke-width="5" stroke-miterlimit="10"/>
<path d="M207.085 160.015C230.765 145.745 238.395 114.975 224.115 91.2948C209.845 67.6148 179.075 59.9848 155.395 74.2648C135.195 86.4348 126.695 110.605 133.475 132.145L118.445 153.645L145.135 151.825C160.975 168.345 186.665 172.345 207.085 160.035V160.015Z" fill="white" stroke="#A34885" stroke-width="5" stroke-miterlimit="10"/>
<path d="M162.395 191.665C162.395 191.665 162.845 191.445 163.645 191.175C164.435 190.885 165.575 190.535 166.925 190.225C168.285 189.915 169.865 189.635 171.565 189.455C172.415 189.365 173.295 189.285 174.185 189.245C175.075 189.185 175.985 189.185 176.885 189.165C177.795 189.175 178.695 189.185 179.585 189.235C180.475 189.275 181.355 189.355 182.205 189.445C183.905 189.625 185.485 189.905 186.845 190.215C188.205 190.525 189.335 190.875 190.125 191.165C190.915 191.445 191.375 191.665 191.375 191.665C191.375 191.665 190.925 191.885 190.125 192.165C189.335 192.455 188.195 192.805 186.845 193.115C185.485 193.425 183.905 193.705 182.205 193.885C181.355 193.975 180.475 194.055 179.585 194.095C178.695 194.155 177.785 194.155 176.885 194.165C175.975 194.155 175.075 194.145 174.185 194.085C173.295 194.045 172.415 193.965 171.565 193.875C169.865 193.695 168.285 193.415 166.925 193.105C165.565 192.795 164.435 192.445 163.645 192.155C162.855 191.875 162.395 191.665 162.395 191.665Z" fill="#A34885"/>
<path d="M176.885 177.165C176.885 177.165 177.105 177.615 177.375 178.415C177.665 179.205 178.015 180.345 178.325 181.695C178.635 183.055 178.915 184.635 179.095 186.335C179.185 187.185 179.265 188.065 179.305 188.955C179.365 189.845 179.365 190.755 179.385 191.655C179.375 192.565 179.365 193.465 179.315 194.355C179.275 195.245 179.195 196.125 179.105 196.975C178.925 198.675 178.645 200.255 178.335 201.615C178.025 202.975 177.675 204.105 177.385 204.895C177.105 205.685 176.885 206.145 176.885 206.145C176.885 206.145 176.665 205.695 176.385 204.895C176.095 204.105 175.745 202.965 175.435 201.615C175.125 200.255 174.845 198.675 174.665 196.975C174.575 196.125 174.495 195.245 174.455 194.355C174.395 193.465 174.395 192.555 174.385 191.655C174.395 190.745 174.405 189.845 174.465 188.955C174.505 188.065 174.585 187.185 174.675 186.335C174.855 184.635 175.135 183.055 175.445 181.695C175.755 180.335 176.105 179.205 176.395 178.415C176.675 177.625 176.885 177.165 176.885 177.165Z" fill="#A34885"/>
<path d="M176.885 197.355C180.027 197.355 182.575 194.807 182.575 191.665C182.575 188.522 180.027 185.975 176.885 185.975C173.742 185.975 171.195 188.522 171.195 191.665C171.195 194.807 173.742 197.355 176.885 197.355Z" fill="white" stroke="#A34885" stroke-width="5" stroke-miterlimit="10"/>
<path d="M30.0947 77.2249C30.0947 77.2249 30.5447 77.0049 31.3447 76.7349C32.1347 76.4449 33.2746 76.0949 34.6246 75.7849C35.9846 75.4749 37.5646 75.1948 39.2646 75.0148C40.1146 74.9248 40.9946 74.8449 41.8846 74.8049C42.7746 74.7449 43.6847 74.7449 44.5847 74.7249C45.4947 74.7349 46.3947 74.7449 47.2847 74.7949C48.1747 74.8349 49.0547 74.9149 49.9047 75.0049C51.6047 75.1849 53.1847 75.4648 54.5447 75.7748C55.9047 76.0848 57.0347 76.4349 57.8247 76.7249C58.6147 77.0049 59.0747 77.2249 59.0747 77.2249C59.0747 77.2249 58.6247 77.4449 57.8247 77.7249C57.0347 78.0149 55.8947 78.3649 54.5447 78.6749C53.1847 78.9849 51.6047 79.2649 49.9047 79.4449C49.0547 79.5349 48.1747 79.6148 47.2847 79.6548C46.3947 79.7148 45.4847 79.7149 44.5847 79.7249C43.6747 79.7149 42.7746 79.7048 41.8846 79.6448C40.9946 79.6048 40.1146 79.5249 39.2646 79.4349C37.5646 79.2549 35.9846 78.9749 34.6246 78.6649C33.2646 78.3549 32.1347 78.0048 31.3447 77.7148C30.5547 77.4348 30.0947 77.2249 30.0947 77.2249Z" fill="#A34885"/>
<path d="M44.5947 62.7349C44.5947 62.7349 44.8147 63.1849 45.0847 63.9849C45.3747 64.7749 45.7247 65.9148 46.0347 67.2648C46.3447 68.6248 46.6247 70.2048 46.8047 71.9048C46.8947 72.7548 46.9746 73.6348 47.0146 74.5248C47.0746 75.4148 47.0747 76.3249 47.0947 77.2249C47.0847 78.1349 47.0747 79.0349 47.0247 79.9249C46.9847 80.8149 46.9047 81.6949 46.8147 82.5449C46.6347 84.2449 46.3547 85.8249 46.0447 87.1849C45.7347 88.5449 45.3847 89.6748 45.0947 90.4648C44.8147 91.2548 44.5947 91.7148 44.5947 91.7148C44.5947 91.7148 44.3747 91.2648 44.0947 90.4648C43.8047 89.6748 43.4547 88.5349 43.1447 87.1849C42.8347 85.8249 42.5546 84.2449 42.3746 82.5449C42.2846 81.6949 42.2047 80.8149 42.1647 79.9249C42.1047 79.0349 42.1047 78.1249 42.0947 77.2249C42.1047 76.3149 42.1147 75.4148 42.1747 74.5248C42.2147 73.6348 42.2946 72.7548 42.3846 71.9048C42.5646 70.2048 42.8447 68.6248 43.1547 67.2648C43.4647 65.9048 43.8147 64.7749 44.1047 63.9849C44.3847 63.1949 44.5947 62.7349 44.5947 62.7349Z" fill="#A34885"/>
<path d="M38.9048 77.2249C38.9048 74.0849 41.4548 71.5349 44.5948 71.5349C47.7348 71.5349 50.2848 74.0849 50.2848 77.2249C50.2848 80.3649 47.7348 82.9149 44.5948 82.9149C41.4548 82.9149 38.9048 80.3649 38.9048 77.2249Z" fill="white" stroke="#A34885" stroke-width="5" stroke-miterlimit="10"/>
<path d="M161.985 134.015L183.885 115.285L206.485 134.015H161.985Z" stroke="#A34885" stroke-width="5" stroke-miterlimit="10"/>
<path d="M161.225 122.655H162.745C166.615 122.655 169.755 125.795 169.755 129.665V137.415H154.225V129.665C154.225 125.795 157.365 122.655 161.235 122.655H161.225Z" fill="#FFAEDC" stroke="#A34885" stroke-width="5" stroke-miterlimit="10"/>
<path d="M205.725 122.655H207.245C211.115 122.655 214.255 125.795 214.255 129.665V137.415H198.725V129.665C198.725 125.795 201.865 122.655 205.735 122.655H205.725Z" fill="#FFAEDC" stroke="#A34885" stroke-width="5" stroke-miterlimit="10"/>
<path d="M183.125 107.905H184.645C188.515 107.905 191.655 111.045 191.655 114.915V122.665H176.125V114.915C176.125 111.045 179.265 107.905 183.135 107.905H183.125Z" fill="#FFAEDC" stroke="#A34885" stroke-width="5" stroke-miterlimit="10"/>
<path d="M161.065 118.525C168.785 118.525 168.795 106.525 161.065 106.525C153.335 106.525 153.335 118.525 161.065 118.525Z" fill="#A34885"/>
<path d="M206.485 118.525C214.205 118.525 214.215 106.525 206.485 106.525C198.755 106.525 198.755 118.525 206.485 118.525Z" fill="#A34885"/>
<path d="M184.235 103.025C191.955 103.025 191.965 91.0249 184.235 91.0249C176.505 91.0249 176.505 103.025 184.235 103.025Z" fill="#A34885"/>
</svg>
