<svg width="261" height="261" viewBox="0 0 261 261" fill="none" xmlns="http://www.w3.org/2000/svg">
<path d="M51.1826 100.025C51.1826 100.025 51.6326 99.8049 52.4326 99.5349C53.2226 99.2449 54.3626 98.8949 55.7126 98.5849C57.0726 98.2749 58.6526 97.9949 60.3526 97.8149C61.2026 97.7249 62.0826 97.6449 62.9726 97.6049C63.8626 97.5449 64.7726 97.5449 65.6726 97.5249C66.5826 97.5349 67.4826 97.5449 68.3726 97.5949C69.2626 97.6349 70.1426 97.7149 70.9926 97.8049C72.6926 97.9849 74.2726 98.2649 75.6326 98.5749C76.9926 98.8849 78.1226 99.2349 78.9126 99.5249C79.7026 99.8049 80.1626 100.025 80.1626 100.025C80.1626 100.025 79.7126 100.245 78.9126 100.525C78.1226 100.815 76.9826 101.165 75.6326 101.475C74.2726 101.785 72.6926 102.065 70.9926 102.245C70.1426 102.335 69.2626 102.415 68.3726 102.455C67.4826 102.515 66.5726 102.515 65.6726 102.525C64.7626 102.515 63.8626 102.505 62.9726 102.445C62.0826 102.405 61.2026 102.325 60.3526 102.235C58.6526 102.055 57.0726 101.775 55.7126 101.465C54.3526 101.155 53.2226 100.805 52.4326 100.515C51.6426 100.235 51.1826 100.025 51.1826 100.025Z" fill="#7544AA"/>
<path d="M65.6826 85.5249C65.6826 85.5249 65.9026 85.9749 66.1726 86.7749C66.4626 87.5649 66.8126 88.7049 67.1226 90.0549C67.4326 91.4149 67.7126 92.9949 67.8926 94.6949C67.9826 95.5449 68.0626 96.4249 68.1026 97.3149C68.1626 98.2049 68.1626 99.1149 68.1826 100.015C68.1726 100.925 68.1626 101.825 68.1126 102.715C68.0726 103.605 67.9926 104.485 67.9026 105.335C67.7226 107.035 67.4426 108.615 67.1326 109.975C66.8226 111.335 66.4726 112.465 66.1826 113.255C65.9026 114.045 65.6826 114.505 65.6826 114.505C65.6826 114.505 65.4626 114.055 65.1826 113.255C64.8926 112.465 64.5426 111.325 64.2326 109.975C63.9226 108.615 63.6426 107.035 63.4626 105.335C63.3726 104.485 63.2926 103.605 63.2526 102.715C63.1926 101.825 63.1926 100.915 63.1826 100.015C63.1926 99.1049 63.2026 98.2049 63.2626 97.3149C63.3026 96.4249 63.3826 95.5449 63.4726 94.6949C63.6526 92.9949 63.9326 91.4149 64.2426 90.0549C64.5526 88.6949 64.9026 87.5649 65.1926 86.7749C65.4726 85.9849 65.6826 85.5249 65.6826 85.5249Z" fill="#7544AA"/>
<path d="M65.6827 105.715C68.8252 105.715 71.3727 103.167 71.3727 100.025C71.3727 96.8825 68.8252 94.335 65.6827 94.335C62.5402 94.335 59.9927 96.8825 59.9927 100.025C59.9927 103.167 62.5402 105.715 65.6827 105.715Z" fill="white" stroke="#7544AA" stroke-width="5" stroke-miterlimit="10"/>
<path d="M160.553 211.145C160.553 211.145 161.003 210.925 161.803 210.655C162.593 210.365 163.733 210.015 165.083 209.705C166.443 209.395 168.023 209.115 169.723 208.935C170.573 208.845 171.453 208.765 172.343 208.725C173.233 208.665 174.143 208.665 175.043 208.645C175.953 208.655 176.853 208.665 177.743 208.715C178.633 208.755 179.513 208.835 180.363 208.925C182.063 209.105 183.643 209.385 185.003 209.695C186.363 210.005 187.493 210.355 188.283 210.645C189.073 210.925 189.533 211.145 189.533 211.145C189.533 211.145 189.083 211.365 188.283 211.645C187.493 211.935 186.353 212.285 185.003 212.595C183.643 212.905 182.063 213.185 180.363 213.365C179.513 213.455 178.633 213.535 177.743 213.575C176.853 213.635 175.943 213.635 175.043 213.645C174.133 213.635 173.233 213.625 172.343 213.565C171.453 213.525 170.573 213.445 169.723 213.355C168.023 213.175 166.443 212.895 165.083 212.585C163.723 212.275 162.593 211.925 161.803 211.635C161.013 211.355 160.553 211.145 160.553 211.145Z" fill="#7544AA"/>
<path d="M175.043 196.645C175.043 196.645 175.263 197.095 175.533 197.895C175.823 198.685 176.173 199.825 176.483 201.175C176.793 202.535 177.073 204.115 177.253 205.815C177.343 206.665 177.423 207.545 177.463 208.435C177.523 209.325 177.523 210.235 177.543 211.135C177.533 212.045 177.523 212.945 177.473 213.835C177.433 214.725 177.353 215.605 177.263 216.455C177.083 218.155 176.803 219.735 176.493 221.095C176.183 222.455 175.833 223.585 175.543 224.375C175.263 225.165 175.043 225.625 175.043 225.625C175.043 225.625 174.823 225.175 174.543 224.375C174.253 223.585 173.903 222.445 173.593 221.095C173.283 219.735 173.003 218.155 172.823 216.455C172.733 215.605 172.653 214.725 172.613 213.835C172.553 212.945 172.553 212.035 172.543 211.135C172.553 210.225 172.563 209.325 172.623 208.435C172.663 207.545 172.743 206.665 172.833 205.815C173.013 204.115 173.293 202.535 173.603 201.175C173.913 199.815 174.263 198.685 174.553 197.895C174.833 197.105 175.043 196.645 175.043 196.645Z" fill="#7544AA"/>
<path d="M175.043 216.835C178.185 216.835 180.733 214.288 180.733 211.145C180.733 208.003 178.185 205.455 175.043 205.455C171.9 205.455 169.353 208.003 169.353 211.145C169.353 214.288 171.9 216.835 175.043 216.835Z" fill="white" stroke="#7544AA" stroke-width="5" stroke-miterlimit="10"/>
<path d="M162.692 152.255C195.001 152.255 221.192 126.064 221.192 93.7549C221.192 61.4462 195.001 35.2549 162.692 35.2549C130.384 35.2549 104.192 61.4462 104.192 93.7549C104.192 126.064 130.384 152.255 162.692 152.255Z" fill="#C183ED" stroke="#7544AA" stroke-width="5" stroke-miterlimit="10"/>
<path d="M114.192 92.5649C114.192 66.4349 135.372 45.2549 161.502 45.2549Z" fill="#C183ED"/>
<path d="M114.192 92.5649C114.192 66.4349 135.372 45.2549 161.502 45.2549" stroke="#7544AA" stroke-width="5" stroke-miterlimit="10"/>
<path d="M162.692 120.955C177.714 120.955 189.892 108.777 189.892 93.7549C189.892 78.7328 177.714 66.5549 162.692 66.5549C147.67 66.5549 135.492 78.7328 135.492 93.7549C135.492 108.777 147.67 120.955 162.692 120.955Z" fill="#C183ED" stroke="#7544AA" stroke-width="5" stroke-miterlimit="10"/>
<path d="M162.692 110.255C171.805 110.255 179.192 102.868 179.192 93.7549C179.192 84.6422 171.805 77.2549 162.692 77.2549C153.58 77.2549 146.192 84.6422 146.192 93.7549C146.192 102.868 153.58 110.255 162.692 110.255Z" fill="#C183ED" stroke="#7544AA" stroke-width="5" stroke-miterlimit="10"/>
<path d="M162.692 96.2549C165.912 96.2549 165.912 91.2549 162.692 91.2549C159.472 91.2549 159.472 96.2549 162.692 96.2549Z" fill="#7544AA"/>
<path d="M130.623 112.735C130.623 100.308 120.549 90.2349 108.123 90.2349C95.6962 90.2349 85.6226 100.308 85.6226 112.735V162.675C85.6226 175.101 95.6962 185.175 108.123 185.175C120.549 185.175 130.623 175.101 130.623 162.675V112.735Z" fill="white" stroke="#7544AA" stroke-width="5" stroke-miterlimit="10"/>
<path d="M94.6929 139.565H104.863" stroke="#7544AA" stroke-width="5" stroke-miterlimit="10"/>
<path d="M94.6929 148.235H104.863" stroke="#7544AA" stroke-width="5" stroke-miterlimit="10"/>
<path d="M94.6929 156.905H104.863" stroke="#7544AA" stroke-width="5" stroke-miterlimit="10"/>
<path d="M94.6929 113.905H104.863" stroke="#7544AA" stroke-width="5" stroke-miterlimit="10"/>
<path d="M94.6929 122.565H104.863" stroke="#7544AA" stroke-width="5" stroke-miterlimit="10"/>
<path d="M94.6929 131.235H104.863" stroke="#7544AA" stroke-width="5" stroke-miterlimit="10"/>
<path d="M110.573 139.565H120.743" stroke="#7544AA" stroke-width="5" stroke-miterlimit="10"/>
<path d="M110.573 148.235H120.743" stroke="#7544AA" stroke-width="5" stroke-miterlimit="10"/>
<path d="M110.573 156.905H120.743" stroke="#7544AA" stroke-width="5" stroke-miterlimit="10"/>
<path d="M110.573 113.905H120.743" stroke="#7544AA" stroke-width="5" stroke-miterlimit="10"/>
<path d="M110.573 122.565H120.743" stroke="#7544AA" stroke-width="5" stroke-miterlimit="10"/>
<path d="M110.573 131.235H120.743" stroke="#7544AA" stroke-width="5" stroke-miterlimit="10"/>
<path d="M147.543 152.465C147.543 179.305 129.893 199.055 108.123 199.055C86.3526 199.055 68.7026 179.305 68.7026 152.465" stroke="#7544AA" stroke-width="5" stroke-miterlimit="10"/>
<path d="M68.6928 151.485C64.6228 151.485 61.3228 148.185 61.3228 144.115V136.345C61.3228 132.275 64.6228 128.975 68.6928 128.975C72.7628 128.975 76.0628 132.275 76.0628 136.345V144.115C76.0628 148.185 72.7628 151.485 68.6928 151.485Z" stroke="#7544AA" stroke-width="5" stroke-miterlimit="10"/>
<path d="M147.543 151.485C143.473 151.485 140.173 148.185 140.173 144.115V136.345C140.173 132.275 143.473 128.975 147.543 128.975C151.613 128.975 154.913 132.275 154.913 136.345V144.115C154.913 148.185 151.613 151.485 147.543 151.485Z" stroke="#7544AA" stroke-width="5" stroke-miterlimit="10"/>
<path d="M89.0527 224.695H129.043L109.043 201.695L89.0527 224.695Z" stroke="#7544AA" stroke-width="5" stroke-miterlimit="10"/>
</svg>
