<svg width="261" height="261" viewBox="0 0 261 261" fill="none" xmlns="http://www.w3.org/2000/svg">
<path d="M104.876 146L87.4858 202.47" stroke="#A52A21" stroke-width="5" stroke-miterlimit="10"/>
<path d="M122.166 201.22L104.776 144.74" stroke="#A52A21" stroke-width="5" stroke-miterlimit="10"/>
<path d="M140.586 77.0098H77.2759V149.47H140.586V77.0098Z" fill="#F7674F" stroke="#A52A21" stroke-width="5" stroke-miterlimit="10"/>
<path fill-rule="evenodd" clip-rule="evenodd" d="M191.506 109.79C175.656 97.5398 144.856 84.7498 123.836 95.0298C108.766 102.39 104.106 115.42 106.266 129.28C107.976 140.23 113.936 151.69 122.396 161.28C141.576 183.01 168.406 184.39 174.306 177.99C179.556 172.29 171.436 167.48 172.916 162.77C173.096 162.19 173.426 161.62 173.936 161.04C178.626 155.77 189.696 167.59 203.646 155.08C217.586 142.56 203.086 118.74 191.506 109.79ZM165.176 158.88C164.966 159.57 164.646 160.21 164.206 160.79C161.446 164.41 155.056 164.18 149.936 160.28C145.626 157 143.586 152.18 144.666 148.57C144.876 147.88 145.196 147.24 145.636 146.66C148.396 143.04 154.786 143.27 159.906 147.17C164.216 150.45 166.256 155.27 165.176 158.88Z" fill="white" stroke="#A52A21" stroke-width="5" stroke-miterlimit="10"/>
<path fill-rule="evenodd" clip-rule="evenodd" d="M140.066 103.76C142.846 105.88 143.386 109.85 141.266 112.63C139.146 115.41 135.176 115.95 132.396 113.83C129.616 111.71 129.076 107.74 131.196 104.96C133.316 102.18 137.286 101.64 140.066 103.76Z" fill="white" stroke="#A52A21" stroke-width="5" stroke-miterlimit="10"/>
<path fill-rule="evenodd" clip-rule="evenodd" d="M160.066 105.39C162.846 107.51 163.386 111.48 161.266 114.26C159.146 117.04 155.176 117.58 152.396 115.46C149.616 113.34 149.076 109.37 151.196 106.59C153.316 103.81 157.286 103.27 160.066 105.39Z" fill="white" stroke="#A52A21" stroke-width="5" stroke-miterlimit="10"/>
<path fill-rule="evenodd" clip-rule="evenodd" d="M179.255 113.63C182.035 115.75 182.575 119.72 180.455 122.5C178.335 125.28 174.365 125.82 171.585 123.7C168.805 121.58 168.265 117.61 170.385 114.83C172.505 112.05 176.475 111.51 179.255 113.63Z" fill="white" stroke="#A52A21" stroke-width="5" stroke-miterlimit="10"/>
<path fill-rule="evenodd" clip-rule="evenodd" d="M192.115 128.5C194.895 130.62 195.435 134.59 193.315 137.37C191.195 140.15 187.225 140.69 184.445 138.57C181.665 136.45 181.125 132.48 183.235 129.7C185.355 126.92 189.325 126.38 192.105 128.5H192.115Z" fill="white" stroke="#A52A21" stroke-width="5" stroke-miterlimit="10"/>
<path fill-rule="evenodd" clip-rule="evenodd" d="M171.436 130.59C174.216 132.71 174.756 136.68 172.636 139.46C170.516 142.24 166.546 142.78 163.766 140.66C160.986 138.54 160.446 134.57 162.566 131.79C164.686 129.01 168.656 128.47 171.436 130.58V130.59Z" fill="white" stroke="#A52A21" stroke-width="5" stroke-miterlimit="10"/>
<path fill-rule="evenodd" clip-rule="evenodd" d="M152.546 123.34C155.326 125.46 155.866 129.43 153.746 132.21C151.626 134.99 147.655 135.53 144.875 133.41C142.095 131.29 141.556 127.32 143.676 124.54C145.796 121.76 149.766 121.22 152.546 123.33V123.34Z" fill="white" stroke="#A52A21" stroke-width="5" stroke-miterlimit="10"/>
<path d="M55.7358 59.3699C55.7358 59.3699 56.1858 59.1499 56.9858 58.8799C57.7758 58.5899 58.9158 58.2399 60.2658 57.9299C61.6258 57.6199 63.2058 57.3399 64.9058 57.1599C65.7558 57.0699 66.6358 56.9899 67.5258 56.9499C68.4158 56.8899 69.3258 56.8899 70.2258 56.8699C71.1358 56.8799 72.0358 56.8899 72.9258 56.9399C73.8158 56.9799 74.6958 57.0599 75.5458 57.1499C77.2458 57.3299 78.8259 57.6099 80.1859 57.9199C81.5459 58.2299 82.6759 58.5799 83.4659 58.8699C84.2559 59.1499 84.7159 59.3699 84.7159 59.3699C84.7159 59.3699 84.2659 59.5899 83.4659 59.8699C82.6759 60.1599 81.5359 60.5099 80.1859 60.8199C78.8259 61.1299 77.2458 61.4099 75.5458 61.5899C74.6958 61.6799 73.8158 61.7599 72.9258 61.7999C72.0358 61.8599 71.1258 61.8599 70.2258 61.8699C69.3158 61.8599 68.4158 61.8499 67.5258 61.7899C66.6358 61.7499 65.7558 61.6699 64.9058 61.5799C63.2058 61.3999 61.6258 61.1199 60.2658 60.8099C58.9058 60.4999 57.7758 60.1499 56.9858 59.8599C56.1958 59.5799 55.7358 59.3699 55.7358 59.3699Z" fill="#A52A21"/>
<path d="M70.2256 44.8699C70.2256 44.8699 70.4456 45.3199 70.7156 46.1199C71.0056 46.9099 71.3556 48.0499 71.6656 49.3999C71.9756 50.7599 72.2556 52.3399 72.4356 54.0399C72.5256 54.8899 72.6056 55.7699 72.6456 56.6599C72.7056 57.5499 72.7056 58.4599 72.7256 59.3599C72.7156 60.2699 72.7056 61.1699 72.6556 62.0599C72.6156 62.9499 72.5356 63.8299 72.4456 64.6799C72.2656 66.3799 71.9856 67.9599 71.6756 69.3199C71.3656 70.6799 71.0156 71.8099 70.7256 72.5999C70.4456 73.3899 70.2256 73.8499 70.2256 73.8499C70.2256 73.8499 70.0056 73.3999 69.7256 72.5999C69.4356 71.8099 69.0856 70.6699 68.7756 69.3199C68.4656 67.9599 68.1856 66.3799 68.0056 64.6799C67.9156 63.8299 67.8356 62.9499 67.7956 62.0599C67.7356 61.1699 67.7356 60.2599 67.7256 59.3599C67.7356 58.4499 67.7456 57.5499 67.8056 56.6599C67.8456 55.7699 67.9256 54.8899 68.0156 54.0399C68.1956 52.3399 68.4756 50.7599 68.7856 49.3999C69.0956 48.0399 69.4456 46.9099 69.7356 46.1199C70.0156 45.3299 70.2256 44.8699 70.2256 44.8699Z" fill="#A52A21"/>
<path d="M70.2256 65.0599C73.3681 65.0599 75.9156 62.5124 75.9156 59.3699C75.9156 56.2274 73.3681 53.6799 70.2256 53.6799C67.0831 53.6799 64.5356 56.2274 64.5356 59.3699C64.5356 62.5124 67.0831 65.0599 70.2256 65.0599Z" fill="white" stroke="#A52A21" stroke-width="5" stroke-miterlimit="10"/>
<path d="M167.576 211.52C167.576 211.52 168.026 211.3 168.826 211.03C169.616 210.74 170.756 210.39 172.106 210.08C173.466 209.77 175.046 209.49 176.746 209.31C177.596 209.22 178.476 209.14 179.366 209.1C180.256 209.04 181.166 209.04 182.066 209.02C182.976 209.03 183.876 209.04 184.766 209.09C185.656 209.13 186.536 209.21 187.386 209.3C189.086 209.48 190.666 209.76 192.026 210.07C193.386 210.38 194.516 210.73 195.306 211.02C196.096 211.3 196.556 211.52 196.556 211.52C196.556 211.52 196.106 211.74 195.306 212.02C194.516 212.31 193.376 212.66 192.026 212.97C190.666 213.28 189.086 213.56 187.386 213.74C186.536 213.83 185.656 213.91 184.766 213.95C183.876 214.01 182.966 214.01 182.066 214.02C181.156 214.01 180.256 214 179.366 213.94C178.476 213.9 177.596 213.82 176.746 213.73C175.046 213.55 173.466 213.27 172.106 212.96C170.746 212.65 169.616 212.3 168.826 212.01C168.036 211.73 167.576 211.52 167.576 211.52Z" fill="#A52A21"/>
<path d="M182.065 197.03C182.065 197.03 182.285 197.48 182.555 198.28C182.845 199.07 183.195 200.21 183.505 201.56C183.815 202.92 184.095 204.5 184.275 206.2C184.365 207.05 184.445 207.93 184.485 208.82C184.545 209.71 184.545 210.62 184.565 211.52C184.555 212.43 184.545 213.33 184.495 214.22C184.455 215.11 184.375 215.99 184.285 216.84C184.105 218.54 183.825 220.12 183.515 221.48C183.205 222.84 182.855 223.97 182.565 224.76C182.285 225.55 182.065 226.01 182.065 226.01C182.065 226.01 181.845 225.56 181.565 224.76C181.275 223.97 180.925 222.83 180.615 221.48C180.305 220.12 180.025 218.54 179.845 216.84C179.755 215.99 179.675 215.11 179.635 214.22C179.575 213.33 179.575 212.42 179.565 211.52C179.575 210.61 179.585 209.71 179.645 208.82C179.685 207.93 179.765 207.05 179.855 206.2C180.035 204.5 180.315 202.92 180.625 201.56C180.935 200.2 181.285 199.07 181.575 198.28C181.855 197.49 182.065 197.03 182.065 197.03Z" fill="#A52A21"/>
<path d="M176.375 211.52C176.375 208.38 178.925 205.83 182.065 205.83C185.205 205.83 187.755 208.38 187.755 211.52C187.755 214.66 185.205 217.21 182.065 217.21C178.925 217.21 176.375 214.66 176.375 211.52Z" fill="white" stroke="#A52A21" stroke-width="5" stroke-miterlimit="10"/>
</svg>
