<svg width="261" height="261" viewBox="0 0 261 261" fill="none" xmlns="http://www.w3.org/2000/svg">
<path d="M44.9768 103.06C44.9768 103.06 45.4268 102.84 46.2268 102.57C47.0168 102.28 48.1568 101.93 49.5068 101.62C50.8668 101.31 52.4469 101.03 54.1469 100.85C54.9969 100.76 55.8768 100.68 56.7668 100.64C57.6568 100.58 58.5668 100.58 59.4668 100.56C60.3768 100.57 61.2769 100.58 62.1669 100.63C63.0569 100.67 63.9369 100.75 64.7869 100.84C66.4869 101.02 68.0669 101.3 69.4269 101.61C70.7869 101.92 71.9168 102.27 72.7068 102.56C73.4968 102.84 73.9568 103.06 73.9568 103.06C73.9568 103.06 73.5068 103.28 72.7068 103.56C71.9168 103.85 70.7769 104.2 69.4269 104.51C68.0669 104.82 66.4869 105.1 64.7869 105.28C63.9369 105.37 63.0569 105.45 62.1669 105.49C61.2769 105.55 60.3668 105.55 59.4668 105.56C58.5568 105.55 57.6568 105.54 56.7668 105.48C55.8768 105.44 54.9969 105.36 54.1469 105.27C52.4469 105.09 50.8668 104.81 49.5068 104.5C48.1468 104.19 47.0168 103.84 46.2268 103.55C45.4368 103.27 44.9768 103.06 44.9768 103.06Z" fill="#7544AA"/>
<path d="M59.4768 88.5601C59.4768 88.5601 59.6968 89.0101 59.9668 89.8101C60.2568 90.6001 60.6069 91.74 60.9169 93.09C61.2269 94.45 61.5069 96.03 61.6869 97.73C61.7769 98.58 61.8569 99.46 61.8969 100.35C61.9569 101.24 61.9568 102.15 61.9768 103.05C61.9668 103.96 61.9569 104.86 61.9069 105.75C61.8669 106.64 61.7869 107.52 61.6969 108.37C61.5169 110.07 61.2369 111.65 60.9269 113.01C60.6169 114.37 60.2668 115.5 59.9768 116.29C59.6968 117.08 59.4768 117.54 59.4768 117.54C59.4768 117.54 59.2568 117.09 58.9768 116.29C58.6868 115.5 58.3369 114.36 58.0269 113.01C57.7169 111.65 57.4368 110.07 57.2568 108.37C57.1668 107.52 57.0869 106.64 57.0469 105.75C56.9869 104.86 56.9868 103.95 56.9768 103.05C56.9868 102.14 56.9969 101.24 57.0569 100.35C57.0969 99.46 57.1768 98.58 57.2668 97.73C57.4468 96.03 57.7269 94.45 58.0369 93.09C58.3469 91.73 58.6968 90.6001 58.9868 89.8101C59.2668 89.0201 59.4768 88.5601 59.4768 88.5601Z" fill="#7544AA"/>
<path d="M59.4768 108.75C62.6193 108.75 65.1669 106.203 65.1669 103.06C65.1669 99.9176 62.6193 97.3701 59.4768 97.3701C56.3343 97.3701 53.7869 99.9176 53.7869 103.06C53.7869 106.203 56.3343 108.75 59.4768 108.75Z" fill="white" stroke="#7544AA" stroke-width="5" stroke-miterlimit="10"/>
<path d="M99.7869 112.13C99.7869 112.57 99.8568 112.99 99.9668 113.41C101.637 113.33 103.307 113.29 104.997 113.29C106.687 113.29 108.357 113.33 110.027 113.41C110.137 113 110.207 112.57 110.207 112.13C110.207 109.26 107.877 106.93 105.007 106.93C102.137 106.93 99.8069 109.26 99.8069 112.13H99.7869Z" fill="#C183ED" stroke="#7544AA" stroke-width="5" stroke-miterlimit="10"/>
<path d="M104.997 119.34C73.9567 119.34 48.2168 144.05 46.6768 174.84H163.307C161.767 144.06 136.037 119.34 104.987 119.34H104.997Z" fill="#C183ED" stroke="#7544AA" stroke-width="5" stroke-miterlimit="10"/>
<path d="M39.4868 185.78H168.057" stroke="#7544AA" stroke-width="5" stroke-miterlimit="10"/>
<path d="M197.517 131.76C194.947 131.76 192.847 133.85 192.847 136.43V192.76C192.847 195.33 194.937 197.43 197.517 197.43C200.097 197.43 202.187 195.34 202.187 192.76V136.43C202.187 133.86 200.097 131.76 197.517 131.76Z" fill="white" stroke="#7544AA" stroke-width="5" stroke-miterlimit="10"/>
<path d="M146.207 176.99C146.207 191.98 151.027 203.18 155.347 203.18C159.667 203.18 164.487 191.98 164.487 176.99C164.487 165.69 158.457 130.3 155.347 112.84C152.247 130.3 146.207 165.69 146.207 176.99Z" fill="white" stroke="#7544AA" stroke-width="5" stroke-miterlimit="10"/>
<path d="M155.847 122.85C157.497 122.85 158.847 121.5 158.847 119.85V61.1001C158.847 59.4501 157.497 58.1001 155.847 58.1001C154.197 58.1001 152.847 59.4501 152.847 61.1001V119.85C152.847 121.5 154.197 122.85 155.847 122.85Z" fill="#7544AA"/>
<path d="M175.897 91.1C175.897 99.93 183.987 107.45 194.717 108.6C195.637 108.7 196.317 109.33 196.317 110.09V133.85C196.717 133.81 197.127 133.78 197.547 133.78C197.967 133.78 198.367 133.81 198.777 133.85V110.09C198.777 109.34 199.457 108.7 200.377 108.6C211.107 107.46 219.197 99.93 219.197 91.1V55.76H175.907V91.1H175.897ZM187.867 64.72V90.48ZM197.537 64.72V90.48ZM207.207 64.72V90.48Z" fill="white"/>
<path d="M187.867 64.72V90.48M197.537 64.72V90.48M207.207 64.72V90.48M175.897 91.1C175.897 99.93 183.987 107.45 194.717 108.6C195.637 108.7 196.317 109.33 196.317 110.09V133.85C196.717 133.81 197.127 133.78 197.547 133.78C197.967 133.78 198.367 133.81 198.777 133.85V110.09C198.777 109.34 199.457 108.7 200.377 108.6C211.107 107.46 219.197 99.93 219.197 91.1V55.76H175.907V91.1H175.897Z" stroke="#7544AA" stroke-width="5" stroke-miterlimit="10"/>
<path d="M156.887 130.28C156.337 129.34 154.897 129.98 155.227 131.02C160.917 148.99 166.437 168.56 166.437 176.99C166.437 185.42 163.927 193.55 159.107 199.83C158.517 200.6 159.347 201.65 160.227 201.23C171.007 196.09 178.177 187.15 178.177 176.99C178.177 168.71 167.557 148.5 156.897 130.28H156.887Z" fill="white" stroke="#7544AA" stroke-width="5" stroke-miterlimit="10"/>
<path d="M154.407 130.28C154.957 129.34 156.397 129.98 156.067 131.02C150.377 148.99 144.857 168.56 144.857 176.99C144.857 185.42 147.367 193.55 152.187 199.83C152.777 200.6 151.947 201.65 151.067 201.23C140.287 196.09 133.117 187.15 133.117 176.99C133.117 168.71 143.737 148.5 154.397 130.28H154.407Z" fill="white" stroke="#7544AA" stroke-width="5" stroke-miterlimit="10"/>
<path d="M174.527 212.63C174.527 212.63 174.977 212.41 175.777 212.14C176.567 211.85 177.707 211.5 179.057 211.19C180.417 210.88 181.997 210.6 183.697 210.42C184.547 210.33 185.427 210.25 186.317 210.21C187.207 210.15 188.117 210.15 189.017 210.13C189.927 210.14 190.827 210.15 191.717 210.2C192.607 210.24 193.487 210.32 194.337 210.41C196.037 210.59 197.617 210.87 198.977 211.18C200.337 211.49 201.467 211.84 202.257 212.13C203.047 212.41 203.507 212.63 203.507 212.63C203.507 212.63 203.057 212.85 202.257 213.13C201.467 213.42 200.327 213.77 198.977 214.08C197.617 214.39 196.037 214.67 194.337 214.85C193.487 214.94 192.607 215.02 191.717 215.06C190.827 215.12 189.917 215.12 189.017 215.13C188.107 215.12 187.207 215.11 186.317 215.05C185.427 215.01 184.547 214.93 183.697 214.84C181.997 214.66 180.417 214.38 179.057 214.07C177.697 213.76 176.567 213.41 175.777 213.12C174.987 212.84 174.527 212.63 174.527 212.63Z" fill="#7544AA"/>
<path d="M189.027 198.14C189.027 198.14 189.247 198.59 189.517 199.39C189.807 200.18 190.157 201.32 190.467 202.67C190.777 204.03 191.057 205.61 191.237 207.31C191.327 208.16 191.407 209.04 191.447 209.93C191.507 210.82 191.507 211.73 191.527 212.63C191.517 213.54 191.507 214.44 191.457 215.33C191.417 216.22 191.337 217.1 191.247 217.95C191.067 219.65 190.787 221.23 190.477 222.59C190.167 223.95 189.817 225.08 189.527 225.87C189.247 226.66 189.027 227.12 189.027 227.12C189.027 227.12 188.807 226.67 188.527 225.87C188.237 225.08 187.887 223.94 187.577 222.59C187.267 221.23 186.987 219.65 186.807 217.95C186.717 217.1 186.637 216.22 186.597 215.33C186.537 214.44 186.537 213.53 186.527 212.63C186.537 211.72 186.547 210.82 186.607 209.93C186.647 209.04 186.727 208.16 186.817 207.31C186.997 205.61 187.277 204.03 187.587 202.67C187.897 201.31 188.247 200.18 188.537 199.39C188.817 198.6 189.027 198.14 189.027 198.14Z" fill="#7544AA"/>
<path d="M189.027 218.32C192.169 218.32 194.717 215.772 194.717 212.63C194.717 209.487 192.169 206.94 189.027 206.94C185.884 206.94 183.337 209.487 183.337 212.63C183.337 215.772 185.884 218.32 189.027 218.32Z" fill="white" stroke="#7544AA" stroke-width="5" stroke-miterlimit="10"/>
</svg>
