<svg width="60" height="60" viewBox="0 0 60 60" fill="none" xmlns="http://www.w3.org/2000/svg">
<mask id="mask0_2004_1312" style="mask-type:alpha" maskUnits="userSpaceOnUse" x="0" y="0" width="60" height="60">
<rect width="60" height="60" fill="#D9D9D9"/>
</mask>
<g mask="url(#mask0_2004_1312)">
<path d="M11.4192 43.0697C11.4192 44.1724 12.3016 45.0675 13.3886 45.0675H46.6113C47.6983 45.0675 48.5808 44.1724 48.5808 43.0697V21.9703H11.4192V43.0697Z" fill="white"/>
<path d="M46.6114 46H13.3886C11.7961 46 10.5 44.6852 10.5 43.0697V21.9703C10.5 21.4551 10.9113 21.0378 11.4192 21.0378H48.5808C49.0886 21.0378 49.5 21.4551 49.5 21.9703V43.0697C49.5 44.6852 48.2039 46 46.6114 46ZM12.3384 22.9027V43.0697C12.3384 43.6572 12.8095 44.1351 13.3886 44.1351H46.6114C47.1905 44.1351 47.6616 43.6572 47.6616 43.0697V22.9027H12.3384Z" fill="#515151"/>
<path d="M46.6113 14.9325H13.3886C12.2993 14.9325 11.4192 15.8276 11.4192 16.9303V21.9703H48.5808V16.9303C48.5808 15.8276 47.6983 14.9325 46.6113 14.9325Z" fill="#00A363"/>
<path d="M48.5808 22.9027H11.4192C10.9113 22.9027 10.5 22.4855 10.5 21.9703V16.9303C10.5 15.3148 11.7961 14 13.3886 14H46.6114C48.2039 14 49.5 15.3148 49.5 16.9303V21.9679C49.5 22.4831 49.0887 22.9004 48.5808 22.9004V22.9027ZM12.3384 21.0378H47.6616V16.9303C47.6616 16.3428 47.1905 15.8649 46.6114 15.8649H13.3886C12.8095 15.8649 12.3384 16.3428 12.3384 16.9303V21.0378Z" fill="#00A363"/>
<path d="M23.7138 26.1967H15.7097V33.5189H23.7138V26.1967Z" fill="#00A363"/>
<path d="M40.7721 40.96C40.4986 40.96 40.2389 40.8365 40.0643 40.622L38.2925 38.4493C37.9685 38.053 38.0236 37.4656 38.4143 37.1369C38.805 36.8082 39.3841 36.8641 39.7081 37.2604L40.694 38.4703L42.884 35.1601C43.1666 34.7335 43.7389 34.6192 44.1594 34.906C44.5822 35.1927 44.6925 35.7732 44.4099 36.1998L41.5327 40.5474C41.3719 40.7922 41.1053 40.9437 40.8158 40.96C40.7997 40.96 40.7859 40.96 40.7698 40.96H40.7721Z" fill="#515151"/>
<path d="M18.6464 38.384C18.6464 39.0787 18.0903 39.6429 17.4055 39.6429C16.7207 39.6429 16.1646 39.0787 16.1646 38.384C16.1646 37.6894 16.7207 37.1252 17.4055 37.1252C18.0903 37.1252 18.6464 37.6894 18.6464 38.384Z" fill="#515151"/>
<path d="M23.925 38.384C23.925 39.0787 23.3689 39.6429 22.6841 39.6429C21.9992 39.6429 21.4431 39.0787 21.4431 38.384C21.4431 37.6894 21.9992 37.1252 22.6841 37.1252C23.3689 37.1252 23.925 37.6894 23.925 38.384Z" fill="#515151"/>
<path d="M29.206 38.384C29.206 39.0787 28.6499 39.6429 27.9651 39.6429C27.2802 39.6429 26.7241 39.0787 26.7241 38.384C26.7241 37.6894 27.2802 37.1252 27.9651 37.1252C28.6499 37.1252 29.206 37.6894 29.206 38.384Z" fill="#515151"/>
</g>
</svg>
