<svg width="21" height="21" viewBox="0 0 21 21" fill="none" xmlns="http://www.w3.org/2000/svg">
<g clip-path="url(#clip0_1483_24798)">
<path d="M18.1445 2.70508H16.1445V1.10508C16.1445 0.605078 15.7445 0.205078 15.2445 0.205078C14.7445 0.205078 14.3445 0.605078 14.3445 1.10508V2.70508H5.94453V1.10508C5.94453 0.605078 5.54453 0.205078 5.04453 0.205078C4.54453 0.205078 4.14453 0.605078 4.14453 1.10508V2.70508H2.14453C1.04453 2.70508 0.144531 3.60508 0.144531 4.70508V6.60508H20.1445V4.70508C20.1445 3.60508 19.2445 2.70508 18.1445 2.70508Z" fill="#001133"/>
<path d="M0.144531 18.2051C0.144531 19.3051 1.04453 20.2051 2.14453 20.2051H18.1445C19.2445 20.2051 20.1445 19.3051 20.1445 18.2051V8.20508H0.144531V18.2051ZM6.04453 12.8151C6.39453 12.4651 6.96453 12.4651 7.31453 12.8151L9.52453 15.0251L13.0745 11.4751C13.4245 11.1251 13.9945 11.1251 14.3445 11.4751C14.6945 11.8251 14.6945 12.3951 14.3445 12.7451L10.1545 16.9351C9.97453 17.1151 9.74453 17.1951 9.51453 17.1951C9.28453 17.1951 9.05453 17.1051 8.87453 16.9351L6.02453 14.0851C5.67453 13.7351 5.67453 13.1651 6.02453 12.8151H6.04453Z" fill="#001133"/>
</g>
<defs>
<clipPath id="clip0_1483_24798">
<rect width="20" height="20" fill="white" transform="translate(0.144531 0.205078)"/>
</clipPath>
</defs>
</svg>
