<svg width="50" height="13" viewBox="0 0 50 13" fill="none" xmlns="http://www.w3.org/2000/svg">
<path d="M40.097 11.8705C40.979 11.8705 41.694 11.1418 41.694 10.2429C41.694 9.34395 40.979 8.61523 40.097 8.61523C39.215 8.61523 38.5 9.34395 38.5 10.2429C38.5 11.1418 39.215 11.8705 40.097 11.8705Z" fill="white"/>
<path d="M40.3906 1.33625C41.5227 1.21732 42.6666 1.35584 43.7398 1.74175C44.813 2.12766 45.7887 2.75132 46.5969 3.56793C47.4051 4.38454 48.0256 5.37369 48.4135 6.46411C48.8013 7.55453 48.9469 8.71914 48.84 9.87389" stroke="white" stroke-width="2" stroke-linecap="round" stroke-linejoin="round"/>
<path d="M39.4297 5.34567C40.1861 5.16137 40.9764 5.17803 41.7247 5.39407C42.473 5.61012 43.1545 6.01833 43.7037 6.57958C44.253 7.14084 44.6515 7.83632 44.8615 8.59957C45.0715 9.36282 45.0858 10.1682 44.903 10.9387" stroke="white" stroke-width="2" stroke-linecap="round" stroke-linejoin="round"/>
<path d="M0 12.1523V0.152344H2.36081V9.90234H7V12.1523H0Z" fill="white"/>
<path d="M9.08984 12.1523V0.152344H11.5898V12.1523H9.08984Z" fill="white"/>
<path d="M17.1433 12.1523L12.6758 0.152344H15.4662L18.6758 9.36237L21.8855 0.152344H24.6758L20.2228 12.1523H17.1433Z" fill="white"/>
<path d="M25.7695 12.1373V0.152344H33.7695V2.39953H28.1157V4.91637H33.5999V7.17856H28.1157V9.90516H33.7695V12.1523L25.7695 12.1373Z" fill="white"/>
</svg>
