<?xml version="1.0" encoding="utf-8"?>
<!-- Generator: Adobe Illustrator 27.5.0, SVG Export Plug-In . SVG Version: 6.00 Build 0)  -->
<svg version="1.1" id="Layer_1" xmlns="http://www.w3.org/2000/svg" xmlns:xlink="http://www.w3.org/1999/xlink" x="0px" y="0px"
	 viewBox="0 0 126.5 126.5" style="enable-background:new 0 0 126.5 126.5;" xml:space="preserve">
<style type="text/css">
	.st0{clip-path:url(#SVGID_00000175296453234797655260000012475260002668488112_);}
	.st1{fill:#00ADEE;}
</style>
<g>
	<defs>
		<rect id="SVGID_1_" x="15.2" y="15.2" width="96" height="96"/>
	</defs>
	<clipPath id="SVGID_00000051363797874790049810000016470752935540645805_">
		<use xlink:href="#SVGID_1_"  style="overflow:visible;"/>
	</clipPath>
	<g style="clip-path:url(#SVGID_00000051363797874790049810000016470752935540645805_);">
		<path class="st1" d="M75.4,47.8v1.6H60v-1.6l-7.4,0v1.6H40.9V56c0,0,0.8,0,1.1,0c-1.2,1.5-1.7,3.2-1.7,5.5c0,1.8,0.8,3.9,2.1,5.4
			c1.6,2,4.3,3.3,7.1,3.3h14.3v-1.4h0.8v1.4l21.2,0l0-6.9h-3v-7.2h3.1l0-6.8h-3v-1.6L75.4,47.8L75.4,47.8z M75.8,49.8v-1.6
			c0.4,0,6.4,0,6.8,0v1.6h3c0,0.3,0,5.7,0,6h-3.1v8h3c0,0.3,0,5.8,0,6.1c-0.4,0-20.1,0-20.4,0v-1.4h-1.6v1.4h-14
			c-2.7,0-5.4-1.2-6.8-3.1c-1.3-1.5-2.1-3.4-2.1-5.2c0-2.3,0.6-4.1,1.9-5.6l0.3-0.3c0,0-1.3,0-1.5,0v-5.9H53v-1.6c0.3,0,6.3,0,6.6,0
			v1.6H75.8z"/>
		<path class="st1" d="M71.3,61.2c-1.1,0-2.1,0.7-2.1,1.9c0,1.2,1,1.9,2.1,1.9c1.1,0,2.1-0.7,2.1-1.9S72.3,61.2,71.3,61.2z
			 M54.2,57.8c0-1-0.7-1.8-1.6-1.8S51,56.7,51,57.8s0.7,1.8,1.6,1.8S54.2,58.8,54.2,57.8z M71,56.4c0-1.2-0.8-2-1.7-2
			c-1,0-1.7,0.8-1.7,2c0,1.2,0.8,2,1.7,2C70.2,58.4,71,57.6,71,56.4z M84,54.7v-3.9h-3v-1.5h-4.4v1.5H58.1v-1.5h-4.4v1.5H42.2v3.9
			h3.5c-2.4,1.1-4,3.4-4,6.7c0,4.5,4.2,7.1,7.7,7.1h12.8v-1.4h3.6v1.4H84v-3.9h-3v-9.9L84,54.7L84,54.7z M50.9,53.3h3.5v1h-3.5V53.3
			z M49.4,57.8c0-0.8,0.5-1.5,1.2-2h-1.2v-1h6.6v1h-1.2c0.7,0.5,1.2,1.2,1.2,2c0,1.4-1.4,2.5-3.3,2.5S49.4,59.1,49.4,57.8L49.4,57.8
			z M58.9,65.5l-6.1,0c-1.3,0-2-0.7-2-1.9v-2.4h1.9v3.3h6.2V65.5z M60.2,57.3h-1.5v4.4H57v-8.4h1.8v3h1.5V57.3z M65.7,56.4
			c0-1.6,1.5-2.9,3.5-2.9s3.6,1.3,3.6,2.9c0,1.6-1.5,2.9-3.6,2.9C67.2,59.3,65.7,58,65.7,56.4z M76.6,55.9h-1.5v1.5h1.5v1h-1.5V63
			c0,1.6-1.7,2.9-3.9,2.9c-2.1,0-3.8-1.3-3.8-2.9c0-1.6,1.7-2.9,3.8-2.9c0.8,0,1.5,0.2,2.1,0.5v-7.3h1.8v1.5h1.5V55.9z"/>
		<path class="st1" d="M57.6,82.8h-4.6v-1l1.7-1.7c0.5-0.5,0.8-0.9,1-1.1c0.2-0.2,0.3-0.4,0.3-0.5C56,78.4,56,78.2,56,78
			c0-0.3-0.1-0.5-0.2-0.6c-0.1-0.1-0.3-0.2-0.6-0.2s-0.5,0.1-0.8,0.2c-0.2,0.1-0.5,0.3-0.8,0.5L52.9,77c0.3-0.3,0.6-0.5,0.8-0.6
			c0.2-0.1,0.5-0.2,0.7-0.3c0.3-0.1,0.5-0.1,0.9-0.1c0.4,0,0.8,0.1,1.1,0.2c0.3,0.2,0.6,0.4,0.7,0.6c0.2,0.3,0.3,0.6,0.3,0.9
			c0,0.3-0.1,0.6-0.2,0.9c-0.1,0.3-0.3,0.5-0.5,0.8c-0.2,0.3-0.6,0.7-1.2,1.2l-0.9,0.8v0.1h2.9L57.6,82.8L57.6,82.8z"/>
		<path class="st1" d="M62.9,79.5c0,1.2-0.2,2-0.6,2.6c-0.4,0.6-1,0.8-1.8,0.8c-0.8,0-1.3-0.3-1.7-0.9c-0.4-0.6-0.6-1.4-0.6-2.5
			c0-1.1,0.2-2,0.6-2.6c0.4-0.6,1-0.8,1.7-0.8c0.8,0,1.3,0.3,1.7,0.9C62.7,77.5,62.9,78.4,62.9,79.5L62.9,79.5z M59.6,79.5
			c0,0.8,0.1,1.4,0.2,1.8c0.1,0.4,0.4,0.5,0.7,0.5c0.3,0,0.6-0.2,0.7-0.5c0.1-0.4,0.2-0.9,0.2-1.7s-0.1-1.4-0.2-1.8
			c-0.1-0.4-0.4-0.5-0.7-0.5c-0.3,0-0.6,0.2-0.7,0.5C59.7,78.1,59.6,78.7,59.6,79.5z"/>
		<path class="st1" d="M68.2,79.5c0,1.2-0.2,2-0.6,2.6c-0.4,0.6-1,0.8-1.8,0.8s-1.3-0.3-1.7-0.9c-0.4-0.6-0.6-1.4-0.6-2.5
			c0-1.1,0.2-2,0.6-2.6c0.4-0.6,1-0.8,1.7-0.8c0.8,0,1.3,0.3,1.7,0.9C68,77.5,68.2,78.4,68.2,79.5L68.2,79.5z M64.9,79.5
			c0,0.8,0.1,1.4,0.2,1.8c0.1,0.4,0.4,0.5,0.7,0.5c0.3,0,0.6-0.2,0.7-0.5c0.1-0.4,0.2-0.9,0.2-1.7s-0.1-1.4-0.2-1.8
			c-0.1-0.4-0.4-0.5-0.7-0.5c-0.3,0-0.6,0.2-0.7,0.5C65,78.1,64.9,78.7,64.9,79.5L64.9,79.5z"/>
		<path class="st1" d="M73.5,82.8h-4.6v-1l1.7-1.7c0.5-0.5,0.8-0.9,1-1.1c0.2-0.2,0.3-0.4,0.3-0.5c0.1-0.2,0.1-0.3,0.1-0.5
			c0-0.3-0.1-0.5-0.2-0.6c-0.1-0.1-0.3-0.2-0.6-0.2c-0.3,0-0.5,0.1-0.8,0.2c-0.2,0.1-0.5,0.3-0.8,0.5L68.9,77
			c0.3-0.3,0.6-0.5,0.8-0.6c0.2-0.1,0.5-0.2,0.7-0.3c0.3-0.1,0.5-0.1,0.9-0.1c0.4,0,0.8,0.1,1.1,0.2c0.3,0.2,0.6,0.4,0.7,0.6
			c0.2,0.3,0.3,0.6,0.3,0.9c0,0.3-0.1,0.6-0.2,0.9c-0.1,0.3-0.3,0.5-0.5,0.8c-0.2,0.3-0.6,0.7-1.2,1.2l-0.9,0.8v0.1h2.9V82.8
			L73.5,82.8z"/>
		<path class="st1" d="M63.2,15.2c-26.5,0-48,21.5-48,48s21.5,48,48,48s48-21.5,48-48S89.7,15.2,63.2,15.2z M63.2,110.5
			C37.2,110.5,16,89.3,16,63.2S37.2,16,63.2,16s47.3,21.2,47.3,47.3S89.3,110.5,63.2,110.5L63.2,110.5z"/>
		<path class="st1" d="M60.6,25c0.2,0,0.4-0.1,0.5-0.2c0.1-0.1,0.2-0.3,0.1-0.5c0-0.4-0.3-0.5-0.7-0.5l-0.4,0l0.1,1.2L60.6,25
			L60.6,25z M63.2,18C38.3,18,18,38.3,18,63.2c0,25,20.2,45.2,45.2,45.2c25,0,45.2-20.2,45.2-45.2C108.4,38.3,88.2,18,63.2,18
			L63.2,18z M104.6,61.6l-2.5,1l2.5,0.8l0.1,1.6l-4.1-1.6l-2.6,0.1l0-1.5l2.6-0.1l4.1-1.9L104.6,61.6L104.6,61.6z M101.4,70
			c0,1.2-0.8,2.2-0.8,2.2s-0.8-1-0.8-2.2c0-1.2,0.8-2.2,0.8-2.2S101.4,68.7,101.4,70L101.4,70z M99.2,76.4c0,0-1.3-1.3-1.7-3.1
			s0.1-3.1,0.1-3.1s1.3,1,1.8,2.9C99.7,74.9,99.2,76.5,99.2,76.4L99.2,76.4z M104.4,59l-1.5,0.2l-0.2-1.3l-5.2,0.9l-0.2-1.4l5.2-0.9
			l-0.2-1.3l1.5-0.2L104.4,59L104.4,59z M103.4,53.6l-6.5,1.8L96.5,54l6.5-1.7L103.4,53.6z M96.5,81.9c0,0-1.1-1.5-1.2-3.4
			c-0.1-1.9,0.6-3.1,0.6-3.1s1.1,1.2,1.2,3.1C97.3,80.5,96.5,81.9,96.5,81.9L96.5,81.9z M101.1,48c0.5,0.2,0.8,0.6,1,1.2
			c0.2,0.5,0.2,1.1,0.2,1.8l-1.5,0.1c0.1-0.6,0.1-1-0.1-1.4c-0.1-0.2-0.2-0.3-0.3-0.3c-0.1-0.1-0.2-0.1-0.3,0
			c-0.1,0-0.2,0.1-0.3,0.3c-0.1,0.1-0.1,0.5-0.2,1c-0.1,0.5-0.2,0.9-0.4,1.2c-0.2,0.3-0.5,0.5-1,0.7c-0.4,0.2-0.8,0.2-1.1,0.2
			c-0.4,0-0.7-0.2-1-0.4c-0.3-0.2-0.5-0.6-0.6-1c-0.1-0.3-0.2-0.6-0.2-0.9c0-0.2,0-0.5,0-0.8l1.5-0.6c-0.1,0.3-0.1,0.6-0.1,1
			c0,0.3,0.1,0.6,0.2,0.8c0.1,0.2,0.2,0.3,0.3,0.4c0.1,0.1,0.3,0.1,0.4,0c0.1,0,0.2-0.1,0.2-0.1c0.1-0.1,0.1-0.1,0.1-0.3
			c0-0.1,0.1-0.4,0.2-0.8c0.1-0.4,0.2-0.7,0.3-0.9c0.1-0.2,0.3-0.4,0.5-0.6c0.2-0.2,0.5-0.3,0.8-0.4C100.1,47.8,100.6,47.8,101.1,48
			L101.1,48z M99.5,43.8c0.7,1.3,0.5,2.2-0.7,2.9c-0.7,0.4-1.4,0.4-2,0.1L95,49.5l-0.8-1.4l1.6-2.2l-0.2-0.3l-2.1,1.2l-0.7-1.3
			l5.9-3.2L99.5,43.8L99.5,43.8z M95.9,38.2l1.9,2.6l-1.2,0.9l-1-1.4l-0.9,0.6l0.9,1.3L94.5,43l-0.9-1.3l-1,0.7l1,1.4l-1.2,0.9
			l-1.9-2.6L95.9,38.2L95.9,38.2z M92.5,34.5l-2,2.9c-0.4,0.6-0.8,1.1-1,1.3c0.2-0.1,0.4-0.3,0.7-0.5c0.3-0.2,0.5-0.3,0.6-0.4l3-1.8
			l1.1,1.2l-6.1,3.4l-1.2-1.2l3.7-5.9L92.5,34.5L92.5,34.5z M90.5,32.5l-4.3,5.1L85,36.7l4.3-5.1L90.5,32.5z M85.1,28.6l-0.9,5l0,0
			c0.3-0.6,0.6-1.1,0.8-1.4l1.7-2.6l1.1,0.7L84.2,36l-1.6-1l0.9-5l0,0c-0.4,0.6-0.7,1.1-0.9,1.5L81,33.9l-1.1-0.7l3.7-5.6L85.1,28.6
			L85.1,28.6z M75.7,28.5l1.6-3.8l1.3,0.6l-1.5,3.6c-0.2,0.4-0.3,0.8-0.2,1c0,0.3,0.2,0.4,0.5,0.5c0.3,0.1,0.5,0.1,0.7,0
			c0.2-0.1,0.4-0.4,0.6-0.9l1.5-3.6l1.3,0.6L80,30.3c-0.3,0.8-0.8,1.4-1.4,1.6c-0.6,0.3-1.2,0.3-1.9,0c-0.7-0.3-1.1-0.7-1.3-1.3
			C75.3,30,75.4,29.3,75.7,28.5L75.7,28.5z M69.3,22.7l1.7,0.3c1.4,0.3,2,1.1,1.8,2.4c-0.2,0.8-0.6,1.3-1.2,1.6l1,3.2l-1.6-0.3
			l-0.6-2.6l-0.4-0.1l-0.5,2.4L68,29.3L69.3,22.7L69.3,22.7z M64.4,22.3l3.2,0.2L67.5,24l-1.7-0.1l-0.1,1.1l1.6,0.1l-0.1,1.5
			l-1.6-0.1l-0.1,1.3l1.7,0.1l-0.1,1.5L64,29.1L64.4,22.3z M63.2,32.4c17,0,30.8,13.8,30.8,30.8C94,80.2,80.2,94,63.2,94
			c-17,0-30.8-13.8-30.8-30.8C32.5,46.2,46.3,32.4,63.2,32.4L63.2,32.4z M86.6,92.4c-0.8,1.8-2.1,2.8-2.1,2.8s-0.3-1.8,0.4-3.6
			c0.7-1.8,1.9-2.5,1.9-2.5S87.4,90.6,86.6,92.4L86.6,92.4z M81.9,95.4c-1.1,1.6-2.7,2.2-2.7,2.2s0.1-1.9,1.2-3.4
			c1.1-1.6,2.5-2.1,2.5-2.1S83,93.8,81.9,95.4L81.9,95.4z M47.5,97.6c0,0-1.5-0.6-2.7-2.2c-1.1-1.6-1-3.3-1-3.3s1.3,0.5,2.5,2.1
			C47.4,95.7,47.5,97.6,47.5,97.6L47.5,97.6z M42.2,95.1c0,0-1.4-1-2.1-2.8c-0.7-1.8-0.2-3.4-0.2-3.4s1.2,0.8,1.9,2.5
			C42.6,93.3,42.2,95.1,42.2,95.1L42.2,95.1z M60.4,22.5c0.7-0.1,1.3,0.1,1.7,0.3c0.4,0.2,0.6,0.7,0.6,1.2c0,0.4,0,0.7-0.2,1
			c-0.1,0.3-0.3,0.5-0.6,0.6v0c0.3,0.1,0.6,0.3,0.8,0.5c0.2,0.2,0.3,0.6,0.3,1c0,0.6-0.1,1.1-0.5,1.5c-0.3,0.4-0.8,0.6-1.5,0.6
			L59,29.3l-0.5-6.7L60.4,22.5L60.4,22.5z M53.7,23.5l1.4,2.2l0.4-2.6l1.5-0.3l-0.9,4.4l0.5,2.6L55.3,30l-0.5-2.5l-2.6-3.7
			L53.7,23.5L53.7,23.5z M48.4,25.5c0.3-0.4,0.7-0.7,1.2-0.9c0.5-0.2,1.1-0.2,1.7-0.1l0.1,1.5c-0.2,0-0.4-0.1-0.7-0.1
			c-0.2,0-0.4,0-0.6,0.1c-0.3,0.1-0.5,0.4-0.6,0.8c-0.1,0.4,0,0.9,0.2,1.5c0.4,1.2,1,1.7,1.8,1.4c0.2-0.1,0.4-0.2,0.6-0.4
			c0.2-0.2,0.4-0.3,0.5-0.5l0.5,1.4c-0.3,0.4-0.8,0.7-1.3,0.9c-0.8,0.3-1.4,0.2-2.1-0.2c-0.6-0.4-1.1-1.1-1.5-2.2
			c-0.2-0.7-0.3-1.3-0.3-1.8C47.9,26.4,48.1,25.9,48.4,25.5L48.4,25.5z M40.5,30.1c0.1-0.8,0.5-1.4,1.3-1.9c0.3-0.2,0.6-0.3,0.9-0.4
			c0.3-0.1,0.6-0.1,0.8-0.2l0.4,1.5c-0.5,0-0.9,0.1-1.3,0.4c-0.4,0.2-0.5,0.5-0.6,1c0,0.4,0.1,0.9,0.5,1.4c0.3,0.5,0.7,0.9,1,1.1
			c0.4,0.2,0.7,0.2,1-0.1c0.2-0.1,0.3-0.2,0.5-0.4l-0.6-0.9l-0.8,0.5l-0.7-1.2l2-1.2l1.9,3.1c-0.4,0.6-0.9,1-1.6,1.4
			c-0.7,0.4-1.4,0.5-2.1,0.2c-0.7-0.3-1.3-0.9-1.9-1.8C40.6,31.7,40.4,30.9,40.5,30.1L40.5,30.1z M35.4,33.1l4.6,2.2l0,0
			c-0.5-0.5-0.8-0.9-1.1-1.2l-2-2.3l1-0.9l4.4,5l-1.4,1.3L36.2,35l0,0c0.5,0.5,0.9,0.9,1.2,1.2l2,2.3l-1,0.9l-4.4-5L35.4,33.1
			L35.4,33.1z M31.6,37l6.4,2.8L37,41l-1.2-0.6l-1.1,1.4l0.8,1l-1,1.3l-4.2-5.6L31.6,37L31.6,37z M27.1,43.5l2.6,0.5L28,41.9
			l0.8-1.4l2.6,3.6l2.3,1.3L33,46.8l-2.2-1.3l-4.5-0.6L27.1,43.5L27.1,43.5z M24.4,49.3l5.1-0.1l0,0c-0.6-0.2-1.2-0.4-1.5-0.5
			l-2.8-1.1l0.5-1.2l6.3,2.4l-0.7,1.8L26,50.6l0,0c0.7,0.2,1.2,0.4,1.6,0.6l2.8,1.1L30,53.5l-6.3-2.4L24.4,49.3L24.4,49.3z
			 M31.4,78.5c-0.1,1.9-1.2,3.4-1.2,3.4s-0.8-1.4-0.7-3.3c0.1-1.9,1.2-3.1,1.2-3.1S31.5,76.6,31.4,78.5L31.4,78.5z M22.9,54.4l7-0.4
			l-0.3,1.6h-1.3l-0.4,1.7l1.2,0.5l-0.3,1.6l-6.2-3.1L22.9,54.4z M29.3,73.3c-0.4,1.8-1.7,3.1-1.7,3.1S27,74.9,27.4,73
			c0.4-1.9,1.8-2.9,1.8-2.9S29.7,71.5,29.3,73.3L29.3,73.3z M21.8,62.7l2.5,0.1l0.1-1.7L21.9,61l0.1-1.5l6.7,0.3l-0.1,1.5l-2.7-0.1
			l-0.1,1.7l2.7,0.1l-0.1,1.5l-6.7-0.3L21.8,62.7L21.8,62.7z M26.9,69.9c0,1.2-0.8,2.2-0.8,2.2s-0.8-1-0.8-2.2
			c0-1.2,0.8-2.2,0.8-2.2S26.9,68.7,26.9,69.9z M21.7,70.8c0,0,2,0.4,3.5,2c1.5,1.6,1.8,3.8,1.8,3.8c0,0-2.1-0.6-3.6-2.2
			C21.9,72.8,21.7,70.8,21.7,70.8z M23.5,77.4c0,0,2.1,0,3.8,1.4c1.8,1.4,2.4,3.5,2.4,3.5s-2.2-0.2-3.9-1.6
			C24.1,79.3,23.5,77.5,23.5,77.4z M33.9,88.9c-0.2,1.2-0.9,2.5-1.6,2.4c-0.7-0.1-1.1-1.6-0.9-2.8c0.1-0.6,0.3-1.1,0.6-1.4
			c-0.4,0.2-1,0.2-1.5,0.1c-1.2-0.2-2.5-0.9-2.4-1.6c0.1-0.7,1.6-1.1,2.8-0.9c0.6,0.1,1.1,0.3,1.4,0.6c-0.2-0.4-0.2-0.9-0.1-1.5
			c0.2-1.1,0.9-2.4,1.6-2.4c0,0,0.1,0,0.1,0c0.7,0.1,1.1,1.6,0.9,2.8c-0.1,0.6-0.3,1.1-0.6,1.4c0.4-0.2,1-0.2,1.5-0.1
			c1.2,0.2,2.5,0.9,2.4,1.6c-0.1,0.7-1.6,1.1-2.8,0.9c-0.6-0.1-1.1-0.3-1.4-0.6C33.9,87.8,34,88.3,33.9,88.9L33.9,88.9z M37.7,95.8
			c-2.1-0.5-3.3-1.8-3.3-1.8s1.1-0.5,2.5-0.5c0.4,0,0.8,0,1.3,0.1c2.1,0.5,3.5,2,3.5,2S39.8,96.3,37.7,95.8L37.7,95.8z M43.5,99.4
			c-2,0-3.5-1-3.5-1s1.4-1.1,3.4-1.1h0c2,0,3.6,1.1,3.6,1.1S45.5,99.4,43.5,99.4L43.5,99.4z M54.5,100.1c-0.5,0.2-1,0.4-1.5,0.3
			c0.4,0.2,0.7,0.6,0.9,1.1c0.5,1.1,0.6,2.6,0,2.9c-0.6,0.3-1.7-0.7-2.3-1.7c-0.2-0.5-0.4-1-0.3-1.5c-0.2,0.4-0.6,0.7-1.2,0.9
			c-1.1,0.5-2.5,0.6-2.9,0c-0.3-0.6,0.7-1.7,1.7-2.3c0.5-0.2,1-0.4,1.5-0.3c-0.4-0.3-0.7-0.7-0.9-1.2c-0.5-1.1-0.6-2.6,0-2.9
			c0.1,0,0.2-0.1,0.3-0.1c0.6,0,1.5,0.9,2,1.8c0.2,0.5,0.4,1,0.3,1.4c0.2-0.4,0.6-0.7,1.2-0.9c1.1-0.5,2.6-0.6,2.9,0
			C56.5,98.5,55.5,99.6,54.5,100.1L54.5,100.1z M63.2,103.7c-0.9,0-1.6-0.7-1.6-1.6c0-0.9,0.7-1.6,1.6-1.6c0.9,0,1.6,0.7,1.6,1.6
			C64.8,103,64.1,103.7,63.2,103.7z M79.4,102.2c-0.3,0.6-1.8,0.5-2.9,0c-0.5-0.2-0.9-0.6-1.2-0.9c0,0.4-0.1,0.9-0.3,1.5
			c-0.5,1.1-1.6,2.1-2.3,1.7c-0.6-0.3-0.5-1.8,0-2.9c0.2-0.5,0.6-0.9,0.9-1.1c-0.4,0-0.9-0.1-1.5-0.3c-1.1-0.5-2.1-1.6-1.7-2.3
			c0.3-0.6,1.8-0.5,2.9,0c0.5,0.2,0.9,0.6,1.2,0.9c0-0.4,0.1-0.9,0.3-1.4c0.5-0.9,1.4-1.8,2-1.8c0.1,0,0.2,0,0.3,0.1
			c0.6,0.3,0.5,1.8,0,2.9c-0.2,0.5-0.6,0.9-0.9,1.2c0.4,0,0.9,0.1,1.5,0.3C78.7,100.5,79.7,101.6,79.4,102.2z M83.2,99.4
			c-2,0-3.6-1.1-3.6-1.1s1.6-1.1,3.6-1.1h0c2,0,3.4,1.1,3.4,1.1S85.2,99.4,83.2,99.4L83.2,99.4z M89,95.8c-2.1,0.5-4-0.2-4-0.2
			s1.4-1.5,3.5-2c0.5-0.1,0.9-0.1,1.3-0.1c1.4,0,2.5,0.5,2.5,0.5S91.1,95.4,89,95.8z M96.4,87.3c-0.6,0.1-1.1,0-1.5-0.1
			c0.3,0.4,0.5,0.9,0.6,1.4c0.2,1.2-0.2,2.7-0.9,2.8c-0.7,0.1-1.5-1.2-1.6-2.4c-0.1-0.6,0-1.1,0.1-1.5c-0.4,0.3-0.8,0.5-1.4,0.6
			c-1.2,0.2-2.7-0.2-2.8-0.9c-0.1-0.7,1.2-1.5,2.4-1.6c0.6-0.1,1.1,0,1.5,0.1c-0.3-0.4-0.5-0.8-0.6-1.4c-0.2-1.2,0.2-2.7,0.9-2.8
			c0,0,0.1,0,0.1,0c0.7,0,1.4,1.3,1.6,2.4c0.1,0.6,0,1.1-0.1,1.5c0.4-0.3,0.8-0.5,1.4-0.6c1.2-0.2,2.7,0.2,2.8,0.9
			C98.9,86.3,97.6,87.1,96.4,87.3L96.4,87.3z M103.2,77.4c0,0-0.6,1.9-2.3,3.3c-1.8,1.4-3.9,1.6-3.9,1.6s0.7-2.1,2.4-3.5
			C101.2,77.4,103.2,77.4,103.2,77.4L103.2,77.4z M99.8,76.7c0,0,0.3-2.1,1.8-3.8c1.5-1.7,3.5-2,3.5-2s-0.2,1.9-1.7,3.6
			C101.9,76.1,99.8,76.7,99.8,76.7L99.8,76.7z M75.5,98.9c-0.6-0.3-1.4-0.1-1.7,0.6c-0.3,0.6,0,1.4,0.6,1.7c0.2,0.1,0.4,0.1,0.6,0.1
			c0.5,0,0.9-0.3,1.1-0.7C76.4,99.9,76.1,99.2,75.5,98.9L75.5,98.9z M24.6,55.6c-0.4,0-0.7,0-0.8,0c0.2,0.1,0.4,0.2,0.7,0.3
			c0.3,0.1,1,0.4,2,0.9l0.2-1.1h-1.1C25.3,55.6,25,55.6,24.6,55.6L24.6,55.6z M93.6,85c-0.7,0.1-1.2,0.8-1.1,1.5
			c0.1,0.6,0.7,1.1,1.3,1.1c0.1,0,0.1,0,0.2,0c0.7-0.1,1.2-0.8,1.1-1.5C95,85.4,94.3,85,93.6,85L93.6,85z M98.1,45.5
			c0.4-0.2,0.5-0.5,0.3-1l-0.1-0.3L96.8,45l0.1,0.2C97.2,45.6,97.6,45.7,98.1,45.5z M34.2,86.5c0.1-0.7-0.4-1.4-1.1-1.5
			c-0.7-0.1-1.4,0.4-1.5,1.1c-0.1,0.7,0.4,1.4,1.1,1.5c0.1,0,0.1,0,0.2,0C33.6,87.6,34.1,87.2,34.2,86.5L34.2,86.5z M51.2,98.9
			c-0.6,0.3-0.9,1.1-0.6,1.7c0.2,0.5,0.7,0.7,1.1,0.7c0.2,0,0.4,0,0.6-0.1c0.6-0.3,0.9-1.1,0.6-1.7C52.6,98.8,51.9,98.6,51.2,98.9z
			 M71.3,25.3c0.1-0.5-0.1-0.7-0.6-0.8l-0.3-0.1l-0.3,1.5l0.3,0.1C70.9,26,71.2,25.8,71.3,25.3L71.3,25.3z M60.2,26.4l0.1,1.4l0.5,0
			c0.5,0,0.7-0.3,0.6-0.8c0-0.2-0.1-0.4-0.2-0.5c-0.1-0.1-0.3-0.2-0.5-0.1L60.2,26.4L60.2,26.4z M32.6,38.8
			c-0.4-0.2-0.6-0.3-0.8-0.4c0.1,0.1,0.3,0.3,0.5,0.6c0.2,0.3,0.7,0.8,1.4,1.7l0.7-0.9l-1-0.5C33.3,39.1,33,39,32.6,38.8L32.6,38.8z
			"/>
	</g>
</g>
</svg>
