<svg width="25" height="24" viewBox="0 0 25 24" fill="none" xmlns="http://www.w3.org/2000/svg">
<g clip-path="url(#clip0_77_7690)">
<path fill-rule="evenodd" clip-rule="evenodd" d="M9.89533 18.1318C10.0173 17.7908 10.3403 17.5635 10.7023 17.5635H13.7701C14.1321 17.5635 14.4551 17.7908 14.5771 18.1318L15.7542 21.4206H17.379C18.0891 21.4206 18.6648 21.9961 18.6648 22.7063C18.6648 23.4164 18.0891 23.992 17.379 23.992H7.09333C6.38326 23.992 5.80762 23.4164 5.80762 22.7063C5.80762 21.9961 6.38326 21.4206 7.09333 21.4206H8.71827L9.89533 18.1318Z" fill="#FAAB3C"/>
<path d="M18.7824 0.283879L20.233 3.22051C20.258 3.29688 20.3007 3.36631 20.3574 3.42315C20.4144 3.48 20.4838 3.52269 20.5602 3.54778L23.8064 4.01657C23.8995 4.02984 23.9869 4.06905 24.0588 4.12971C24.1306 4.19038 24.1839 4.27006 24.2124 4.35962C24.241 4.44917 24.2439 4.54497 24.2206 4.63605C24.1973 4.72713 24.1488 4.80979 24.0805 4.87457L21.7632 7.19201C21.708 7.25049 21.6666 7.32057 21.6421 7.39709C21.6178 7.47362 21.6106 7.55467 21.6216 7.63428L22.1878 10.7832C22.2041 10.8754 22.1943 10.9703 22.1595 11.0572C22.1247 11.1441 22.0661 11.2195 21.9906 11.2748C21.915 11.33 21.8254 11.363 21.7321 11.3699C21.6387 11.3769 21.5453 11.3575 21.4625 11.3139L18.5612 9.79251C18.4908 9.7536 18.4116 9.73318 18.3312 9.73318C18.2508 9.73318 18.1716 9.7536 18.1013 9.79251L15.2 11.3139C15.1171 11.3575 15.0237 11.3769 14.9303 11.3699C14.8369 11.363 14.7473 11.33 14.6718 11.2748C14.5962 11.2195 14.5377 11.1441 14.5029 11.0572C14.468 10.9703 14.4582 10.8754 14.4747 10.7832L15.0319 7.55467C15.0429 7.47506 15.0358 7.39402 15.0113 7.31748C14.9868 7.24095 14.9455 7.17087 14.8904 7.11242L12.5729 4.79496C12.5145 4.73162 12.4735 4.65427 12.4537 4.57041C12.434 4.48654 12.4362 4.39901 12.4603 4.31628C12.4843 4.23355 12.5293 4.15841 12.5908 4.09815C12.6524 4.0379 12.7285 3.99456 12.8117 3.97234L16.058 3.50355C16.1379 3.48915 16.2132 3.45598 16.2778 3.40677C16.3424 3.35757 16.3944 3.29373 16.4295 3.22051L17.8801 0.283881C17.9209 0.198861 17.9849 0.127101 18.0648 0.0768751C18.1445 0.0266487 18.2369 0 18.3312 0C18.4254 0 18.5178 0.0266493 18.5977 0.0768758C18.6774 0.127102 18.7416 0.198861 18.7824 0.283879Z" fill="#FAAB3C"/>
<path fill-rule="evenodd" clip-rule="evenodd" d="M15.207 0.856934L14.8856 1.50758L12.5056 1.85129C12.4226 1.86327 12.3403 1.88014 12.2592 1.90177C11.8195 2.01915 11.4176 2.24806 11.0923 2.56637C10.767 2.88466 10.5294 3.28155 10.4025 3.71863C10.2756 4.15568 10.2638 4.61811 10.368 5.0611C10.4723 5.50411 10.6891 5.91269 10.9976 6.24728C11.0173 6.26859 11.0374 6.28949 11.0578 6.30997L12.7758 8.02793L12.3638 10.4151C12.279 10.8995 12.331 11.3981 12.5141 11.8546C12.6982 12.3137 13.0074 12.7118 13.4066 13.0039C13.8057 13.2959 14.2788 13.4702 14.772 13.5067C15.2647 13.5432 15.7578 13.4409 16.1953 13.2114L18.3313 12.0913L20.4659 13.2107C20.9034 13.4402 21.398 13.5432 21.8907 13.5067C22.3839 13.4702 22.857 13.2959 23.2561 13.0039C23.6552 12.7118 23.9644 12.3136 24.1486 11.8546C24.1823 11.7705 24.2115 11.685 24.2363 11.5984V16.3596C24.2363 17.7389 23.1183 18.8569 21.739 18.8569H2.73368C1.35444 18.8569 0.236328 17.7389 0.236328 16.3596V3.35429C0.236328 1.97504 1.35443 0.856934 2.73368 0.856934H15.207Z" fill="#FAD39C"/>
</g>
<defs>
<clipPath id="clip0_77_7690">
<rect width="24" height="24" fill="white" transform="translate(0.236328)"/>
</clipPath>
</defs>
</svg>
