<svg width="20" height="21" viewBox="0 0 20 21" fill="none" xmlns="http://www.w3.org/2000/svg">
    <path fill-rule="evenodd" clip-rule="evenodd" d="M4.5 3.539a1.5 1.5 0 0 0-1.5 1.5v11a1.5 1.5 0 0 0 1.5 1.5h7a1.5 1.5 0 0 0 1.5-1.5V14.1a2 2 0 0 1-.735-1.311H8.75a2.25 2.25 0 0 1 0-4.5h3.515c.066-.52.332-.99.735-1.312V5.04a1.5 1.5 0 0 0-1.5-1.5h-7z" fill="#B9EBC9"/>
    <path fill-rule="evenodd" clip-rule="evenodd" d="M13.5 8.539a.75.75 0 0 1 1.28-.53l2 2a.75.75 0 0 1 0 1.06l-2 2a.75.75 0 0 1-1.28-.53v-1H8.75a1 1 0 0 1 0-2h4.75v-1z" fill="#3FA461"/>
</svg>
