<svg width="20" height="21" viewBox="0 0 20 21" fill="none" xmlns="http://www.w3.org/2000/svg">
<path d="M14.9307 16.8146C15.6734 16.8146 16.2756 16.2125 16.2756 15.4698V5.60755C16.2756 4.86481 15.6734 4.2627 14.9307 4.2627H5.06848C4.32574 4.2627 3.72363 4.86481 3.72363 5.60755V15.4698C3.72363 16.2125 4.32574 16.8146 5.06848 16.8146H14.9307Z" fill="#E7EAE8"/>
<path fill-rule="evenodd" clip-rule="evenodd" d="M5.51668 7.6249C5.51668 6.75837 6.21914 6.05591 7.08567 6.05591C7.9522 6.05591 8.65466 6.75837 8.65466 7.6249C8.65466 8.49143 7.9522 9.19389 7.08567 9.19389C6.21914 9.19389 5.51668 8.49143 5.51668 7.6249ZM14.9306 16.8147C15.6733 16.8147 16.2755 16.2126 16.2755 15.4699V12.7802L12.4089 10.0735C12.0525 9.82404 11.5684 9.86643 11.2608 10.1741L4.67773 16.7571C4.80136 16.7945 4.93253 16.8147 5.0684 16.8147H14.9306Z" fill="#B6C0BA"/>
<path d="M14.0195 10.0574C14.4587 9.69946 15.0921 9.69948 15.5312 10.0574L15.623 10.1394L17.6787 12.1951L17.8047 12.3425C18.3645 13.1063 17.8321 14.241 16.8311 14.241H16.4219V16.366C16.4219 17.2753 15.6848 18.0125 14.7754 18.0125C13.866 18.0124 13.1289 17.2753 13.1289 16.366V14.241H12.7197C11.6522 14.241 11.1172 12.95 11.8721 12.1951L13.9277 10.1394L14.0195 10.0574Z" fill="#505A54" stroke="white" stroke-width="1.5"/>
</svg>
