<svg width="21" height="20" viewBox="0 0 21 20" fill="none" xmlns="http://www.w3.org/2000/svg">
    <path fill-rule="evenodd" clip-rule="evenodd" d="m9.492 3.69-.463 1.195-1.594.904-1.271-.194a1.077 1.077 0 0 0-1.077.528l-.43.754a1.077 1.077 0 0 0 .086 1.217l.807 1.001v1.81l-.786 1.001a1.077 1.077 0 0 0-.086 1.217l.43.754a1.077 1.077 0 0 0 1.078.528l1.27-.194 1.573.904.463 1.196a1.076 1.076 0 0 0 1.001.689h.905a1.076 1.076 0 0 0 1.001-.69l.464-1.195 1.572-.904 1.27.194a1.077 1.077 0 0 0 1.077-.528l.431-.754a1.078 1.078 0 0 0-.086-1.217l-.808-1.001v-1.81l.787-1.001a1.077 1.077 0 0 0 .086-1.217l-.431-.754a1.076 1.076 0 0 0-1.077-.528l-1.27.194-1.573-.904-.463-1.196A1.077 1.077 0 0 0 11.376 3h-.883a1.077 1.077 0 0 0-1.001.69zm1.443 8.56a2.25 2.25 0 1 0 0-4.5 2.25 2.25 0 0 0 0 4.5z" fill="#86968B"/>
</svg>
