<svg width="25" height="24" viewBox="0 0 25 24" fill="none" xmlns="http://www.w3.org/2000/svg">
<g clip-path="url(#clip0_77_7693)">
<path fill-rule="evenodd" clip-rule="evenodd" d="M18.2831 0.572246L13.748 9.64469C13.4039 10.333 13.9043 11.1429 14.6737 11.1429H23.744C24.5134 11.1429 25.0138 10.333 24.6697 9.64469L20.1346 0.572246C19.7531 -0.190749 18.6646 -0.190749 18.2831 0.572246ZM0.780273 1.71513C0.780273 1.24174 1.16403 0.857979 1.63742 0.857979H10.2088C10.6822 0.857979 11.066 1.24174 11.066 1.71513V10.2866C11.066 10.7599 10.6822 11.1437 10.2088 11.1437H1.63742C1.16403 11.1437 0.780273 10.7599 0.780273 10.2866V1.71513ZM5.92313 24C8.76345 24 11.066 21.6975 11.066 18.8571C11.066 16.0168 8.76345 13.7143 5.92313 13.7143C3.08282 13.7143 0.780273 16.0168 0.780273 18.8571C0.780273 21.6975 3.08282 24 5.92313 24Z" fill="#FFB298"/>
<path fill-rule="evenodd" clip-rule="evenodd" d="M15.3521 13.7144C14.642 13.7144 14.0664 14.29 14.0664 15.0001C14.0664 15.7101 14.642 16.2858 15.3521 16.2858H23.0664C23.7765 16.2858 24.3521 15.7101 24.3521 15.0001C24.3521 14.29 23.7765 13.7144 23.0664 13.7144H15.3521ZM14.0664 18.8572C14.0664 18.1472 14.642 17.5715 15.3521 17.5715H23.0664C23.7765 17.5715 24.3521 18.1472 24.3521 18.8572C24.3521 19.5673 23.7765 20.1429 23.0664 20.1429H15.3521C14.642 20.1429 14.0664 19.5673 14.0664 18.8572ZM14.0664 22.7144C14.0664 22.0043 14.642 21.4286 15.3521 21.4286H23.0664C23.7765 21.4286 24.3521 22.0043 24.3521 22.7144C24.3521 23.4244 23.7765 24.0001 23.0664 24.0001H15.3521C14.642 24.0001 14.0664 23.4244 14.0664 22.7144Z" fill="#FF6632"/>
</g>
<defs>
<clipPath id="clip0_77_7693">
<rect width="24" height="24" fill="white" transform="translate(0.780273)"/>
</clipPath>
</defs>
</svg>
