<svg width="21" height="20" viewBox="0 0 21 20" fill="none" xmlns="http://www.w3.org/2000/svg">
<path d="M9.93657 3.32927C9.62708 3.10764 9.24694 2.99175 8.85851 3.00046H4.64886C4.1942 3.00046 3.75816 3.17064 3.43667 3.47358C3.11518 3.77651 2.93457 4.18738 2.93457 4.6158V15.3847C2.93457 15.8132 3.11518 16.224 3.43667 16.5269C3.75816 16.8299 4.19419 17 4.64886 17H17.2203C17.6749 17 18.111 16.8299 18.4325 16.5269C18.754 16.224 18.9346 15.8132 18.9346 15.3847V6.76958C18.9346 6.34116 18.754 5.93029 18.4325 5.62736C18.111 5.32442 17.6749 5.15424 17.2203 5.15424H10.8093L10.5636 4.22834C10.4697 3.87029 10.2482 3.55246 9.93657 3.32927Z" fill="#DCF5E4"/>
<path fill-rule="evenodd" clip-rule="evenodd" d="M11.7921 8.38506C11.7921 7.939 11.4084 7.57739 10.935 7.57739C10.4616 7.57739 10.0778 7.939 10.0778 8.38506V10.2696H8.07785C7.60446 10.2696 7.2207 10.6312 7.2207 11.0773C7.2207 11.5233 7.60446 11.885 8.07785 11.885H10.0778V13.7695C10.0778 14.2156 10.4616 14.5772 10.935 14.5772C11.4084 14.5772 11.7921 14.2156 11.7921 13.7695V11.885H13.7921C14.2655 11.885 14.6493 11.5233 14.6493 11.0773C14.6493 10.6312 14.2655 10.2696 13.7921 10.2696H11.7921V8.38506Z" fill="#3FA461"/>
</svg>
