<svg width="20" height="21" viewBox="0 0 20 21" fill="none" xmlns="http://www.w3.org/2000/svg">
<path fill-rule="evenodd" clip-rule="evenodd" d="M5.5 6.36963C5.22386 6.36963 5 6.59349 5 6.86963V16.0141C5 16.4137 5.15613 16.7984 5.43654 17.0833C5.7172 17.3685 6.09958 17.5302 6.5 17.5302H13.5C13.9004 17.5302 14.2828 17.3685 14.5635 17.0833C14.8439 16.7984 15 16.4137 15 16.0141V6.86963C15 6.59349 14.7761 6.36963 14.5 6.36963H5.5Z" fill="#CFD5D1"/>
<path fill-rule="evenodd" clip-rule="evenodd" d="M8.625 10.6709C8.625 10.3257 8.34518 10.0459 8 10.0459C7.65482 10.0459 7.375 10.3257 7.375 10.6709V14.6724C7.375 15.0175 7.65482 15.2974 8 15.2974C8.34518 15.2974 8.625 15.0175 8.625 14.6724V10.6709ZM12.625 10.6709C12.625 10.3257 12.3452 10.0459 12 10.0459C11.6548 10.0459 11.375 10.3257 11.375 10.6709V14.6724C11.375 15.0175 11.6548 15.2974 12 15.2974C12.3452 15.2974 12.625 15.0175 12.625 14.6724V10.6709Z" fill="#6B786F"/>
<path fill-rule="evenodd" clip-rule="evenodd" d="M9.99999 5.04663C9.53586 5.04663 9.09074 5.231 8.76256 5.55919C8.55519 5.76656 8.40524 6.0206 8.32294 6.29663H11.677C11.5947 6.0206 11.4448 5.76656 11.2374 5.55919C10.9092 5.231 10.4641 5.04663 9.99999 5.04663ZM13.2113 6.29663C13.1059 5.61984 12.7885 4.9889 12.2981 4.49853C11.6886 3.88904 10.8619 3.54663 9.99999 3.54663C9.13804 3.54663 8.31139 3.88904 7.7019 4.49853C7.21153 4.9889 6.89404 5.61984 6.78867 6.29663H4C3.58579 6.29663 3.25 6.63242 3.25 7.04663C3.25 7.46084 3.58579 7.79663 4 7.79663H16C16.4142 7.79663 16.75 7.46084 16.75 7.04663C16.75 6.63242 16.4142 6.29663 16 6.29663H13.2113Z" fill="#6B786F"/>
</svg>
