<svg width="25" height="24" viewBox="0 0 25 24" fill="none" xmlns="http://www.w3.org/2000/svg">
<g clip-path="url(#clip0_77_7695)">
<path fill-rule="evenodd" clip-rule="evenodd" d="M12.0977 0C5.47024 0 0.0976562 5.37259 0.0976562 12C0.0976562 18.6274 5.47024 24 12.0977 24C18.7251 24 24.0977 18.6274 24.0977 12C24.0977 5.37259 18.7251 0 12.0977 0Z" fill="#FBDA0A"/>
<path fill-rule="evenodd" clip-rule="evenodd" d="M1.53731 6.50635H12.0973H22.658C23.5405 6.50635 24.2557 7.22732 24.0673 8.08946C23.5733 10.3492 22.005 13.4009 18.1765 13.4009C13.3616 13.4009 12.1219 8.57395 12.0977 6.56614C12.0734 8.57395 10.8337 13.4009 6.01871 13.4009C2.19025 13.4009 0.622085 10.3492 0.128033 8.08946C-0.0604553 7.22732 0.654813 6.50635 1.53731 6.50635ZM16.1999 17.257C16.5084 16.8979 16.4673 16.3567 16.1083 16.0482C15.7492 15.7397 15.208 15.7808 14.8995 16.1398C14.7827 16.2759 14.6509 16.4023 14.5066 16.5164C14.2693 16.7042 14.0011 16.8567 13.7154 16.9644C13.5691 17.0029 13.4205 17.027 13.2711 17.0374C12.7989 17.0703 12.4427 17.4799 12.4757 17.952C12.5086 18.4243 12.9181 18.7805 13.3903 18.7476C13.6626 18.7285 13.9358 18.6826 14.2061 18.6075C14.2275 18.6017 14.2487 18.5948 14.2696 18.5873C14.7416 18.4155 15.182 18.1681 15.5704 17.8608C15.7987 17.6801 16.0101 17.4778 16.1999 17.257Z" fill="#2D1901"/>
</g>
<defs>
<clipPath id="clip0_77_7695">
<rect width="24" height="24" fill="white" transform="translate(0.0976562)"/>
</clipPath>
</defs>
</svg>
