<svg width="20" height="21" viewBox="0 0 20 21" fill="none" xmlns="http://www.w3.org/2000/svg">
<path d="M18 10.5386C18 12.6603 17.1571 14.6951 15.6569 16.1954C14.1566 17.6957 12.1217 18.5386 10 18.5386C7.87827 18.5386 5.84344 17.6957 4.34315 16.1954C2.84285 14.6951 2 12.6603 2 10.5386C2 8.41684 2.84285 6.38201 4.34315 4.88172C5.84344 3.38143 7.87827 2.53857 10 2.53857C12.1217 2.53857 14.1566 3.38143 15.6569 4.88172C17.1571 6.38201 18 8.41684 18 10.5386ZM14.03 7.50857C13.9586 7.43739 13.8735 7.38135 13.7799 7.34379C13.6863 7.30623 13.5861 7.28793 13.4853 7.28999C13.3845 7.29204 13.2851 7.3144 13.1932 7.35574C13.1012 7.39708 13.0185 7.45654 12.95 7.53057L9.477 11.9556L7.384 9.86157C7.24182 9.72909 7.05378 9.65697 6.85948 9.6604C6.66518 9.66383 6.47979 9.74254 6.34238 9.87995C6.20497 10.0174 6.12625 10.2028 6.12283 10.3971C6.1194 10.5914 6.19152 10.7794 6.324 10.9216L8.97 13.5686C9.04128 13.6397 9.12616 13.6958 9.21958 13.7334C9.313 13.7711 9.41305 13.7895 9.51375 13.7876C9.61444 13.7858 9.71374 13.7636 9.8057 13.7226C9.89766 13.6815 9.9804 13.6223 10.049 13.5486L14.041 8.55857C14.1771 8.41707 14.2523 8.22785 14.2504 8.03153C14.2485 7.83522 14.1698 7.64746 14.031 7.50857H14.03Z" fill="#B6C0BA"/>
</svg>
