<svg width="21" height="20" viewBox="0 0 21 20" fill="none" xmlns="http://www.w3.org/2000/svg">
    <path d="M13.33 4.018C12.72 3.362 11.871 3 10.933 3c-.942 0-1.794.36-2.4 1.012-.611.66-.91 1.556-.84 2.524.14 1.91 1.593 3.464 3.24 3.464 1.648 0 3.1-1.553 3.24-3.463.071-.96-.229-1.854-.845-2.519zM16.434 17h-11a.968.968 0 0 1-.756-.348 1.103 1.103 0 0 1-.224-.91c.264-1.463 1.087-2.692 2.38-3.555C7.985 11.422 9.44 11 10.935 11c1.495 0 2.951.422 4.1 1.188 1.294.862 2.117 2.091 2.381 3.554.06.335-.021.667-.224.91a.968.968 0 0 1-.757.348z" fill="#86968B"/>
</svg>
