<svg width="24" height="24" viewBox="0 0 24 24" fill="none" xmlns="http://www.w3.org/2000/svg">
<g clip-path="url(#clip0_77_7692)">
<path d="M5.5791 0.857143V7.71429H18.4362V0.857143C18.4362 0.383757 18.0524 0 17.5791 0H6.43624C5.96286 0 5.5791 0.383757 5.5791 0.857143Z" fill="#0EA9CF"/>
<path fill-rule="evenodd" clip-rule="evenodd" d="M2.57924 7.53125C1.91391 7.53125 1.2659 7.77907 0.780153 8.23543C0.29259 8.6935 0.0078125 9.32664 0.0078125 9.99898V17.2467C0.0078125 17.919 0.29259 18.5521 0.780153 19.0102C1.2659 19.4665 1.91391 19.7144 2.57924 19.7144H21.4364C22.1017 19.7144 22.7497 19.4665 23.2355 19.0102C23.7231 18.5521 24.0078 17.919 24.0078 17.2467V9.99898C24.0078 9.32664 23.7231 8.6935 23.2355 8.23543C22.7497 7.77907 22.1017 7.53125 21.4364 7.53125H2.57924Z" fill="#84DBF0"/>
<path fill-rule="evenodd" clip-rule="evenodd" d="M15.9766 10.7106C15.9766 10.1189 16.4563 9.63916 17.048 9.63916H19.8543C20.446 9.63916 20.9257 10.1189 20.9257 10.7106C20.9257 11.3023 20.446 11.782 19.8543 11.782H17.048C16.4563 11.782 15.9766 11.3023 15.9766 10.7106Z" fill="#0EA9CF"/>
<path d="M5.81543 16.2856V22.2856C5.81543 22.513 5.89573 22.731 6.03866 22.8918C6.1816 23.0524 6.37547 23.1428 6.57762 23.1428H17.4383C17.6404 23.1428 17.8343 23.0524 17.9771 22.8918C18.1201 22.731 18.2005 22.513 18.2005 22.2856V16.2856H5.81543Z" fill="#0EA9CF"/>
</g>
<defs>
<clipPath id="clip0_77_7692">
<rect width="24" height="24" fill="white" transform="translate(0.0078125)"/>
</clipPath>
</defs>
</svg>
