<svg width="53" height="53" viewBox="0 0 53 53" fill="none" xmlns="http://www.w3.org/2000/svg">
<g clip-path="url(#clip0_106_2928)">
<path d="M23.9537 5.95151C23.0893 5.29462 22.0277 4.95106 20.9429 4.97668H9.35535C8.08523 4.97668 6.86715 5.48122 5.96905 6.37932C5.07095 7.27743 4.56641 8.49551 4.56641 9.7656V42.7994C4.56641 44.0693 5.07095 45.2877 5.96905 46.1857C6.86715 47.0837 8.08523 47.5884 9.35535 47.5884H43.962C45.2322 47.5884 46.4503 47.0837 47.3486 46.1857C48.2466 45.2877 48.7509 44.0693 48.7509 42.7994V16.0577C48.7509 14.7877 48.2466 13.5696 47.3486 12.6715C46.4503 11.7734 45.2322 11.2688 43.962 11.2688H26.3684L25.7054 8.61695C25.4429 7.55546 24.8243 6.61319 23.9537 5.95151Z" fill="#E7EAE8"/>
<path d="M36.0506 28.1423C33.3287 28.1423 31.1221 25.9357 31.1221 23.2137C31.1221 20.4917 33.3287 18.2852 36.0506 18.2852C38.7726 18.2852 40.9793 20.4917 40.9793 23.2137C40.9793 25.9357 38.7726 28.1423 36.0506 28.1423Z" fill="#B6C0BA"/>
<path fill-rule="evenodd" clip-rule="evenodd" d="M44.1184 47.5856L21.7426 27.0352C21.3567 26.72 20.8703 26.5474 20.368 26.5474C19.8657 26.5474 19.3793 26.72 18.9934 27.0352L4.56641 37.2087V42.7993C4.56641 44.0693 5.07095 45.2876 5.96905 46.1856C6.86715 47.0836 8.08523 47.5883 9.35535 47.5883H43.962C44.0142 47.5883 44.0665 47.5873 44.1184 47.5856Z" fill="#B6C0BA"/>
<g clip-path="url(#clip1_106_2928)">
<path d="M35.889 30.619C37.6041 27.5359 42.0387 27.5359 43.7539 30.619L52.0844 45.5937C53.753 48.5931 51.5843 52.2814 48.152 52.2814H31.4909C28.0585 52.2814 25.8898 48.5931 27.5584 45.5937L35.889 30.619Z" fill="white"/>
<path fill-rule="evenodd" clip-rule="evenodd" d="M38.759 31.3397C39.0788 31.1442 39.4464 31.0408 39.8212 31.0408C40.196 31.0408 40.5636 31.1442 40.8834 31.3397C41.2032 31.5352 41.4629 31.8152 41.6338 32.1488L41.6368 32.1547L49.1032 47.0877C49.2591 47.3974 49.3339 47.743 49.3194 48.0895C49.3048 48.4364 49.2019 48.7737 49.0203 49.0696C48.8386 49.3654 48.5844 49.61 48.2817 49.78C47.979 49.9499 47.6378 50.0397 47.2907 50.0408H47.2886H32.3538H32.3517C32.0045 50.0397 31.6634 49.9499 31.3607 49.78C31.058 49.61 30.8038 49.3654 30.6222 49.0696C30.4406 48.7737 30.3376 48.4364 30.3231 48.0895C30.3086 47.743 30.3828 47.3985 30.5386 47.0888L38.0056 32.1547L38.0086 32.1487C38.1795 31.8151 38.4392 31.5352 38.759 31.3397ZM39.8212 36.6334C40.3836 36.6334 40.8395 37.0893 40.8395 37.6517V42.0643C40.8395 42.6267 40.3836 43.0826 39.8212 43.0826C39.2588 43.0826 38.8029 42.6267 38.8029 42.0643V37.6517C38.8029 37.0893 39.2588 36.6334 39.8212 36.6334ZM41.1789 45.798C41.1789 46.5479 40.571 47.1558 39.8212 47.1558C39.0713 47.1558 38.4635 46.5479 38.4635 45.798C38.4635 45.0482 39.0713 44.4403 39.8212 44.4403C40.571 44.4403 41.1789 45.0482 41.1789 45.798Z" fill="#6B786F"/>
</g>
</g>
<defs>
<clipPath id="clip0_106_2928">
<rect width="52" height="52" fill="white" transform="translate(0.65918 0.28125)"/>
</clipPath>
<clipPath id="clip1_106_2928">
<rect width="24.9999" height="25" fill="white" transform="translate(27.6592 27.2812)"/>
</clipPath>
</defs>
</svg>
