<svg width="54" height="27" viewBox="0 0 54 27" fill="none" xmlns="http://www.w3.org/2000/svg">
<path d="M53.8429 16.5364H39.7229V13.3307H53.8429V16.5364ZM46.8116 17.4331C47.9127 17.4331 48.903 17.6296 49.7824 18.0226C50.6694 18.4075 51.3653 18.9561 51.87 19.6685C52.3747 20.3727 52.6309 21.1629 52.6385 22.0391C52.6309 22.9234 52.3747 23.7177 51.87 24.4219C51.3653 25.1179 50.6694 25.6666 49.7824 26.0678C48.903 26.469 47.9127 26.6696 46.8116 26.6696C45.7104 26.6696 44.724 26.469 43.8522 26.0678C42.9881 25.6666 42.3037 25.1179 41.799 24.4219C41.302 23.7177 41.0535 22.9234 41.0535 22.0391C41.0535 21.1629 41.302 20.3727 41.799 19.6685C42.3037 18.9561 42.992 18.4075 43.8637 18.0226C44.7354 17.6296 45.7181 17.4331 46.8116 17.4331ZM46.8116 20.7003C46.4139 20.7084 46.066 20.7576 45.7678 20.8477C45.4695 20.9377 45.2363 21.0851 45.0681 21.2898C44.8999 21.4864 44.8157 21.7361 44.8157 22.0391C44.8157 22.3584 44.8999 22.6164 45.0681 22.8129C45.2363 23.0094 45.4695 23.1568 45.7678 23.2551C46.066 23.3451 46.4139 23.3943 46.8116 23.4024C47.2245 23.3943 47.5801 23.3451 47.8783 23.2551C48.1842 23.1568 48.4174 23.0094 48.578 22.8129C48.7462 22.6164 48.8304 22.3584 48.8304 22.0391C48.8304 21.7361 48.7462 21.4864 48.578 21.2898C48.4174 21.0851 48.1842 20.9377 47.8783 20.8477C47.5801 20.7576 47.2245 20.7084 46.8116 20.7003ZM48.6812 16.2171H45.0107V10.7144H48.6812V16.2171Z" fill="black"/>
<path d="M33.8714 25.122H20.1914V13.0236H33.8714V25.122ZM23.8547 22.0145H30.1852V16.1434H23.8547V22.0145Z" fill="black"/>
<path d="M4.06749 15.9591H10.4386V12.692H14.0988V25.4537H0.498779V12.692H4.06749V15.9591ZM10.4386 22.0145V19.3614H4.06749V22.0145H10.4386Z" fill="black"/>
<path d="M18.3707 10.7145H14.4525V4.05217H5.82678V0.932373H18.3707V10.7145Z" fill="#FFD030"/>
</svg>
