<svg width="50" height="51" viewBox="0 0 50 51" fill="none" xmlns="http://www.w3.org/2000/svg">
    <rect x="7.9" y=".573" width="42.795" height="42.795" rx="4" transform="rotate(10.46 7.9 .573)" fill="#1B1E1C"/>
    <path d="M25.057 23.08h8.576c1.482 0 2.744.207 3.784.621 1.05.405 1.837.986 2.362 1.74.534.746.8 1.63.8 2.652 0 .737-.16 1.404-.483 2.003a4.439 4.439 0 0 1-1.353 1.519 5.351 5.351 0 0 1-2.003.842v.194a5.078 5.078 0 0 1 2.334.663 4.413 4.413 0 0 1 1.671 1.67c.406.71.608 1.524.608 2.445 0 1.096-.285 2.067-.856 2.914-.562.847-1.372 1.515-2.43 2.003-1.05.488-2.289.732-3.716.732h-9.294V23.08zm7.913 15.785c.626 0 1.146-.083 1.56-.248.424-.166.737-.4.94-.704.212-.314.317-.7.317-1.16 0-.47-.11-.875-.331-1.216a1.87 1.87 0 0 0-.94-.773c-.404-.175-.892-.267-1.463-.277h-2.748v4.378h2.665zm-.304-7.65c.488-.01.921-.093 1.298-.25.387-.165.686-.395.898-.69.212-.304.318-.663.318-1.077 0-.414-.106-.769-.318-1.063a1.801 1.801 0 0 0-.856-.677 3.187 3.187 0 0 0-1.257-.235h-2.444v3.991h2.361z" fill="#F6F7F6"/>
</svg>
