<svg width="1070" height="154" viewBox="0 0 1070 154" fill="none" xmlns="http://www.w3.org/2000/svg">
<path d="M114.43 16.1528H113.93V16.6528V47.158H51.8397V16.6528V16.1528H51.3397H16H15.5V16.6528V137.76V138.26H16H150.676H151.176V137.76V16.6528V16.1528H150.676H114.43ZM51.8397 80.4454H113.93V104.623H51.8397V80.4454Z" fill="#CDCDCD" stroke="#CDCDCD"/>
<path d="M230.564 84.0588H231.064V83.5588V53.2529V52.7529H230.564H180.326H179.826V53.2529V83.5588V84.0588H180.326H230.564Z" fill="#CDCDCD" stroke="#CDCDCD"/>
<path d="M198.976 138.26H199.476V137.76V77.2062V16.6528V16.1528H198.976H161.676H161.176V16.6528V137.76V138.26H161.676H198.976Z" fill="#CDCDCD" stroke="#CDCDCD"/>
<rect x="242.064" y="13.7063" width="131" height="39" fill="#CDCDCD" stroke="#CDCDCD"/>
<rect x="373.064" y="13.7063" width="127" height="41" transform="rotate(90 373.064 13.7063)" fill="#CDCDCD" stroke="#CDCDCD"/>
<mask id="path-6-inside-1_42_73" fill="white">
<path fill-rule="evenodd" clip-rule="evenodd" d="M534.278 14.5881H384.564V139.824H534.278V14.5881ZM485.921 54.2062H432.921V100.206H485.921V54.2062Z"/>
</mask>
<path fill-rule="evenodd" clip-rule="evenodd" d="M534.278 14.5881H384.564V139.824H534.278V14.5881ZM485.921 54.2062H432.921V100.206H485.921V54.2062Z" fill="#CDCDCD"/>
<path d="M384.564 14.5881V13.5881H383.564V14.5881H384.564ZM534.278 14.5881H535.278V13.5881H534.278V14.5881ZM384.564 139.824H383.564V140.824H384.564V139.824ZM534.278 139.824V140.824H535.278V139.824H534.278ZM432.921 54.2062V53.2062H431.921V54.2062H432.921ZM485.921 54.2062H486.921V53.2062H485.921V54.2062ZM432.921 100.206H431.921V101.206H432.921V100.206ZM485.921 100.206V101.206H486.921V100.206H485.921ZM384.564 15.5881H534.278V13.5881H384.564V15.5881ZM385.564 139.824V14.5881H383.564V139.824H385.564ZM534.278 138.824H384.564V140.824H534.278V138.824ZM533.278 14.5881V139.824H535.278V14.5881H533.278ZM432.921 55.2062H485.921V53.2062H432.921V55.2062ZM433.921 100.206V54.2062H431.921V100.206H433.921ZM485.921 99.2062H432.921V101.206H485.921V99.2062ZM484.921 54.2062V100.206H486.921V54.2062H484.921Z" fill="#CDCDCD" mask="url(#path-6-inside-1_42_73)"/>
<path d="M582.694 140.324H583.194V139.824V14.5881V14.0881H582.694H545.278H544.778V14.5881V139.824V140.324H545.278H582.694Z" fill="#CDCDCD" stroke="#CDCDCD"/>
<rect x="725.194" y="140.706" width="131" height="39" transform="rotate(180 725.194 140.706)" fill="#CDCDCD" stroke="#CDCDCD"/>
<rect x="594.194" y="140.706" width="127" height="41" transform="rotate(-90 594.194 140.706)" fill="#CDCDCD" stroke="#CDCDCD"/>
<path d="M880.18 57.2499H880.68V56.7499V26.3275V25.8275H880.18H828.228V1.5V1H827.728H790.428H789.928V1.5V25.8275H736.694H736.194V26.3275V56.7499V57.2499H736.694H880.18ZM860.527 131.889L860.529 131.886C865.723 125.118 868.363 117.475 868.442 108.974L868.441 108.965C868.363 100.54 865.723 92.937 860.529 86.1696C855.339 79.3284 848.191 74.0719 839.108 70.3912C830.102 66.6329 819.973 64.7588 808.729 64.7588C797.561 64.7588 787.509 66.6331 778.581 70.392C769.651 74.0736 762.582 79.3308 757.393 86.1707L757.392 86.1714C752.276 92.9404 749.715 100.545 749.715 108.969C749.715 117.47 752.276 125.114 757.392 131.884L757.396 131.889C762.584 138.569 769.61 143.824 778.457 147.66L778.458 147.661C787.389 151.499 797.482 153.413 808.729 153.413C819.976 153.413 830.107 151.499 839.114 147.661C848.193 143.826 855.338 138.572 860.527 131.889ZM791.38 102.197L791.38 102.197L791.387 102.189C793.02 100.333 795.299 98.9783 798.257 98.144C801.235 97.3042 804.723 96.8418 808.729 96.7641C812.891 96.8418 816.457 97.3046 819.433 98.144L819.436 98.1449C822.473 98.98 824.745 100.334 826.296 102.181L826.303 102.189L826.31 102.197C827.924 103.957 828.743 106.201 828.743 108.969C828.743 111.901 827.919 114.22 826.31 115.975L826.31 115.975L826.303 115.983C824.75 117.758 822.472 119.115 819.429 120.029C816.454 120.867 812.889 121.33 808.729 121.407C804.726 121.33 801.239 120.868 798.263 120.029C795.299 119.116 793.015 117.758 791.38 115.975C789.771 114.22 788.947 111.901 788.947 108.969C788.947 106.201 789.766 103.957 791.38 102.197Z" fill="#CDCDCD" stroke="#CDCDCD"/>
<path d="M1053.68 140.324H1054.18V139.824V14.5881V14.0881H1053.68H1016.26H1015.76V14.5881V139.824V140.324H1016.26H1053.68Z" fill="#CDCDCD" stroke="#CDCDCD"/>
<path d="M1005.83 73.0102L1005.83 72.5102L1005.33 72.5102L891.18 72.5102L890.68 72.5102L890.68 73.0102L890.68 110.426L890.68 110.926L891.18 110.926L1005.33 110.926L1005.83 110.926L1005.83 110.426L1005.83 73.0102Z" fill="#CDCDCD" stroke="#CDCDCD"/>
</svg>
