<svg width="261" height="261" viewBox="0 0 261 261" fill="none" xmlns="http://www.w3.org/2000/svg">
<path d="M164.445 78.3655C164.445 78.3655 164.895 78.1455 165.695 77.8755C166.485 77.5855 167.625 77.2355 168.975 76.9255C170.335 76.6155 171.915 76.3355 173.615 76.1555C174.465 76.0655 175.345 75.9855 176.235 75.9455C177.125 75.8855 178.035 75.8855 178.935 75.8655C179.845 75.8755 180.745 75.8855 181.635 75.9355C182.525 75.9755 183.405 76.0555 184.255 76.1455C185.955 76.3255 187.535 76.6055 188.895 76.9155C190.255 77.2255 191.385 77.5755 192.175 77.8655C192.965 78.1455 193.425 78.3655 193.425 78.3655C193.425 78.3655 192.975 78.5855 192.175 78.8655C191.385 79.1555 190.245 79.5055 188.895 79.8155C187.535 80.1255 185.955 80.4055 184.255 80.5855C183.405 80.6755 182.525 80.7555 181.635 80.7955C180.745 80.8555 179.835 80.8555 178.935 80.8655C178.025 80.8555 177.125 80.8455 176.235 80.7855C175.345 80.7455 174.465 80.6655 173.615 80.5755C171.915 80.3955 170.335 80.1155 168.975 79.8055C167.615 79.4955 166.485 79.1455 165.695 78.8555C164.905 78.5755 164.445 78.3655 164.445 78.3655Z" fill="#A52A21"/>
<path d="M178.945 63.8655C178.945 63.8655 179.165 64.3155 179.435 65.1155C179.725 65.9055 180.075 67.0455 180.385 68.3955C180.695 69.7555 180.975 71.3355 181.155 73.0355C181.245 73.8855 181.325 74.7655 181.365 75.6555C181.425 76.5455 181.425 77.4555 181.445 78.3555C181.435 79.2655 181.425 80.1655 181.375 81.0555C181.335 81.9455 181.255 82.8255 181.165 83.6755C180.985 85.3755 180.705 86.9555 180.395 88.3155C180.085 89.6755 179.735 90.8055 179.445 91.5955C179.165 92.3855 178.945 92.8455 178.945 92.8455C178.945 92.8455 178.725 92.3955 178.445 91.5955C178.155 90.8055 177.805 89.6655 177.495 88.3155C177.185 86.9555 176.905 85.3755 176.725 83.6755C176.635 82.8255 176.555 81.9455 176.515 81.0555C176.455 80.1655 176.455 79.2555 176.445 78.3555C176.455 77.4455 176.465 76.5455 176.525 75.6555C176.565 74.7655 176.645 73.8855 176.735 73.0355C176.915 71.3355 177.195 69.7555 177.505 68.3955C177.815 67.0355 178.165 65.9055 178.455 65.1155C178.735 64.3255 178.945 63.8655 178.945 63.8655Z" fill="#A52A21"/>
<path d="M178.945 84.0555C182.088 84.0555 184.635 81.508 184.635 78.3655C184.635 75.223 182.088 72.6755 178.945 72.6755C175.803 72.6755 173.255 75.223 173.255 78.3655C173.255 81.508 175.803 84.0555 178.945 84.0555Z" fill="white" stroke="#A52A21" stroke-width="5" stroke-miterlimit="10"/>
<path d="M32.6055 186.945C32.6055 186.945 33.0555 186.725 33.8555 186.455C34.6455 186.165 35.7855 185.815 37.1355 185.505C38.4955 185.195 40.0754 184.915 41.7754 184.735C42.6254 184.645 43.5054 184.565 44.3954 184.525C45.2854 184.465 46.1955 184.465 47.0955 184.445C48.0055 184.455 48.9054 184.465 49.7954 184.515C50.6854 184.555 51.5654 184.635 52.4154 184.725C54.1154 184.905 55.6954 185.185 57.0554 185.495C58.4154 185.805 59.5454 186.155 60.3354 186.445C61.1254 186.725 61.5854 186.945 61.5854 186.945C61.5854 186.945 61.1354 187.165 60.3354 187.445C59.5454 187.735 58.4054 188.085 57.0554 188.395C55.6954 188.705 54.1154 188.985 52.4154 189.165C51.5654 189.255 50.6854 189.335 49.7954 189.375C48.9054 189.435 47.9955 189.435 47.0955 189.445C46.1855 189.435 45.2854 189.425 44.3954 189.365C43.5054 189.325 42.6254 189.245 41.7754 189.155C40.0754 188.975 38.4955 188.695 37.1355 188.385C35.7755 188.075 34.6455 187.725 33.8555 187.435C33.0655 187.155 32.6055 186.945 32.6055 186.945Z" fill="#A52A21"/>
<path d="M47.1055 172.445C47.1055 172.445 47.3255 172.895 47.5955 173.695C47.8855 174.485 48.2354 175.625 48.5454 176.975C48.8554 178.335 49.1354 179.915 49.3154 181.615C49.4054 182.465 49.4854 183.345 49.5254 184.235C49.5854 185.125 49.5855 186.035 49.6055 186.935C49.5955 187.845 49.5854 188.745 49.5354 189.635C49.4954 190.525 49.4154 191.405 49.3254 192.255C49.1454 193.955 48.8654 195.535 48.5554 196.895C48.2454 198.255 47.8955 199.385 47.6055 200.175C47.3255 200.965 47.1055 201.425 47.1055 201.425C47.1055 201.425 46.8855 200.975 46.6055 200.175C46.3155 199.385 45.9654 198.245 45.6554 196.895C45.3454 195.535 45.0655 193.955 44.8855 192.255C44.7955 191.405 44.7154 190.525 44.6754 189.635C44.6154 188.745 44.6155 187.835 44.6055 186.935C44.6155 186.025 44.6254 185.125 44.6854 184.235C44.7254 183.345 44.8054 182.465 44.8954 181.615C45.0754 179.915 45.3554 178.335 45.6654 176.975C45.9754 175.615 46.3255 174.485 46.6155 173.695C46.8955 172.905 47.1055 172.445 47.1055 172.445Z" fill="#A52A21"/>
<path d="M47.1056 192.635C50.2481 192.635 52.7955 190.088 52.7955 186.945C52.7955 183.803 50.2481 181.255 47.1056 181.255C43.9631 181.255 41.4155 183.803 41.4155 186.945C41.4155 190.088 43.9631 192.635 47.1056 192.635Z" fill="white" stroke="#A52A21" stroke-width="5" stroke-miterlimit="10"/>
<path d="M144.145 169.435C114.585 182.265 80.2153 168.715 67.3853 139.155C54.5553 109.595 68.1053 75.2254 97.6653 62.3954" fill="#F7674F"/>
<path d="M144.145 169.435C114.585 182.265 80.2153 168.715 67.3853 139.155C54.5553 109.595 68.1053 75.2254 97.6653 62.3954" stroke="#A52A21" stroke-width="5" stroke-miterlimit="10"/>
<path fill-rule="evenodd" clip-rule="evenodd" d="M95.5553 57.1554C93.4953 58.1254 92.5953 60.5954 93.5653 62.6554L145.455 173.265C146.425 175.325 148.895 176.215 150.955 175.255C153.015 174.285 153.905 171.815 152.945 169.755L101.055 59.1454C100.085 57.0854 97.6153 56.1854 95.5553 57.1554Z" fill="white" stroke="#A52A21" stroke-width="5" stroke-miterlimit="10"/>
<path d="M123.255 163.185C150.549 163.185 172.675 141.059 172.675 113.765C172.675 86.4715 150.549 64.3455 123.255 64.3455C95.9616 64.3455 73.8354 86.4715 73.8354 113.765C73.8354 141.059 95.9616 163.185 123.255 163.185Z" fill="white" stroke="#A52A21" stroke-width="5" stroke-miterlimit="10"/>
<path d="M73.8354 125.665C73.8354 125.665 77.0455 118.525 79.9755 116.205C82.9155 113.885 88.0654 114.445 88.0654 114.445L95.6454 120.025L111.355 125.665L116.885 133.125L114.235 149.875L118.755 151.725L123.235 157.725L106.625 161.245" stroke="#A52A21" stroke-width="5" stroke-miterlimit="10"/>
<path d="M77.0054 98.8654L88.0653 94.4354V103.295L95.6553 101.585H111.365V88.4754L106.645 84.0554L103.965 77.1654L106.015 69.7054" stroke="#A52A21" stroke-width="5" stroke-miterlimit="10"/>
<path d="M114.246 69.7054V80.0254L126.176 78.3654V72.6754L114.246 69.7054Z" stroke="#A52A21" stroke-width="5" stroke-miterlimit="10"/>
<path d="M124.235 196.015L95.6553 211.295H152.805L124.235 196.015Z" stroke="#A52A21" stroke-width="5" stroke-miterlimit="10"/>
<path d="M124.235 196.015V162.625" stroke="#A52A21" stroke-width="5" stroke-miterlimit="10"/>
<path d="M143.815 68.8254L144.145 80.2554C144.145 80.2554 140.255 84.9054 137.915 84.0554C135.585 83.2054 126.175 92.0754 126.175 92.0754L133.575 103.295C133.575 103.295 139.715 114.305 140.975 113.755C142.245 113.205 152.805 113.755 152.805 113.755L155.785 117.705V133.115L160.245 138.895L155.785 149.355" stroke="#A52A21" stroke-width="5" stroke-miterlimit="10"/>
<path d="M210.055 184.345L213.595 203.695L186.235 174.215L194.425 166.605L210.055 184.345Z" fill="white" stroke="#A52A21" stroke-width="5" stroke-miterlimit="10"/>
<path d="M166.915 180.485C187.405 180.485 204.016 163.875 204.016 143.385C204.016 122.896 187.405 106.285 166.915 106.285C146.426 106.285 129.815 122.896 129.815 143.385C129.815 163.875 146.426 180.485 166.915 180.485Z" fill="#F7674F" stroke="#A52A21" stroke-width="5" stroke-miterlimit="10"/>
<path d="M188.421 158.274C196.863 146.049 193.798 129.295 181.573 120.853C169.349 112.41 152.595 115.476 144.152 127.7C135.71 139.925 138.775 156.679 151 165.121C163.224 173.564 179.978 170.498 188.421 158.274Z" fill="white" stroke="#A52A21" stroke-width="5" stroke-miterlimit="10"/>
<path d="M225.685 196.275C229.055 199.895 228.835 205.555 225.215 208.905C221.605 212.265 215.945 212.055 212.585 208.425L198.486 192.325C195.126 188.705 195.335 183.055 198.945 179.695C202.565 176.335 208.225 176.545 211.585 180.165L225.685 196.275Z" fill="white" stroke="#A52A21" stroke-width="5" stroke-miterlimit="10"/>
<path fill-rule="evenodd" clip-rule="evenodd" d="M194.636 181.885C194.146 178.835 196.216 175.965 199.266 175.475C202.316 174.985 205.185 177.055 205.675 180.105C206.165 183.155 204.095 186.025 201.045 186.525C197.995 187.015 195.126 184.945 194.636 181.895V181.885Z" fill="white" stroke="#A52A21" stroke-width="5" stroke-miterlimit="10"/>
</svg>
