<svg width="260" height="261" viewBox="0 0 260 261" fill="none" xmlns="http://www.w3.org/2000/svg">
<path d="M92.5466 73.585H215.117C221.027 73.585 225.837 78.3849 225.837 84.3049V155.305C225.837 161.215 221.037 166.025 215.117 166.025H92.5466C86.6266 166.025 81.8267 161.225 81.8267 155.305V84.3049C81.8267 78.3949 86.6266 73.585 92.5466 73.585Z" fill="#85EF7F" stroke="#3C8936" stroke-width="5" stroke-miterlimit="10"/>
<path d="M215.117 73.585H92.5466C86.6566 73.585 81.8267 78.4049 81.8267 84.3049V105.025H225.837V84.3049C225.837 78.4049 221.017 73.585 215.117 73.585Z" fill="white" stroke="#3C8936" stroke-width="5" stroke-miterlimit="10"/>
<path d="M186.897 120.545C186.897 138.805 172.097 153.605 153.837 153.605C135.577 153.605 120.777 138.805 120.777 120.545C120.777 102.285 135.577 87.4749 153.837 87.4749C172.097 87.4749 186.897 102.275 186.897 120.545Z" fill="white" stroke="#3C8936" stroke-width="5" stroke-miterlimit="10"/>
<path d="M170.967 120.545C170.967 130.005 163.297 137.685 153.827 137.685C144.357 137.685 136.687 130.015 136.687 120.545C136.687 111.075 144.357 103.405 153.827 103.405C163.297 103.405 170.967 111.075 170.967 120.545Z" fill="white" stroke="#3C8936" stroke-width="5" stroke-miterlimit="10"/>
<path d="M187.397 80.6948H212.327C213.837 80.6948 215.067 81.9248 215.067 83.4348V96.8148C215.067 98.3248 213.837 99.5548 212.327 99.5548H187.397C185.887 99.5548 184.657 98.3248 184.657 96.8148V83.4348C184.657 81.9248 185.887 80.6948 187.397 80.6948Z" fill="white" stroke="#3C8936" stroke-width="5" stroke-miterlimit="10"/>
<path d="M164.536 59.9448H156.957H152.536H144.957L136.376 73.5848H152.536H156.957H173.116L164.536 59.9448Z" fill="white" stroke="#3C8936" stroke-width="5" stroke-miterlimit="10"/>
<path d="M117.437 73.5849C116.807 71.1249 114.577 69.2949 111.917 69.2949H103.247C100.587 69.2949 98.3566 71.1249 97.7266 73.5849H117.427H117.437Z" fill="white" stroke="#3C8936" stroke-width="5" stroke-miterlimit="10"/>
<path d="M129.506 105.565H34.1465V200.925H129.506V105.565Z" fill="white" stroke="#3C8936" stroke-width="5" stroke-miterlimit="10"/>
<path d="M121.647 113.425H42.0166V184.745H121.647V113.425Z" fill="#85EF7F" stroke="#3C8936" stroke-width="5" stroke-miterlimit="10"/>
<path d="M44.1064 184.395L66.9265 139.715L88.0265 184.395H44.1064Z" fill="white" stroke="#3C8936" stroke-width="5" stroke-miterlimit="10"/>
<path d="M89.1063 184.395L81.8364 171.035L94.7964 149.965L117.816 184.395H89.1063Z" fill="white" stroke="#3C8936" stroke-width="5" stroke-miterlimit="10"/>
<path d="M103.986 139.715C108.195 139.715 111.606 136.304 111.606 132.095C111.606 127.887 108.195 124.475 103.986 124.475C99.778 124.475 96.3665 127.887 96.3665 132.095C96.3665 136.304 99.778 139.715 103.986 139.715Z" fill="white" stroke="#3C8936" stroke-width="5" stroke-miterlimit="10"/>
<path d="M49.1465 80.6548C49.1465 80.6548 49.5965 80.4348 50.3965 80.1648C51.1865 79.8748 52.3265 79.5248 53.6765 79.2148C55.0365 78.9048 56.6165 78.6248 58.3165 78.4448C59.1665 78.3548 60.0465 78.2748 60.9365 78.2348C61.8265 78.1748 62.7365 78.1748 63.6365 78.1548C64.5465 78.1648 65.4465 78.1748 66.3365 78.2248C67.2265 78.2648 68.1065 78.3448 68.9565 78.4348C70.6565 78.6148 72.2364 78.8948 73.5964 79.2048C74.9564 79.5148 76.0865 79.8648 76.8765 80.1548C77.6665 80.4348 78.1265 80.6548 78.1265 80.6548C78.1265 80.6548 77.6765 80.8748 76.8765 81.1548C76.0865 81.4448 74.9464 81.7948 73.5964 82.1048C72.2364 82.4148 70.6565 82.6948 68.9565 82.8748C68.1065 82.9648 67.2265 83.0448 66.3365 83.0848C65.4465 83.1448 64.5365 83.1448 63.6365 83.1548C62.7265 83.1448 61.8265 83.1348 60.9365 83.0748C60.0465 83.0348 59.1665 82.9547 58.3165 82.8647C56.6165 82.6847 55.0365 82.4048 53.6765 82.0948C52.3165 81.7848 51.1865 81.4348 50.3965 81.1448C49.6065 80.8648 49.1465 80.6548 49.1465 80.6548Z" fill="#3C8936"/>
<path d="M63.6465 66.1548C63.6465 66.1548 63.8665 66.6048 64.1365 67.4048C64.4265 68.1948 64.7765 69.3348 65.0865 70.6848C65.3965 72.0448 65.6764 73.6248 65.8564 75.3248C65.9464 76.1748 66.0265 77.0548 66.0665 77.9448C66.1265 78.8348 66.1265 79.7448 66.1465 80.6448C66.1365 81.5548 66.1265 82.4548 66.0765 83.3448C66.0365 84.2348 65.9565 85.1148 65.8665 85.9648C65.6865 87.6648 65.4064 89.2448 65.0964 90.6048C64.7864 91.9648 64.4365 93.0948 64.1465 93.8848C63.8665 94.6748 63.6465 95.1348 63.6465 95.1348C63.6465 95.1348 63.4265 94.6848 63.1465 93.8848C62.8565 93.0948 62.5065 91.9548 62.1965 90.6048C61.8865 89.2448 61.6065 87.6648 61.4265 85.9648C61.3365 85.1148 61.2566 84.2348 61.2166 83.3448C61.1566 82.4548 61.1565 81.5448 61.1465 80.6448C61.1565 79.7348 61.1664 78.8348 61.2264 77.9448C61.2664 77.0548 61.3465 76.1748 61.4365 75.3248C61.6165 73.6248 61.8965 72.0448 62.2065 70.6848C62.5165 69.3248 62.8665 68.1948 63.1565 67.4048C63.4365 66.6148 63.6465 66.1548 63.6465 66.1548Z" fill="#3C8936"/>
<path d="M63.6465 86.3448C66.789 86.3448 69.3365 83.7973 69.3365 80.6548C69.3365 77.5123 66.789 74.9648 63.6465 74.9648C60.504 74.9648 57.9565 77.5123 57.9565 80.6548C57.9565 83.7973 60.504 86.3448 63.6465 86.3448Z" fill="white" stroke="#3C8936" stroke-width="5" stroke-miterlimit="10"/>
<path d="M156.717 210.445C156.717 210.445 157.167 210.225 157.967 209.955C158.757 209.665 159.896 209.315 161.246 209.005C162.606 208.695 164.186 208.415 165.886 208.235C166.736 208.145 167.616 208.065 168.506 208.025C169.396 207.965 170.307 207.965 171.207 207.945C172.117 207.955 173.016 207.965 173.906 208.015C174.796 208.055 175.676 208.135 176.526 208.225C178.226 208.405 179.807 208.685 181.167 208.995C182.527 209.305 183.657 209.655 184.447 209.945C185.237 210.225 185.697 210.445 185.697 210.445C185.697 210.445 185.247 210.665 184.447 210.945C183.657 211.235 182.517 211.585 181.167 211.895C179.807 212.205 178.226 212.485 176.526 212.665C175.676 212.755 174.796 212.835 173.906 212.875C173.016 212.935 172.107 212.935 171.207 212.945C170.297 212.935 169.396 212.925 168.506 212.865C167.616 212.825 166.736 212.745 165.886 212.655C164.186 212.475 162.606 212.195 161.246 211.885C159.886 211.575 158.757 211.225 157.967 210.935C157.177 210.655 156.717 210.445 156.717 210.445Z" fill="#3C8936"/>
<path d="M171.207 195.955C171.207 195.955 171.427 196.405 171.697 197.205C171.987 197.995 172.336 199.135 172.646 200.485C172.956 201.845 173.237 203.425 173.417 205.125C173.507 205.975 173.586 206.855 173.626 207.745C173.686 208.635 173.687 209.545 173.707 210.445C173.697 211.355 173.686 212.255 173.636 213.145C173.596 214.035 173.517 214.915 173.427 215.765C173.247 217.465 172.966 219.045 172.656 220.405C172.346 221.765 171.997 222.895 171.707 223.685C171.427 224.475 171.207 224.935 171.207 224.935C171.207 224.935 170.987 224.485 170.707 223.685C170.417 222.895 170.066 221.755 169.756 220.405C169.446 219.045 169.166 217.465 168.986 215.765C168.896 214.915 168.816 214.035 168.776 213.145C168.716 212.255 168.717 211.345 168.707 210.445C168.717 209.535 168.726 208.635 168.786 207.745C168.826 206.855 168.906 205.975 168.996 205.125C169.176 203.425 169.456 201.845 169.766 200.485C170.076 199.125 170.427 197.995 170.717 197.205C170.997 196.415 171.207 195.955 171.207 195.955Z" fill="#3C8936"/>
<path d="M165.517 210.445C165.517 207.305 168.067 204.755 171.207 204.755C174.347 204.755 176.897 207.305 176.897 210.445C176.897 213.585 174.347 216.135 171.207 216.135C168.067 216.135 165.517 213.585 165.517 210.445Z" fill="white" stroke="#3C8936" stroke-width="5" stroke-miterlimit="10"/>
</svg>
