<svg width="261" height="261" viewBox="0 0 261 261" fill="none" xmlns="http://www.w3.org/2000/svg">
<path d="M34.2168 143.775C34.2168 143.775 34.6668 143.555 35.4668 143.285C36.2568 142.995 37.3968 142.645 38.7468 142.335C40.1068 142.025 41.6868 141.745 43.3868 141.565C44.2368 141.475 45.1168 141.395 46.0068 141.355C46.8968 141.295 47.8068 141.295 48.7068 141.275C49.6168 141.285 50.5168 141.295 51.4068 141.345C52.2968 141.385 53.1768 141.465 54.0268 141.555C55.7268 141.735 57.3068 142.015 58.6668 142.325C60.0268 142.635 61.1568 142.985 61.9468 143.275C62.7368 143.555 63.1968 143.775 63.1968 143.775C63.1968 143.775 62.7468 143.995 61.9468 144.275C61.1568 144.565 60.0168 144.915 58.6668 145.225C57.3068 145.535 55.7268 145.815 54.0268 145.995C53.1768 146.085 52.2968 146.165 51.4068 146.205C50.5168 146.265 49.6068 146.265 48.7068 146.275C47.7968 146.265 46.8968 146.255 46.0068 146.195C45.1168 146.155 44.2368 146.075 43.3868 145.985C41.6868 145.805 40.1068 145.525 38.7468 145.215C37.3868 144.905 36.2568 144.555 35.4668 144.265C34.6768 143.985 34.2168 143.775 34.2168 143.775Z" fill="#2D59B2"/>
<path d="M48.707 129.285C48.707 129.285 48.927 129.735 49.197 130.535C49.487 131.325 49.837 132.465 50.147 133.815C50.457 135.175 50.737 136.755 50.917 138.455C51.007 139.305 51.087 140.185 51.127 141.075C51.187 141.965 51.187 142.875 51.207 143.775C51.197 144.685 51.187 145.585 51.137 146.475C51.097 147.365 51.017 148.245 50.927 149.095C50.747 150.795 50.467 152.375 50.157 153.735C49.847 155.095 49.497 156.225 49.207 157.015C48.927 157.805 48.707 158.265 48.707 158.265C48.707 158.265 48.487 157.815 48.207 157.015C47.917 156.225 47.567 155.085 47.257 153.735C46.947 152.375 46.667 150.795 46.487 149.095C46.397 148.245 46.317 147.365 46.277 146.475C46.217 145.585 46.217 144.675 46.207 143.775C46.217 142.865 46.227 141.965 46.287 141.075C46.327 140.185 46.407 139.305 46.497 138.455C46.677 136.755 46.957 135.175 47.267 133.815C47.577 132.455 47.927 131.325 48.217 130.535C48.497 129.745 48.707 129.285 48.707 129.285Z" fill="#2D59B2"/>
<path d="M43.0166 143.775C43.0166 140.635 45.5666 138.085 48.7066 138.085C51.8466 138.085 54.3966 140.635 54.3966 143.775C54.3966 146.915 51.8466 149.465 48.7066 149.465C45.5666 149.465 43.0166 146.915 43.0166 143.775Z" fill="white" stroke="#2D59B2" stroke-width="5" stroke-miterlimit="10"/>
<path d="M198.627 77.155C198.627 77.155 199.077 76.935 199.877 76.665C200.667 76.375 201.807 76.025 203.157 75.715C204.517 75.405 206.097 75.125 207.797 74.945C208.647 74.855 209.527 74.775 210.417 74.735C211.307 74.675 212.217 74.675 213.117 74.655C214.027 74.665 214.927 74.675 215.817 74.725C216.707 74.765 217.587 74.845 218.437 74.935C220.137 75.115 221.717 75.395 223.077 75.705C224.437 76.015 225.567 76.365 226.357 76.655C227.147 76.935 227.607 77.155 227.607 77.155C227.607 77.155 227.157 77.375 226.357 77.655C225.567 77.945 224.427 78.295 223.077 78.605C221.717 78.915 220.137 79.195 218.437 79.375C217.587 79.465 216.707 79.545 215.817 79.585C214.927 79.645 214.017 79.645 213.117 79.655C212.207 79.645 211.307 79.635 210.417 79.575C209.527 79.535 208.647 79.455 207.797 79.365C206.097 79.185 204.517 78.905 203.157 78.595C201.797 78.285 200.667 77.935 199.877 77.645C199.087 77.365 198.627 77.155 198.627 77.155Z" fill="#2D59B2"/>
<path d="M213.117 62.665C213.117 62.665 213.337 63.115 213.607 63.915C213.897 64.705 214.247 65.845 214.557 67.195C214.867 68.555 215.147 70.135 215.327 71.835C215.417 72.685 215.497 73.565 215.537 74.455C215.597 75.345 215.597 76.255 215.617 77.155C215.607 78.065 215.597 78.965 215.547 79.855C215.507 80.745 215.427 81.625 215.337 82.475C215.157 84.175 214.877 85.755 214.567 87.115C214.257 88.475 213.907 89.605 213.617 90.395C213.337 91.185 213.117 91.645 213.117 91.645C213.117 91.645 212.897 91.195 212.617 90.395C212.327 89.605 211.977 88.465 211.667 87.115C211.357 85.755 211.077 84.175 210.897 82.475C210.807 81.625 210.727 80.745 210.687 79.855C210.627 78.965 210.627 78.055 210.617 77.155C210.627 76.245 210.637 75.345 210.697 74.455C210.737 73.565 210.817 72.685 210.907 71.835C211.087 70.135 211.367 68.555 211.677 67.195C211.987 65.835 212.337 64.705 212.627 63.915C212.907 63.125 213.117 62.665 213.117 62.665Z" fill="#2D59B2"/>
<path d="M207.427 77.1551C207.427 74.0151 209.977 71.4651 213.117 71.4651C216.257 71.4651 218.807 74.0151 218.807 77.1551C218.807 80.2951 216.257 82.8451 213.117 82.8451C209.977 82.8451 207.427 80.2951 207.427 77.1551Z" fill="white" stroke="#2D59B2" stroke-width="5" stroke-miterlimit="10"/>
<path d="M181.997 74.855H81.9268C77.2655 74.855 73.4868 78.6337 73.4868 83.295V157.935C73.4868 162.596 77.2655 166.375 81.9268 166.375H181.997C186.658 166.375 190.437 162.596 190.437 157.935V83.295C190.437 78.6337 186.658 74.855 181.997 74.855Z" fill="white" stroke="#2D59B2" stroke-width="5" stroke-miterlimit="10"/>
<path d="M195.007 197.395H68.9168C64.2468 197.395 61.1568 192.535 63.1468 188.305L73.4768 166.385H190.427L200.757 188.305C202.747 192.535 199.667 197.395 194.987 197.395H195.007Z" fill="white" stroke="#2D59B2" stroke-width="5" stroke-miterlimit="10"/>
<path d="M186.827 180.605H77.9668L80.8968 173.305H183.897L186.827 180.605Z" fill="#2D59B2"/>
<path d="M189.747 190.465H75.0469L77.9669 183.165H186.827L189.747 190.465Z" fill="#2D59B2"/>
<path d="M179.247 86.225H85.0068V155.265H179.247V86.225Z" fill="#4E9CF9" stroke="#2D59B2" stroke-width="5" stroke-miterlimit="10"/>
<path d="M131.967 144.975C145.586 144.975 156.627 133.934 156.627 120.315C156.627 106.696 145.586 95.655 131.967 95.655C118.347 95.655 107.307 106.696 107.307 120.315C107.307 133.934 118.347 144.975 131.967 144.975Z" fill="white" stroke="#2D59B2" stroke-width="5" stroke-miterlimit="10"/>
<path d="M120.217 116.335H144.657" stroke="#2D59B2" stroke-width="5" stroke-miterlimit="10"/>
<path d="M120.217 124.185H144.657" stroke="#2D59B2" stroke-width="5" stroke-miterlimit="10"/>
</svg>
