<svg width="261" height="261" viewBox="0 0 261 261" fill="none" xmlns="http://www.w3.org/2000/svg">
<path d="M47.1885 71.225C47.1885 71.225 47.6385 71.005 48.4385 70.735C49.2285 70.445 50.3684 70.095 51.7184 69.785C53.0784 69.475 54.6584 69.195 56.3584 69.015C57.2084 68.925 58.0884 68.845 58.9784 68.805C59.8684 68.745 60.7785 68.745 61.6785 68.725C62.5885 68.735 63.4884 68.745 64.3784 68.795C65.2684 68.835 66.1484 68.915 66.9984 69.005C68.6984 69.185 70.2784 69.465 71.6384 69.775C72.9984 70.085 74.1285 70.435 74.9185 70.725C75.7085 71.005 76.1685 71.225 76.1685 71.225C76.1685 71.225 75.7185 71.445 74.9185 71.725C74.1285 72.015 72.9884 72.365 71.6384 72.675C70.2784 72.985 68.6984 73.265 66.9984 73.445C66.1484 73.535 65.2684 73.615 64.3784 73.655C63.4884 73.715 62.5785 73.715 61.6785 73.725C60.7685 73.715 59.8684 73.705 58.9784 73.645C58.0884 73.605 57.2084 73.525 56.3584 73.435C54.6584 73.255 53.0784 72.975 51.7184 72.665C50.3584 72.355 49.2285 72.005 48.4385 71.715C47.6485 71.435 47.1885 71.225 47.1885 71.225Z" fill="#3C8936"/>
<path d="M61.6785 56.735C61.6785 56.735 61.8985 57.185 62.1685 57.985C62.4585 58.775 62.8084 59.915 63.1184 61.265C63.4284 62.625 63.7084 64.205 63.8884 65.905C63.9784 66.755 64.0584 67.635 64.0984 68.525C64.1584 69.415 64.1585 70.325 64.1785 71.225C64.1685 72.135 64.1584 73.035 64.1084 73.925C64.0684 74.815 63.9884 75.695 63.8984 76.545C63.7184 78.245 63.4384 79.825 63.1284 81.185C62.8184 82.545 62.4685 83.675 62.1785 84.465C61.8985 85.255 61.6785 85.715 61.6785 85.715C61.6785 85.715 61.4585 85.265 61.1785 84.465C60.8885 83.675 60.5384 82.535 60.2284 81.185C59.9184 79.825 59.6385 78.245 59.4585 76.545C59.3685 75.695 59.2884 74.815 59.2484 73.925C59.1884 73.035 59.1885 72.125 59.1785 71.225C59.1885 70.315 59.1984 69.415 59.2584 68.525C59.2984 67.635 59.3784 66.755 59.4684 65.905C59.6484 64.205 59.9284 62.625 60.2384 61.265C60.5484 59.905 60.8985 58.775 61.1885 57.985C61.4685 57.195 61.6785 56.735 61.6785 56.735Z" fill="#3C8936"/>
<path d="M61.6783 76.915C64.8208 76.915 67.3683 74.3675 67.3683 71.225C67.3683 68.0825 64.8208 65.535 61.6783 65.535C58.5358 65.535 55.9883 68.0825 55.9883 71.225C55.9883 74.3675 58.5358 76.915 61.6783 76.915Z" fill="white" stroke="#3C8936" stroke-width="5" stroke-miterlimit="10"/>
<path d="M201.208 214.845C201.208 214.845 201.658 214.625 202.458 214.355C203.248 214.065 204.388 213.715 205.738 213.405C207.098 213.095 208.678 212.815 210.378 212.635C211.228 212.545 212.108 212.465 212.998 212.425C213.888 212.365 214.798 212.365 215.698 212.345C216.608 212.355 217.508 212.365 218.398 212.415C219.288 212.455 220.168 212.535 221.018 212.625C222.718 212.805 224.298 213.085 225.658 213.395C227.018 213.705 228.148 214.055 228.938 214.345C229.728 214.625 230.188 214.845 230.188 214.845C230.188 214.845 229.738 215.065 228.938 215.345C228.148 215.635 227.008 215.985 225.658 216.295C224.298 216.605 222.718 216.885 221.018 217.065C220.168 217.155 219.288 217.235 218.398 217.275C217.508 217.335 216.598 217.335 215.698 217.345C214.788 217.335 213.888 217.325 212.998 217.265C212.108 217.225 211.228 217.145 210.378 217.055C208.678 216.875 207.098 216.595 205.738 216.285C204.378 215.975 203.248 215.625 202.458 215.335C201.668 215.055 201.208 214.845 201.208 214.845Z" fill="#3C8936"/>
<path d="M215.708 200.345C215.708 200.345 215.928 200.795 216.198 201.595C216.488 202.385 216.838 203.525 217.148 204.875C217.458 206.235 217.738 207.815 217.918 209.515C218.008 210.365 218.088 211.245 218.128 212.135C218.188 213.025 218.188 213.935 218.208 214.835C218.198 215.745 218.188 216.645 218.138 217.535C218.098 218.425 218.018 219.305 217.928 220.155C217.748 221.855 217.468 223.435 217.158 224.795C216.848 226.155 216.498 227.285 216.208 228.075C215.928 228.865 215.708 229.325 215.708 229.325C215.708 229.325 215.488 228.875 215.208 228.075C214.918 227.285 214.568 226.145 214.258 224.795C213.948 223.435 213.668 221.855 213.488 220.155C213.398 219.305 213.318 218.425 213.278 217.535C213.218 216.645 213.218 215.735 213.208 214.835C213.218 213.925 213.228 213.025 213.288 212.135C213.328 211.245 213.408 210.365 213.498 209.515C213.678 207.815 213.958 206.235 214.268 204.875C214.578 203.515 214.928 202.385 215.218 201.595C215.498 200.805 215.708 200.345 215.708 200.345Z" fill="#3C8936"/>
<path d="M215.709 220.535C218.851 220.535 221.399 217.988 221.399 214.845C221.399 211.703 218.851 209.155 215.709 209.155C212.566 209.155 210.019 211.703 210.019 214.845C210.019 217.988 212.566 220.535 215.709 220.535Z" fill="white" stroke="#3C8936" stroke-width="5" stroke-miterlimit="10"/>
<path d="M44.8286 184.695H82.2086V99.915H66.6285C64.9385 99.915 63.0685 100.345 60.9885 101.175C58.9085 102.025 57.2586 103.055 56.0286 104.285L39.6185 121.115C38.3785 122.345 37.3485 124.005 36.5085 126.085C35.6585 128.165 35.2385 130.035 35.2385 131.735V183.115H44.8386V184.695M75.0386 134.855H44.8386V131.935C44.9686 131.285 45.2585 130.575 45.7185 129.795L64.6986 110.815C65.2186 110.365 65.9286 110.065 66.8386 109.945H75.0486V134.865L75.0386 134.855Z" fill="#85EF7F"/>
<path d="M44.8286 184.695H82.2086V99.915H66.6285C64.9385 99.915 63.0685 100.345 60.9885 101.175C58.9085 102.025 57.2586 103.055 56.0286 104.285L39.6185 121.115C38.3785 122.345 37.3485 124.005 36.5085 126.085C35.6585 128.165 35.2385 130.035 35.2385 131.735V183.115H44.8386V184.695M75.0386 134.855H44.8386V131.935C44.9686 131.285 45.2585 130.575 45.7185 129.795L64.6986 110.815C65.2186 110.365 65.9286 110.065 66.8386 109.945H75.0486V134.865L75.0386 134.855Z" stroke="#3C8936" stroke-width="5" stroke-miterlimit="10"/>
<path d="M217.279 78.955C216.049 77.725 214.589 77.105 212.899 77.105H88.2986C86.6086 77.105 85.1486 77.725 83.9186 78.955C82.6886 80.185 82.0686 81.645 82.0686 83.335V184.695H212.899C214.589 184.695 216.049 184.075 217.279 182.845C218.509 181.605 219.129 180.155 219.129 178.465V83.335C219.129 81.645 218.509 80.195 217.279 78.955Z" fill="#85EF7F" stroke="#3C8936" stroke-width="5" stroke-miterlimit="10"/>
<path d="M75.4487 146.275C75.4487 147.175 74.7187 147.905 73.8187 147.905H61.2286C60.3286 147.905 59.5986 147.175 59.5986 146.275C59.5986 145.375 60.3286 144.645 61.2286 144.645H73.8187C74.7187 144.645 75.4487 145.375 75.4487 146.275Z" fill="#85EF7F" stroke="#3C8936" stroke-width="5" stroke-miterlimit="10"/>
<path d="M180.369 127.265C180.369 144.755 166.189 158.935 148.699 158.935C131.209 158.935 117.029 144.755 117.029 127.265C117.029 109.775 131.209 95.595 148.699 95.595C166.189 95.595 180.369 109.775 180.369 127.265Z" fill="white" stroke="#3C8936" stroke-width="5" stroke-miterlimit="10"/>
<path d="M165.309 121.725H154.239V110.645C154.239 109.775 153.529 109.065 152.659 109.065H144.749C143.879 109.065 143.169 109.775 143.169 110.645V121.725H132.099C131.219 121.725 130.519 122.435 130.519 123.305V131.205C130.519 132.075 131.229 132.785 132.099 132.785H143.169V143.865C143.169 144.745 143.879 145.445 144.749 145.445H152.659C153.529 145.445 154.239 144.735 154.239 143.865V132.785H165.309C166.189 132.785 166.889 132.075 166.889 131.205V123.305C166.889 122.425 166.179 121.725 165.309 121.725Z" fill="white" stroke="#3C8936" stroke-width="5" stroke-miterlimit="10"/>
<path d="M223.129 181.575C223.129 183.295 221.729 184.695 220.009 184.695H34.3386C32.6186 184.695 31.2185 183.305 31.2185 181.575C31.2185 179.855 32.6086 178.465 34.3386 178.465H220.009C221.729 178.465 223.129 179.855 223.129 181.575Z" fill="#85EF7F" stroke="#3C8936" stroke-width="5" stroke-miterlimit="10"/>
<path d="M104.778 183.115C104.778 194.695 95.3885 204.075 83.8185 204.075C72.2485 204.075 62.8584 194.695 62.8584 183.115C62.8584 171.535 72.2485 162.155 83.8185 162.155C95.3885 162.155 104.778 171.545 104.778 183.115Z" fill="#85EF7F" stroke="#3C8936" stroke-width="5" stroke-miterlimit="10"/>
<path d="M98.3086 183.115C98.3086 191.115 91.8186 197.605 83.8186 197.605C75.8186 197.605 69.3286 191.115 69.3286 183.115C69.3286 175.115 75.8186 168.625 83.8186 168.625C91.8186 168.625 98.3086 175.115 98.3086 183.115Z" fill="#85EF7F" stroke="#3C8936" stroke-width="5" stroke-miterlimit="10"/>
<path d="M88.5886 183.115C88.5886 185.755 86.4486 187.885 83.8086 187.885C81.1686 187.885 79.0386 185.745 79.0386 183.115C79.0386 180.485 81.1786 178.335 83.8086 178.335C86.4386 178.335 88.5886 180.475 88.5886 183.115Z" fill="#85EF7F" stroke="#3C8936" stroke-width="5" stroke-miterlimit="10"/>
<path d="M201.288 183.115C201.288 194.695 191.898 204.075 180.328 204.075C168.758 204.075 159.368 194.695 159.368 183.115C159.368 171.535 168.758 162.155 180.328 162.155C191.898 162.155 201.288 171.545 201.288 183.115Z" fill="#85EF7F" stroke="#3C8936" stroke-width="5" stroke-miterlimit="10"/>
<path d="M194.809 183.115C194.809 191.115 188.319 197.605 180.319 197.605C172.319 197.605 165.829 191.115 165.829 183.115C165.829 175.115 172.319 168.625 180.319 168.625C188.319 168.625 194.809 175.115 194.809 183.115Z" fill="#85EF7F" stroke="#3C8936" stroke-width="5" stroke-miterlimit="10"/>
<path d="M185.098 183.115C185.098 185.755 182.958 187.885 180.318 187.885C177.678 187.885 175.548 185.745 175.548 183.115C175.548 180.485 177.688 178.335 180.318 178.335C182.948 178.335 185.098 180.475 185.098 183.115Z" fill="#85EF7F" stroke="#3C8936" stroke-width="5" stroke-miterlimit="10"/>
</svg>
