<svg width="261" height="261" viewBox="0 0 261 261" fill="none" xmlns="http://www.w3.org/2000/svg">
<path d="M167.179 52.8317L113.011 67.3867L146.895 193.494L201.064 178.939L167.179 52.8317Z" fill="#85EF7F" stroke="#3C8936" stroke-width="5" stroke-miterlimit="10"/>
<path d="M176.587 145.138C176.707 145.018 176.757 144.878 176.747 144.728C176.737 144.578 176.657 144.458 176.517 144.378L174.557 143.268C174.197 143.058 173.807 143.058 173.407 143.268L161.567 150.018C161.197 150.238 160.817 150.238 160.417 150.018L153.607 146.148C153.247 145.938 152.857 145.818 152.447 145.778C151.207 145.598 150.317 145.838 149.797 146.508C149.697 146.598 149.617 146.698 149.557 146.808C149.497 146.918 149.437 147.058 149.397 147.218C149.377 147.258 149.357 147.308 149.347 147.368C149.337 147.428 149.327 147.508 149.317 147.608C149.247 147.908 149.277 148.228 149.407 148.598C149.537 148.958 149.677 149.258 149.837 149.488L150.127 149.868C150.387 150.158 150.707 150.418 151.067 150.618L157.877 154.488C158.277 154.718 158.477 155.048 158.467 155.478L158.727 169.108C158.757 169.558 158.957 169.888 159.317 170.098L161.277 171.208C161.427 171.288 161.567 171.298 161.697 171.228C161.827 171.158 161.917 171.048 161.967 170.878L164.427 158.938C164.427 158.748 164.517 158.628 164.667 158.568C164.817 158.508 164.967 158.528 165.117 158.608L170.407 161.608C170.807 161.838 171.037 162.158 171.087 162.568L171.297 164.488C171.347 164.898 171.577 165.228 171.977 165.448L173.287 166.188C173.437 166.268 173.577 166.278 173.707 166.208C173.837 166.138 173.937 166.028 173.977 165.858L174.917 161.918C175.017 161.488 175.217 161.128 175.537 160.828L178.437 158.008C178.557 157.888 178.607 157.748 178.597 157.598C178.587 157.448 178.507 157.328 178.367 157.248L177.057 156.508C176.657 156.278 176.267 156.248 175.887 156.418L174.127 157.218C173.747 157.388 173.357 157.358 172.957 157.128L167.667 154.128C167.487 154.028 167.387 153.898 167.377 153.748C167.367 153.598 167.437 153.468 167.597 153.368L176.597 145.148L176.587 145.138Z" fill="#3C8936"/>
<path d="M148.687 136.078L144.977 122.608" stroke="#3C8936" stroke-width="5" stroke-miterlimit="10"/>
<path d="M159.737 133.038L151.557 103.328" stroke="#3C8936" stroke-width="5" stroke-miterlimit="10"/>
<path d="M170.797 129.988L162.617 100.278" stroke="#3C8936" stroke-width="5" stroke-miterlimit="10"/>
<path d="M121.887 100.488L124.297 99.8279" stroke="#3C8936" stroke-width="5" stroke-miterlimit="10"/>
<path d="M128.777 98.588L171.327 86.8779" stroke="#3C8936" stroke-width="5" stroke-miterlimit="10"/>
<path d="M173.567 86.2579L175.977 85.5979" stroke="#3C8936" stroke-width="5" stroke-miterlimit="10"/>
<path d="M135.076 86.6379L130.876 71.3979" stroke="#3C8936" stroke-width="5" stroke-miterlimit="10"/>
<path d="M142.637 84.5579L138.437 69.3079" stroke="#3C8936" stroke-width="5" stroke-miterlimit="10"/>
<path d="M150.197 82.478L145.997 67.228" stroke="#3C8936" stroke-width="5" stroke-miterlimit="10"/>
<path d="M157.757 80.3979L153.557 65.1479" stroke="#3C8936" stroke-width="5" stroke-miterlimit="10"/>
<path d="M150.59 63.2171L94.5015 62.8745L93.7038 193.452L149.793 193.795L150.59 63.2171Z" fill="white" stroke="#3C8936" stroke-width="5" stroke-miterlimit="10"/>
<path d="M135.136 154.738C135.286 154.648 135.376 154.528 135.406 154.388C135.436 154.238 135.396 154.108 135.276 153.988L133.676 152.388C133.376 152.088 133.016 151.988 132.566 152.078L119.356 155.448C118.946 155.568 118.576 155.458 118.246 155.138L112.706 149.598C112.406 149.298 112.066 149.078 111.686 148.938C110.536 148.438 109.616 148.438 108.936 148.938C108.816 148.998 108.716 149.068 108.626 149.158C108.536 149.248 108.446 149.368 108.356 149.508C108.326 149.538 108.296 149.578 108.266 149.638C108.236 149.698 108.206 149.768 108.176 149.858C108.026 150.128 107.966 150.448 107.996 150.838C108.026 151.218 108.086 151.548 108.176 151.808L108.356 152.248C108.536 152.598 108.766 152.928 109.066 153.218L114.606 158.758C114.926 159.088 115.036 159.448 114.916 159.868L111.546 173.078C111.456 173.518 111.556 173.888 111.856 174.188L113.456 175.788C113.576 175.908 113.706 175.948 113.856 175.918C114.006 175.888 114.126 175.798 114.206 175.648L119.746 164.788C119.806 164.608 119.916 164.518 120.076 164.498C120.236 164.488 120.376 164.538 120.496 164.658L124.796 168.958C125.126 169.278 125.256 169.648 125.196 170.068L124.886 171.978C124.826 172.388 124.956 172.758 125.286 173.088L126.346 174.148C126.466 174.268 126.596 174.308 126.746 174.278C126.896 174.248 127.016 174.158 127.096 174.008L129.046 170.458C129.256 170.078 129.546 169.778 129.936 169.568L133.486 167.618C133.636 167.528 133.726 167.408 133.756 167.268C133.786 167.118 133.746 166.988 133.626 166.868L132.566 165.808C132.236 165.478 131.876 165.348 131.456 165.408L129.546 165.718C129.136 165.778 128.766 165.648 128.436 165.318L124.136 161.018C123.986 160.868 123.926 160.718 123.956 160.578C123.986 160.428 124.086 160.328 124.266 160.268L135.126 154.728L135.136 154.738Z" fill="#3C8936"/>
<path d="M110.636 138.588V124.618" stroke="#3C8936" stroke-width="5" stroke-miterlimit="10"/>
<path d="M122.106 138.588V107.778" stroke="#3C8936" stroke-width="5" stroke-miterlimit="10"/>
<path d="M133.566 138.588V107.778" stroke="#3C8936" stroke-width="5" stroke-miterlimit="10"/>
<path d="M94.2563 97.1677H96.7563" stroke="#3C8936" stroke-width="5" stroke-miterlimit="10"/>
<path d="M101.396 97.1677H145.536" stroke="#3C8936" stroke-width="5" stroke-miterlimit="10"/>
<path d="M147.856 97.1677H150.356" stroke="#3C8936" stroke-width="5" stroke-miterlimit="10"/>
<path d="M110.637 87.3178V71.4978" stroke="#3C8936" stroke-width="5" stroke-miterlimit="10"/>
<path d="M118.486 87.3178V71.4978" stroke="#3C8936" stroke-width="5" stroke-miterlimit="10"/>
<path d="M126.327 87.3178V71.4978" stroke="#3C8936" stroke-width="5" stroke-miterlimit="10"/>
<path d="M134.167 87.3178V71.4978" stroke="#3C8936" stroke-width="5" stroke-miterlimit="10"/>
<path d="M192.466 213.558C192.466 213.558 192.916 213.338 193.716 213.068C194.506 212.778 195.646 212.428 196.996 212.118C198.356 211.808 199.936 211.528 201.636 211.348C202.486 211.258 203.366 211.178 204.256 211.138C205.146 211.078 206.056 211.078 206.956 211.058C207.866 211.068 208.766 211.078 209.656 211.128C210.546 211.168 211.426 211.248 212.276 211.338C213.976 211.518 215.556 211.798 216.916 212.108C218.276 212.418 219.406 212.768 220.196 213.058C220.986 213.338 221.446 213.558 221.446 213.558C221.446 213.558 220.996 213.778 220.196 214.058C219.406 214.348 218.266 214.698 216.916 215.008C215.556 215.318 213.976 215.598 212.276 215.778C211.426 215.868 210.546 215.948 209.656 215.988C208.766 216.048 207.856 216.048 206.956 216.058C206.046 216.048 205.146 216.038 204.256 215.978C203.366 215.938 202.486 215.858 201.636 215.768C199.936 215.588 198.356 215.308 196.996 214.998C195.636 214.688 194.506 214.338 193.716 214.048C192.926 213.768 192.466 213.558 192.466 213.558Z" fill="#3C8936"/>
<path d="M206.966 199.068C206.966 199.068 207.186 199.518 207.456 200.318C207.746 201.108 208.096 202.248 208.406 203.598C208.716 204.958 208.996 206.538 209.176 208.238C209.266 209.088 209.346 209.968 209.386 210.858C209.446 211.748 209.446 212.658 209.466 213.558C209.456 214.468 209.446 215.368 209.396 216.258C209.356 217.148 209.276 218.028 209.186 218.878C209.006 220.578 208.726 222.158 208.416 223.518C208.106 224.878 207.756 226.008 207.466 226.798C207.186 227.588 206.966 228.048 206.966 228.048C206.966 228.048 206.746 227.598 206.466 226.798C206.176 226.008 205.826 224.868 205.516 223.518C205.206 222.158 204.926 220.578 204.746 218.878C204.656 218.028 204.576 217.148 204.536 216.258C204.476 215.368 204.476 214.458 204.466 213.558C204.476 212.648 204.486 211.748 204.546 210.858C204.586 209.968 204.666 209.088 204.756 208.238C204.936 206.538 205.216 204.958 205.526 203.598C205.836 202.238 206.186 201.108 206.476 200.318C206.756 199.528 206.966 199.068 206.966 199.068Z" fill="#3C8936"/>
<path d="M206.966 219.248C210.109 219.248 212.656 216.7 212.656 213.558C212.656 210.415 210.109 207.868 206.966 207.868C203.824 207.868 201.276 210.415 201.276 213.558C201.276 216.7 203.824 219.248 206.966 219.248Z" fill="white" stroke="#3C8936" stroke-width="5" stroke-miterlimit="10"/>
<path d="M34.3765 76.1379C34.3765 76.1379 34.8265 75.9179 35.6265 75.6479C36.4165 75.3579 37.5565 75.0079 38.9065 74.6979C40.2665 74.3879 41.8464 74.108 43.5464 73.928C44.3964 73.838 45.2765 73.758 46.1665 73.718C47.0565 73.658 47.9665 73.6579 48.8665 73.6379C49.7765 73.6479 50.6765 73.6579 51.5665 73.7079C52.4565 73.7479 53.3365 73.828 54.1865 73.918C55.8865 74.098 57.4665 74.3779 58.8265 74.6879C60.1865 74.9979 61.3165 75.3479 62.1065 75.6379C62.8965 75.9179 63.3565 76.1379 63.3565 76.1379C63.3565 76.1379 62.9065 76.3579 62.1065 76.6379C61.3165 76.9279 60.1765 77.278 58.8265 77.588C57.4665 77.898 55.8865 78.178 54.1865 78.358C53.3365 78.448 52.4565 78.5279 51.5665 78.5679C50.6765 78.6279 49.7665 78.6279 48.8665 78.6379C47.9565 78.6279 47.0565 78.6179 46.1665 78.5579C45.2765 78.5179 44.3964 78.438 43.5464 78.348C41.8464 78.168 40.2665 77.8879 38.9065 77.5779C37.5465 77.2679 36.4165 76.9179 35.6265 76.6279C34.8365 76.3479 34.3765 76.1379 34.3765 76.1379Z" fill="#3C8936"/>
<path d="M48.8765 61.6379C48.8765 61.6379 49.0965 62.0879 49.3665 62.8879C49.6565 63.6779 50.0065 64.818 50.3165 66.168C50.6265 67.528 50.9065 69.1079 51.0865 70.8079C51.1765 71.6579 51.2564 72.538 51.2964 73.428C51.3564 74.318 51.3565 75.2279 51.3765 76.1279C51.3665 77.0379 51.3565 77.9379 51.3065 78.8279C51.2665 79.7179 51.1865 80.5979 51.0965 81.4479C50.9165 83.1479 50.6365 84.728 50.3265 86.088C50.0165 87.448 49.6665 88.5779 49.3765 89.3679C49.0965 90.1579 48.8765 90.6179 48.8765 90.6179C48.8765 90.6179 48.6565 90.1679 48.3765 89.3679C48.0865 88.5779 47.7365 87.438 47.4265 86.088C47.1165 84.728 46.8365 83.1479 46.6565 81.4479C46.5665 80.5979 46.4865 79.7179 46.4465 78.8279C46.3865 77.9379 46.3865 77.0279 46.3765 76.1279C46.3865 75.2179 46.3965 74.318 46.4565 73.428C46.4965 72.538 46.5765 71.6579 46.6665 70.8079C46.8465 69.1079 47.1265 67.528 47.4365 66.168C47.7465 64.808 48.0965 63.6779 48.3865 62.8879C48.6665 62.0979 48.8765 61.6379 48.8765 61.6379Z" fill="#3C8936"/>
<path d="M48.8765 81.828C52.019 81.828 54.5665 79.2805 54.5665 76.138C54.5665 72.9955 52.019 70.448 48.8765 70.448C45.734 70.448 43.1865 72.9955 43.1865 76.138C43.1865 79.2805 45.734 81.828 48.8765 81.828Z" fill="white" stroke="#3C8936" stroke-width="5" stroke-miterlimit="10"/>
</svg>
