<svg width="261" height="261" viewBox="0 0 261 261" fill="none" xmlns="http://www.w3.org/2000/svg">
<path d="M104.04 165.185H28.1396V177.225H104.04V165.185Z" fill="#F7674F" stroke="#A52A21" stroke-width="5" stroke-miterlimit="10"/>
<path d="M104.04 142.455H51.1497V154.495H104.04V142.455Z" fill="#F7674F" stroke="#A52A21" stroke-width="5" stroke-miterlimit="10"/>
<path d="M104.04 152.695H51.1497V164.735H104.04V152.695Z" fill="#F7674F" stroke="#A52A21" stroke-width="5" stroke-miterlimit="10"/>
<path d="M104.04 130.415H41.3796V142.455H104.04V130.415Z" fill="#F7674F" stroke="#A52A21" stroke-width="5" stroke-miterlimit="10"/>
<path d="M41.3796 136.435H104.04" stroke="#A52A21" stroke-width="5" stroke-miterlimit="10"/>
<path d="M63.7697 130.415H54.9897V142.455H63.7697V130.415Z" fill="white" stroke="#A52A21" stroke-width="5" stroke-miterlimit="10"/>
<path d="M204.84 189.255C204.84 189.255 205.29 189.035 206.09 188.765C206.88 188.475 208.02 188.125 209.37 187.815C210.73 187.505 212.31 187.225 214.01 187.045C214.86 186.955 215.74 186.875 216.63 186.835C217.52 186.775 218.43 186.775 219.33 186.755C220.24 186.765 221.14 186.775 222.03 186.825C222.92 186.865 223.8 186.945 224.65 187.035C226.35 187.215 227.93 187.495 229.29 187.805C230.65 188.115 231.78 188.465 232.57 188.755C233.36 189.035 233.82 189.255 233.82 189.255C233.82 189.255 233.37 189.475 232.57 189.755C231.78 190.045 230.64 190.395 229.29 190.705C227.93 191.015 226.35 191.295 224.65 191.475C223.8 191.565 222.92 191.645 222.03 191.685C221.14 191.745 220.23 191.745 219.33 191.755C218.42 191.745 217.52 191.735 216.63 191.675C215.74 191.635 214.86 191.555 214.01 191.465C212.31 191.285 210.73 191.005 209.37 190.695C208.01 190.385 206.88 190.035 206.09 189.745C205.3 189.465 204.84 189.255 204.84 189.255Z" fill="#A52A21"/>
<path d="M219.34 174.755C219.34 174.755 219.56 175.205 219.83 176.005C220.12 176.795 220.47 177.935 220.78 179.285C221.09 180.645 221.37 182.225 221.55 183.925C221.64 184.775 221.72 185.655 221.76 186.545C221.82 187.435 221.82 188.345 221.84 189.245C221.83 190.155 221.82 191.055 221.77 191.945C221.73 192.835 221.65 193.715 221.56 194.565C221.38 196.265 221.1 197.845 220.79 199.205C220.48 200.565 220.13 201.695 219.84 202.485C219.56 203.275 219.34 203.735 219.34 203.735C219.34 203.735 219.12 203.285 218.84 202.485C218.55 201.695 218.2 200.555 217.89 199.205C217.58 197.845 217.3 196.265 217.12 194.565C217.03 193.715 216.95 192.835 216.91 191.945C216.85 191.055 216.85 190.145 216.84 189.245C216.85 188.335 216.86 187.435 216.92 186.545C216.96 185.655 217.04 184.775 217.13 183.925C217.31 182.225 217.59 180.645 217.9 179.285C218.21 177.925 218.56 176.795 218.85 176.005C219.13 175.215 219.34 174.755 219.34 174.755Z" fill="#A52A21"/>
<path d="M219.339 194.945C222.482 194.945 225.029 192.398 225.029 189.255C225.029 186.113 222.482 183.565 219.339 183.565C216.197 183.565 213.649 186.113 213.649 189.255C213.649 192.398 216.197 194.945 219.339 194.945Z" fill="white" stroke="#A52A21" stroke-width="5" stroke-miterlimit="10"/>
<path d="M41.8296 76.8251C41.8296 76.8251 42.2796 76.6051 43.0796 76.3351C43.8696 76.0451 45.0096 75.6951 46.3596 75.3851C47.7196 75.0751 49.2996 74.7951 50.9996 74.6151C51.8496 74.5251 52.7296 74.4451 53.6196 74.4051C54.5096 74.3451 55.4196 74.3451 56.3196 74.3251C57.2296 74.3351 58.1296 74.3451 59.0196 74.3951C59.9096 74.4351 60.7896 74.5151 61.6396 74.6051C63.3396 74.7851 64.9196 75.0651 66.2796 75.3751C67.6396 75.6851 68.7696 76.0351 69.5596 76.3251C70.3496 76.6051 70.8096 76.8251 70.8096 76.8251C70.8096 76.8251 70.3596 77.0451 69.5596 77.3251C68.7696 77.6151 67.6296 77.9651 66.2796 78.2751C64.9196 78.5851 63.3396 78.8651 61.6396 79.0451C60.7896 79.1351 59.9096 79.2151 59.0196 79.2551C58.1296 79.3151 57.2196 79.3151 56.3196 79.3251C55.4096 79.3151 54.5096 79.3051 53.6196 79.2451C52.7296 79.2051 51.8496 79.1251 50.9996 79.0351C49.2996 78.8551 47.7196 78.5751 46.3596 78.2651C44.9996 77.9551 43.8696 77.6051 43.0796 77.3151C42.2896 77.0351 41.8296 76.8251 41.8296 76.8251Z" fill="#A52A21"/>
<path d="M56.3296 62.3251C56.3296 62.3251 56.5496 62.7751 56.8196 63.5751C57.1096 64.3651 57.4596 65.5051 57.7696 66.8551C58.0796 68.2151 58.3596 69.7951 58.5396 71.4951C58.6296 72.3451 58.7096 73.2251 58.7496 74.1151C58.8096 75.0051 58.8096 75.9151 58.8296 76.8151C58.8196 77.7251 58.8096 78.6251 58.7596 79.5151C58.7196 80.4051 58.6396 81.2851 58.5496 82.1351C58.3696 83.8351 58.0896 85.4151 57.7796 86.7751C57.4696 88.1351 57.1196 89.2651 56.8296 90.0551C56.5496 90.8451 56.3296 91.3051 56.3296 91.3051C56.3296 91.3051 56.1096 90.8551 55.8296 90.0551C55.5396 89.2651 55.1896 88.1251 54.8796 86.7751C54.5696 85.4151 54.2896 83.8351 54.1096 82.1351C54.0196 81.2851 53.9396 80.4051 53.8996 79.5151C53.8396 78.6251 53.8396 77.7151 53.8296 76.8151C53.8396 75.9051 53.8496 75.0051 53.9096 74.1151C53.9496 73.2251 54.0296 72.3451 54.1196 71.4951C54.2996 69.7951 54.5796 68.2151 54.8896 66.8551C55.1996 65.4951 55.5496 64.3651 55.8396 63.5751C56.1196 62.7851 56.3296 62.3251 56.3296 62.3251Z" fill="#A52A21"/>
<path d="M56.3297 82.5151C59.4722 82.5151 62.0197 79.9676 62.0197 76.8251C62.0197 73.6826 59.4722 71.1351 56.3297 71.1351C53.1872 71.1351 50.6396 73.6826 50.6396 76.8251C50.6396 79.9676 53.1872 82.5151 56.3297 82.5151Z" fill="white" stroke="#A52A21" stroke-width="5" stroke-miterlimit="10"/>
<path d="M109.89 99.9751C113.36 99.9751 116.17 102.785 116.17 106.255V122.815H103.61V106.255C103.61 102.785 106.42 99.9751 109.89 99.9751Z" fill="white" stroke="#A52A21" stroke-width="5" stroke-miterlimit="10"/>
<path d="M183.59 122.815H171.03V106.255C171.03 102.785 173.84 99.9751 177.31 99.9751C180.78 99.9751 183.59 102.785 183.59 106.255V122.815Z" fill="white" stroke="#A52A21" stroke-width="5" stroke-miterlimit="10"/>
<path d="M130.27 103.025C131.83 97.6451 135.66 90.4451 143.26 90.4451C150.86 90.4451 154.7 97.6351 156.25 103.025H164.18C162.53 94.3751 155.18 84.5651 143.26 84.5651C131.34 84.5651 123.98 94.3751 122.34 103.025H130.27Z" fill="white" stroke="#A52A21" stroke-width="5" stroke-miterlimit="10"/>
<path d="M143.26 98.9951C169.45 98.9951 190.71 120.255 190.71 146.445V198.665H95.7998V146.445C95.7998 120.255 117.06 98.9951 143.25 98.9951H143.26Z" fill="white" stroke="#A52A21" stroke-width="5" stroke-miterlimit="10"/>
<path d="M129.24 135.525H158.33C169.2 135.525 178.03 144.355 178.03 155.225V197.455H109.54V155.225C109.54 144.355 118.37 135.525 129.24 135.525Z" fill="white" stroke="#A52A21" stroke-width="5" stroke-miterlimit="10"/>
<path d="M158.92 146.065H124.67V165.185H158.92V146.065Z" fill="white" stroke="#A52A21" stroke-width="5" stroke-miterlimit="10"/>
</svg>
