<svg width="261" height="261" viewBox="0 0 261 261" fill="none" xmlns="http://www.w3.org/2000/svg">
<path d="M148.178 99.1101H120.038V199.48H148.178V99.1101Z" fill="#F7674F" stroke="#A52A21" stroke-width="5" stroke-miterlimit="10"/>
<path d="M148.178 99.1101H120.038V108.41H148.178V99.1101Z" fill="white" stroke="#A52A21" stroke-width="5" stroke-miterlimit="10"/>
<path d="M138.347 112.63H129.857V193.01H138.347V112.63Z" fill="#F7674F" stroke="#A52A21" stroke-width="5" stroke-miterlimit="10"/>
<path d="M119.807 52.4401H101.377V199.48H119.807V52.4401Z" fill="#F7674F" stroke="#A52A21" stroke-width="5" stroke-miterlimit="10"/>
<path d="M100.308 91.9901H77.8379V199.48H100.308V91.9901Z" fill="white" stroke="#A52A21" stroke-width="5" stroke-miterlimit="10"/>
<path d="M100.308 91.9901H77.8379V101.95H100.308V91.9901Z" fill="white" stroke="#A52A21" stroke-width="5" stroke-miterlimit="10"/>
<path d="M92.4577 101.95H85.6777V192.55H92.4577V101.95Z" fill="white" stroke="#A52A21" stroke-width="5" stroke-miterlimit="10"/>
<path d="M100.308 189.52H77.8379V199.48H100.308V189.52Z" fill="white" stroke="#A52A21" stroke-width="5" stroke-miterlimit="10"/>
<path d="M77.8177 91.9901H55.3477V199.48H77.8177V91.9901Z" fill="white" stroke="#A52A21" stroke-width="5" stroke-miterlimit="10"/>
<path d="M71.1478 103.71H61.9878V139.51H71.1478V103.71Z" fill="white" stroke="#A52A21" stroke-width="5" stroke-miterlimit="10"/>
<path d="M119.787 66.16H101.377V110.94H119.787V66.16Z" fill="white" stroke="#A52A21" stroke-width="5" stroke-miterlimit="10"/>
<path d="M52.0776 71.7001C52.0776 71.7001 52.5276 71.4801 53.3276 71.2101C54.1176 70.9201 55.2576 70.5701 56.6076 70.2601C57.9676 69.9501 59.5476 69.6701 61.2476 69.4901C62.0976 69.4001 62.9776 69.3201 63.8676 69.2801C64.7576 69.2201 65.6676 69.2201 66.5676 69.2001C67.4776 69.2101 68.3776 69.2201 69.2676 69.2701C70.1576 69.3101 71.0376 69.3901 71.8876 69.4801C73.5876 69.6601 75.1676 69.9401 76.5276 70.2501C77.8876 70.5601 79.0176 70.9101 79.8076 71.2001C80.5976 71.4801 81.0576 71.7001 81.0576 71.7001C81.0576 71.7001 80.6076 71.9201 79.8076 72.2001C79.0176 72.4901 77.8776 72.8401 76.5276 73.1501C75.1676 73.4601 73.5876 73.7401 71.8876 73.9201C71.0376 74.0101 70.1576 74.0901 69.2676 74.1301C68.3776 74.1901 67.4676 74.1901 66.5676 74.2001C65.6576 74.1901 64.7576 74.1801 63.8676 74.1201C62.9776 74.0801 62.0976 74.0001 61.2476 73.9101C59.5476 73.7301 57.9676 73.4501 56.6076 73.1401C55.2476 72.8301 54.1176 72.4801 53.3276 72.1901C52.5376 71.9101 52.0776 71.7001 52.0776 71.7001Z" fill="#A52A21"/>
<path d="M66.5679 57.2001C66.5679 57.2001 66.7879 57.6501 67.0579 58.4501C67.3479 59.2401 67.6979 60.3801 68.0079 61.7301C68.3179 63.0901 68.5979 64.6701 68.7779 66.3701C68.8679 67.2201 68.9479 68.1001 68.9879 68.9901C69.0479 69.8801 69.0479 70.7901 69.0679 71.6901C69.0579 72.6001 69.0479 73.5001 68.9979 74.3901C68.9579 75.2801 68.8779 76.1601 68.7879 77.0101C68.6079 78.7101 68.3279 80.2901 68.0179 81.6501C67.7079 83.0101 67.3579 84.1401 67.0679 84.9301C66.7879 85.7201 66.5679 86.1801 66.5679 86.1801C66.5679 86.1801 66.3479 85.7301 66.0679 84.9301C65.7779 84.1401 65.4279 83.0001 65.1179 81.6501C64.8079 80.2901 64.5279 78.7101 64.3479 77.0101C64.2579 76.1601 64.1779 75.2801 64.1379 74.3901C64.0779 73.5001 64.0779 72.5901 64.0679 71.6901C64.0779 70.7801 64.0879 69.8801 64.1479 68.9901C64.1879 68.1001 64.2679 67.2201 64.3579 66.3701C64.5379 64.6701 64.8179 63.0901 65.1279 61.7301C65.4379 60.3701 65.7879 59.2401 66.0779 58.4501C66.3579 57.6601 66.5679 57.2001 66.5679 57.2001Z" fill="#A52A21"/>
<path d="M66.5674 77.3901C69.7099 77.3901 72.2574 74.8426 72.2574 71.7001C72.2574 68.5576 69.7099 66.0101 66.5674 66.0101C63.4249 66.0101 60.8774 68.5576 60.8774 71.7001C60.8774 74.8426 63.4249 77.3901 66.5674 77.3901Z" fill="white" stroke="#A52A21" stroke-width="5" stroke-miterlimit="10"/>
<path d="M175.897 109.09C175.897 109.09 176.347 108.87 177.147 108.6C177.937 108.31 179.077 107.96 180.427 107.65C181.787 107.34 183.367 107.06 185.067 106.88C185.917 106.79 186.797 106.71 187.687 106.67C188.577 106.61 189.487 106.61 190.387 106.59C191.297 106.6 192.197 106.61 193.087 106.66C193.977 106.7 194.857 106.78 195.707 106.87C197.407 107.05 198.987 107.33 200.347 107.64C201.707 107.95 202.837 108.3 203.627 108.59C204.417 108.87 204.877 109.09 204.877 109.09C204.877 109.09 204.427 109.31 203.627 109.59C202.837 109.88 201.697 110.23 200.347 110.54C198.987 110.85 197.407 111.13 195.707 111.31C194.857 111.4 193.977 111.48 193.087 111.52C192.197 111.58 191.287 111.58 190.387 111.59C189.477 111.58 188.577 111.57 187.687 111.51C186.797 111.47 185.917 111.39 185.067 111.3C183.367 111.12 181.787 110.84 180.427 110.53C179.067 110.22 177.937 109.87 177.147 109.58C176.357 109.3 175.897 109.09 175.897 109.09Z" fill="#A52A21"/>
<path d="M190.388 94.6001C190.388 94.6001 190.608 95.0501 190.878 95.8501C191.168 96.6401 191.518 97.7801 191.828 99.1301C192.138 100.49 192.418 102.07 192.598 103.77C192.688 104.62 192.768 105.5 192.808 106.39C192.868 107.28 192.868 108.19 192.888 109.09C192.878 110 192.868 110.9 192.818 111.79C192.778 112.68 192.698 113.56 192.608 114.41C192.428 116.11 192.148 117.69 191.838 119.05C191.528 120.41 191.178 121.54 190.888 122.33C190.608 123.12 190.388 123.58 190.388 123.58C190.388 123.58 190.168 123.13 189.888 122.33C189.598 121.54 189.248 120.4 188.938 119.05C188.628 117.69 188.348 116.11 188.168 114.41C188.078 113.56 187.998 112.68 187.958 111.79C187.898 110.9 187.898 109.99 187.888 109.09C187.898 108.18 187.908 107.28 187.968 106.39C188.008 105.5 188.088 104.62 188.178 103.77C188.358 102.07 188.638 100.49 188.948 99.1301C189.258 97.7701 189.608 96.6401 189.898 95.8501C190.178 95.0601 190.388 94.6001 190.388 94.6001Z" fill="#A52A21"/>
<path d="M190.387 114.78C193.53 114.78 196.077 112.233 196.077 109.09C196.077 105.948 193.53 103.4 190.387 103.4C187.245 103.4 184.697 105.948 184.697 109.09C184.697 112.233 187.245 114.78 190.387 114.78Z" fill="white" stroke="#A52A21" stroke-width="5" stroke-miterlimit="10"/>
<path fill-rule="evenodd" clip-rule="evenodd" d="M220.297 147.16V156.27V198.19V204.11V204.5L200.937 223.62H143.837V156.27V147.16H220.297Z" fill="white" stroke="#A52A21" stroke-width="5" stroke-miterlimit="10"/>
<path fill-rule="evenodd" clip-rule="evenodd" d="M127.857 133.21H204.317V184.24V190.56L184.957 209.67H127.857V133.21Z" fill="white" stroke="#A52A21" stroke-width="5" stroke-miterlimit="10"/>
<path d="M204.317 133.21H127.857V142.33H204.317V133.21Z" fill="white" stroke="#A52A21" stroke-width="5" stroke-miterlimit="10"/>
<path fill-rule="evenodd" clip-rule="evenodd" d="M202.908 191.59L186.378 208.23C185.858 208.76 184.958 208.39 184.958 207.64V190.16H202.318C203.058 190.16 203.428 191.05 202.908 191.58V191.59Z" fill="white" stroke="#A52A21" stroke-width="5" stroke-miterlimit="10"/>
<path fill-rule="evenodd" clip-rule="evenodd" d="M220.048 205.16L203.518 221.8C202.998 222.33 202.098 221.96 202.098 221.21V203.73H219.458C220.198 203.73 220.568 204.62 220.048 205.15V205.16Z" fill="white" stroke="#A52A21" stroke-width="5" stroke-miterlimit="10"/>
</svg>
