<svg width="261" height="261" viewBox="0 0 261 261" fill="none" xmlns="http://www.w3.org/2000/svg">
<path d="M85.0793 110.53C85.0793 110.53 85.5293 110.31 86.3293 110.04C87.1193 109.75 88.2594 109.4 89.6094 109.09C90.9694 108.78 92.5494 108.5 94.2494 108.32C95.0994 108.23 95.9794 108.15 96.8694 108.11C97.7594 108.05 98.6694 108.05 99.5694 108.03C100.479 108.04 101.379 108.05 102.269 108.1C103.159 108.14 104.039 108.22 104.889 108.31C106.589 108.49 108.169 108.77 109.529 109.08C110.889 109.39 112.019 109.74 112.809 110.03C113.599 110.31 114.059 110.53 114.059 110.53C114.059 110.53 113.609 110.75 112.809 111.03C112.019 111.32 110.879 111.67 109.529 111.98C108.169 112.29 106.589 112.57 104.889 112.75C104.039 112.84 103.159 112.92 102.269 112.96C101.379 113.02 100.469 113.02 99.5694 113.03C98.6594 113.02 97.7594 113.01 96.8694 112.95C95.9794 112.91 95.0994 112.83 94.2494 112.74C92.5494 112.56 90.9694 112.28 89.6094 111.97C88.2494 111.66 87.1193 111.31 86.3293 111.02C85.5393 110.74 85.0793 110.53 85.0793 110.53Z" fill="#7544AA"/>
<path d="M99.5693 96.0398C99.5693 96.0398 99.7893 96.4898 100.059 97.2898C100.349 98.0798 100.699 99.2198 101.009 100.57C101.319 101.93 101.599 103.51 101.779 105.21C101.869 106.06 101.949 106.94 101.989 107.83C102.049 108.72 102.049 109.63 102.069 110.53C102.059 111.44 102.049 112.34 101.999 113.23C101.959 114.12 101.879 115 101.789 115.85C101.609 117.55 101.329 119.13 101.019 120.49C100.709 121.85 100.359 122.98 100.069 123.77C99.7893 124.56 99.5693 125.02 99.5693 125.02C99.5693 125.02 99.3493 124.57 99.0693 123.77C98.7793 122.98 98.4293 121.84 98.1193 120.49C97.8093 119.13 97.5293 117.55 97.3493 115.85C97.2593 115 97.1793 114.12 97.1393 113.23C97.0793 112.34 97.0793 111.43 97.0693 110.53C97.0793 109.62 97.0893 108.72 97.1493 107.83C97.1893 106.94 97.2693 106.06 97.3593 105.21C97.5393 103.51 97.8193 101.93 98.1293 100.57C98.4393 99.2098 98.7893 98.0798 99.0793 97.2898C99.3593 96.4998 99.5693 96.0398 99.5693 96.0398Z" fill="#7544AA"/>
<path d="M99.5694 116.22C102.712 116.22 105.259 113.672 105.259 110.53C105.259 107.387 102.712 104.84 99.5694 104.84C96.4269 104.84 93.8794 107.387 93.8794 110.53C93.8794 113.672 96.4269 116.22 99.5694 116.22Z" fill="white" stroke="#7544AA" stroke-width="5" stroke-miterlimit="10"/>
<path d="M180.51 231.25C180.51 231.25 180.96 231.03 181.76 230.76C182.55 230.47 183.689 230.12 185.039 229.81C186.399 229.5 187.98 229.22 189.68 229.04C190.53 228.95 191.409 228.87 192.299 228.83C193.189 228.77 194.1 228.77 195 228.75C195.91 228.76 196.809 228.77 197.699 228.82C198.589 228.86 199.47 228.94 200.32 229.03C202.02 229.21 203.599 229.49 204.959 229.8C206.319 230.11 207.45 230.46 208.24 230.75C209.03 231.03 209.49 231.25 209.49 231.25C209.49 231.25 209.04 231.47 208.24 231.75C207.45 232.04 206.309 232.39 204.959 232.7C203.599 233.01 202.02 233.29 200.32 233.47C199.47 233.56 198.589 233.64 197.699 233.68C196.809 233.74 195.9 233.74 195 233.75C194.09 233.74 193.189 233.73 192.299 233.67C191.409 233.63 190.53 233.55 189.68 233.46C187.98 233.28 186.399 233 185.039 232.69C183.679 232.38 182.55 232.03 181.76 231.74C180.97 231.46 180.51 231.25 180.51 231.25Z" fill="#7544AA"/>
<path d="M195 216.75C195 216.75 195.22 217.2 195.49 218C195.78 218.79 196.13 219.93 196.44 221.28C196.75 222.64 197.029 224.22 197.209 225.92C197.299 226.77 197.379 227.65 197.419 228.54C197.479 229.43 197.48 230.34 197.5 231.24C197.49 232.15 197.48 233.05 197.43 233.94C197.39 234.83 197.309 235.71 197.219 236.56C197.039 238.26 196.759 239.84 196.449 241.2C196.139 242.56 195.79 243.69 195.5 244.48C195.22 245.27 195 245.73 195 245.73C195 245.73 194.78 245.28 194.5 244.48C194.21 243.69 193.859 242.55 193.549 241.2C193.239 239.84 192.959 238.26 192.779 236.56C192.689 235.71 192.61 234.83 192.57 233.94C192.51 233.05 192.51 232.14 192.5 231.24C192.51 230.33 192.519 229.43 192.579 228.54C192.619 227.65 192.699 226.77 192.789 225.92C192.969 224.22 193.25 222.64 193.56 221.28C193.87 219.92 194.22 218.79 194.51 218C194.79 217.21 195 216.75 195 216.75Z" fill="#7544AA"/>
<path d="M189.31 231.25C189.31 228.11 191.86 225.56 195 225.56C198.14 225.56 200.69 228.11 200.69 231.25C200.69 234.39 198.14 236.94 195 236.94C191.86 236.94 189.31 234.39 189.31 231.25Z" fill="white" stroke="#7544AA" stroke-width="5" stroke-miterlimit="10"/>
<path d="M198.959 153C195.359 147.52 193.289 141.17 193.469 134.61C193.469 134.28 193.479 133.95 193.479 133.62C193.479 118.33 183.61 105.48 170.19 101.66V57.5399H176.12V21.1499H148V57.5399H153.639V101.66C140.219 105.47 130.349 118.33 130.349 133.62C130.349 133.95 130.349 134.28 130.359 134.61C130.549 141.17 128.47 147.52 124.87 153C120.82 159.15 118.49 166.39 118.49 174.14C118.49 196.52 137.929 214.66 161.909 214.66C185.889 214.66 205.329 196.52 205.329 174.14C205.329 166.39 202.989 159.15 198.949 153H198.959Z" stroke="#7544AA" stroke-width="5" stroke-miterlimit="10"/>
<path d="M138.089 29.4199H148.009" stroke="#7544AA" stroke-width="5" stroke-miterlimit="10"/>
<path d="M138.089 38.52H148.009" stroke="#7544AA" stroke-width="5" stroke-miterlimit="10"/>
<path d="M138.089 47.6099H148.009" stroke="#7544AA" stroke-width="5" stroke-miterlimit="10"/>
<path d="M176.129 29.4199H186.049" stroke="#7544AA" stroke-width="5" stroke-miterlimit="10"/>
<path d="M176.129 38.52H186.049" stroke="#7544AA" stroke-width="5" stroke-miterlimit="10"/>
<path d="M176.129 47.6099H186.049" stroke="#7544AA" stroke-width="5" stroke-miterlimit="10"/>
<path d="M182.864 158.482C185.617 146.932 178.486 135.336 166.936 132.582C155.386 129.829 143.79 136.96 141.036 148.51C138.282 160.06 145.413 171.656 156.964 174.41C168.514 177.164 180.11 170.033 182.864 158.482Z" stroke="#7544AA" stroke-width="5" stroke-miterlimit="10"/>
<path d="M148.01 190.68H176.13" stroke="#7544AA" stroke-width="5" stroke-miterlimit="10"/>
<path d="M149.25 121.63V183.66" stroke="#7544AA" stroke-width="5" stroke-miterlimit="10"/>
<path d="M157.109 121.63V183.66" stroke="#7544AA" stroke-width="5" stroke-miterlimit="10"/>
<path d="M164.969 121.63V183.66" stroke="#7544AA" stroke-width="5" stroke-miterlimit="10"/>
<path d="M172.82 121.63V183.66" stroke="#7544AA" stroke-width="5" stroke-miterlimit="10"/>
<path d="M121.409 138.25H62.4094C56.0581 138.25 50.9094 143.399 50.9094 149.75V222.08C50.9094 228.431 56.0581 233.58 62.4094 233.58H121.409C127.761 233.58 132.909 228.431 132.909 222.08V149.75C132.909 143.399 127.761 138.25 121.409 138.25Z" fill="white" stroke="#7544AA" stroke-width="5" stroke-miterlimit="10"/>
<path d="M67.9094 173.25V220.58" stroke="#7544AA" stroke-width="5" stroke-miterlimit="10"/>
<path d="M76.5695 185.25H59.2395V192.25H76.5695V185.25Z" fill="white" stroke="#7544AA" stroke-width="5" stroke-miterlimit="10"/>
<path d="M90.9094 173.25V220.58" stroke="#7544AA" stroke-width="5" stroke-miterlimit="10"/>
<path d="M99.5695 199.26H82.2395V206.26H99.5695V199.26Z" fill="white" stroke="#7544AA" stroke-width="5" stroke-miterlimit="10"/>
<path d="M113.909 173.25V220.58" stroke="#7544AA" stroke-width="5" stroke-miterlimit="10"/>
<path d="M122.57 185.25H105.24V192.25H122.57V185.25Z" fill="white" stroke="#7544AA" stroke-width="5" stroke-miterlimit="10"/>
<path d="M73.9095 159.25C73.9095 162.2 71.5195 164.58 68.5795 164.58C65.6395 164.58 63.2495 162.19 63.2495 159.25C63.2495 156.31 65.6395 153.92 68.5795 153.92C71.5195 153.92 73.9095 156.31 73.9095 159.25Z" fill="white" stroke="#7544AA" stroke-width="5" stroke-miterlimit="10"/>
<path d="M96.2396 159.25C96.2396 162.2 93.8496 164.58 90.9096 164.58C87.9696 164.58 85.5796 162.19 85.5796 159.25C85.5796 156.31 87.9696 153.92 90.9096 153.92C93.8496 153.92 96.2396 156.31 96.2396 159.25Z" fill="white" stroke="#7544AA" stroke-width="5" stroke-miterlimit="10"/>
<path d="M118.569 159.25C118.569 162.2 116.179 164.58 113.239 164.58C110.299 164.58 107.909 162.19 107.909 159.25C107.909 156.31 110.299 153.92 113.239 153.92C116.179 153.92 118.569 156.31 118.569 159.25Z" fill="white" stroke="#7544AA" stroke-width="5" stroke-miterlimit="10"/>
</svg>
