<svg width="261" height="261" viewBox="0 0 261 261" fill="none" xmlns="http://www.w3.org/2000/svg">
<path d="M62.8945 96.085C62.8945 96.085 63.3445 95.865 64.1445 95.595C64.9345 95.305 66.0745 94.955 67.4245 94.645C68.7845 94.335 70.3645 94.0549 72.0645 93.8749C72.9145 93.7849 73.7945 93.705 74.6845 93.665C75.5745 93.605 76.4845 93.605 77.3845 93.585C78.2945 93.595 79.1945 93.605 80.0845 93.655C80.9745 93.695 81.8545 93.7749 82.7045 93.8649C84.4045 94.0449 85.9845 94.3249 87.3445 94.6349C88.7045 94.9449 89.8345 95.295 90.6245 95.585C91.4145 95.865 91.8745 96.085 91.8745 96.085C91.8745 96.085 91.4245 96.305 90.6245 96.585C89.8345 96.875 88.6945 97.225 87.3445 97.535C85.9845 97.845 84.4045 98.1249 82.7045 98.3049C81.8545 98.3949 80.9745 98.475 80.0845 98.515C79.1945 98.575 78.2845 98.575 77.3845 98.585C76.4745 98.575 75.5745 98.5649 74.6845 98.5049C73.7945 98.4649 72.9145 98.3849 72.0645 98.2949C70.3645 98.1149 68.7845 97.835 67.4245 97.525C66.0645 97.215 64.9345 96.865 64.1445 96.575C63.3545 96.295 62.8945 96.085 62.8945 96.085Z" fill="#7544AA"/>
<path d="M77.3945 81.585C77.3945 81.585 77.6145 82.035 77.8845 82.835C78.1745 83.625 78.5245 84.7649 78.8345 86.1149C79.1445 87.4749 79.4246 89.0549 79.6046 90.7549C79.6946 91.6049 79.7745 92.4849 79.8145 93.3749C79.8745 94.2649 79.8745 95.175 79.8945 96.075C79.8845 96.985 79.8745 97.885 79.8245 98.775C79.7845 99.665 79.7045 100.545 79.6145 101.395C79.4345 103.095 79.1545 104.675 78.8445 106.035C78.5345 107.395 78.1845 108.525 77.8945 109.315C77.6145 110.105 77.3945 110.565 77.3945 110.565C77.3945 110.565 77.1745 110.115 76.8945 109.315C76.6045 108.525 76.2545 107.385 75.9445 106.035C75.6345 104.675 75.3545 103.095 75.1745 101.395C75.0845 100.545 75.0045 99.665 74.9645 98.775C74.9045 97.885 74.9045 96.975 74.8945 96.075C74.9045 95.165 74.9145 94.2649 74.9745 93.3749C75.0145 92.4849 75.0945 91.6049 75.1845 90.7549C75.3645 89.0549 75.6445 87.4749 75.9545 86.1149C76.2645 84.7549 76.6145 83.625 76.9045 82.835C77.1845 82.045 77.3945 81.585 77.3945 81.585Z" fill="#7544AA"/>
<path d="M71.7046 96.085C71.7046 92.945 74.2546 90.395 77.3946 90.395C80.5346 90.395 83.0846 92.945 83.0846 96.085C83.0846 99.225 80.5346 101.775 77.3946 101.775C74.2546 101.775 71.7046 99.225 71.7046 96.085Z" fill="white" stroke="#7544AA" stroke-width="5" stroke-miterlimit="10"/>
<path d="M180.324 189.915C180.324 189.915 180.774 189.695 181.574 189.425C182.364 189.135 183.504 188.785 184.854 188.475C186.214 188.165 187.795 187.885 189.495 187.705C190.345 187.615 191.225 187.535 192.115 187.495C193.005 187.435 193.914 187.435 194.814 187.415C195.724 187.425 196.624 187.435 197.514 187.485C198.404 187.525 199.285 187.605 200.135 187.695C201.835 187.875 203.414 188.155 204.774 188.465C206.134 188.775 207.264 189.125 208.054 189.415C208.844 189.695 209.304 189.915 209.304 189.915C209.304 189.915 208.854 190.135 208.054 190.415C207.264 190.705 206.124 191.055 204.774 191.365C203.414 191.675 201.835 191.955 200.135 192.135C199.285 192.225 198.404 192.305 197.514 192.345C196.624 192.405 195.714 192.405 194.814 192.415C193.904 192.405 193.005 192.395 192.115 192.335C191.225 192.295 190.345 192.215 189.495 192.125C187.795 191.945 186.214 191.665 184.854 191.355C183.494 191.045 182.364 190.695 181.574 190.405C180.784 190.125 180.324 189.915 180.324 189.915Z" fill="#7544AA"/>
<path d="M194.824 175.415C194.824 175.415 195.044 175.865 195.314 176.665C195.604 177.455 195.954 178.595 196.264 179.945C196.574 181.305 196.854 182.885 197.034 184.585C197.124 185.435 197.205 186.315 197.245 187.205C197.305 188.095 197.304 189.005 197.324 189.905C197.314 190.815 197.305 191.715 197.255 192.605C197.215 193.495 197.134 194.375 197.044 195.225C196.864 196.925 196.584 198.505 196.274 199.865C195.964 201.225 195.614 202.355 195.324 203.145C195.044 203.935 194.824 204.395 194.824 204.395C194.824 204.395 194.604 203.945 194.324 203.145C194.034 202.355 193.685 201.215 193.375 199.865C193.065 198.505 192.784 196.925 192.604 195.225C192.514 194.375 192.434 193.495 192.394 192.605C192.334 191.715 192.334 190.805 192.324 189.905C192.334 188.995 192.344 188.095 192.404 187.205C192.444 186.315 192.525 185.435 192.615 184.585C192.795 182.885 193.075 181.305 193.385 179.945C193.695 178.585 194.044 177.455 194.334 176.665C194.614 175.875 194.824 175.415 194.824 175.415Z" fill="#7544AA"/>
<path d="M189.135 189.915C189.135 186.775 191.684 184.225 194.824 184.225C197.964 184.225 200.514 186.775 200.514 189.915C200.514 193.055 197.964 195.605 194.824 195.605C191.684 195.605 189.135 193.055 189.135 189.915Z" fill="white" stroke="#7544AA" stroke-width="5" stroke-miterlimit="10"/>
<path d="M211.945 133.645V64.4849H101.375V133.645H211.945Z" stroke="#7544AA" stroke-width="5" stroke-miterlimit="10"/>
<path d="M132.234 120.735C144.07 120.735 153.664 111.14 153.664 99.305C153.664 87.4695 144.07 77.875 132.234 77.875C120.399 77.875 110.804 87.4695 110.804 99.305C110.804 111.14 120.399 120.735 132.234 120.735Z" fill="#C183ED" stroke="#7544AA" stroke-width="5" stroke-miterlimit="10"/>
<path d="M130.895 83.3149C140.465 83.3149 148.234 91.075 148.234 100.655Z" fill="#C183ED"/>
<path d="M130.895 83.3149C140.465 83.3149 148.234 91.075 148.234 100.655" stroke="#7544AA" stroke-width="5" stroke-miterlimit="10"/>
<path d="M132.235 105.355C135.576 105.355 138.285 102.646 138.285 99.3049C138.285 95.9635 135.576 93.2549 132.235 93.2549C128.893 93.2549 126.185 95.9635 126.185 99.3049C126.185 102.646 128.893 105.355 132.235 105.355Z" fill="#C183ED" stroke="#7544AA" stroke-width="5" stroke-miterlimit="10"/>
<path d="M132.234 101.805C135.454 101.805 135.454 96.8049 132.234 96.8049C129.014 96.8049 129.014 101.805 132.234 101.805Z" fill="#7544AA"/>
<path d="M201.135 83.7549H160.814" stroke="#7544AA" stroke-width="5" stroke-miterlimit="10"/>
<path d="M201.135 97.1848H160.814" stroke="#7544AA" stroke-width="5" stroke-miterlimit="10"/>
<path d="M201.135 110.605H160.814" stroke="#7544AA" stroke-width="5" stroke-miterlimit="10"/>
<path d="M170.655 75.7949V91.1149" stroke="#7544AA" stroke-width="5" stroke-miterlimit="10"/>
<path d="M181.955 89.3848V104.705" stroke="#7544AA" stroke-width="5" stroke-miterlimit="10"/>
<path d="M170.655 102.695V118.015" stroke="#7544AA" stroke-width="5" stroke-miterlimit="10"/>
<path d="M188.654 158.815L159.904 133.645L135.604 158.225" stroke="#7544AA" stroke-width="5" stroke-miterlimit="10"/>
<path d="M73.8643 179.875V151.145C73.8643 135.955 86.1843 123.635 101.374 123.635C116.564 123.635 128.884 135.955 128.884 151.145V179.875" stroke="#7544AA" stroke-width="5" stroke-miterlimit="10"/>
<path d="M132.544 148.335H125.204C125.204 135.185 114.514 124.495 101.364 124.495C88.2143 124.495 77.5244 135.185 77.5244 148.335H70.1843C70.1843 131.145 84.1743 117.155 101.364 117.155C118.554 117.155 132.544 131.145 132.544 148.335Z" fill="white" stroke="#7544AA" stroke-width="5" stroke-miterlimit="10"/>
<path d="M69.8844 159.805C58.9144 159.805 50.0144 168.695 50.0144 179.675C50.0144 190.655 58.9044 199.545 69.8844 199.545V159.815V159.805Z" fill="white" stroke="#7544AA" stroke-width="5" stroke-miterlimit="10"/>
<path d="M73.8644 159.805C76.2244 159.805 78.1445 161.725 78.1445 164.085V195.265C78.1445 197.625 76.2244 199.545 73.8644 199.545C71.5044 199.545 69.5845 197.625 69.5845 195.265V164.085C69.5845 161.725 71.5044 159.805 73.8644 159.805Z" fill="white" stroke="#7544AA" stroke-width="5" stroke-miterlimit="10"/>
<path d="M132.854 159.805C143.824 159.805 152.724 168.695 152.724 179.675C152.724 190.655 143.834 199.545 132.854 199.545V159.815V159.805Z" fill="white" stroke="#7544AA" stroke-width="5" stroke-miterlimit="10"/>
<path d="M128.874 159.805C126.514 159.805 124.594 161.725 124.594 164.085V195.265C124.594 197.625 126.514 199.545 128.874 199.545C131.234 199.545 133.154 197.625 133.154 195.265V164.085C133.154 161.725 131.234 159.805 128.874 159.805Z" fill="white" stroke="#7544AA" stroke-width="5" stroke-miterlimit="10"/>
</svg>
