<svg width="260" height="261" viewBox="0 0 260 261" fill="none" xmlns="http://www.w3.org/2000/svg">
<path d="M33.6865 217.185C33.6865 217.185 34.1365 216.965 34.9365 216.695C35.7265 216.405 36.8666 216.055 38.2166 215.745C39.5766 215.435 41.1566 215.155 42.8566 214.975C43.7066 214.885 44.5866 214.805 45.4766 214.765C46.3666 214.705 47.2765 214.705 48.1765 214.685C49.0865 214.695 49.9866 214.705 50.8766 214.755C51.7666 214.795 52.6466 214.875 53.4966 214.965C55.1966 215.145 56.7765 215.425 58.1365 215.735C59.4965 216.045 60.6265 216.395 61.4165 216.685C62.2065 216.965 62.6665 217.185 62.6665 217.185C62.6665 217.185 62.2165 217.405 61.4165 217.685C60.6265 217.975 59.4865 218.325 58.1365 218.635C56.7765 218.945 55.1966 219.225 53.4966 219.405C52.6466 219.495 51.7666 219.575 50.8766 219.615C49.9866 219.675 49.0765 219.675 48.1765 219.685C47.2665 219.675 46.3666 219.665 45.4766 219.605C44.5866 219.565 43.7066 219.485 42.8566 219.395C41.1566 219.215 39.5766 218.935 38.2166 218.625C36.8566 218.315 35.7265 217.965 34.9365 217.675C34.1465 217.395 33.6865 217.185 33.6865 217.185Z" fill="#A52A21"/>
<path d="M48.1765 202.685C48.1765 202.685 48.3965 203.135 48.6665 203.935C48.9565 204.725 49.3066 205.865 49.6166 207.215C49.9266 208.575 50.2065 210.155 50.3865 211.855C50.4765 212.705 50.5566 213.585 50.5966 214.475C50.6566 215.365 50.6565 216.275 50.6765 217.175C50.6665 218.085 50.6566 218.985 50.6066 219.875C50.5666 220.765 50.4865 221.645 50.3965 222.495C50.2165 224.195 49.9366 225.775 49.6266 227.135C49.3166 228.495 48.9665 229.625 48.6765 230.415C48.3965 231.205 48.1765 231.665 48.1765 231.665C48.1765 231.665 47.9565 231.215 47.6765 230.415C47.3865 229.625 47.0366 228.485 46.7266 227.135C46.4166 225.775 46.1365 224.195 45.9565 222.495C45.8665 221.645 45.7866 220.765 45.7466 219.875C45.6866 218.985 45.6865 218.075 45.6765 217.175C45.6865 216.265 45.6965 215.365 45.7565 214.475C45.7965 213.585 45.8766 212.705 45.9666 211.855C46.1466 210.155 46.4266 208.575 46.7366 207.215C47.0466 205.855 47.3965 204.725 47.6865 203.935C47.9665 203.145 48.1765 202.685 48.1765 202.685Z" fill="#A52A21"/>
<path d="M42.4866 217.185C42.4866 214.045 45.0365 211.495 48.1765 211.495C51.3165 211.495 53.8666 214.045 53.8666 217.185C53.8666 220.325 51.3165 222.875 48.1765 222.875C45.0365 222.875 42.4866 220.325 42.4866 217.185Z" fill="white" stroke="#A52A21" stroke-width="5" stroke-miterlimit="10"/>
<path d="M183.447 60.885C183.447 60.885 183.897 60.665 184.697 60.395C185.487 60.105 186.627 59.755 187.977 59.445C189.337 59.135 190.917 58.855 192.617 58.675C193.467 58.585 194.347 58.505 195.237 58.465C196.127 58.405 197.037 58.405 197.937 58.385C198.847 58.395 199.746 58.405 200.636 58.455C201.526 58.495 202.406 58.575 203.256 58.665C204.956 58.845 206.536 59.125 207.896 59.435C209.256 59.745 210.387 60.095 211.177 60.385C211.967 60.665 212.427 60.885 212.427 60.885C212.427 60.885 211.977 61.105 211.177 61.385C210.387 61.675 209.246 62.025 207.896 62.335C206.536 62.645 204.956 62.925 203.256 63.105C202.406 63.195 201.526 63.275 200.636 63.315C199.746 63.375 198.837 63.375 197.937 63.385C197.027 63.375 196.127 63.365 195.237 63.305C194.347 63.265 193.467 63.185 192.617 63.095C190.917 62.915 189.337 62.635 187.977 62.325C186.617 62.015 185.487 61.665 184.697 61.375C183.907 61.095 183.447 60.885 183.447 60.885Z" fill="#A52A21"/>
<path d="M197.937 46.395C197.937 46.395 198.157 46.845 198.427 47.645C198.717 48.435 199.067 49.575 199.377 50.925C199.687 52.285 199.966 53.865 200.146 55.565C200.236 56.415 200.317 57.295 200.357 58.185C200.417 59.075 200.417 59.985 200.437 60.885C200.427 61.795 200.417 62.695 200.367 63.585C200.327 64.475 200.246 65.355 200.156 66.205C199.976 67.905 199.696 69.485 199.386 70.845C199.076 72.205 198.727 73.335 198.437 74.125C198.157 74.915 197.937 75.375 197.937 75.375C197.937 75.375 197.717 74.925 197.437 74.125C197.147 73.335 196.797 72.195 196.487 70.845C196.177 69.485 195.897 67.905 195.717 66.205C195.627 65.355 195.546 64.475 195.506 63.585C195.446 62.695 195.447 61.785 195.437 60.885C195.447 59.975 195.456 59.075 195.516 58.185C195.556 57.295 195.637 56.415 195.727 55.565C195.907 53.865 196.187 52.285 196.497 50.925C196.807 49.565 197.157 48.435 197.447 47.645C197.727 46.855 197.937 46.395 197.937 46.395Z" fill="#A52A21"/>
<path d="M192.247 60.8851C192.247 57.7451 194.797 55.1951 197.937 55.1951C201.077 55.1951 203.627 57.7451 203.627 60.8851C203.627 64.0251 201.077 66.5751 197.937 66.5751C194.797 66.5751 192.247 64.0251 192.247 60.8851Z" fill="white" stroke="#A52A21" stroke-width="5" stroke-miterlimit="10"/>
<path d="M191.017 192.685C213.108 192.685 231.017 174.776 231.017 152.685C231.017 130.594 213.108 112.685 191.017 112.685C168.925 112.685 151.017 130.594 151.017 152.685C151.017 174.776 168.925 192.685 191.017 192.685Z" fill="white" stroke="#A52A21" stroke-width="5" stroke-miterlimit="10"/>
<path d="M219.139 159.46C222.75 143.97 213.119 128.485 197.628 124.875C182.138 121.264 166.653 130.895 163.043 146.386C159.432 161.876 169.063 177.361 184.554 180.971C200.044 184.582 215.529 174.951 219.139 159.46Z" fill="#F7674F" stroke="#A52A21" stroke-width="5" stroke-miterlimit="10"/>
<path d="M68.9666 192.685C91.0579 192.685 108.967 174.776 108.967 152.685C108.967 130.594 91.0579 112.685 68.9666 112.685C46.8752 112.685 28.9666 130.594 28.9666 152.685C28.9666 174.776 46.8752 192.685 68.9666 192.685Z" fill="white" stroke="#A52A21" stroke-width="5" stroke-miterlimit="10"/>
<path d="M93.4137 167.956C101.755 154.413 97.5385 136.672 83.9954 128.331C70.4524 119.989 52.7115 124.206 44.37 137.749C36.0285 151.292 40.2452 169.033 53.7882 177.374C67.3312 185.716 85.0722 181.499 93.4137 167.956Z" fill="#F7674F" stroke="#A52A21" stroke-width="5" stroke-miterlimit="10"/>
<path d="M87.8666 151.125C87.8666 156.685 83.3665 161.185 77.8065 161.185C72.2465 161.185 67.7466 156.685 67.7466 151.125C67.7466 145.565 72.2465 141.065 77.8065 141.065C83.3665 141.065 87.8666 145.565 87.8666 151.125Z" fill="#F7674F" stroke="#A52A21" stroke-width="5" stroke-miterlimit="10"/>
<path d="M201.077 152.565C201.077 158.115 196.576 162.625 191.016 162.625C185.456 162.625 180.957 158.125 180.957 152.565C180.957 147.005 185.456 142.505 191.016 142.505C196.576 142.505 201.077 147.005 201.077 152.565Z" fill="#F7674F" stroke="#A52A21" stroke-width="5" stroke-miterlimit="10"/>
<path d="M114.374 106.101L108.699 107.196L118.438 157.676L124.113 156.581L114.374 106.101Z" fill="#F7674F" stroke="#A52A21" stroke-width="5" stroke-miterlimit="10"/>
<path d="M186.237 108.615L118.177 132.645L114.406 121.645L182.896 98.855L186.237 108.615Z" fill="#F7674F" stroke="#A52A21" stroke-width="5" stroke-miterlimit="10"/>
<path d="M130.897 106.025C130.747 107.625 128.487 108.925 125.857 108.925L101.807 111.485C99.1766 111.485 96.0366 107.635 95.9766 106.025C95.8666 102.675 100.337 103.125 102.967 103.125H126.407C129.037 103.125 131.047 104.425 130.897 106.025Z" fill="#F7674F" stroke="#A52A21" stroke-width="5" stroke-miterlimit="10"/>
<path d="M146.897 151.225C146.897 158.705 136.997 163.645 126.837 162.485L80.1267 157.165C77.6867 156.885 75.8667 154.235 75.8667 151.225C75.8667 148.215 77.6867 145.565 80.1267 145.285L126.837 139.965C136.987 138.805 146.897 143.745 146.897 151.225Z" fill="white" stroke="#A52A21" stroke-width="5" stroke-miterlimit="10"/>
<path d="M132.246 151.225C132.246 151.965 131.646 152.565 130.906 152.565C130.166 152.565 129.566 151.965 129.566 151.225C129.566 150.485 130.166 149.885 130.906 149.885C131.646 149.885 132.246 150.485 132.246 151.225Z" fill="#F7674F" stroke="#A52A21" stroke-width="5" stroke-miterlimit="10"/>
<path d="M191.487 155.005C188.967 155.405 186.607 153.685 186.207 151.175L176.427 89.555L185.536 88.105L195.317 149.725C195.717 152.245 193.997 154.605 191.487 155.005Z" fill="#F7674F" stroke="#A52A21" stroke-width="5" stroke-miterlimit="10"/>
<path d="M194.626 89.005C194.476 90.605 192.216 91.905 189.586 91.905H166.146C163.516 91.905 161.506 90.605 161.656 89.005C161.806 87.405 164.066 86.105 166.696 86.105H190.136C192.766 86.105 194.786 87.405 194.626 89.005Z" fill="#F7674F" stroke="#A52A21" stroke-width="5" stroke-miterlimit="10"/>
</svg>
