<svg width="60" height="60" viewBox="0 0 60 60" fill="none" xmlns="http://www.w3.org/2000/svg">
<mask id="mask0_2004_1521" style="mask-type:alpha" maskUnits="userSpaceOnUse" x="0" y="0" width="60" height="60">
<rect width="60" height="60" fill="#D9D9D9"/>
</mask>
<g mask="url(#mask0_2004_1521)">
<path d="M9.85794 37.7299C9.38236 36.6531 9.11621 35.4584 9.11621 34.2014C9.11621 29.4449 12.8969 25.5894 17.561 25.5894H27.0487C31.7129 25.5894 35.4935 29.4449 35.4935 34.2014C35.4935 38.958 31.7129 42.8135 27.0487 42.8135H17.561L16.839 47.6101C16.839 47.6101 10.3292 38.7978 9.86012 37.7344L9.85576 37.7277L9.85794 37.7299Z" fill="white"/>
<path d="M16.8388 48.5C16.5683 48.5 16.3087 48.371 16.1407 48.1463C15.0499 46.6713 9.61561 39.2895 9.0724 38.1215C9.06586 38.1059 9.05931 38.0903 9.05277 38.0748C8.5161 36.8489 8.24341 35.5474 8.24341 34.2015C8.24341 28.9621 12.4233 24.6995 17.5609 24.6995H27.0485C32.1861 24.6995 36.366 28.9621 36.366 34.2015C36.366 39.4408 32.1861 43.7034 27.0485 43.7034H18.3091L17.7005 47.7458C17.6481 48.0996 17.3907 48.3866 17.0504 48.4733C16.9806 48.4911 16.9086 48.5 16.8366 48.5H16.8388ZM10.6606 37.3784C10.9376 37.9724 13.573 41.67 16.2912 45.3809L16.6992 42.6756C16.7646 42.2418 17.1311 41.9214 17.5609 41.9214H27.0485C31.224 41.9214 34.6207 38.4574 34.6207 34.1992C34.6207 29.941 31.224 26.4771 27.0485 26.4771H17.5609C13.3854 26.4771 9.98866 29.941 9.98866 34.1992C9.98866 35.2983 10.2134 36.3617 10.654 37.3628C10.654 37.3673 10.6584 37.3717 10.6606 37.3784Z" fill="#515151"/>
<path d="M49.9352 29.9299C50.5439 28.5505 50.8842 27.0221 50.8842 25.4136C50.8842 19.3244 46.0455 14.3899 40.0745 14.3899H27.9298C21.9588 14.3899 17.1201 19.3244 17.1201 25.4136C17.1201 31.5028 21.9588 36.4373 27.9298 36.4373H40.0745L40.9995 42.5777C40.9995 42.5777 49.3309 31.2981 49.9309 29.9366L49.9352 29.9299Z" fill="#00A363"/>
<path d="M41.0015 43.4676C40.9317 43.4676 40.8597 43.4587 40.7877 43.4409C40.4474 43.3541 40.1922 43.0671 40.1376 42.7134L39.3261 37.3272H27.9296C21.4874 37.3272 16.2473 31.9833 16.2473 25.4136C16.2473 18.8439 21.4874 13.5 27.9296 13.5H40.0744C46.5165 13.5 51.7566 18.8439 51.7566 25.4136C51.7566 27.0889 51.4185 28.7107 50.7553 30.2391C50.74 30.2769 50.7248 30.3148 50.7051 30.3526C49.935 31.9433 42.5461 41.9636 41.6975 43.1116C41.5295 43.3385 41.2699 43.4653 40.9993 43.4653L41.0015 43.4676ZM27.9296 15.2798C22.4495 15.2798 17.9926 19.825 17.9926 25.4136C17.9926 31.0022 22.4495 35.5474 27.9296 35.5474H40.0744C40.5041 35.5474 40.8706 35.8678 40.9361 36.3016L41.5469 40.3507C44.6818 36.0769 48.7265 30.4527 49.13 29.585C49.1322 29.5784 49.1366 29.5717 49.1388 29.565C49.7169 28.2524 50.0114 26.8553 50.0114 25.4136C50.0114 19.825 45.5545 15.2798 40.0744 15.2798H27.9296Z" fill="#00A363"/>
<path d="M28.8306 25.6361C28.8306 26.3013 28.3027 26.8419 27.6482 26.8419C26.9938 26.8419 26.4658 26.3013 26.4658 25.6361C26.4658 24.9709 26.9938 24.4303 27.6482 24.4303C28.3027 24.4303 28.8306 24.9709 28.8306 25.6361Z" fill="white"/>
<path d="M35.1837 25.6361C35.1837 26.3013 34.6557 26.8419 34.0013 26.8419C33.3468 26.8419 32.8188 26.3013 32.8188 25.6361C32.8188 24.9709 33.3468 24.4303 34.0013 24.4303C34.6557 24.4303 35.1837 24.9709 35.1837 25.6361Z" fill="white"/>
<path d="M41.5384 25.6361C41.5384 26.3013 41.0105 26.8419 40.356 26.8419C39.7015 26.8419 39.1736 26.3013 39.1736 25.6361C39.1736 24.9709 39.7015 24.4303 40.356 24.4303C41.0105 24.4303 41.5384 24.9709 41.5384 25.6361Z" fill="white"/>
</g>
</svg>
