<svg width="61" height="60" viewBox="0 0 61 60" fill="none" xmlns="http://www.w3.org/2000/svg">
<mask id="mask0_2211_1222" style="mask-type:alpha" maskUnits="userSpaceOnUse" x="0" y="0" width="61" height="60">
<rect x="0.535645" width="60" height="60" fill="#D9D9D9"/>
</mask>
<g mask="url(#mask0_2211_1222)">
<path d="M32.4359 43.7318C32.1245 43.7318 31.8252 43.6118 31.5984 43.3957L21.4824 33.7426C21.2043 33.4785 21.0713 33.0975 21.1227 32.7194C21.1741 32.3413 21.4008 32.0082 21.7394 31.8252L47.6885 17.65C48.1753 17.383 48.7829 17.482 49.1609 17.8871C49.5388 18.2922 49.5871 18.9013 49.2818 19.3634L33.4487 43.1947C33.2522 43.4918 32.9287 43.6868 32.5719 43.7258C32.5266 43.7318 32.4812 43.7318 32.4389 43.7318H32.4359ZM24.3455 33.1425L32.2273 40.6651L44.5684 22.094L24.3455 33.1425Z" fill="#515151"/>
<path d="M19.227 30.6789C18.9338 30.6789 18.6435 30.5739 18.4168 30.3699L11.9348 24.5816C11.5841 24.2695 11.4511 23.7864 11.5871 23.3393C11.7232 22.8922 12.1102 22.5651 12.5757 22.5021L48.0997 17.512C48.7104 17.425 49.2878 17.8121 49.442 18.4032C49.5932 18.9973 49.2727 19.6095 48.6922 19.8225L19.6503 30.6039C19.5112 30.6549 19.3691 30.6789 19.227 30.6789ZM15.4811 24.5186L19.4931 28.1014L37.4606 21.4309L15.4811 24.5186Z" fill="#515151"/>
<path d="M19.7562 40.038C19.6866 40.038 19.6171 40.032 19.5445 40.02C18.9913 39.924 18.5771 39.4619 18.5468 38.9038L18.0208 29.5447C17.9906 29.0196 18.308 28.5365 18.8038 28.3534L47.8457 17.575C48.4383 17.356 49.1034 17.626 49.3695 18.1992C49.6355 18.7723 49.4088 19.4474 48.8525 19.7505L23.2693 33.7276L20.8657 39.3088C20.6722 39.7559 20.2308 40.038 19.7531 40.038H19.7562ZM20.4848 30.2948L20.6722 33.6526L21.2104 32.4073C21.3162 32.1613 21.5036 31.9572 21.7395 31.8282L33.1373 25.6018L20.4848 30.2978V30.2948Z" fill="#515151"/>
<path d="M19.7562 40.038C19.3783 40.038 19.0064 39.864 18.7706 39.5339C18.3836 38.9938 18.5106 38.2436 19.0548 37.8595L23.9979 34.3698C24.5421 33.9857 25.2979 34.1117 25.6849 34.6518C26.0719 35.192 25.9449 35.9421 25.4007 36.3262L20.4576 39.816C20.246 39.966 20.0011 40.038 19.7562 40.038Z" fill="#515151"/>
<path d="M42.2495 46.6215C47.4557 46.6215 51.6762 42.4326 51.6762 37.2654C51.6762 32.0982 47.4557 27.9093 42.2495 27.9093C37.0432 27.9093 32.8228 32.0982 32.8228 37.2654C32.8228 42.4326 37.0432 46.6215 42.2495 46.6215Z" fill="#00A363"/>
<path d="M46.7908 38.8183H37.7044C36.8399 38.8183 36.1398 38.1234 36.1398 37.2654C36.1398 36.4074 36.8399 35.7125 37.7044 35.7125H46.7908C47.6552 35.7125 48.3554 36.4074 48.3554 37.2654C48.3554 38.1234 47.6552 38.8183 46.7908 38.8183Z" fill="white"/>
<path d="M42.2497 43.3294C41.3852 43.3294 40.6851 42.6345 40.6851 41.7765V32.7581C40.6851 31.9002 41.3852 31.2053 42.2497 31.2053C43.1141 31.2053 43.8143 31.9002 43.8143 32.7581V41.7765C43.8143 42.6345 43.1141 43.3294 42.2497 43.3294Z" fill="white"/>
</g>
</svg>
