<svg width="60" height="60" viewBox="0 0 60 60" fill="none" xmlns="http://www.w3.org/2000/svg">
<mask id="mask0_2211_1254" style="mask-type:alpha" maskUnits="userSpaceOnUse" x="0" y="0" width="60" height="60">
<rect width="60" height="60" fill="#D9D9D9"/>
</mask>
<g mask="url(#mask0_2211_1254)">
<path d="M28.6162 49.5919C24.6692 49.5919 20.4956 48.4588 18.1865 46.4193C17.716 46.0053 17.6816 45.2975 18.1062 44.8386C18.5307 44.3798 19.2564 44.3462 19.7268 44.7603C22.7358 47.4153 30.2225 48.221 34.0318 46.2962C34.3502 46.134 34.8981 45.8122 34.964 45.4569C35.0874 44.7883 33.9371 43.5461 33.177 42.7264L32.8815 42.4074C32.4513 41.943 31.803 41.2436 31.4789 40.3623C31.0257 39.1314 31.3613 37.9367 32.4226 36.9995C35.793 34.0228 41.6934 34.7782 45.5974 35.2761C46.0191 35.3293 46.4092 35.3797 46.762 35.4188C47.3902 35.4916 47.8434 36.0455 47.7688 36.661C47.6942 37.2737 47.1234 37.7129 46.4952 37.643C46.1309 37.601 45.7293 37.5507 45.2991 37.4947C42.0262 37.0751 36.5474 36.3756 33.963 38.6585C33.3979 39.1593 33.3577 39.5818 34.5854 40.9023L34.8809 41.2212C36.0713 42.5026 37.5514 44.1 37.2244 45.8542C37.0408 46.8446 36.3208 47.6615 35.0903 48.2826C33.329 49.1722 31.0171 49.5891 28.619 49.5891L28.6162 49.5919Z" fill="#00A363"/>
<path d="M18.9552 46.7102C18.7889 46.7102 18.6254 46.6766 18.4705 46.6067C18.1176 46.4444 17.871 46.1199 17.8193 45.7422L16.2331 34.2577C16.1958 33.9835 16.2618 33.7066 16.4195 33.48L23.6882 23.039C24.0037 22.5858 24.6118 22.4207 25.1224 22.6529L33.0164 26.2451C33.527 26.4774 33.788 27.0369 33.636 27.5657L30.102 39.7048C30.0246 39.9706 29.8496 40.1972 29.6115 40.3455L19.5691 46.5368C19.3826 46.6515 19.1704 46.7102 18.9552 46.7102ZM18.5651 34.3836L19.8531 43.7139L28.0109 38.6837L31.1576 27.8706L25.0335 25.0841L18.5651 34.3808V34.3836Z" fill="#515151"/>
<path d="M33.2285 28.6931C33.065 28.6931 32.9015 28.6596 32.7438 28.5868L23.4529 24.3595C22.8792 24.0993 22.6296 23.4335 22.8992 22.8712L27.5949 13.0541C27.724 12.7855 27.9563 12.5757 28.2432 12.4749C28.53 12.3742 28.8455 12.3882 29.1209 12.5113L38.4118 16.7386C38.6872 16.8645 38.9023 17.0911 39.0056 17.3709C39.1089 17.6507 39.0945 17.9584 38.9683 18.227L34.2698 28.0469C34.0747 28.4525 33.6617 28.6931 33.2285 28.6931ZM25.4636 22.804L32.6749 26.0857L36.401 18.2941L29.1898 15.0125L25.4636 22.804Z" fill="#515151"/>
<path d="M18.9552 46.7102C18.7917 46.7102 18.6282 46.6767 18.4704 46.6039C17.8967 46.3437 17.6472 45.6779 17.9168 45.1155L22.5035 35.5251C22.7702 34.9655 23.4558 34.7221 24.0295 34.9851C24.6032 35.2453 24.8527 35.9112 24.5831 36.4735L19.9964 46.064C19.8014 46.4724 19.3883 46.7102 18.9552 46.7102Z" fill="#515151"/>
<path d="M24.2476 37.2709C23.8345 37.2709 23.4358 37.1841 23.0601 37.0135C21.6545 36.3728 21.0435 34.739 21.7004 33.3681C22.1622 32.4057 23.1633 31.7818 24.2533 31.7818C24.6664 31.7818 25.0651 31.8685 25.4409 32.0392C26.1236 32.3497 26.6399 32.8981 26.8952 33.5891C27.1533 34.2773 27.1189 35.0243 26.8005 35.6874C26.3387 36.6498 25.3376 37.2709 24.2505 37.2709H24.2476ZM24.2505 34.0199C24.0497 34.0199 23.8632 34.1347 23.7772 34.3137C23.6567 34.5655 23.7686 34.8676 24.0296 34.9851C24.2849 35.1027 24.6033 34.9851 24.718 34.739C24.7983 34.5739 24.7639 34.4256 24.7352 34.3529C24.7066 34.2801 24.6377 34.143 24.4685 34.0675C24.3996 34.0367 24.325 34.0199 24.2505 34.0199Z" fill="#515151"/>
</g>
</svg>
