<svg width="60" height="60" viewBox="0 0 60 60" fill="none" xmlns="http://www.w3.org/2000/svg">
<mask id="mask0_2211_1184" style="mask-type:alpha" maskUnits="userSpaceOnUse" x="0" y="0" width="60" height="60">
<rect width="60" height="60" fill="#D9D9D9"/>
</mask>
<g mask="url(#mask0_2211_1184)">
</g>
<path d="M29.9988 15.3888C29.3655 15.3888 28.8525 14.8953 28.8525 14.2861V12.4062C28.8525 11.797 29.3655 11.3035 29.9988 11.3035C30.6321 11.3035 31.1451 11.797 31.1451 12.4062V14.2861C31.1451 14.8953 30.6321 15.3888 29.9988 15.3888Z" fill="#515151"/>
<path d="M34.7816 16.246C34.647 16.246 34.5094 16.224 34.3747 16.1744C33.7815 15.9594 33.4863 15.3226 33.7099 14.752L34.4034 12.9933C34.6298 12.4227 35.2917 12.1387 35.8821 12.3538C36.4753 12.5688 36.7704 13.2055 36.5469 13.7761L35.8534 15.5348C35.6786 15.9759 35.243 16.246 34.7816 16.246Z" fill="#515151"/>
<path d="M25.2188 16.2461C24.7574 16.2461 24.3218 15.9759 24.147 15.5349L23.4535 13.7762C23.23 13.2056 23.5252 12.5688 24.1184 12.3538C24.7116 12.136 25.3735 12.4227 25.5971 12.9933L26.2906 14.752C26.5141 15.3226 26.2189 15.9594 25.6257 16.1744C25.491 16.224 25.3535 16.2461 25.2188 16.2461Z" fill="#515151"/>
<path d="M35.0166 45.0494H24.9838C24.6772 45.0494 24.382 44.9309 24.1671 44.7214C23.9579 44.5174 23.8404 44.2418 23.8375 43.9523C23.7802 43.4892 22.8345 41.3722 19.6508 36.3001C19.4559 36.0217 19.2668 35.724 19.092 35.418C19.092 35.418 19.092 35.4152 19.0891 35.4125C19.0805 35.4014 19.0748 35.3877 19.0662 35.3766C18.0632 33.6207 17.5359 31.6277 17.5359 29.6154C17.5359 23.0079 23.1268 17.6271 30.0016 17.6271C36.8764 17.6271 42.4645 23.0051 42.4645 29.6154C42.4645 31.6194 41.94 33.6042 40.9428 35.3573C40.9399 35.3656 40.9342 35.3711 40.9313 35.3794C40.7508 35.6964 40.5531 36.0079 40.3467 36.3056C37.5727 40.7216 36.2373 43.3569 36.1628 43.9523C36.1628 44.239 36.0425 44.5147 35.8333 44.7214C35.6183 44.9309 35.3232 45.0494 35.0166 45.0494ZM25.8836 42.8442H34.1167C34.5237 41.7498 35.5954 39.6024 38.3981 35.1423C38.4067 35.1258 38.4181 35.112 38.4296 35.0955C38.5987 34.8529 38.762 34.5965 38.911 34.3374C38.9139 34.3319 38.9167 34.3236 38.9225 34.3181C39.7392 32.8847 40.1719 31.2611 40.1719 29.6182C40.1719 24.2235 35.6098 19.8351 30.0016 19.8351C24.3935 19.8351 19.8284 24.2235 19.8284 29.6182C19.8284 31.2528 20.2554 32.8681 21.0635 34.2961C21.0693 34.3071 21.0779 34.3181 21.0836 34.3291C21.2355 34.5938 21.396 34.8501 21.565 35.0899C21.5765 35.1065 21.5851 35.1203 21.5966 35.1368C24.4021 39.5997 25.4738 41.7498 25.8808 42.8442H25.8836Z" fill="#515151"/>
<path d="M24.8427 33.466L29.1277 24.3797C29.6261 23.323 31.2225 23.8325 31.0165 24.9825L30.1712 29.7022C30.0537 30.3585 30.5991 30.9438 31.2621 30.8728L36.172 30.3467C37.0281 30.255 37.5922 31.2162 37.0946 31.9189L30.6023 41.0875C29.91 42.0652 28.3969 41.2202 28.8661 40.118L30.8127 35.545C31.1254 34.8105 30.4938 34.0238 29.7091 34.1703L25.9307 34.8756C25.1289 35.0252 24.4948 34.2037 24.8427 33.466Z" fill="#00A363"/>
<path d="M34.0078 48.6964H25.9896C24.3132 48.6964 22.9463 47.3843 22.9463 45.7689C22.9463 44.1536 24.3104 42.8414 25.9896 42.8414H34.0078C35.6871 42.8414 37.0512 44.1536 37.0512 45.7689C37.0512 47.3843 35.6871 48.6964 34.0078 48.6964ZM25.9896 45.0467C25.577 45.0467 25.2388 45.3692 25.2388 45.7689C25.2388 46.1686 25.5741 46.4911 25.9896 46.4911H34.0078C34.4205 46.4911 34.7586 46.1686 34.7586 45.7689C34.7586 45.3692 34.4233 45.0467 34.0078 45.0467H25.9896Z" fill="#515151"/>
</svg>
