<svg width="60" height="60" viewBox="0 0 60 60" fill="none" xmlns="http://www.w3.org/2000/svg">
<mask id="mask0_2211_1127" style="mask-type:alpha" maskUnits="userSpaceOnUse" x="0" y="0" width="60" height="60">
<rect width="60" height="60" fill="#D9D9D9"/>
</mask>
<g mask="url(#mask0_2211_1127)">
</g>
<path d="M29.9986 15.3888C29.3653 15.3888 28.8523 14.8954 28.8523 14.2862V12.4062C28.8523 11.797 29.3653 11.3036 29.9986 11.3036C30.6319 11.3036 31.1448 11.797 31.1448 12.4062V14.2862C31.1448 14.8954 30.6319 15.3888 29.9986 15.3888Z" fill="#515151"/>
<path d="M34.7814 16.2461C34.6467 16.2461 34.5092 16.224 34.3745 16.1744C33.7813 15.9594 33.4861 15.3226 33.7096 14.752L34.4031 12.9933C34.6295 12.4227 35.2915 12.1388 35.8818 12.3538C36.475 12.5688 36.7702 13.2056 36.5467 13.7762L35.8532 15.5349C35.6784 15.976 35.2428 16.2461 34.7814 16.2461Z" fill="#515151"/>
<path d="M25.2187 16.2461C24.7573 16.2461 24.3217 15.976 24.1469 15.5349L23.4534 13.7762C23.2299 13.2056 23.525 12.5689 24.1182 12.3538C24.7114 12.1361 25.3734 12.4228 25.5969 12.9934L26.2904 14.7521C26.514 15.3227 26.2188 15.9594 25.6256 16.1744C25.4909 16.2241 25.3534 16.2461 25.2187 16.2461Z" fill="#515151"/>
<path d="M18.4131 31.2208C18.4131 31.2208 20.3276 23.0382 22.6286 21.2801C30.4846 15.278 35.6988 18.5563 41.4403 27.8863L39.1754 36.5057L35.0229 43.4893H25.9631L18.4131 31.2208Z" fill="#00A363"/>
<path d="M35.0163 45.0495H24.9836C24.6769 45.0495 24.3818 44.931 24.1668 44.7215C23.9576 44.5175 23.8401 44.2418 23.8373 43.9524C23.78 43.4893 22.8343 41.3722 19.6505 36.3001C19.4557 36.0217 19.2665 35.724 19.0917 35.418C19.0917 35.418 19.0917 35.4153 19.0888 35.4125C19.0802 35.4015 19.0745 35.3877 19.0659 35.3767C18.0629 33.6208 17.5356 31.6278 17.5356 29.6155C17.5356 23.008 23.1266 17.6271 30.0014 17.6271C36.8761 17.6271 42.4642 23.0052 42.4642 29.6155C42.4642 31.6195 41.9398 33.6042 40.9425 35.3574C40.9397 35.3657 40.9339 35.3712 40.9311 35.3794C40.7505 35.6964 40.5528 36.0079 40.3465 36.3057C37.5725 40.7217 36.2371 43.357 36.1626 43.9524C36.1626 44.2391 36.0422 44.5147 35.833 44.7215C35.6181 44.931 35.3229 45.0495 35.0163 45.0495ZM25.8834 42.8442H34.1165C34.5234 41.7499 35.5952 39.6025 38.3978 35.1424C38.4064 35.1258 38.4179 35.1121 38.4293 35.0955C38.5984 34.8529 38.7618 34.5966 38.9108 34.3375C38.9136 34.3319 38.9165 34.3237 38.9222 34.3182C39.739 32.8847 40.1717 31.2611 40.1717 29.6182C40.1717 24.2236 35.6095 19.8351 30.0014 19.8351C24.3932 19.8351 19.8282 24.2236 19.8282 29.6182C19.8282 31.2529 20.2552 32.8682 21.0633 34.2961C21.069 34.3071 21.0776 34.3182 21.0834 34.3292C21.2352 34.5938 21.3957 34.8502 21.5648 35.09C21.5763 35.1065 21.5849 35.1203 21.5963 35.1369C24.4018 39.5998 25.4736 41.7499 25.8805 42.8442H25.8834Z" fill="#515151"/>
<path d="M36.6728 33.5959C36.4722 33.3203 36.1455 33.1466 35.7959 33.1301C35.7959 33.1301 35.687 33.1246 35.4978 33.1246C33.5033 33.1246 31.3712 33.6373 30.096 34.9329C28.8208 33.6345 26.6887 33.1246 24.6942 33.1246C24.5051 33.1246 24.3962 33.1301 24.3962 33.1301C24.0466 33.1494 23.7199 33.3203 23.5193 33.5959C23.3187 33.8716 23.2556 34.2217 23.3559 34.547C24.1956 37.2484 26.1786 38.7976 28.8007 38.7976C28.8523 38.7976 28.8982 38.7976 28.9497 38.7948V43.9469C28.9497 44.5561 29.4627 45.0495 30.096 45.0495C30.7293 45.0495 31.2423 44.5561 31.2423 43.9469V38.7948C31.291 38.7948 31.3397 38.7976 31.3913 38.7976C34.0134 38.7976 35.9965 37.2484 36.8361 34.547C36.9364 34.2244 36.8762 33.8744 36.6728 33.5959Z" fill="white"/>
<path d="M34.0076 48.6964H25.9894C24.313 48.6964 22.946 47.3843 22.946 45.7689C22.946 44.1536 24.3101 42.8414 25.9894 42.8414H34.0076C35.6869 42.8414 37.0509 44.1536 37.0509 45.7689C37.0509 47.3843 35.6869 48.6964 34.0076 48.6964ZM25.9894 45.0467C25.5767 45.0467 25.2386 45.3692 25.2386 45.7689C25.2386 46.1686 25.5739 46.4911 25.9894 46.4911H34.0076C34.4202 46.4911 34.7584 46.1686 34.7584 45.7689C34.7584 45.3692 34.4231 45.0467 34.0076 45.0467H25.9894Z" fill="#515151"/>
</svg>
