<?xml version="1.0" encoding="utf-8"?>
<!-- Generator: Adobe Illustrator 23.0.1, SVG Export Plug-In . SVG Version: 6.00 Build 0)  -->
<svg version="1.1" id="Layer_1" xmlns="http://www.w3.org/2000/svg" xmlns:xlink="http://www.w3.org/1999/xlink" x="0px" y="0px"
	 viewBox="0 0 105 105" style="enable-background:new 0 0 105 105;" xml:space="preserve">
<style type="text/css">
	.st0{fill:none;}
	.st1{fill:none;stroke:#2DF1FD;stroke-width:3;stroke-linecap:round;stroke-linejoin:round;stroke-miterlimit:10;}
	.st2{fill:none;stroke:#2DF1FD;stroke-width:3;stroke-miterlimit:10;}
	.st3{fill:none;stroke:#444444;stroke-width:3;stroke-linecap:round;stroke-linejoin:round;stroke-miterlimit:10;}
	.st4{fill:#2DF1FD;}
	.st5{fill:none;stroke:#444444;stroke-width:3;stroke-linejoin:round;stroke-miterlimit:10;}
	.st6{fill:none;stroke:#000000;stroke-width:3;stroke-linecap:round;stroke-linejoin:round;stroke-miterlimit:10;}
	.st7{fill:none;stroke:#000000;stroke-width:3;stroke-linejoin:round;stroke-miterlimit:10;}
	.st8{fill:none;stroke:#444444;stroke-width:3;stroke-miterlimit:10;}
	.st9{fill:#444444;}
	.st10{fill:#FFFFFF;}
</style>
<g>
	<path class="st0" d="M3,3h99v99H3V3z"/>
	<g>
		<polyline class="st1" points="54.2,89.2 54.2,15.4 12.9,15.4 12.9,89.6 92.1,89.6 92.1,31.9 55.4,31.9 		"/>
		<rect x="21.2" y="73.1" class="st4" width="8.2" height="8.2"/>
		<rect x="21.2" y="56.6" class="st4" width="8.2" height="8.2"/>
		<rect x="21.2" y="40.1" class="st4" width="8.2" height="8.2"/>
		<rect x="21.2" y="23.6" class="st4" width="8.2" height="8.2"/>
		<rect x="37.7" y="73.1" class="st4" width="8.2" height="8.2"/>
		<rect x="37.7" y="56.6" class="st4" width="8.2" height="8.2"/>
		<rect x="37.7" y="40.1" class="st4" width="8.2" height="8.2"/>
		<rect x="37.7" y="23.6" class="st4" width="8.2" height="8.2"/>
		<rect x="70.7" y="48.4" class="st4" width="8.2" height="8.2"/>
		<rect x="70.7" y="64.9" class="st4" width="8.2" height="8.2"/>
		<rect x="54.3" y="48.4" class="st4" width="8.2" height="8.2"/>
		<rect x="54.3" y="64.9" class="st4" width="8.2" height="8.2"/>
	</g>
</g>
</svg>
