<?xml version="1.0" encoding="utf-8"?>
<!-- Generator: Adobe Illustrator 23.0.1, SVG Export Plug-In . SVG Version: 6.00 Build 0)  -->
<svg version="1.1" id="Layer_1" xmlns="http://www.w3.org/2000/svg" xmlns:xlink="http://www.w3.org/1999/xlink" x="0px" y="0px"
	 viewBox="0 0 105 105" style="enable-background:new 0 0 105 105;" xml:space="preserve">
<style type="text/css">
	.st0{fill:none;}
	.st1{fill:none;stroke:#2DF1FD;stroke-width:3;stroke-linecap:round;stroke-linejoin:round;stroke-miterlimit:10;}
	.st2{fill:none;stroke:#2DF1FD;stroke-width:3;stroke-miterlimit:10;}
	.st3{fill:none;stroke:#444444;stroke-width:3;stroke-linejoin:round;stroke-miterlimit:10;}
	.st4{fill:none;stroke:#444444;stroke-width:3;stroke-linecap:round;stroke-linejoin:round;stroke-miterlimit:10;}
	.st5{fill:none;stroke:#444444;stroke-linejoin:round;stroke-miterlimit:10;}
	.st6{fill:none;stroke:#444444;stroke-linecap:round;stroke-linejoin:round;stroke-miterlimit:10;}
	.st7{fill:#FADF34;stroke:#FADF34;stroke-width:2;stroke-linecap:round;stroke-miterlimit:10;}
	.st8{fill:#444444;}
	.st9{fill:#FADF34;}
	.st10{fill:#2DF1FD;}
	.st11{fill:none;stroke:#000000;stroke-width:3;stroke-linecap:round;stroke-linejoin:round;stroke-miterlimit:10;}
	.st12{fill:none;stroke:#000000;stroke-width:3;stroke-linejoin:round;stroke-miterlimit:10;}
	.st13{fill:none;stroke:#444444;stroke-width:3;stroke-miterlimit:10;}
	.st14{fill:#FFFFFF;}
	.st15{fill:#4038F9;}
</style>
<g>
	<path class="st0" d="M3,3h99v99H3V3z"/>
	<g>
		<path class="st4" d="M81.1,44.3c1.8,0,2.7,1.5,2.5,3.4c-0.2,1.9-1.4,3.4-3.2,3.4c-1.8,0-3.1-1.5-2.9-3.4
			C77.7,45.8,79.3,44.3,81.1,44.3z"/>
		<path class="st4" d="M9.1,64.3v-26l22.8,3.3c0,0,6.6,1.1,12.7,1.3c5.6,0.2,12.7-0.9,12.7-0.9s18.3-2.1,24.8-2.7
			c5.7-0.5,6.9,5,6.9,8.6c0,4.5-0.7,18.9-0.7,18.9s-23.9,5.4-31.5,6.8c-3.3,0.6-6.8,0.8-12.3,0.6c-6.1-0.2-9.4-1.1-12.7-2.1
			C26.1,70.4,9.1,64.3,9.1,64.3z"/>
		<path class="st4" d="M9.1,38.4L40,35.1c0,0,4.9-0.4,8.5-0.4c3.6,0,7.2,0.5,7.2,0.5L83,39.4"/>
		<line class="st4" x1="84" y1="57.7" x2="57.5" y2="62.2"/>
		<path class="st9" d="M83.9,58.1c12.4-0.7,18,7.5,18,7.5l-23.2,5.1c0,0-7.9-10.3-20.6-7.9C63.5,61.7,78.9,58.9,83.9,58.1z"/>
	</g>
</g>
</svg>
